<svg role="img" aria-label="Air Table" viewBox="0 0 20 16" version="1.1" xmlns="http://www.w3.org/2000/svg" xmlns:xlink="http://www.w3.org/1999/xlink">
    <path d="M8.50297526,0.201005913 L1.40356482,3.13865216 C1.00876445,3.3020401 1.01285453,3.86281162 1.41013047,4.0202797 L8.53924778,6.84738615 C9.16567583,7.0958047 9.86324979,7.0958047 10.4895702,6.84738615 L17.6187952,4.0202797 C18.0159635,3.86281162 18.0201612,3.3020401 17.6252532,3.13865216 L10.5259504,0.201005913 C9.8782109,-0.0670019706 9.15060718,-0.0670019706 8.50297526,0.201005913" fill="#FFBF00"></path>
    <path d="M10.1469076,8.39120841 L10.1469076,15.4537005 C10.1469076,15.7896252 10.4856308,16.0196385 10.7978762,15.8958597 L18.7418881,12.8123698 C18.9232509,12.7404705 19.0421861,12.5652429 19.0421861,12.3702106 L19.0421861,5.30771853 C19.0421861,4.97179379 18.7034629,4.7417806 18.3912176,4.86555935 L10.4472056,7.94904923 C10.2659505,8.02094854 10.1469076,8.19617622 10.1469076,8.39120841" fill="#26B5F8"></path>
    <path d="M8.29192714,8.75561302 L5.93431881,9.89394694 L5.69494149,10.0096531 L0.718175021,12.3942775 C0.402700681,12.5464715 4.30534752e-05,12.316566 4.30534752e-05,11.9661107 L4.30534752e-05,5.33738238 C4.30534752e-05,5.21058989 0.0650538011,5.10112643 0.152237089,5.01867903 C0.188617275,4.98219121 0.229840978,4.95216141 0.272679185,4.92837436 C0.39161441,4.85701323 0.561245103,4.83796207 0.705474245,4.89500792 L8.25231792,7.88517939 C8.63592439,8.03737347 8.66606184,8.57489607 8.29192714,8.75561302" fill="#ED3049"></path>
    <path d="M8.29192714,8.75561302 L5.93431881,9.89394694 L0.152237089,5.01867903 C0.188617275,4.98219121 0.229840978,4.95216141 0.272679185,4.92837436 C0.39161441,4.85701323 0.561245103,4.83796207 0.705474245,4.89500792 L8.25231792,7.88517939 C8.63592439,8.03737347 8.66606184,8.57489607 8.29192714,8.75561302" fill-opacity="0.25" fill="#000000"></path>
</svg>