<svg viewBox="0 0 22 24" version="1.1" xmlns="http://www.w3.org/2000/svg" xmlns:xlink="http://www.w3.org/1999/xlink">
    <g stroke="none" stroke-width="1" fill="none" fill-rule="evenodd">
        <g transform="translate(0.000000, -1.000000)" fill="#A4C639" fill-rule="nonzero">
            <path d="M21.146,10.227 C21.146,9.412 20.488,8.749 19.67,8.749 C18.852,8.749 18.19,9.409 18.19,10.229 L18.19,16.419 C18.19,17.229 18.853,17.899 19.673,17.899 C20.487,17.899 21.149,17.229 21.149,16.419 L21.149,10.219 L21.139,10.219 L21.146,10.227 Z M4.393,9.032 L4.397,18.632 C4.397,19.517 5.101,20.222 5.97,20.222 L7.033,20.222 L7.033,23.502 C7.033,24.322 7.693,24.984 8.503,24.984 C9.313,24.984 9.97,24.324 9.983,23.516 L9.983,20.236 L11.976,20.236 L11.976,23.516 C11.976,24.339 12.636,24.999 13.446,24.999 C14.269,24.999 14.928,24.339 14.928,23.509 L14.928,20.229 L16.006,20.229 C16.876,20.229 17.579,19.519 17.579,18.651 L17.579,9.021 L4.35,9.03 L4.39,9.032 L4.393,9.032 Z M14.041,6.102 C13.731,6.102 13.481,5.852 13.481,5.542 C13.481,5.237 13.731,4.984 14.041,4.982 C14.351,4.982 14.601,5.237 14.601,5.542 C14.601,5.852 14.351,6.102 14.041,6.102 Z M7.981,6.102 C7.671,6.102 7.421,5.852 7.421,5.542 C7.421,5.235 7.671,4.984 7.981,4.984 C8.291,4.984 8.541,5.239 8.541,5.554 C8.541,5.869 8.318,6.102 8,6.102 L7.981,6.102 Z M15.29,1.33 C15.35,1.225 15.304,1.104 15.214,1.045 C15.11,1 14.99,1.03 14.93,1.135 L13.88,3.035 C13.012,2.63 12.024,2.405 10.99,2.405 C9.956,2.405 8.972,2.62 8.098,3.008 L7.064,1.105 C7.011,1.007 6.884,0.97 6.786,1.025 C6.686,1.07 6.65,1.205 6.706,1.295 L7.736,3.17 C5.706,4.217 4.336,6.21 4.336,8.5 L17.664,8.5 C17.664,6.21 16.289,4.268 14.261,3.221 L15.29,1.33 Z M2.33,8.742 C1.513,8.742 0.85,9.407 0.85,10.225 L0.85,16.417 C0.85,17.237 1.514,17.897 2.334,17.897 C3.148,17.897 3.811,17.237 3.811,16.417 L3.811,10.227 C3.811,9.412 3.151,8.749 2.341,8.749 L2.33,8.742 Z"></path>
        </g>
    </g>
</svg>