<svg viewBox="0 0 39 16" version="1.1" xmlns="http://www.w3.org/2000/svg" xmlns:xlink="http://www.w3.org/1999/xlink">
    <g stroke="none" stroke-width="1" fill="none" fill-rule="evenodd">
        <g fill="#000000" fill-rule="nonzero">
            <path d="M7.0894923,2.05521175 C6.6347527,2.59366205 5.90716935,3.01835525 5.17958599,2.9576848 C5.08863808,2.22963931 5.44485076,1.45609098 5.86169539,0.978311128 C6.31643498,0.424693202 7.11222927,0.0303352287 7.75644366,0 C7.83223363,0.758380717 7.53665289,1.50159382 7.0894923,2.05521175 Z M7.7488647,3.10177714 C6.69538465,3.04110668 5.79348445,3.7008979 5.2932709,3.7008979 C4.78547835,3.7008979 4.02000003,3.13211236 3.18631077,3.14727998 C2.10251474,3.16244759 1.09450864,3.77673598 0.541242136,4.7550471 C-0.595606849,6.71166935 0.2456614,9.60868368 1.34461542,11.2012832 C1.88272394,11.9899992 2.52693836,12.8545532 3.3757856,12.8242179 C4.17915889,12.7938827 4.49747661,12.3009353 5.46758774,12.3009353 C6.44527787,12.3009353 6.72570062,12.8242179 7.57454786,12.8090503 C8.45371111,12.7938827 9.00697759,12.0203344 9.54508607,11.2316184 C10.1589845,10.3367292 10.4090913,9.46459139 10.4242493,9.41908853 C10.4090913,9.40392091 8.72655483,8.75929729 8.71139684,6.81784265 C8.69623885,5.19490792 10.0377207,4.42135958 10.0983526,4.37585674 C9.34045328,3.25345328 8.15813036,3.13211236 7.7488647,3.10177714 Z M13.8347963,0.902473054 L13.8347963,12.7256284 L15.6689127,12.7256284 L15.6689127,8.68345918 L18.2078754,8.68345918 C20.5270473,8.68345918 22.1565308,7.09085971 22.1565308,4.78538233 C22.1565308,2.47990495 20.5573633,0.902473054 18.2685074,0.902473054 L13.8347963,0.902473054 Z M15.6689127,2.44956972 L17.7834517,2.44956972 C19.3750403,2.44956972 20.2845195,3.29895613 20.2845195,4.79296613 C20.2845195,6.28697615 19.3750403,7.14394636 17.7758728,7.14394636 L15.6689127,7.14394636 L15.6689127,2.44956972 Z M25.5064459,12.8166342 C26.6584529,12.8166342 27.7270909,12.2326809 28.2121464,11.3074565 L28.2500414,11.3074565 L28.2500414,12.7256284 L29.9477359,12.7256284 L29.9477359,6.84059408 C29.9477359,5.13423746 28.5835171,4.03458542 26.484136,4.03458542 C24.5363348,4.03458542 23.096326,5.14940507 23.0432731,6.68133413 L24.6954936,6.68133413 C24.8319154,5.95328864 25.5064459,5.47550878 26.431083,5.47550878 C27.5527741,5.47550878 28.1818305,5.99879148 28.1818305,6.96193499 L28.1818305,7.61414241 L25.8929745,7.75065092 C23.7632774,7.87957566 22.6112705,8.75171352 22.6112705,10.2684749 C22.6112705,11.8004039 23.8011724,12.8166342 25.5064459,12.8166342 Z M25.9990804,11.4136298 C25.0213903,11.4136298 24.3999128,10.9434338 24.3999128,10.2229721 C24.3999128,9.47975894 24.9986534,9.04748193 26.1430813,8.97922768 L28.1818305,8.85030301 L28.1818305,9.51767803 C28.1818305,10.6249138 27.2420353,11.4136298 25.9990804,11.4136298 Z M32.2138549,15.9411627 C34.0024973,15.9411627 34.8437655,15.2586201 35.5789279,13.1882407 L38.8,4.14834253 L36.9355677,4.14834253 L34.7755546,11.1330289 L34.7376596,11.1330289 L32.5776466,4.14834253 L30.6601613,4.14834253 L33.7675485,12.7559637 L33.6008106,13.2792463 C33.3203879,14.1665518 32.8656483,14.5078232 32.054696,14.5078232 C31.9106951,14.5078232 31.6302724,14.4926555 31.5165875,14.4774879 L31.5165875,15.8956598 C31.6226934,15.9259951 32.077433,15.9411627 32.2138549,15.9411627 Z"></path>
        </g>
    </g>
</svg>