<svg role="img" aria-label="Behance" viewBox="0 0 26 16" version="1.1" xmlns="http://www.w3.org/2000/svg" xmlns:xlink="http://www.w3.org/1999/xlink">
    <path d="M7.51657143,0 C8.27720635,0 8.97066667,0.067047619 9.59707937,0.201396825 C10.2234921,0.335619048 10.760381,0.555809524 11.207746,0.861206349 C11.6551111,1.16698413 12.0019048,1.57346032 12.248,2.08063492 C12.4940952,2.58780952 12.6171429,3.21409524 12.6171429,3.95974603 C12.6171429,4.76520635 12.4344127,5.43631746 12.0690794,5.97307937 C11.7034921,6.50996825 11.1630476,6.94984127 10.4472381,7.29295238 C11.4314921,7.57638095 12.1659683,8.07250794 12.6507937,8.78057143 C13.1351111,9.48914286 13.3780317,10.3431111 13.3780317,11.3420952 C13.3780317,12.1474286 13.2214603,12.8448254 12.9080635,13.4340317 C12.5950476,14.0233651 12.1734603,14.504254 11.6443175,14.8765714 C11.1147937,15.2496508 10.5107302,15.5253333 9.83225397,15.7046349 C9.14952676,15.8839492 8.44645274,15.9740956 7.74057143,15.9728254 L0,15.9728386 L0,0 L7.51657143,0 Z M7.06920635,6.46539683 C7.69561905,6.46539683 8.21003175,6.31631746 8.6128254,6.01790476 C9.01549206,5.71974603 9.2167619,5.23492063 9.2167619,4.56380952 C9.2167619,4.19111111 9.14971429,3.88520635 9.01549206,3.64660317 C8.88126984,3.40812698 8.70234921,3.22133333 8.47860317,3.08736508 C8.25485714,2.95301587 7.9975873,2.86019048 7.70679365,2.80761905 C7.40769099,2.7547994 7.10449158,2.72862269 6.8007619,2.72939683 L3.51225397,2.72938015 L3.51225397,6.46552381 L7.06920635,6.46552381 L7.06920635,6.46539683 Z M7.27047619,13.2435556 C7.61333333,13.2435556 7.9415873,13.2099048 8.25473016,13.1428571 C8.56787302,13.0756825 8.84368254,12.9638095 9.08253968,12.8071111 C9.32088889,12.6507937 9.51111111,12.4380952 9.65295238,12.1695238 C9.79453968,11.9012063 9.86539683,11.5582222 9.86539683,11.1404444 C9.86539683,10.3205079 9.63403175,9.73511111 9.17193651,9.38450794 C8.70946032,9.03403175 8.09803175,8.85866667 7.33752381,8.85866667 L3.51225397,8.85866667 L3.51225397,13.2433016 L7.27047619,13.2435556 Z M17.7979683,12.9080635 C18.2751746,13.3707937 18.9612698,13.6015238 19.856127,13.6015238 C20.4971429,13.6015238 21.0491429,13.4415238 21.5113651,13.1206349 C21.9737143,12.800381 22.2571429,12.4608254 22.3615238,12.1027302 L25.1578413,12.1027302 C24.7106032,13.4896508 24.024254,14.4816508 23.0998095,15.0779683 C22.1748571,15.6746667 21.056254,15.9728254 19.744,15.9728254 C18.8342857,15.9728254 18.0138413,15.8274286 17.2831746,15.5365079 C16.552254,15.2458413 15.9332063,14.831873 15.4265397,14.2949841 C14.9193651,13.7582222 14.527873,13.1173333 14.2519365,12.3713016 C13.975873,11.6257778 13.8382222,10.8053333 13.8382222,9.91047619 C13.8382222,9.04571429 13.9795556,8.24038095 14.2632381,7.49460317 C14.5462857,6.74907937 14.9488254,6.104 15.4713651,5.55936508 C15.9930159,5.0152381 16.615873,4.5864127 17.3393016,4.27314286 C18.0624762,3.95987302 18.864127,3.80342857 19.744127,3.80342857 C20.7285079,3.80342857 21.5859048,3.99352381 22.3169524,4.37384127 C23.0474921,4.75403175 23.647873,5.26539683 24.1178413,5.90615873 C24.5875556,6.54755556 24.9266032,7.27847619 25.135873,8.0984127 C25.3446349,8.91885714 25.4189206,9.77625397 25.359619,10.6711111 L17.0152381,10.6711111 C17.0598095,11.6999365 17.320381,12.4459683 17.7979683,12.9080635 Z M21.3884444,6.8232381 C21.008254,6.40584127 20.4300952,6.1968254 19.6548571,6.1968254 C19.1476825,6.1968254 18.7264762,6.28279365 18.3909841,6.45409524 C18.0553651,6.62590476 17.7867937,6.83796825 17.5853968,7.09168254 C17.384254,7.34539683 17.2422857,7.61396825 17.1605079,7.89701587 C17.0783492,8.18044444 17.0298413,8.43403175 17.0149841,8.65765079 L22.1826032,8.65765079 C22.0335238,7.85219048 21.7688889,7.24088889 21.3884444,6.8232381 Z M16.4725079,0.811047619 L22.9291429,0.811047619 L22.9291429,2.60126984 L16.4725079,2.60126984 L16.4725079,0.811047619 Z" fill="#1769FF"></path>
</svg>