<svg role="img" aria-label="Google Chrome" viewBox="0 0 17 16" version="1.1" xmlns="http://www.w3.org/2000/svg" xmlns:xlink="http://www.w3.org/1999/xlink">
    <path d="M5.01015625,8.0005625 C5.01015625,9.649125 6.351375,10.99025 8,10.99025 C9.64853125,10.99025 10.989625,9.64909375 10.989625,8.0005625 C10.989625,6.352 9.6485,5.01078125 8,5.01078125 C6.351375,5.01075 5.01015625,6.35196875 5.01015625,8.0005625 Z" id="Path" fill="#73A1FB"></path>
    <path d="M14.8843438,4.0540625 C14.907625,4.01309375 14.9072188,3.96278125 14.883125,3.92221875 C14.1867188,2.74934375 13.1956875,1.766875 12.017125,1.08109375 C10.8024688,0.37421875 9.4133125,0.00059375 8,0.00059375 C5.55409375,0.00059375 3.27465625,1.09825 1.74609375,3.01209375 C1.712375,3.05428125 1.70796875,3.11275 1.73496875,3.1595 L3.98703125,7.06009375 C4.010625,7.101 4.0541875,7.12565625 4.1005625,7.12565625 C4.1064375,7.12565625 4.11240625,7.12525 4.11834375,7.1244375 C4.171125,7.11725 4.21428125,7.07884375 4.227625,7.02728125 C4.6716875,5.3066875 6.22296875,4.105 8,4.105 C8.11028125,4.105 8.22415625,4.11003125 8.338625,4.11978125 C8.34234375,4.12015625 8.346125,4.1203125 8.34984375,4.1203125 L14.7703438,4.1203125 C14.8175313,4.120375 14.8610625,4.09509375 14.8843438,4.0540625 Z" id="Path" fill="#DA143A"></path>
    <path d="M9.18215625,11.7999062 C9.14959375,11.7577812 9.09490625,11.7396875 9.04334375,11.7539375 C8.704625,11.84825 8.353625,11.8960625 8,11.8960625 C6.49753125,11.8960625 5.11275,11.0148437 4.47209375,9.651125 C4.47053125,9.64778125 4.46878125,9.6445 4.4669375,9.64125 L1.25434375,4.07703125 C1.2309375,4.036375 1.187625,4.01146875 1.14078125,4.01146875 C1.1405625,4.01146875 1.1403125,4.01146875 1.14009375,4.01146875 C1.093,4.01171875 1.04959375,4.0371875 1.02653125,4.0781875 C0.355,5.26978125 0,6.626125 0,8.0005625 C0,9.9286875 0.69559375,11.7911562 1.95865625,13.2448437 C3.2091875,14.6840625 4.93078125,15.6312187 6.8064375,15.911875 C6.8129375,15.912875 6.8194375,15.9132812 6.82590625,15.9132812 C6.87221875,15.9132812 6.91578125,15.888625 6.9394375,15.8477187 L9.19209375,11.9459375 C9.21871875,11.8997187 9.21478125,11.8420312 9.18215625,11.7999062 Z" id="Path" fill="#78B86D"></path>
    <path d="M15.3272188,4.9954375 L10.8170937,4.9954375 C10.7637812,4.9954375 10.7157812,5.0276875 10.6957187,5.077 C10.6755625,5.1263125 10.6872812,5.18296875 10.7253125,5.22021875 C11.4799375,5.96 11.8955312,6.947375 11.8955312,8.00053125 C11.8955312,8.7978125 11.6549688,9.5650625 11.1997812,10.2194375 C11.1976875,10.2224688 11.19575,10.2255625 11.1939062,10.2287813 L7.97571875,15.8026875 C7.95215625,15.8435 7.9523125,15.8938125 7.97609375,15.9345312 C7.99965625,15.9747812 8.04278125,15.9994375 8.0893125,15.9994375 C8.08978125,15.9994375 8.0903125,15.9994375 8.09078125,15.9994375 C10.2085625,15.9758437 12.1958438,15.1332812 13.6865313,13.627125 C15.178375,12.1196875 16,10.1214688 16,8.0005625 C16,6.99246875 15.8147188,6.0094375 15.4492813,5.0786875 C15.4295625,5.0284375 15.3811563,4.9954375 15.3272188,4.9954375 Z" id="Path" fill="#F1CB30"></path>
</svg>