<svg viewBox="0 0 98 16" version="1.1" xmlns="http://www.w3.org/2000/svg" xmlns:xlink="http://www.w3.org/1999/xlink">
    <defs>
        <linearGradient x1="19.4143743%" y1="9.06316954%" x2="88.6006499%" y2="80.4988417%" id="linearGradient-1">
            <stop stop-color="#F34F26" offset="0%"></stop>
            <stop stop-color="#F69E35" offset="100%"></stop>
        </linearGradient>
    </defs>
    <g stroke="none" stroke-width="1" fill="none" fill-rule="evenodd">
        <path d="M51.6108222,0 C47.2225417,0 43.6622222,3.45955741 43.6622222,7.72932516 C43.6622222,12.2687747 47.0678582,15.6622222 51.6108222,15.6622222 C56.0403708,15.6622222 59.5377778,12.2239248 59.5377778,7.81844247 C59.5377778,3.4391711 56.0637465,0 51.6108222,0 Z" fill="url(#linearGradient-1)"></path>
        <path d="M4.68622222,0.485333333 C9.49688889,0.485333333 12.816,3.58044444 12.8497778,8 C12.8497778,10.1955556 11.8151111,12.3306667 10.08,13.7422222 C8.61688889,14.944 6.97066667,15.4844444 4.65777778,15.4844444 L0.330666667,15.4844444 L0.330666667,0.485333333 L4.68622222,0.485333333 Z M8.16,11.7564444 L8.16,11.7546667 C9.16266667,10.8533333 9.77422222,9.40977778 9.77422222,7.968 C9.77422222,6.52444444 9.16266667,5.14133333 8.16,4.24 C7.184,3.37066667 6.02666667,3.03644444 4.11022222,3.03644444 L3.31377778,3.03644444 L3.31377778,12.9297778 L4.11022222,12.9297778 C6.02666667,12.9297778 7.21422222,12.5688889 8.16,11.7564444 Z M14.1902222,0.485333333 L17.1413333,0.485333333 L17.1413333,15.4826667 L14.1902222,15.4826667 L14.1902222,0.485333333 Z M24.3911111,6.256 L24.3893333,6.256 C27.7688889,7.45955556 28.7431111,8.54222222 28.7431111,10.9155556 C28.7431111,13.8008889 26.5813333,15.8453333 23.5377778,15.8453333 C21.2835556,15.8453333 19.6373333,14.9422222 18.2666667,12.9902222 L20.1866667,11.1555556 C20.8568889,12.448 21.984,13.1395556 23.4168889,13.1395556 C24.7253333,13.1395556 25.6995556,12.2684444 25.6995556,11.0346667 C25.6995556,10.4035556 25.3937778,9.89333333 24.8142222,9.50222222 C24.5102222,9.32088889 23.9324444,9.05244444 22.7751111,8.63111111 C20.0035556,7.66933333 19.0293333,6.61688889 19.0293333,4.54222222 C19.0293333,2.07644444 21.1022222,0.245333333 23.7795556,0.245333333 C25.4187577,0.238925411 27.002646,0.837789633 28.2275556,1.92711111 L26.6755556,3.91111111 C25.9128889,3.07022222 25.1804444,2.71111111 24.2986667,2.71111111 C23.0186667,2.71111111 22.0764444,3.43111111 22.0764444,4.36088889 C22.0764444,5.17155556 22.624,5.59644444 24.3911111,6.256 Z M29.6888889,7.99822222 L29.6871111,7.99644444 C29.6871111,3.63733333 33.2817778,0.152888889 37.7564444,0.152888889 C39.0364444,0.152888889 40.1031111,0.423111111 41.4115556,1.08444444 L41.4115556,4.51377778 C40.1617778,3.34044444 39.0968889,2.83022222 37.6977778,2.83022222 C34.928,2.83022222 32.7342222,5.11288889 32.7342222,7.96977778 C32.7342222,11.0062222 34.8355556,13.1395556 37.8204444,13.1395556 C39.1591111,13.1395556 40.2257778,12.6595556 41.4133333,11.4862222 L41.4133333,14.9422222 C40.0426667,15.5733333 38.9777778,15.8133333 37.6977778,15.8133333 C33.1911111,15.8133333 29.6888889,12.3893333 29.6888889,7.99822222 Z M67.5857778,10.5546667 L71.6657778,0.485333333 L74.864,0.485333333 L68.3164444,15.8453333 L66.7324444,15.8453333 L60.3057778,0.485333333 L63.536,0.485333333 L67.5857778,10.5546667 Z M76.2328889,15.4826667 L76.2328889,0.485333333 L84.6097778,0.485333333 L84.6097778,3.03822222 L79.1875556,3.03822222 L79.1875556,6.34488889 L84.3946667,6.34488889 L84.3946667,8.90311111 L79.1875556,8.90311111 L79.1875556,12.928 L84.6097778,12.928 L84.6097778,15.4826667 L76.2328889,15.4826667 Z M96.3324444,4.93511111 C96.3324444,7.21955556 95.0844444,8.72 92.8622222,9.17155556 L97.6408889,15.4826667 L94.0195556,15.4826667 L89.9075556,9.44355556 L89.5111111,9.44355556 L89.5111111,15.4844444 L86.5564444,15.4844444 L86.5564444,0.485333333 L90.9404444,0.485333333 C94.3537778,0.485333333 96.3324444,2.10844444 96.3324444,4.93511111 Z M90.3946667,7.39733333 L90.3964444,7.39555556 C92.2808889,7.39555556 93.2871111,6.58666667 93.2871111,5.08444444 C93.2871111,3.61244444 92.2808889,2.86044444 90.4248889,2.86044444 L89.5111111,2.86044444 L89.5111111,7.39733333 L90.3946667,7.39733333 Z" fill="#222222" fill-rule="nonzero"></path>
    </g>
</svg>