<svg viewBox="0 0 16 16" version="1.1" xmlns="http://www.w3.org/2000/svg" xmlns:xlink="http://www.w3.org/1999/xlink">
    <g stroke="none" stroke-width="1" fill="none" fill-rule="evenodd">
        <path d="M15.6300578,8.19578031 C15.6300578,7.54051714 15.5767093,7.06234717 15.4612537,6.56647399 L7.95375723,6.56647399 L7.95375723,9.52400987 L12.3604883,9.52400987 C12.2716763,10.2589986 11.7919075,11.3658769 10.7257342,12.1096561 L10.7107893,12.208672 L13.0845209,14.0414433 L13.2489763,14.0578035 C14.7593323,12.6675516 15.6300578,10.6220366 15.6300578,8.19578031" fill="#4285F4"></path>
        <path d="M7.94954187,16 C10.1005908,16 11.9064148,15.2928737 13.2254335,14.0731798 L10.7114012,12.128628 C10.0386492,12.5970802 9.13570668,12.9241071 7.94954187,12.9241071 C5.84273693,12.9241071 4.05461041,11.5364821 3.41719253,9.61849711 L3.32376153,9.62641839 L0.864530711,11.5267328 L0.832369942,11.6159995 C2.14247881,14.2145441 4.83354788,16 7.94954187,16" fill="#34A853"></path>
        <path d="M3.42196532,9.55386082 C3.25439658,9.05659089 3.15741829,8.52375358 3.15741829,7.9732244 C3.15741829,7.422634 3.25439658,6.8898579 3.41314911,6.39258797 L3.40871061,6.28668166 L0.927829832,4.34682081 L0.846659922,4.38569394 C0.308688863,5.46906043 0,6.68563625 0,7.9732244 C0,9.26081254 0.308688863,10.4773271 0.846659922,11.5606936 L3.42196532,9.55386082" fill="#FBBC05"></path>
        <path d="M7.97206814,3.07583199 C9.4727975,3.07583199 10.4851195,3.7210505 11.062356,4.26024575 L13.3179191,2.06824551 C11.9326493,0.786643773 10.1299252,0 7.97206814,0 C4.84621185,0 2.14662538,1.78539498 0.832369942,4.38393954 L3.41649685,6.38150289 C4.06480899,4.46351791 5.85859503,3.07583199 7.97206814,3.07583199" fill="#EB4335"></path>
    </g>
</svg>