<svg role="img" aria-label="Hacker News" viewBox="0 0 16 16" version="1.1" xmlns="http://www.w3.org/2000/svg" xmlns:xlink="http://www.w3.org/1999/xlink">
    <path d="M0,0 L16,0 L16,16 L0,16 L0,0 Z M7.46085331,9.04661331 L4.71456,3.90197333 L5.96965333,3.90197333 L7.58512,7.15776 C7.60997344,7.21575137 7.63896875,7.275813 7.67210669,7.33794669 C7.70524463,7.40008031 7.73423988,7.46428412 7.75909331,7.53056 C7.77566231,7.55541344 7.78808888,7.57819544 7.79637331,7.59890669 C7.80465781,7.61961787 7.81294219,7.63825769 7.82122669,7.65482669 C7.86264913,7.7376715 7.89992875,7.81844406 7.93306669,7.89714669 C7.96620463,7.97584931 7.99519988,8.04833744 8.02005331,8.11461331 C8.08632925,7.97377706 8.15881738,7.8225875 8.23752,7.66104 C8.31622263,7.4994925 8.39699513,7.33173419 8.47984,7.15776 L10.12016,3.90197333 L11.2882667,3.90197333 L8.51712,9.10874669 L8.51712,12.4266667 L7.46085331,12.4266667 L7.46085331,9.04661331 Z" fill="#FB651E" fill-rule="evenodd"></path>
</svg>