<svg role="img" aria-label="HTML" viewBox="0 0 15 16" version="1.1" xmlns="http://www.w3.org/2000/svg" xmlns:xlink="http://www.w3.org/1999/xlink">
    <polygon id="Path" fill="#E44D26" points="14.0511237 0.0421011299 12.7732602 14.3574131 7.02921611 15.9498508 1.30098773 14.3596559 0.0244776255 0.0421011299"></polygon>
    <polygon id="Path" fill="#F16529" points="7.03780069 14.7326594 11.6792689 13.4458632 12.7712881 1.21277354 7.03780069 1.21277354"></polygon>
    <polygon id="Path" fill="#EBEBEB" points="4.55368906 4.72479076 7.03780069 4.72479076 7.03780069 2.96878213 2.63461229 2.96878213 2.67664575 3.43988943 3.10823307 8.27891876 7.03780069 8.27891876 7.03780069 6.52294884 4.71416638 6.52294884"></polygon>
    <polygon id="Path" fill="#EBEBEB" points="4.94943 9.15694241 3.18669295 9.15694241 3.43270662 11.9140975 7.02971882 12.9126531 7.03780069 12.9104103 7.03780069 11.0834437 7.03010551 11.0854932 5.07444764 10.5574261"></polygon>
    <polygon id="Path" fill="#FFFFFF" points="7.03172959 8.27891876 9.19403585 8.27891876 8.99021036 10.5563047 7.03172959 11.0849131 7.03172959 12.9118024 10.6316034 11.9140975 10.6580144 11.6174271 11.0706538 6.99448148 11.1134993 6.52294884 7.03172959 6.52294884"></polygon>
    <polygon id="Path" fill="#FFFFFF" points="7.03172959 4.72049847 7.03172959 4.72479076 11.2732806 4.72479076 11.3085083 4.33009386 11.3885149 3.43988943 11.4305097 2.96878213 7.03172959 2.96878213"></polygon>
</svg>