<svg viewBox="0 0 16 16" version="1.1" xmlns="http://www.w3.org/2000/svg" xmlns:xlink="http://www.w3.org/1999/xlink">
    <polygon fill="#210B00" points="0.666658827 0.686709929 15.3333681 0.686709929 15.3333681 14.9534185 0.666658827 14.9534185"></polygon>
    <path d="M0.666658827,0.686709929 L15.3333681,0.686709929 L15.3333681,14.9534185 L0.666658827,14.9534185 L0.666658827,0.686709929 Z M0,15.6201042 L16.0000269,15.6201042 L16.0000269,0.0200511021 L0,0.0200511021 L0,15.6201042 Z M10.4800069,5.58006582 C10.4800069,5.52673956 10.5000042,5.50004956 10.5600231,5.50004956 L11.6066853,5.50004956 C11.6599846,5.50004956 11.6866747,5.5200469 11.6866747,5.58006582 L11.6866747,10.8400935 C11.6866747,10.8933928 11.6733431,10.9200829 11.6066853,10.9200829 L10.5733547,10.9200829 C10.5066969,10.9200829 10.4866726,10.8867539 10.4866726,10.8334277 L10.4866726,5.58006582 L10.4800069,5.58006582 Z M10.4066833,4.0667183 C10.4066833,3.6400545 10.7066703,3.3867279 11.0867005,3.3867279 C11.493367,3.3867279 11.7666909,3.66005184 11.7666909,4.0667183 C11.7666909,4.50671366 11.4800354,4.74670869 11.073369,4.74670869 C10.686673,4.74673556 10.4066833,4.50671366 10.4066833,4.0667183 Z M7.40667821,7.77340373 C7.22003632,7.03339443 6.78004096,5.42006017 6.61334265,4.64005618 L6.60001109,4.64005618 C6.46000279,5.42006017 6.10668947,6.74004626 5.82669975,7.77340373 L7.40667821,7.77340373 Z M5.55334893,8.85342167 L5.02667153,10.853425 C5.01333996,10.9067244 4.99334262,10.920056 4.9266848,10.920056 L3.94668046,10.920056 C3.88002264,10.920056 3.8666642,10.9000586 3.88002264,10.8200692 L5.77334662,4.19336815 C5.80667553,4.07338408 5.82667287,3.96670469 5.84000443,3.6400545 C5.84000443,3.59339402 5.86000178,3.57339668 5.89333069,3.57339668 L7.29333304,3.57339668 C7.33999352,3.57339668 7.35999086,3.58672824 7.3733493,3.6400545 L9.49333674,10.8334008 C9.5066683,10.8867002 9.49333674,10.920056 9.44001048,10.920056 L8.33332941,10.920056 C8.28000316,10.920056 8.24664737,10.9067244 8.23334268,10.8600908 L7.68666793,8.85342167 L5.55334893,8.85342167 Z" fill="#FF7F18" fill-rule="nonzero"></path>
</svg>