<svg viewBox="0 0 16 16" version="1.1" xmlns="http://www.w3.org/2000/svg" xmlns:xlink="http://www.w3.org/1999/xlink">
    <defs>
        <radialGradient cx="13.2861314%" cy="100.4724%" fx="13.2861314%" fy="100.4724%" r="130.546822%" id="radialGradient-1">
            <stop stop-color="#FA8F21" offset="9%"></stop>
            <stop stop-color="#D82D7E" offset="78%"></stop>
        </radialGradient>
    </defs>
    <g stroke="none" stroke-width="1" fill="none" fill-rule="evenodd">
        <g fill="url(#radialGradient-1)" fill-rule="nonzero">
            <path d="M5.33397336,8 C5.33397336,6.527296 6.5275571,5.33312 8.00032001,5.33312 C9.47308292,5.33312 10.6673067,6.527296 10.6673067,8 C10.6673067,9.472704 9.47308292,10.66688 8.00032001,10.66688 C6.5275571,10.66688 5.33397336,9.472704 5.33397336,8 M3.89225169,8 C3.89225169,10.2688 5.73142926,12.107904 8.00032001,12.107904 C10.2692108,12.107904 12.1083883,10.2688 12.1083883,8 C12.1083883,5.7312 10.2692108,3.892096 8.00032001,3.892096 C5.73142926,3.892096 3.89225169,5.7312 3.89225169,8 M11.3109804,3.729216 C11.3107684,4.2594093 11.7404203,4.68938778 12.2706348,4.68959985 C12.8008493,4.68981191 13.230845,4.26017725 13.2310571,3.72998395 C13.2312692,3.19979065 12.8016174,2.76981212 12.2714029,2.7696 L12.2710188,2.7696 C11.7410565,2.76984699 11.3114395,3.19927504 11.3109804,3.729216 M4.76819073,14.511808 C3.98819153,14.476288 3.56423857,14.346368 3.2824993,14.236608 C2.90898036,14.0912 2.6424737,13.918016 2.36227049,13.638208 C2.08206728,13.3584 1.90862034,13.09216 1.76384655,12.718656 C1.65401816,12.437056 1.52409296,12.012992 1.48863555,11.233024 C1.44984999,10.38976 1.44210568,10.136448 1.44210568,8.000064 C1.44210568,5.86368 1.45049002,5.611072 1.48863555,4.767104 C1.52415697,3.987136 1.6550422,3.563904 1.76384655,3.281472 C1.90926037,2.907968 2.0824513,2.641472 2.36227049,2.36128 C2.64208968,2.081088 2.90834033,1.907648 3.2824993,1.76288 C3.56411056,1.653056 3.98819153,1.523136 4.76819073,1.48768 C5.61148846,1.448896 5.86481059,1.441152 8.00032001,1.441152 C10.1358294,1.441152 10.3894076,1.449536 11.2334093,1.48768 C12.0134085,1.5232 12.4366575,1.65408 12.7191008,1.76288 C13.0926197,1.907648 13.3591264,2.081472 13.6393296,2.36128 C13.9195328,2.641088 14.0923397,2.907968 14.2377535,3.281472 C14.3475819,3.563072 14.4775071,3.987136 14.5129645,4.767104 C14.5517501,5.611072 14.5594944,5.86368 14.5594944,8.000064 C14.5594944,10.136448 14.5517501,10.389056 14.5129645,11.233024 C14.4774431,12.012992 14.3468779,12.436928 14.2377535,12.718656 C14.0923397,13.09216 13.9191488,13.358656 13.6393296,13.638208 C13.3595104,13.91776 13.0926197,14.0912 12.7191008,14.236608 C12.4374895,14.346432 12.0134085,14.476352 11.2334093,14.511808 C10.3901116,14.550592 10.1367895,14.558336 8.00032001,14.558336 C5.86385055,14.558336 5.61123245,14.550592 4.76819073,14.511808 M4.70194808,0.048448 C3.85026601,0.087232 3.26829073,0.222272 2.7600464,0.420032 C2.23368935,0.624256 1.78810352,0.89824 1.34283771,1.342784 C0.897571903,1.787328 0.624280971,2.2336 0.420048802,2.759936 C0.222280891,3.26848 0.0872354894,3.850112 0.048449938,4.70176 C0.00902436097,5.554752 0,5.827456 0,8 C0,10.172544 0.00902436097,10.445248 0.048449938,11.29824 C0.0872354894,12.149952 0.222280891,12.73152 0.420048802,13.240064 C0.624280971,13.76608 0.897635905,14.212864 1.34283771,14.657216 C1.78803952,15.101568 2.23368935,15.375168 2.7600464,15.579968 C3.26925077,15.777728 3.85026601,15.912768 4.70194808,15.951552 C5.55542222,15.990336 5.82768911,16 8.00032001,16 C10.1729509,16 10.4456658,15.990976 11.2986919,15.951552 C12.150438,15.912768 12.7320293,15.777728 13.2405936,15.579968 C13.7666307,15.375168 14.2125365,15.10176 14.6578023,14.657216 C15.1030681,14.212672 15.375783,13.76608 15.5805912,13.240064 C15.7783591,12.73152 15.9140446,12.149888 15.9521901,11.29824 C15.9909756,10.444608 16,10.172544 16,8 C16,5.827456 15.9909756,5.554752 15.9521901,4.70176 C15.9134045,3.850048 15.7783591,3.26816 15.5805912,2.759936 C15.375783,2.23392 15.1023641,1.788032 14.6578023,1.342784 C14.2132405,0.897536 13.7666307,0.624256 13.2412336,0.420032 C12.7320293,0.222272 12.150374,0.086592 11.299332,0.048448 C10.4463059,0.009664 10.1735909,0 8.00096004,0 C5.82832913,0 5.55542222,0.009024 4.70194808,0.048448"></path>
        </g>
    </g>
</svg>