<svg viewBox="0 0 17 16" version="1.1" xmlns="http://www.w3.org/2000/svg" xmlns:xlink="http://www.w3.org/1999/xlink">
    <path d="M16.2539683,8.35508946 C16.2539683,7.07015537 15.9217543,5.86299281 15.3391873,4.81402377 C17.8223481,-0.805896832 12.6784469,0.0172545975 12.3920477,0.0732925054 C11.3022618,0.286539462 10.2940338,0.628900787 9.36403181,1.06289166 C9.22689035,1.05516752 9.08891594,1.05092681 8.94988133,1.05092681 C5.47909024,1.05092681 2.57382764,3.47176443 1.83026519,6.71704083 C3.65959996,4.66476604 4.93983897,3.83669236 5.70649813,3.50531144 C5.58412346,3.61466109 5.4643235,3.72522236 5.34649244,3.83661663 C5.3072659,3.87364709 5.26947818,3.91120764 5.23078173,3.94846527 C5.15308593,4.02320773 5.07554158,4.0980259 4.99981468,4.17352563 C4.95475717,4.21843168 4.9109113,4.26371637 4.86653533,4.30892533 C4.79936557,4.37730672 4.73234726,4.44561239 4.66676777,4.51437241 C4.62019572,4.56321627 4.57475958,4.61221157 4.52902053,4.66113115 C4.46775747,4.72671065 4.40687303,4.79236587 4.34712451,4.85824827 C4.30070392,4.90943966 4.2550406,4.96063105 4.209453,5.01197389 C4.15280928,5.07573594 4.09669564,5.13949799 4.04133928,5.2034115 C3.99544877,5.25642033 3.94993691,5.30942916 3.90495513,5.36251372 C3.85247639,5.42445832 3.80067918,5.48640293 3.74941207,5.54834754 C3.70405166,5.60317382 3.6588427,5.65792436 3.61446673,5.71267491 C3.56645587,5.77189335 3.51950519,5.83103606 3.47263024,5.89010305 C3.4271941,5.94735258 3.38175796,6.00452639 3.33738199,6.0617002 C3.29512639,6.11614785 3.25408241,6.17036831 3.21273552,6.2246645 C3.16608775,6.28600329 3.11906134,6.34734208 3.07362519,6.40837797 C3.04113836,6.45207238 3.00993887,6.49531244 2.97805785,6.53885543 C2.68946262,6.9326353 2.42578155,7.31884254 2.18762044,7.68982863 C2.18701462,7.69073733 2.18640881,7.69164603 2.18587872,7.69255479 C2.12317684,7.79024248 2.06267105,7.88649137 2.00337689,7.98190724 C2.00019636,7.9870567 1.99686437,7.99228184 1.99368384,7.99750698 C1.93431395,8.09330152 1.87698869,8.1874301 1.82110223,8.28057416 C1.81913333,8.28383041 1.8170887,8.28716241 1.81511981,8.29041867 C1.66487763,8.54115041 1.52554013,8.78287073 1.40006065,9.0102786 C0.742221054,10.2024472 0.421971987,11.0353674 0.408113964,11.0848171 C-1.66922642,18.5115058 4.81420804,15.3752762 5.71891735,14.9071324 C6.69306819,15.388377 7.78974521,15.6592521 8.94988133,15.6592521 C12.1258676,15.6592521 14.8280307,13.6319672 15.8338354,10.800917 L11.995996,10.800917 C11.4281199,11.7603011 10.3348507,12.4101136 9.07884425,12.4101136 C7.23860483,12.4101136 5.74686057,11.0158299 5.74686057,9.29584476 L16.1938411,9.29584476 C16.2334463,8.98778768 16.2539683,8.673824 16.2539683,8.35508946 Z M14.889521,1.16739479 C15.5185086,1.5919198 16.0230012,2.25861945 15.1566097,4.50384637 C14.3256584,3.16749373 13.075483,2.11920622 11.5895697,1.54300022 C12.2655081,1.21654155 13.9394512,0.526063653 14.889521,1.16739479 Z M1.52251105,14.8922143 C1.01021857,14.366821 0.919649187,13.0871878 2.05010039,10.7554051 C2.62062686,12.3957255 3.75910511,13.7701688 5.23063028,14.6424669 C4.49880549,15.0452583 2.55595609,15.9521637 1.52251105,14.8922143 Z M5.73073074,7.298472 C5.78911618,5.62680061 7.2439814,4.28832761 9.03151498,4.28832761 C10.8189728,4.28832761 12.2739137,5.62680061 12.3322992,7.298472 L5.73073074,7.298472 Z" fill="#1EBBEE" ></path>
</svg>