<svg viewBox="0 0 16 16" version="1.1" xmlns="http://www.w3.org/2000/svg" xmlns:xlink="http://www.w3.org/1999/xlink">
    <path d="M14.5495758,0 L1.45042424,0 C0.649393937,0 0,0.649393937 0,1.45042424 L0,14.5495758 C0,15.3506061 0.649393937,16 1.45042424,16 L14.5495758,16 C15.3506061,16 16,15.3506061 16,14.5495758 L16,1.45042424 C16,0.649393937 15.3506061,0 14.5495758,0" id="Path" fill="#DC395F"></path>
    <path d="M5.34721212,5.03406061 C5.87909091,5.03406061 6.32460606,4.61715151 6.32460606,4.07078788 C6.32460606,3.52478788 5.87909091,3.108 5.34721212,3.108 C4.81533333,3.108 4.36987879,3.52478788 4.36987879,4.07078788 C4.36987879,4.61715151 4.81533333,5.03406061 5.34721212,5.03406061" id="Path" fill="#FFFFFF"></path>
    <path d="M3.32054546,10.1915758 C3.26315151,10.4359394 3.23430303,10.6998182 3.23430303,10.9150909 C3.23430303,11.7632728 3.69424243,12.3263636 4.67169697,12.3263636 C5.48236364,12.3263636 6.13951515,11.8449091 6.61266669,11.0676364 L6.32375756,12.2272121 L7.93345456,12.2272121 L8.85345456,8.53727275 C9.08339394,7.60296969 9.52896969,7.11806063 10.2046061,7.11806063 C10.7364243,7.11806063 11.0670303,7.44878788 11.0670303,7.99478788 C11.0670303,8.15303031 11.0526061,8.32533331 10.9951515,8.51224244 L10.5207273,10.208303 C10.4488485,10.4526667 10.4202424,10.6972121 10.4202424,10.9269697 C10.4202424,11.7321818 10.8944243,12.3211515 11.8862424,12.3211515 C12.734303,12.3211515 13.4098182,11.7752121 13.7835758,10.4671515 L13.1512121,10.2229697 C12.8349091,11.0993333 12.5618182,11.2577576 12.3462424,11.2577576 C12.1306061,11.2577576 12.0155757,11.1141212 12.0155757,10.8267879 C12.0155757,10.6974546 12.0444243,10.5538788 12.0874546,10.3810303 L12.5475151,8.72860606 C12.6624243,8.34060606 12.7056364,7.99654544 12.7056364,7.68042425 C12.7056364,6.444303 11.9581212,5.79921212 11.0526061,5.79921212 C10.2046061,5.79921212 9.34212119,6.56412119 8.91103031,7.3691515 L9.2271515,5.92418182 L6.76933331,5.92418182 L6.424303,7.19690906 L7.57424244,7.19690906 L6.86618181,10.0319394 C6.31006063,11.2680606 5.28860606,11.2881212 5.16042424,11.2593939 C4.94993939,11.2119394 4.81533333,11.132 4.81533333,10.8584849 C4.81533333,10.7006667 4.84406061,10.474 4.91593939,10.2006667 L5.99406061,5.92418182 L3.26315151,5.92418182 L2.91812121,7.19690906 L4.05357576,7.19690906 L3.32054546,10.1915758" fill="#FFFFFF"></path>
</svg>