<svg viewBox="0 0 16 16" version="1.1" xmlns="http://www.w3.org/2000/svg" xmlns:xlink="http://www.w3.org/1999/xlink">
    <path d="M10.0277917,13 C9.90279169,12.8194583 8.27604169,10.0041667 8.27604169,10.0041667 L13.576375,8.625 C13.7083333,8.58333331 13.75,8.55554169 13.8333333,8.6875 C13.9166667,8.81945831 15.583375,11.0832917 15.6319583,11.1597083 C15.6805417,11.236125 15.729125,11.28475 15.576375,11.3402917 C15.423625,11.3958333 10.4235833,13.0833333 10.326375,13.125 C10.2291667,13.1666667 10.1527917,13.1805417 10.0277917,13 Z M16,10.6947083 C15.503125,10.0252917 14.800875,9.08475 14.3517083,8.48375 C14.6494583,8.40454169 15.4036667,8.20370831 16,8.04479169 L16,10.6947083 Z M14.3465833,5.22008333 C14.4282917,5.20154167 14.4989167,5.17925 14.5991667,5.31670833 C14.6824583,5.43083333 15.64625,6.652125 16,7.10070831 L16,7.389875 C15.9907917,7.39216669 15.981375,7.39441669 15.97175,7.39654169 C15.852875,7.42254169 13.9067083,7.905375 13.9067083,7.905375 L12.315,5.72145833 C12.2704167,5.65833333 12.2332917,5.59516667 12.3447083,5.58033333 C12.456125,5.5655 14.264875,5.238625 14.3465833,5.22008333 Z M2.966,1.789625 C2.691875,1.80208333 1.14041667,1.927875 0.160541667,2.008375 C0.304083333,1.59295833 0.543625,1.21679167 0.880208331,0.880208331 C1.467,0.293416667 2.173625,0 3,0 L13,0 C13.826375,0 14.533,0.293416667 15.1197917,0.880208331 C15.7065833,1.467 16,2.173625 16,3 L16,6.38075 C15.5284583,5.79420833 15.0259167,5.16845833 14.8777083,4.98983333 C14.5880417,4.64070833 14.446875,4.70383333 14.2685833,4.72983333 C14.0902917,4.75583333 12.0104583,5.10495833 11.7690417,5.14579167 C11.527625,5.186625 11.375375,5.28320833 11.5239167,5.49120833 C11.6560417,5.67616667 13.0233333,7.614625 13.3245,8.04154169 L7.88866669,9.34375 L3.5655,2.116125 C3.39341667,1.86095833 3.35766667,1.77183333 2.966,1.789625 Z M10.5180417,13.97275 C10.826875,13.8791667 14.7724583,12.4626667 16,12.0136667 L16,13 C16,13.8264167 15.7065833,14.5329583 15.1197917,15.1197917 C14.533,15.7065833 13.826375,16 13,16 L3,16 C2.173625,16 1.467,15.7065833 0.880208331,15.1197917 C0.293416667,14.5329583 0,13.8264167 0,13 L0,4.60316667 C1.08058333,6.94745831 2.77516667,10.6010417 2.84175,10.7508333 C2.93670833,10.9644583 3.18354167,11.311 3.76158333,11.172125 C4.35379167,11.0298333 6.4075,10.4938333 7.52966669,10.1999167 C8.122625,11.2736667 9.33191669,13.4517917 9.55554169,13.763875 C9.854125,14.1805417 10.0596667,14.111625 10.5180417,13.97275 Z M3.77575,10.3305 C3.61329167,10.367625 3.61333333,10.3490417 3.59475,10.2933333 C3.57766667,10.2421667 0.533208333,3.96329167 0.00275,2.877375 C0.00683333331,2.76404167 0.016125,2.652875 0.0315416667,2.54420833 C0.554083333,2.50054167 2.811,2.29916667 2.90020833,2.29445833 C3.00025,2.28920833 2.98975,2.31025 3.02658333,2.37345833 C3.02658333,2.37345833 7.01529169,9.25841669 7.08491669,9.37904169 C7.15454169,9.49966669 7.11279169,9.53683331 7.04779169,9.55075 C6.98279169,9.56466669 3.93820833,10.2933333 3.77575,10.3305 Z" fill="#F35045"></path>
</svg>