<svg viewBox="0 0 16 16" version="1.1" xmlns="http://www.w3.org/2000/svg" xmlns:xlink="http://www.w3.org/1999/xlink">
    <defs>
        <linearGradient x1="14.6446136%" y1="14.644643%" x2="85.3551856%" y2="85.355357%" id="linearGradient-1">
            <stop stop-color="#2489BE" offset="0%"></stop>
            <stop stop-color="#0575B3" offset="100%"></stop>
        </linearGradient>
    </defs>
    <g fill="url(#linearGradient-1)" fill-rule="nonzero">
        <path d="M7.99998393,0 C3.58168575,0 0,3.58169294 0,8 C0,12.4183071 3.58168575,16 7.99998393,16 C12.4182821,16 16,12.4183071 16,8 C15.9999679,3.58169294 12.4182179,0 7.99998393,0 Z M5.86557312,11.8676333 L4.10909507,11.8676333 L4.10909507,6.19294307 L5.86557312,6.19294307 L5.86557312,11.8676333 Z M4.97896379,5.44980018 C4.40531699,5.44980018 3.94027525,4.98096596 3.94027525,4.40272316 C3.94027525,3.82441611 4.40538125,3.35561402 4.97896379,3.35561402 C5.55254633,3.35561402 6.01758808,3.82441611 6.01758808,4.40272316 C6.01762021,4.98099809 5.55257847,5.44980018 4.97896379,5.44980018 Z M12.4480039,11.8676333 L10.7000086,11.8676333 L10.7000086,8.88889246 C10.7000086,8.07191083 10.3896809,7.61586505 9.74367357,7.61586505 C9.04060038,7.61586505 8.6733032,8.09083643 8.6733032,8.88889246 L8.6733032,11.8676333 L6.98863944,11.8676333 L6.98863944,6.19294307 L8.6733032,6.19294307 L8.6733032,6.95722864 C8.6733032,6.95722864 9.18005185,6.01984938 10.3833188,6.01984938 C11.586618,6.01984938 12.4480039,6.75457375 12.4480039,8.27450146 L12.4480039,11.8676333 Z"></path>
    </g>
</svg>