<svg viewBox="0 0 16 16" version="1.1" xmlns="http://www.w3.org/2000/svg" xmlns:xlink="http://www.w3.org/1999/xlink">
    <path d="M11.9866667,7.56066667 L11.9873333,7.56066667 C11.8986667,7.44733333 11.8193333,7.264 11.7746667,7.05 C11.6946667,6.66933333 11.7033333,6.39333333 11.9253333,6.35733333 C12.1473333,6.32133333 12.254,6.552 12.334,6.93266667 C12.3873333,7.18866667 12.3773333,7.424 12.318,7.56066667 C12.208,7.54666667 12.0966667,7.54666667 11.9866667,7.56066667 Z M10.08,7.862 L10.08,7.86266667 C9.92133333,7.79266667 9.71466667,7.71466667 9.46533333,7.73 C9.11266667,7.752 8.80666667,7.90666667 8.71866667,7.89666667 C8.68133333,7.89133333 8.666,7.87533333 8.66066667,7.854 C8.64733333,7.78866667 8.74733333,7.68 8.854,7.602 C9.16930633,7.37102139 9.58234545,7.32147691 9.94333333,7.47133333 C10.1146667,7.544 10.276,7.674 10.3546667,7.80266667 C10.392,7.86466667 10.3993333,7.91266667 10.3746667,7.938 C10.3366667,7.978 10.2393333,7.932 10.08,7.862 Z M9.76,8.04466667 L9.76066667,8.04533333 C10.0453333,8.01133333 10.2546667,8.144 10.3033333,8.22266667 C10.324,8.25666667 10.3153333,8.27933333 10.3086667,8.28933333 C10.2866667,8.32533333 10.2366667,8.31866667 10.1333333,8.30666667 C9.90885088,8.27188157 9.6791872,8.29576659 9.46666667,8.376 C9.46666667,8.376 9.36133333,8.41866667 9.31466667,8.41866667 L9.28066667,8.40533333 L9.26466667,8.36733333 C9.26466667,8.32466667 9.30333333,8.264 9.366,8.20933333 C9.43933333,8.146 9.55333333,8.078 9.76,8.04466667 Z M11.3433333,8.71533333 C11.2026667,8.64666667 11.1293333,8.50733333 11.18,8.404 C11.2306667,8.302 11.3853333,8.27466667 11.5253333,8.344 C11.666,8.41266667 11.7393333,8.552 11.6886667,8.65533333 C11.638,8.75733333 11.4833333,8.78466667 11.3433333,8.71533333 Z M12.2466667,7.92466667 C12.3606667,7.92733333 12.4506667,8.056 12.4486667,8.21266667 C12.446,8.36933333 12.3506667,8.49466667 12.2366667,8.49266667 C12.1226667,8.49066667 12.0326667,8.362 12.0353333,8.20533333 C12.0373333,8.048 12.1326667,7.92266667 12.2466667,7.92466667 Z M4.57733333,10.7533333 L4.578,10.7533333 L4.578,10.7526667 C4.588,10.7646667 4.60466667,10.792 4.58466667,10.836 C4.55266667,10.9113333 4.42466667,11.0146667 4.242,11.008 C4.05466667,10.9926667 3.84533333,10.856 3.81666667,10.5146667 C3.80266667,10.3466667 3.866,10.142 3.90533333,10.0346667 C3.98066667,9.82733333 3.91266667,9.61066667 3.73533333,9.494 C3.6334302,9.42733237 3.50919853,9.4039243 3.39002105,9.42893531 C3.27084358,9.45394633 3.16650382,9.52532322 3.1,9.62733333 C3.046,9.712 3.01266667,9.81733333 2.99533333,9.874 L2.984,9.90866667 C2.944,10.0166667 2.88066667,10.048 2.83733333,10.042 C2.81733333,10.0393333 2.78933333,10.0253333 2.77133333,9.97666667 C2.722,9.842 2.76133333,9.462 3.014,9.18333333 C3.18159945,9.0035345 3.42552543,8.91544322 3.66933333,8.94666667 C3.92333333,8.97866667 4.13466667,9.13333333 4.264,9.38 C4.436,9.708 4.28266667,10.0526667 4.19066667,10.258 L4.164,10.3193333 C4.10733333,10.456 4.104,10.5753333 4.156,10.6553333 C4.20032262,10.7186875 4.27336644,10.7557097 4.35066667,10.754 C4.38669577,10.7535925 4.42253131,10.7486651 4.45733333,10.7393333 C4.50266667,10.7286667 4.54933333,10.718 4.57733333,10.7533333 Z M15.1273333,10.1293333 C15.356,10.1293333 15.7153333,10.3933333 15.7153333,11.0306667 C15.7153333,11.664 15.4533333,12.382 15.3913333,12.542 C14.4446667,14.8126667 12.1873333,16.0766667 9.498,15.9966667 C6.99133333,15.922 4.85333333,14.5966667 3.918,12.4366667 C3.352,12.4373333 2.76866667,12.1873333 2.32533333,11.794 C1.858,11.3793333 1.57,10.8433333 1.51333333,10.2833333 C1.46762203,9.87889958 1.51786914,9.46938563 1.66,9.088 L1.134,8.64266667 C-1.27,6.608 6.25066667,-1.76666667 8.65733333,0.336 C8.93101352,0.603868534 9.20434708,0.87209098 9.47733333,1.14066667 L9.924,0.950666667 C12.034,0.0746666667 13.746,0.498 13.748,1.89466667 C13.7493333,2.62066667 13.2873333,3.46733333 12.5473333,4.23533333 C12.816,4.48466667 13.0306667,4.874 13.154,5.32 C13.2573333,5.64866667 13.276,5.98333333 13.2846667,6.19666667 C13.298,6.49266667 13.312,7.18266667 13.3133333,7.19466667 L13.61,7.27733333 C14.1766667,7.436 14.58,7.648 14.7766667,7.856 C14.974,8.06266667 15.0713333,8.26333333 15.1073333,8.49866667 C15.14,8.688 15.136,9.02333333 14.886,9.39866667 L15.0126667,9.73866667 C15.0753333,9.93866667 15.1206667,10.1046667 15.1273333,10.1293333 Z M4.12533333,11.8293333 L4.12533333,11.83 C5.004,11.68 5.234,10.7233333 5.08933333,9.78466667 C4.926,8.724 4.21,8.35066667 3.724,8.324 C3.60180948,8.31778159 3.47931937,8.32673881 3.35933333,8.35066667 C2.49266667,8.52533333 2.00266667,9.264 2.09933333,10.224 C2.18666667,11.0933333 3.064,11.8253333 3.876,11.8473333 C3.95949736,11.8493983 4.04299841,11.8433702 4.12533333,11.8293333 Z M3.21866667,7.776 L3.218,7.776 C3.90533333,5.928 5.05266667,4.22533333 6.57133333,3.054 C7.69866667,2.112 8.914,1.43666667 8.914,1.43666667 C8.914,1.43666667 8.25933333,0.676666667 8.062,0.620666667 C6.84533333,0.291333333 4.22,2.106 2.542,4.50333333 C1.86333333,5.47333333 0.892,7.19133333 1.35666667,8.07466667 C1.414,8.184 1.738,8.46533333 1.912,8.61066667 C2.20266667,8.18733333 2.67866667,7.88066667 3.21866667,7.776 Z M11.7433333,11.4706667 L11.7433333,11.4713333 C11.7433333,11.4713333 10.7666667,11.926 9.21466667,11.4453333 C9.25733333,11.81 9.612,11.9733333 9.78133333,12.0393333 C9.99466667,12.1226667 10.228,12.1606667 10.228,12.1606667 C12.152,12.4926667 13.95,11.3906667 14.3546667,11.1133333 C14.3853333,11.0926667 14.4053333,11.1126667 14.3813333,11.1493333 L14.3413333,11.206 C13.846,11.8466667 12.514,12.5873333 10.7806667,12.5873333 C10.0253333,12.5873333 9.26933333,12.3206667 8.992,11.9106667 C8.562,11.2746667 8.97066667,10.3466667 9.688,10.4433333 L10.002,10.4786667 C10.8986667,10.5786667 12.1953333,10.4526667 13.2653333,9.95533333 C14.244,9.50066667 14.6133333,9 14.5573333,8.59466667 C14.542,8.48533333 14.494,8.37066667 14.3886667,8.26333333 C14.2126667,8.09066667 13.934,7.95666667 13.464,7.824 C13.3086667,7.78066667 13.2026667,7.75266667 13.0893333,7.71466667 C12.8873333,7.648 12.788,7.59466667 12.7653333,7.21466667 C12.7553333,7.048 12.7266667,6.46933333 12.716,6.22933333 C12.6973333,5.80933333 12.6473333,5.236 12.292,4.99933333 C12.2014307,4.93979039 12.0963101,4.90613335 11.988,4.902 C11.882,4.89666667 11.8293333,4.916 11.808,4.91933333 C11.6053333,4.95333333 11.4853333,5.062 11.336,5.18666667 C10.8926667,5.55666667 10.5186667,5.61733333 10.1026667,5.59933333 C9.85333333,5.58866667 9.59,5.55 9.288,5.532 L9.11133333,5.522 C8.41466667,5.486 7.66666667,6.08866667 7.54266667,6.94533333 C7.36933333,8.13733333 8.23133333,8.75333333 8.48,9.11466667 C8.51133333,9.158 8.548,9.21866667 8.548,9.27666667 C8.548,9.34533333 8.50333333,9.40066667 8.46,9.44733333 C7.74866667,10.18 7.52133333,11.3433333 7.78866667,12.3133333 C7.82181692,12.4324373 7.86416646,12.5487871 7.91533333,12.6613333 C8.544,14.1326667 10.4946667,14.818 12.4,14.1946667 C12.6492826,14.1129051 12.8912466,14.0103213 13.1233333,13.888 C13.540573,13.681806 13.9163693,13.4006932 14.232,13.0586667 C14.7373333,12.5293333 15.038,11.954 15.1546667,11.2453333 C15.212,10.866 15.128,10.7193333 15.014,10.6486667 C14.8926667,10.574 14.748,10.6 14.748,10.6 C14.748,10.6 14.6813333,10.1466667 14.4946667,9.73466667 C13.9386667,10.1733333 13.224,10.482 12.68,10.6386667 C11.8914402,10.861045 11.0712129,10.9498279 10.2533333,10.9013333 C9.72666667,10.8586667 9.37866667,10.7046667 9.248,11.1306667 C10.45,11.572 11.722,11.3833333 11.722,11.3833333 C11.7338593,11.3820288 11.7457476,11.385523 11.755015,11.3930371 C11.7642823,11.4005512 11.7701584,11.4114605 11.7713333,11.4233333 C11.7728594,11.443424 11.761676,11.4623293 11.7433333,11.4706667 Z M6.31533333,4.49333333 L6.31533333,4.49266667 C6.29466667,4.51733333 6.32533333,4.552 6.352,4.53266667 C6.86666667,4.15733333 7.57266667,3.80866667 8.49733333,3.58266667 C9.53333333,3.32933333 10.5306667,3.436 11.14,3.576 C11.1706667,3.58266667 11.1893333,3.53 11.1626667,3.51466667 C10.76,3.288 10.142,3.13466667 9.704,3.13133333 C9.69401952,3.13108604 9.68501314,3.12528461 9.68066103,3.11629961 C9.67630891,3.1073146 9.67734014,3.09665121 9.68333333,3.08866667 C9.762,2.98533333 9.85466667,2.89266667 9.95733333,2.81333333 C9.97933333,2.79666667 9.966,2.762 9.93933333,2.764 C9.31466667,2.802 8.60333333,3.10133333 8.194,3.38066667 C8.18493839,3.38660429 8.17318515,3.38646956 8.16426203,3.38032578 C8.15533892,3.37418199 8.1510196,3.36325037 8.15333333,3.35266667 C8.18466667,3.19933333 8.28533333,2.996 8.338,2.90133333 C8.35,2.87933333 8.326,2.85466667 8.30333333,2.866 C7.646,3.20266667 6.912,3.80266667 6.31533333,4.49333333 Z"></path>
</svg>