<svg viewBox="0 0 23 16" version="1.1" xmlns="http://www.w3.org/2000/svg" xmlns:xlink="http://www.w3.org/1999/xlink">
    <path d="M13.4231011,4.96089888 C13.7840899,4.6 14.1039101,4.28008989 14.3821124,4.00197753 C14.6594157,3.72458427 14.9238652,3.48089888 15.1740225,3.27244944 C15.4241798,3.06391011 15.6743371,2.84907865 15.9245843,2.62624719 C16.4800899,2.1541573 16.9386966,1.82058427 17.3002247,1.62579775 C17.6609438,1.43164045 18.008809,1.33402247 18.342382,1.33402247 C18.8144719,1.33402247 19.2386517,1.50804494 19.6137528,1.85510112 C19.9889438,2.2028764 20.1764494,2.59910112 20.1764494,3.04323596 C20.1764494,3.3767191 20.0860225,3.71739326 19.9055281,4.06462921 C19.7244944,4.41249438 19.3982022,4.89186517 18.9258427,5.50274157 C16.7582022,8.33752809 15.6743371,10.1717753 15.6743371,11.0054831 C15.6743371,11.3670112 15.8548315,11.5475056 16.2161798,11.5475056 C16.4937528,11.5475056 16.7999101,11.4294831 17.1334831,11.1929888 C17.4667865,10.9573034 17.8974382,10.5468764 18.4257079,9.96332584 C18.7031011,9.65779775 19.0438652,9.24080899 19.4469213,8.7127191 C19.849618,8.18498876 20.2038652,7.69860674 20.5100225,7.25366292 C20.8156404,6.80934831 21.072809,6.50319101 21.2812584,6.33662921 C21.4897079,6.16979775 21.7326742,6.08647191 22.0107865,6.08647191 C22.2883596,6.08647191 22.524764,6.18408989 22.7193708,6.37806742 C22.913618,6.57285393 23.011236,6.80934831 23.011236,7.08692135 C23.011236,7.61519101 22.7677303,8.31676404 22.2817079,9.19208989 C21.795236,10.0675056 21.1626067,10.9637753 20.3848989,11.8808989 C19.4118652,13.0480899 18.4185169,13.9516404 17.4044045,14.5904719 C16.389573,15.2296629 15.4658876,15.5494831 14.6322697,15.5494831 C13.8537528,15.5494831 13.2148315,15.2920449 12.7145169,14.7782472 C12.2142022,14.2642697 11.9642247,13.6044045 11.9642247,12.7981124 C11.9642247,12.3811236 11.9987416,11.9851685 12.0684045,11.6099775 C12.1375281,11.2346966 12.241618,10.8459326 12.3809438,10.4426966 C12.5197303,10.0400899 12.7145169,9.60907865 12.9646742,9.15038202 C13.2148315,8.69177528 13.5339326,8.18498876 13.9234157,7.62885393 C13.9508315,7.57348315 14.0205843,7.46211236 14.1319551,7.29537079 C13.408809,7.85168539 12.6937528,8.55298876 11.9849888,9.40062921 C11.2764045,10.2485393 10.5605393,11.3390562 9.83811236,12.6729888 C9.30975281,13.5626966 8.90669663,14.1528989 8.6291236,14.4446742 C8.35101124,14.7365393 8.00395506,14.8823371 7.58705618,14.8823371 C7.14211236,14.8823371 6.77411236,14.7228764 6.48224719,14.4030562 C6.19038202,14.0837753 6.04458427,13.6877303 6.04458427,13.2148315 C6.04458427,12.9094831 6.07901124,12.610427 6.14867416,12.3185618 C6.21779775,12.0268764 6.36386517,11.6308315 6.58660674,11.1306067 C6.7251236,10.7416629 6.90561798,10.3176629 7.12844944,9.85896629 C7.3505618,9.40062921 7.54534831,9.04611236 7.71208989,8.79613483 L8.50408989,7.42040449 C8.55946067,7.36503371 8.6428764,7.22624719 8.75424719,7.00350562 C8.19793258,7.44844944 7.65608989,7.95577528 7.12844944,8.52503371 C6.60008989,9.09501124 6.09276404,9.68575281 5.60692135,10.2968989 C5.12026966,10.9084045 4.68979775,11.5265618 4.31460674,12.1519101 C3.93932584,12.7771685 3.62669663,13.381573 3.37662921,13.9653034 C3.04305618,14.7435506 2.7447191,15.2640899 2.48026966,15.5285393 C2.21662921,15.7923596 1.87577528,15.9244944 1.4588764,15.9244944 C1.0421573,15.9244944 0.694921348,15.7577528 0.416719101,15.4243596 C0.13941573,15.0908764 0,14.6602247 0,14.1320449 C0,13.0762247 0.514426966,11.2556404 1.54229213,8.67101124 C2.12602247,7.19829213 2.75847191,5.83622472 3.43901124,4.58570787 C4.11982022,3.33510112 4.79397753,2.26552809 5.46085393,1.37564045 C5.84979775,0.875505618 6.18337079,0.521078652 6.46148315,0.312808989 C6.7388764,0.104269663 7.04503371,0 7.37860674,0 C7.73950562,0 8.05213483,0.125123596 8.31658427,0.375191011 C8.58040449,0.625348315 8.71253933,0.931505618 8.71253933,1.29231461 C8.71253933,1.57042697 8.6501573,1.86229213 8.52503371,2.16782022 C8.4,2.47397753 8.10085393,3.00152809 7.62867416,3.75182022 C7.54534831,3.89141573 7.42022472,4.10624719 7.25348315,4.39793258 C7.08674157,4.68979775 6.87829213,5.05860674 6.62831461,5.50274157 L6.16961798,6.41977528 C7.00332584,5.41932584 7.73285393,4.57195506 8.35820225,3.87694382 C8.98346067,3.1825618 9.53195506,2.62624719 10.0048539,2.20952809 C10.4772135,1.79262921 10.9012135,1.48701124 11.2764045,1.29231461 C11.6514157,1.09833708 11.9914607,1.00062921 12.297618,1.00062921 C12.6865618,1.00062921 13.0201348,1.13276404 13.2982472,1.39658427 C13.5756404,1.66103371 13.7149663,1.98741573 13.7149663,2.37608989 C13.7149663,2.62624719 13.6589663,2.90444944 13.5482247,3.20997753 C13.4368539,3.51613483 13.2003596,3.98831461 12.8396404,4.62732584 L11.9642247,6.21150562 L11.6307416,6.83676404 L12.1307865,6.29492135 C12.6311011,5.76719101 13.0618427,5.32224719 13.4231011,4.96089888 Z" fill="#1991EB"></path>
</svg>