<svg viewBox="0 0 16 16" version="1.1" xmlns="http://www.w3.org/2000/svg" xmlns:xlink="http://www.w3.org/1999/xlink">
    <defs>
        <radialGradient cx="50%" cy="-50%" fx="50%" fy="-50%" r="99.999879%" gradientTransform="translate(0.500000,-0.500000),translate(-0.500000,0.500000)" id="radialGradient-1">
            <stop stop-color="#20C6B7" offset="0%"></stop>
            <stop stop-color="#4D9ABF" offset="100%"></stop>
        </radialGradient>
    </defs>
    <path d="M11.5957286,5.55241716 L11.5898802,5.54991345 C11.5865382,5.5486616 11.5831963,5.54740974 11.5802721,5.54448875 C11.5705576,5.53406579 11.5662364,5.51972919 11.5685753,5.50568128 L11.8914911,3.53359425 L13.4058119,5.04666822 L11.8309182,5.71599273 C11.8265415,5.71775572 11.8218506,5.71860768 11.8171327,5.71849643 L11.8108666,5.71849643 C11.8087778,5.71724458 11.8066891,5.71557544 11.8025117,5.71140259 C11.7439019,5.64621667 11.6738132,5.59232891 11.5957286,5.55241716 Z M13.7922248,5.43223919 L15.4113992,7.04963431 C15.7476828,7.38596569 15.9160335,7.55371413 15.9774418,7.74816875 C15.9866322,7.77696138 15.9941516,7.805754 16,7.83538125 L12.1304404,6.19837373 C12.1283611,6.19751603 12.1262723,6.19668141 12.1241743,6.19587002 C12.1087178,6.18961075 12.0907548,6.18251691 12.0907548,6.16666009 C12.0907548,6.15080328 12.1091356,6.14329216 12.1245921,6.13703289 L12.129605,6.13494646 L13.7922248,5.43223919 Z M15.9339965,8.35448325 C15.8504477,8.51138231 15.6875277,8.67412325 15.4118169,8.94994838 L13.5862771,10.7730648 L11.2251899,10.2819209 L11.2126576,10.2794171 C11.1917704,10.2760789 11.1696301,10.2723233 11.1696301,10.2535455 C11.1515037,10.0568754 11.0523986,9.87656638 10.8960079,9.75572494 C10.8863998,9.74612744 10.8889063,9.73110519 10.8918305,9.71733481 C10.8918305,9.71524838 10.8918305,9.71316194 10.892666,9.71149281 L11.3367275,6.9882935 L11.3383985,6.97911319 C11.3409049,6.958249 11.3446646,6.9340465 11.3634631,6.9340465 C11.5556936,6.91015919 11.7302769,6.81018475 11.8480457,6.65655225 C11.8518054,6.65237938 11.8543119,6.64778925 11.8593248,6.64528556 C11.8726926,6.63902625 11.8885669,6.64528556 11.9023524,6.6511275 L15.9335787,8.35448325 L15.9339965,8.35448325 Z M13.1664448,11.1924359 L10.1645388,14.191043 L10.6783635,11.0363714 L10.679199,11.0321986 C10.6796168,11.0280258 10.6804522,11.0238529 10.6817054,11.0200973 C10.6858829,11.0100825 10.6967442,11.0059096 10.7071878,11.0017368 L10.7122008,10.9996504 C10.8247057,10.9517021 10.9242103,10.8777635 11.0025326,10.7839143 C11.0125584,10.7722303 11.024673,10.7609636 11.0401295,10.7588771 C11.0441411,10.758223 11.0482324,10.758223 11.0522441,10.7588771 L13.166027,11.1928531 L13.1664448,11.1924359 Z M9.52915069,14.8257329 L9.19077831,15.1637334 L5.44988381,9.76323606 C5.44853104,9.76126075 5.44713827,9.759313 5.44570638,9.75739413 C5.43985797,9.74946569 5.43359181,9.74153731 5.43484504,9.732357 C5.43526279,9.7256805 5.43944022,9.7198385 5.44403541,9.71483106 L5.44821284,9.70940638 C5.45949192,9.692715 5.46910002,9.67602363 5.47954361,9.65808038 L5.48789849,9.64347544 L5.48915172,9.64222356 C5.49500013,9.63220875 5.5004308,9.62261119 5.51045664,9.6171865 C5.51922926,9.61301363 5.53134383,9.61468275 5.54095193,9.61676919 L9.68538681,10.4705335 C9.69697512,10.4723336 9.70790681,10.477075 9.71713531,10.4843039 C9.722566,10.4897286 9.72381925,10.4955706 9.72507244,10.5022471 C9.78367381,10.7237253 9.94254281,10.9051123 10.1545129,10.9925566 C10.1662098,10.9983985 10.1611968,11.0113343 10.1557662,11.0251048 C10.1530567,11.0311399 10.1509575,11.0374304 10.1495,11.0438826 C10.0972821,11.3610188 9.64946087,14.0892256 9.52915069,14.8257329 Z M8.82232837,15.5313612 C8.57293544,15.7779764 8.42588969,15.9085864 8.25962769,15.9611643 C8.09569506,16.0129453 7.91976144,16.0129453 7.75582881,15.9611643 C7.56116031,15.8994062 7.39280956,15.7316578 7.05652594,15.3953264 L3.29975719,11.6426859 L4.28103705,10.1225181 C4.28563223,10.115007 4.29022741,10.1083304 4.29774679,10.1029058 C4.30819039,10.0953946 4.32322916,10.0987329 4.33576147,10.1029058 C4.56099233,10.1707818 4.80281707,10.1585417 5.02002559,10.0682711 C5.03130467,10.0640983 5.04258374,10.0611773 5.05135636,10.0691057 C5.05574319,10.0731056 5.0596667,10.0775846 5.06305318,10.0824588 L8.82232837,15.5317784 L8.82232837,15.5313612 Z M2.93757343,11.2809002 L2.07576826,10.4200421 L3.77765594,9.69480144 C3.7820061,9.69290656 3.78669584,9.69191288 3.79144148,9.69188044 C3.80564476,9.69188044 3.81399964,9.70606813 3.82151902,9.71900394 C3.83862228,9.745288 3.85673808,9.77090063 3.87582569,9.79578431 L3.88125636,9.80246088 C3.88626929,9.80955469 3.88292734,9.8166485 3.87791441,9.82332506 L2.93799118,11.2809002 L2.93757343,11.2809002 Z M1.69436829,10.0390612 L0.604057336,8.94994838 C0.418579149,8.76467406 0.28406569,8.63030838 0.19049111,8.51472056 L3.50570481,9.201571 C3.5098693,9.202342 3.51404742,9.20303756 3.51823712,9.20365744 C3.53870656,9.20699569 3.56126472,9.21075125 3.56126472,9.22994638 C3.56126472,9.25081063 3.53661784,9.26040813 3.51573066,9.26833656 L3.50612256,9.27250938 L1.69436829,10.0390612 Z M0,7.95472463 C0.00377813897,7.88456631 0.0164103734,7.81516538 0.0375969296,7.74816875 C0.0994229919,7.55371413 0.267355944,7.38596569 0.604057336,7.04963431 L1.99932117,5.65590374 C2.64174121,6.58723281 3.28590306,7.51736181 3.93180335,8.44628588 C3.94308243,8.46130813 3.95561474,8.4779995 3.94266468,8.49051806 C3.88167411,8.55770088 3.82068353,8.63114294 3.77765594,8.71084431 C3.77298809,8.72108906 3.76580307,8.72998869 3.75676875,8.73671594 C3.75133809,8.74005425 3.74548967,8.73880238 3.73922352,8.73755056 L3.73838803,8.73755056 L0,7.95430731 L0,7.95472463 Z M2.372784,5.28285131 L4.24887079,3.40882615 C4.42515861,3.48602381 5.06681288,3.75684151 5.64079267,3.99886658 C6.07524607,4.18247181 6.47126706,4.34938565 6.59575469,4.40363264 C6.608287,4.40864006 6.61956606,4.41364748 6.62499675,4.42616601 C6.62833869,4.43367714 6.62666769,4.44327468 6.62499675,4.45120309 C6.56467075,4.72599342 6.64677887,5.01266403 6.84347669,5.21399934 C6.856009,5.22651788 6.84347669,5.24446113 6.83261531,5.25990065 L6.82676694,5.26866363 L4.92185582,8.21594481 C4.9168429,8.2242905 4.91224773,8.23138431 4.90389285,8.236809 C4.893867,8.24306831 4.87966372,8.24014731 4.86796689,8.23722631 C4.79387794,8.21783669 4.7177134,8.20746838 4.64113209,8.20634725 C4.57262212,8.20634725 4.49826375,8.21886575 4.42306989,8.23263619 L4.42265215,8.23263619 C4.41429727,8.233888 4.40677789,8.23555719 4.40009399,8.23054975 C4.39271179,8.22452338 4.38636237,8.21733531 4.38129552,8.20926825 L2.372784,5.28285131 Z M4.62776429,3.03034902 L7.05652594,0.604256334 C7.39280956,0.268342228 7.56116031,0.100176533 7.75582881,0.0388356963 C7.91976144,-0.0129452318 8.09569506,-0.0129452318 8.25962769,0.0388356963 C8.45429625,0.100176533 8.62264694,0.268342228 8.95893056,0.604256334 L9.48528756,1.13003493 L7.75791756,3.80232553 C7.75364431,3.810105 7.74781425,3.81692293 7.74079006,3.82235519 C7.73034644,3.82944903 7.71572544,3.82652804 7.70319313,3.82235519 C7.4267075,3.73854196 7.12663019,3.79630581 6.90112531,3.9767505 C6.88984619,3.98843447 6.8731365,3.98175791 6.85893319,3.97549864 C6.63335163,3.87743676 4.87882823,3.13675659 4.62776429,3.03034902 Z M9.8520665,1.49641081 L11.4470118,3.08960343 L11.0626877,5.4672911 L11.0626877,5.47355037 C11.0623445,5.47896923 11.0612189,5.48431008 11.0593457,5.48940718 C11.0551682,5.49775288 11.0468134,5.49942201 11.0384585,5.50192573 C10.956288,5.52678817 10.8788973,5.56529991 10.809535,5.61584442 C10.806553,5.61796721 10.8037579,5.62034044 10.8011801,5.62293826 C10.7965849,5.62794568 10.7919898,5.63253581 10.7844704,5.63337038 C10.7783504,5.63355925 10.7722514,5.63256748 10.7665074,5.63044938 L8.33607475,4.59892184 L8.33147963,4.59683542 C8.31602306,4.59057615 8.29764238,4.58306503 8.29764238,4.56720821 C8.28335688,4.43191797 8.23912169,4.30149623 8.16814181,4.1853928 C8.156445,4.16619771 8.14349494,4.14616804 8.15352081,4.12655567 L9.8520665,1.49641081 Z M8.20949844,5.08756211 L10.4878724,6.05148954 C10.5004047,6.05733153 10.5141903,6.06275623 10.5196209,6.07569205 C10.5217949,6.08347175 10.5217949,6.09169758 10.5196209,6.09947728 C10.512937,6.13286004 10.5070886,6.17083294 10.5070886,6.20922313 L10.5070886,6.27306769 C10.5070886,6.2889245 10.4907966,6.29560106 10.4757578,6.30186031 L10.4711626,6.30352944 C10.1102321,6.45750744 5.40393201,8.46214269 5.39683037,8.46214269 C5.38972873,8.46214269 5.38220934,8.46214269 5.3751077,8.45504888 C5.36257539,8.44253031 5.3751077,8.42500438 5.38638678,8.40914756 C5.38838086,8.40639713 5.39033058,8.40361488 5.39223519,8.40080188 L7.26456231,5.50484671 L7.26790425,5.4998393 C7.27876556,5.48231334 7.29129787,5.46270097 7.31134956,5.46270097 L7.33014806,5.46562196 C7.37275787,5.47146394 7.41035481,5.47688864 7.4483695,5.47688864 C7.73243519,5.47688864 7.99561369,5.33876744 8.15435631,5.10258436 C8.15813844,5.09627737 8.16293744,5.09063768 8.16855956,5.08589298 C8.17983863,5.07754728 8.19654838,5.08172013 8.20949844,5.08756211 Z M5.60027153,8.92032119 L10.7301637,6.73500175 C10.7301637,6.73500175 10.7376831,6.73500175 10.7447848,6.74209556 C10.7727736,6.77005363 10.7965849,6.78883144 10.8195609,6.80635738 L10.8308399,6.81345125 C10.8412835,6.81929319 10.8517271,6.82596975 10.8525626,6.83681919 C10.8525626,6.840992 10.8525626,6.84349575 10.8517271,6.84725131 L10.4122607,9.54374438 L10.4105898,9.55459381 C10.4076656,9.575458 10.4047414,9.59924325 10.3851074,9.59924325 C10.1472417,9.61528094 9.93262069,9.74753456 9.81154537,9.95268331 L9.80945669,9.95602156 C9.80360825,9.96561913 9.79817756,9.97479938 9.7885695,9.97980681 C9.77979688,9.98397963 9.76851781,9.9823105 9.75932744,9.98022406 L5.66836375,9.13730919 C5.66418631,9.13647463 5.60486671,8.9207385 5.60027153,8.92032119 Z" fill="url(#radialGradient-1)"></path>
</svg>