<svg viewBox="0 0 16 16" version="1.1" xmlns="http://www.w3.org/2000/svg" xmlns:xlink="http://www.w3.org/1999/xlink">
	<path d="M7.99980794,0.000147750589 C3.58147429,0.000147750589 0,3.58162204 0,7.99995569 L0,15.9959221 L1.85704761,15.9959221 L1.85704761,7.99995569 C1.85704761,4.60760214 4.60742484,1.85707716 7.99992612,1.85707716 C11.3924274,1.85707716 14.1428046,4.60745439 14.1428046,7.99995569 C14.1428046,11.2968623 11.5447288,13.9865141 8.28449375,14.1351512 C7.24861437,14.1266714 6.36547956,13.9585567 5.97866851,13.7205334 L5.97866851,11.0804077 C6.55598919,11.4584128 7.24648675,11.6787976 7.9880765,11.6787976 C10.0164262,11.6787976 11.6605652,10.0346291 11.6605652,8.00630894 C11.6605652,5.97795931 10.0163966,4.33293379 7.9880765,4.33293379 C5.95972688,4.33293379 4.31558788,5.97801841 4.31558788,8.00630894 L4.31558788,15.9960698 C5.52770416,15.9949381 6.81529144,15.9977306 8.00019206,15.9960698 C12.4185257,15.9960698 16,12.4181416 16,8.00010344 C15.9997045,3.58147429 12.4179347,0 7.99989656,0 L7.99980794,0.000147750589 Z" fill="#FF5900"></path>
</svg>