 <svg viewBox="0 0 16 16" version="1.1" xmlns="http://www.w3.org/2000/svg" xmlns:xlink="http://www.w3.org/1999/xlink">
    <polygon fill="#001D26" points="0.666658827 0.686709929 15.3333681 0.686709929 15.3333681 14.9534185 0.666658827 14.9534185"></polygon>
    <path d="M0.666658827,0.686709929 L15.3333681,0.686709929 L15.3333681,14.9534185 L0.666658827,14.9534185 L0.666658827,0.686709929 Z M0,15.6201042 L16.0000269,15.6201042 L16.0000269,0.0200511021 L0,0.0200511021 L0,15.6201042 Z M10.7866866,6.42006185 C10.2600092,6.42006185 10.0800331,6.68672001 10.0800331,6.90671769 C10.0800331,7.14671272 10.2000171,7.31338414 10.9066975,7.68005591 C11.9533597,8.18673597 12.2800368,8.6733918 12.2800368,9.38673798 C12.2800368,10.4533975 11.4667038,11.0267354 10.3666886,11.0267354 C9.7866849,11.0267354 9.28667062,10.9067244 9.00001512,10.7400799 C8.95335465,10.7200825 8.94668886,10.6867536 8.94668886,10.6334005 L8.94668886,9.65339614 C8.94668886,9.58673832 8.98001777,9.5667141 9.02670512,9.60006988 C9.44670314,9.8734207 9.9266932,9.99340477 10.3666886,9.99340477 C10.893366,9.99340477 11.1133636,9.77340709 11.1133636,9.47339315 C11.1133636,9.23339812 10.9600238,9.02006622 10.2866723,8.6733918 C9.33999688,8.22006488 8.94668886,7.76007217 8.94668886,6.99339973 C8.94668886,6.13337947 9.62004035,5.42006017 10.7866866,5.42006017 C11.3600245,5.42006017 11.7600251,5.50674222 11.9800228,5.60672895 C12.0333491,5.64005786 12.0466806,5.69338411 12.0466806,5.74004458 L12.0466806,6.65336422 C12.0466806,6.70669048 12.0133517,6.74004626 11.946667,6.72002204 C11.6533457,6.53340702 11.2200162,6.42006185 10.7866866,6.42006185 Z M5.05333465,7.21339742 C5.20667452,7.22672898 5.32668547,7.22672898 5.59334363,7.22672898 C6.3733745,7.22672898 7.10669115,6.95340504 7.10669115,5.89341132 C7.10669115,5.04674951 6.58001374,4.62005883 5.69335723,4.62005883 C5.42669908,4.62005883 5.17334561,4.63339039 5.05333465,4.64005618 L5.05333465,7.21339742 Z M3.86669108,3.67338341 C3.86669108,3.62672293 3.96003891,3.59336714 4.01333828,3.59336714 C4.44002896,3.5733698 5.07335888,3.56003823 5.73335192,3.56003823 C7.58001542,3.56003823 8.3000005,4.57337148 8.3000005,5.86672132 C8.3000005,7.56004495 7.07333536,8.2867227 5.5666805,8.2867227 C5.31335391,8.2867227 5.22669874,8.27339113 5.04666887,8.27339113 L5.04666887,10.8334008 C5.04666887,10.8867271 5.02667153,10.9133902 4.96667949,10.9133902 L3.94668046,10.9133902 C3.89335421,10.9133902 3.8666642,10.8933928 3.8666642,10.8334008 L3.8666642,3.67338341 L3.86669108,3.67338341 Z" fill="#31C5F0" fill-rule="nonzero"></path>
</svg>