<svg viewBox="0 0 20 20" version="1.1" xmlns="http://www.w3.org/2000/svg" xmlns:xlink="http://www.w3.org/1999/xlink">
    <path d="M12.9659375,1.23734375 C12.6620313,0.301796875 11.6571875,-0.21015625 10.7217969,0.09390625 C9.78625,0.3978125 9.27429688,1.40265625 9.57835938,2.33804687 L14.1835938,16.5071875 C14.4998438,17.3811719 15.4439063,17.8722656 16.3501563,17.6114844 C17.2954688,17.339375 17.8716406,16.3353906 17.57,15.4070312 L12.9659375,1.23734375" fill="#DFA22F"></path>
    <path d="M5.83015625,3.5559375 C5.52609375,2.62046875 4.52132813,2.10851562 3.5859375,2.41242187 C2.6503125,2.71640625 2.13828125,3.72117187 2.44242188,4.65671875 L7.04773438,18.8259375 C7.36390625,19.6998437 8.30804688,20.1910156 9.21429688,19.93 C10.1595313,19.6580469 10.7357031,18.6540625 10.4340625,17.7255469 L5.83015625,3.5559375" fill="#3CB187"></path>
    <path d="M18.7626562,12.9722656 C19.6982031,12.6683594 20.21,11.6636719 19.9060937,10.7280469 C19.6021875,9.79265625 18.5973437,9.280625 17.6619531,9.58460937 L3.4928125,14.19 C2.61882812,14.5060937 2.12773438,15.4501562 2.38851563,16.3564062 C2.660625,17.3016406 3.66460937,17.8778906 4.59296875,17.57625 L18.7626562,12.9723437" id="Path" fill="#CE1E5B"></path>
    <polyline fill="#392538" points="6.4459375 16.9742187 9.83242187 15.8739062 8.73195313 12.4870312 5.34523437 13.5878125 6.4459375 16.9742969"></polyline>
    <path d="M13.5817969,14.6555469 C14.8621094,14.2396875 16.0521094,13.8529688 16.9683594,13.5552344 L15.8677344,10.1677344 L12.4810156,11.2685156 L13.5817969,14.6555469" id="Path" fill="#BB242A"></path>
    <path d="M16.4440625,5.83640625 C17.3795312,5.5325 17.8914844,4.52773438 17.5875781,3.59210938 C17.2836719,2.65671875 16.2788281,2.14476563 15.3432812,2.44867188 L1.1740625,7.05414063 C0.30015625,7.37007813 -0.191015625,8.31421875 0.07,9.22046875 C0.341953125,10.165625 1.3459375,10.741875 2.27445312,10.4402344 L16.4440625,5.83632812" fill="#72C5CD"></path>
    <path d="M4.12671875,9.83851563 C5.04898438,9.53882813 6.23804688,9.15242188 7.51375,8.73804688 C7.09789063,7.45757813 6.71117188,6.26757813 6.4134375,5.35117188 L3.0259375,6.45210938 L4.12671875,9.83851562" fill="#248C73"></path>
    <path d="M11.2625,7.52 L14.6496875,6.419375 C14.2828336,5.29019302 13.9159325,4.16102635 13.5489844,3.031875 L10.1617188,4.1328125 L11.2625,7.52" fill="#62803A"></path>
</svg>