<svg viewBox="0 0 18 18" version="1.1" xmlns="http://www.w3.org/2000/svg" xmlns:xlink="http://www.w3.org/1999/xlink">
    <path d="M0,13.4217157 C0.010781168,13.8220919 0.0141065282,14.2239722 0.0815588355,14.6210956 C0.153036579,15.0412336 0.255212648,15.4509136 0.450148766,15.8322276 C0.713692317,16.3483412 1.07563153,16.7841836 1.53250102,17.1402096 C1.86052156,17.395853 2.21885538,17.5987868 2.61551835,17.7268009 C3.19392101,17.9132257 3.79063065,17.9846828 4.39605624,17.9881804 C4.77378216,17.9905588 5.15126305,18.0000025 5.52912899,17.9984286 C8.27325127,17.9868863 11.0174436,18.0182253 13.7616358,17.9814999 C14.1257803,17.9765682 14.4839741,17.932183 14.8413628,17.8668819 C15.526352,17.741596 16.1317426,17.449542 16.6496937,16.9878169 C17.2533341,16.449843 17.6606032,15.791445 17.8444431,14.9968134 C17.9647512,14.477412 17.9948544,13.9504558 18,13.4216457 L18,13.3161565 C18,13.275234 17.9844233,4.33096784 17.9829882,4.21274719 C17.9789627,3.88799019 17.9550201,3.56568154 17.8940785,3.24613603 C17.8199755,2.85674241 17.7152792,2.4773171 17.5286739,2.12503357 C17.3316376,1.7528484 17.0848259,1.41819304 16.7795578,1.12575434 C16.3119421,0.67770509 15.7723237,0.360852778 15.1441106,0.193245284 C14.5766991,0.0419018734 13.9978414,0.00839436528 13.4147483,0.00891901311 C13.4138032,0.00877910702 13.4115979,0.0028680748 13.4114579,0 L4.58574179,0 C4.58556677,0.00300798089 4.58546176,0.00601596179 4.58525174,0.00891901311 C4.25432589,0.0149699514 3.92290998,0.0124866184 3.59366431,0.053269243 C3.23298524,0.0980741677 2.87577154,0.165543879 2.53437956,0.291529311 C1.9966513,0.490265909 1.52945569,0.799808129 1.13037746,1.21305574 C0.678233475,1.68125146 0.359523948,2.222723 0.190420629,2.85324476 C0.039554285,3.41580714 0.00672072808,3.98956201 0.00591564086,4.56737415 L0,13.4217157 Z M9.08206937,15.2068966 C9.04512716,15.2068966 9.00987986,15.205528 8.98307254,15.2042297 C8.96179964,15.2060895 8.93983493,15.2068966 8.91783564,15.2068966 C8.14173785,15.2068966 7.62281736,14.8346989 7.1648792,14.5060477 C6.83665386,14.2708407 6.52710717,14.0487924 6.1644647,13.9875958 C5.98636034,13.9576291 5.80918991,13.9424352 5.63800357,13.9424352 C5.32956376,13.9424352 5.08580742,13.9909644 4.90784142,14.0262647 C4.7983292,14.0479151 4.70389827,14.0665478 4.63091318,14.0665478 C4.55446909,14.0665478 4.4615947,14.0493538 4.4228884,13.9152756 C4.39220699,13.809515 4.37020769,13.7070527 4.34896938,13.6083801 C4.29583901,13.361804 4.25730565,13.2113038 4.16629913,13.1970223 C3.19289949,13.0446623 2.61777011,12.8202279 2.50320774,12.5484222 C2.49156596,12.5212719 2.48472801,12.492254 2.48300713,12.4626978 C2.47853601,12.3818297 2.53487266,12.3105466 2.61365389,12.2973897 C3.38667316,12.1682592 4.07401278,11.7537783 4.6566828,11.0650705 C5.10804884,10.5318808 5.32970212,10.022447 5.3535001,9.96619798 C5.35455901,9.96361131 5.35572457,9.96107091 5.3569937,9.95858349 C5.46930771,9.72741181 5.49165291,9.52764551 5.42361421,9.36500423 C5.29819055,9.06495124 4.8827982,8.93125906 4.60797995,8.84279764 C4.53962994,8.82086651 4.47498107,8.80009334 4.42347643,8.77935526 C4.17985844,8.6817354 3.77920146,8.47547748 3.83257397,8.19079384 C3.87145323,7.98320251 4.14212066,7.83863248 4.36086837,7.83863248 C4.42160856,7.83863248 4.47543074,7.84944014 4.52074375,7.87102038 C4.76792452,7.98850107 4.99030419,8.04804848 5.18155278,8.04804848 C5.41939422,8.04804848 5.5342679,7.95618335 5.56204374,7.93007653 C5.5548406,7.79831187 5.54701162,7.66658319 5.53855707,7.53489506 C5.48272867,6.63396413 5.41309882,5.51277445 5.69580361,4.86982381 C6.54194632,2.94525287 8.33637627,2.79559482 8.86601969,2.79559482 C8.95344114,2.79485036 9.04086186,2.79401991 9.12828173,2.79310345 C9.65937793,2.79310345 11.4575436,2.94293695 12.3042052,4.86866585 C12.58691,5.51203756 12.5172109,6.63417467 12.4612096,7.53605303 L12.4585807,7.5792135 C12.4509017,7.70167694 12.4438108,7.81757859 12.4378267,7.92993617 C12.4639768,7.95435868 12.5690961,8.03857423 12.7829666,8.04710106 C12.9652909,8.04001291 13.1748031,7.98074622 13.405519,7.87116074 C13.4768437,7.8371938 13.5558129,7.83014075 13.6094275,7.83014075 C13.6904721,7.83014075 13.7729349,7.8461417 13.8416654,7.87523115 L13.8453319,7.87666984 C14.0411118,7.94716527 14.1693373,8.08805087 14.1721045,8.23605969 C14.1745604,8.37403284 14.0734881,8.58025566 13.5763594,8.77942544 C13.5254428,8.7998828 13.4604826,8.82079633 13.3918559,8.84286782 C13.1167955,8.93143451 12.701749,9.06505651 12.5763254,9.36493405 C12.5081829,9.52757533 12.5305973,9.72727145 12.6429459,9.95837296 C12.6441911,9.96089942 12.6452634,9.96346098 12.6464741,9.9661278 C12.6810642,10.0483783 13.5183172,11.9850202 15.3863203,12.2972142 C15.4650725,12.3104296 15.5213897,12.3816691 15.5170017,12.4625223 C15.5151693,12.4923633 15.5081672,12.5216432 15.4963168,12.5490187 C15.38255,12.8193155 14.8074552,13.0434342 13.8337788,13.1960047 C13.7423918,13.2103213 13.7038931,13.3601548 13.6512469,13.6054326 C13.6294552,13.7067369 13.6072829,13.8060411 13.5770166,13.9103982 C13.5486873,14.0085444 13.4856642,14.0565121 13.3844536,14.0565121 L13.3691994,14.0565121 C13.3033053,14.0565121 13.2099466,14.0443711 13.0922019,14.0210013 C12.8863909,13.9803672 12.6555713,13.9425404 12.3620398,13.9425404 C12.190888,13.9425404 12.0137522,13.9577694 11.8354403,13.987701 C11.4731783,14.0488977 11.1636662,14.2705951 10.8360289,14.5055565 C10.3771914,14.8346638 9.85809798,15.2068966 9.08206937,15.2068966" fill="#FFFC00"></path>
    <path d="M9.13130571,3.11007848 C9.64283975,3.11007848 11.4043145,3.2462606 12.2344117,5.09062879 C12.5077488,5.69795967 12.4376805,6.79811343 12.3814843,7.68187684 C12.3727081,7.82212724 12.3640027,7.95806386 12.356925,8.087863 L12.3539524,8.14366154 L12.3915345,8.18522112 C12.406716,8.20191509 12.548799,8.34907455 12.8648141,8.36117417 L12.86991,8.36145474 L12.8752182,8.36134953 C13.0841491,8.35345847 13.3194796,8.28913758 13.575052,8.17049114 C13.6127048,8.1530256 13.6628143,8.14450326 13.7158256,8.14450326 C13.7762329,8.14450326 13.8404268,8.15576117 13.8933673,8.17785613 L13.901365,8.18101255 C14.0353795,8.22755226 14.1301133,8.31530082 14.1315642,8.3947024 C14.1323427,8.43959375 14.0984764,8.60130783 13.6234274,8.7872913 C13.5769983,8.80545826 13.5158832,8.82478259 13.4450363,8.84691262 C13.1358865,8.9442006 12.6688352,9.09100935 12.5116415,9.45810136 C12.4231361,9.66488215 12.4473769,9.90890873 12.5836208,10.1833071 C12.6396754,10.312966 13.5221115,12.2828546 15.5077695,12.6071244 C15.5070919,12.6180568 15.5043427,12.6287649 15.4996656,12.6386887 C15.4660116,12.7172485 15.2520909,12.9886659 13.9209346,13.1922201 C13.7126406,13.2238545 13.6616111,13.4552553 13.6024423,13.7242527 C13.5810679,13.8205587 13.5593397,13.9177766 13.5294722,14.0181859 C13.5203421,14.0485226 13.5186434,14.0502411 13.4858387,14.0502411 L13.4701972,14.0502411 C13.41117,14.0502411 13.3215675,14.0381064 13.2177036,14.0179053 C13.0285545,13.981396 12.7701511,13.9366099 12.4398038,13.9366099 C12.2554322,13.9366099 12.0655046,13.9524972 11.87494,13.9840264 C11.4675884,14.051153 11.136321,14.2833605 10.785484,14.5291406 C10.3143277,14.8590921 9.82735296,15.2005119 9.08434579,15.2005119 C9.05189496,15.2005119 9.02022267,15.1994246 8.98847961,15.1978464 L8.98012803,15.1974957 L8.97174107,15.198127 C8.95351623,15.1997052 8.93514984,15.2005119 8.91639418,15.2005119 C8.17349318,15.2005119 7.68630611,14.8591973 7.21536215,14.5291406 C6.8644544,14.2833605 6.53301007,14.051153 6.12572918,13.9840264 C5.93534156,13.9526024 5.74523704,13.9366099 5.56097154,13.9366099 C5.23069502,13.9366099 4.9719731,13.9866918 4.78321332,14.0232712 C4.67934944,14.0434022 4.58942845,14.0606573 4.53057814,14.0606573 C4.48237964,14.0606573 4.48145955,14.0578516 4.4712678,14.0233414 C4.4414003,13.9228619 4.41956588,13.8233294 4.39829767,13.7271637 C4.33898733,13.4578857 4.28792239,13.2252222 4.07973459,13.1935528 C2.74868445,12.9898232 2.5347284,12.71795 2.50096821,12.6396005 C2.49637856,12.6294202 2.49361238,12.6185257 2.49279358,12.607405 C4.47841618,12.2834157 5.36067527,10.313457 5.41690685,10.1833071 C5.5533985,9.90911915 5.57760392,9.66512765 5.48881534,9.45810136 C5.33162169,9.09121977 4.86464119,8.9442006 4.55570365,8.84708798 C4.48467986,8.82481766 4.42352934,8.80545826 4.37706485,8.7872913 C3.97590609,8.63020664 3.85250802,8.47196462 3.87083902,8.3760795 C3.89210723,8.26549948 4.08553823,8.15306067 4.25433915,8.15306067 C4.29227512,8.15306067 4.32553987,8.15912802 4.35013456,8.17052621 C4.62428566,8.29787035 4.87454984,8.36243674 5.09406182,8.36243674 C5.43913054,8.36243674 5.59271461,8.20331794 5.60920543,8.18515097 L5.64661058,8.14369662 L5.6436026,8.08817864 C5.63663116,7.95844965 5.62803187,7.8225481 5.61897253,7.68257826 C5.56295327,6.79860443 5.49288496,5.69918717 5.76611598,5.09182121 C6.59313434,3.2542218 8.34600984,3.11256854 8.86345368,3.11256854 C8.87619337,3.11256854 9.10115511,3.1102889 9.10115511,3.1102889 C9.110356,3.11021876 9.12058314,3.11007848 9.13130571,3.11007848 M9.13130571,2.79310345 L9.13070412,2.79310345 C9.1189199,2.79310345 9.10784345,2.79310345 9.09729781,2.79324373 L8.86256898,2.79555844 C8.55943508,2.79555844 7.95291956,2.8379948 7.30142585,3.12298474 C6.9289314,3.2858211 6.59387749,3.50599915 6.30560656,3.77741647 C5.96191797,4.10080956 5.68192784,4.49953595 5.4735631,4.96268844 C5.16841208,5.64082841 5.24085138,6.78306781 5.29902931,7.70099073 L5.29924164,7.70242866 C5.30546993,7.8007337 5.31201672,7.9033876 5.3179973,8.00341114 C5.27323143,8.02378761 5.20065058,8.04528636 5.09367255,8.04528636 C4.92154515,8.04528636 4.71686076,7.99075038 4.4854584,7.88329171 C4.41737182,7.85186776 4.3396597,7.83598043 4.25391449,7.83598043 C4.11614887,7.83598043 3.97091638,7.87617222 3.84493498,7.94957659 C3.68643197,8.04181429 3.584019,8.17217457 3.55620401,8.31670368 C3.53787301,8.41230823 3.53875771,8.60127276 3.75055509,8.79290271 C3.8670525,8.89839739 4.03818904,8.99568537 4.25908115,9.08220643 C4.31704675,9.10482746 4.38584108,9.12643143 4.45870505,9.14933303 C4.71155255,9.22898011 5.09423876,9.34930997 5.19403301,9.58207864 C5.24460251,9.7000938 5.22283887,9.85538982 5.12952063,10.0430918 C5.12707885,10.0482122 5.12463708,10.0532274 5.12240763,10.0584881 C5.09908692,10.1124629 4.88152128,10.6008668 4.43524278,11.11596 C4.18165213,11.4088761 3.90233437,11.6536742 3.60549954,11.843761 C3.24319684,12.0758283 2.8511682,12.227547 2.44041928,12.2946035 C2.27914043,12.3208563 2.16377987,12.4633923 2.17292113,12.6251161 C2.1756814,12.671761 2.18672247,12.7182656 2.20586739,12.7632622 L2.20632744,12.7640688 C2.27154758,12.9152615 2.42276066,13.0436928 2.66860133,13.1569734 C2.96901035,13.2952598 3.41829684,13.4115915 4.00386264,13.5026017 C4.03344704,13.5583652 4.06416385,13.6985104 4.08543206,13.7944656 C4.10769113,13.8964532 4.13090569,14.0013166 4.1639935,14.1127032 C4.19970002,14.2333838 4.29231051,14.3775973 4.53022426,14.3775973 C4.62039298,14.3775973 4.72407992,14.3574663 4.84415152,14.3343893 C5.01999466,14.3001948 5.26045635,14.2535498 5.56058227,14.2535498 C5.72697681,14.2535498 5.8994227,14.2680694 6.07300101,14.2966525 C6.40759487,14.3518549 6.69604274,14.5537958 7.02978729,14.7876517 C7.51828372,15.1298781 8.07122176,15.5172414 8.9160403,15.5172414 C8.93907791,15.5172414 8.9621863,15.5165049 8.98501158,15.5149267 C9.01293274,15.5162243 9.04754224,15.5172414 9.08406269,15.5172414 C9.92912895,15.5172414 10.4819254,15.1297378 10.969891,14.787792 L10.9706696,14.7870906 C11.3044849,14.5535152 11.5926143,14.3518549 11.927102,14.2966525 C12.1006095,14.2681045 12.27302,14.2535498 12.4394853,14.2535498 C12.7261992,14.2535498 12.9532134,14.2897786 13.1559161,14.3289533 C13.2881966,14.3547658 13.3909988,14.3671811 13.4698787,14.3671811 L13.4775933,14.3673214 L13.485591,14.3673214 C13.659594,14.3673214 13.7874509,14.2726637 13.836251,14.1070217 C13.8686665,13.9979848 13.8918103,13.8955764 13.9146355,13.7918703 C13.9345236,13.7019474 13.9663021,13.557804 13.9958865,13.5014443 C14.5818415,13.4102588 15.0309511,13.2941726 15.3313955,13.1559212 C15.57667,13.0431668 15.7277061,12.9148757 15.7933155,12.7643143 C15.8129913,12.7191775 15.8244924,12.6723923 15.8270757,12.6247653 C15.8362478,12.4630196 15.7208527,12.3204599 15.5595422,12.2942528 C13.7340504,11.996076 12.9116679,10.1371532 12.87766,10.0581725 C12.8754363,10.052964 12.8730164,10.04784 12.8704054,10.0428112 C12.7770872,9.8550391 12.7555359,9.69991844 12.8061408,9.58169286 C12.9057227,9.34913462 13.2881612,9.22880475 13.5411856,9.14919275 C13.6144388,9.12632621 13.6834809,9.10458196 13.7409865,9.08206615 C13.9900828,8.98456774 14.16812,8.8787925 14.2855729,8.75867306 C14.4258511,8.61547666 14.4531706,8.47827747 14.451472,8.38849477 C14.4471901,8.17126271 14.2796277,7.9782299 14.0130851,7.88371256 C13.9230579,7.84681748 13.8203972,7.82735287 13.715861,7.82735287 C13.6446956,7.82735287 13.53931,7.83703257 13.4395512,7.88318649 C13.2259844,7.98222804 13.0346767,8.03637823 12.8704408,8.04409393 C12.7831031,8.03971001 12.7218465,8.02094683 12.6821765,8.00302536 C12.6871662,7.91829293 12.6926867,7.83124579 12.6983842,7.74048109 L12.7007552,7.70162202 C12.7592516,6.78310288 12.8319386,5.6399867 12.5266461,4.96135572 C12.3173966,4.49655488 12.0364156,4.09681142 11.6913469,3.77271691 C11.4019435,3.50112423 11.0657572,3.28098125 10.691918,3.1182501 C10.0413444,2.83536445 9.43486427,2.79310345 9.13130571,2.79310345" fill="#020202" fill-rule="nonzero"></path>
</svg>