<svg viewBox="0 0 16 16" version="1.1" xmlns="http://www.w3.org/2000/svg" xmlns:xlink="http://www.w3.org/1999/xlink">
    <g stroke="none" stroke-width="1" fill="none" fill-rule="evenodd">
        <g id="spotify" fill-rule="nonzero">
            <path d="M8,0 C3.58157625,0 0,3.58157625 0,8 C0,12.4184237 3.58157625,16 8,16 C12.4184237,16 16,12.4184237 16,8 C16,3.58212214 12.4184237,0.000545888775 8,0 Z" id="Path" fill="#2EBD59"></path>
            <path d="M11.6689185,11.5379052 C11.5253497,11.7737291 11.2180143,11.8474241 10.9832822,11.7038553 C9.10487888,10.5558512 6.74008871,10.2965541 3.95551006,10.9325145 C3.68693279,10.9941999 3.41944729,10.8260662 3.35830774,10.5574889 C3.29662231,10.2889116 3.46421017,10.0214261 3.73333333,9.96028659 C6.78048448,9.2642784 9.39474582,9.56397134 11.5035142,10.8522689 C11.7382463,10.9969294 11.8130331,11.303173 11.6689185,11.5379052 Z" id="Path" fill="#000000"></path>
            <path d="M12.647697,9.36035483 C12.4670078,9.65404299 12.0827021,9.7457523 11.7895599,9.56560901 C9.63984988,8.24401228 6.3612419,7.86134425 3.81794609,8.63323098 C3.48822927,8.73312863 3.13995223,8.54698055 3.0395087,8.21780962 C2.94015694,7.8880928 3.12630502,7.54036165 3.45547595,7.43991812 C6.36069601,6.55830774 9.97284203,6.98519277 12.441897,8.50276356 C12.7355851,8.68345275 12.8283862,9.06721256 12.647697,9.36035483 Z" id="Path" fill="#000000"></path>
            <path d="M12.7317639,7.09164108 C10.1529853,5.56042306 5.89941999,5.41958376 3.43746162,6.1663596 C3.04223814,6.28645513 2.62408734,6.06318663 2.5045377,5.66796315 C2.38498806,5.27273968 2.60771068,4.85458888 3.00348004,4.73449335 C5.82954623,3.87690208 10.5269191,4.04230638 13.4954623,5.80443535 C13.8508359,6.0156943 13.9676561,6.47478676 13.756943,6.82961447 C13.5467758,7.18553395 13.0865916,7.30290003 12.7317639,7.09164108 Z" id="Path" fill="#000000"></path>
        </g>
    </g>
</svg>
