<svg viewBox="0 0 16 16" version="1.1" xmlns="http://www.w3.org/2000/svg" xmlns:xlink="http://www.w3.org/1999/xlink">
    <path d="M13.290695,-5.95079541e-14 C14.7640946,-5.95079541e-14 15.9578999,1.1938054 15.9575373,2.66684232 L15.9575373,13.290695 C15.9575373,14.7637319 14.7637319,15.9575373 13.290695,15.9575373 L2.66684232,15.9575373 C1.19416804,15.9575373 0,14.7637319 0,13.290695 L0,2.66684232 C0,1.1938054 1.19416804,-5.91858666e-14 2.66684232,-5.91858666e-14 L13.290695,-5.91858666e-14 Z M13.0564306,12.2154723 L13.0564306,3.74424081 C13.0564306,3.27933847 12.6796494,2.90255724 12.2151097,2.90255724 L3.74424081,2.90255724 C3.27933847,2.90255724 2.90255724,3.27933847 2.90255724,3.74424081 L2.90255724,12.2154723 C2.90255724,12.6803747 3.27933847,13.0567932 3.74424081,13.0567932 L12.2151097,13.0567932 C12.6796494,13.0567932 13.0564306,12.6803747 13.0564306,12.2154723 Z M6.28561025,10.1549613 C6.01870846,10.1549613 5.80257601,9.93737831 5.80257601,9.66938856 L5.80257601,6.28814875 C5.80257601,6.02015901 6.01870846,5.80257601 6.28561025,5.80257601 L9.67192706,5.80257601 C9.93955413,5.80257601 10.1549613,6.02015901 10.1549613,6.28814875 L10.1549613,9.66938856 C10.1549613,9.93737831 9.93955413,10.1549613 9.67192706,10.1549613 L6.28561025,10.1549613 Z" fill="#2E3B4E"></path>
</svg>