<svg viewBox="0 0 13 16" version="1.1" xmlns="http://www.w3.org/2000/svg" xmlns:xlink="http://www.w3.org/1999/xlink">
    <polygon fill="#919191" points="0.00865235001 9.34847089 1.20832571 9.36019805 1.1665656 14.7027739 9.15132603 14.7027739 9.15132603 9.37964796 10.4158563 9.37964796 10.4158563 16.0003404 0.00207370372 16.0003404"></polygon>
    <polygon fill="#919191" points="1.96494154 12.5067932 8.21980401 12.5067932 8.21980401 13.8377534 1.96494154 13.8377534"></polygon>
    <polygon fill="#A78B68" points="2.11124491 10.1120229 8.37075534 10.7163288 8.23968297 12.0741042 1.98017253 11.4698698"></polygon>
    <polygon fill="#C19653" points="2.68280056 7.40476694 8.73444007 9.11256922 8.36403368 10.4252952 2.31239417 8.71749291"></polygon>
    <polygon fill="#D48C28" points="4.15041074 4.34276463 9.53303052 7.5936885 8.82782825 8.76125521 3.44520846 5.51033133"></polygon>
    <polygon fill="#FE8908" points="7.2119125 1.44329779 10.8748598 6.55512048 9.76578589 7.34984955 6.10283854 2.23795536"></polygon>
    <polygon fill="#FF7A15" points="11.4661514 0.0537017757 12.5024312 6.25536303 11.1570981 6.48018111 10.1208898 0.278519862"></polygon>
</svg>