
<svg viewBox="0 0 26 16" version="1.1" xmlns="http://www.w3.org/2000/svg" xmlns:xlink="http://www.w3.org/1999/xlink">
    <g stroke="none" stroke-width="1" fill="none" fill-rule="evenodd">
        <path d="M5.13773566,0 L11.6858624,0 C12.599922,0 13.168436,0.726395645 12.9552034,1.62054075 L9.90658243,14.3819491 C9.69143451,15.2729819 8.77625773,16 7.86155974,16 L1.31407143,16 C0.401288718,16 -0.168502209,15.2729819 0.0447304742,14.3819491 L3.09462818,1.62054075 C3.30786087,0.726395645 4.22255885,0 5.13773566,0" fill="#E21836"></path>
        <path d="M11.0459108,0 L18.4420961,0 C19.3397339,0 18.934966,0.726395645 18.7238032,1.62054075 L15.7299002,14.3819491 C15.5198347,15.2729819 15.5853625,16 14.6858434,16 L7.28965836,16 C6.39013926,16 5.8334658,15.2729819 6.0447854,14.3819491 L9.03853162,1.62054075 C9.2511053,0.726395645 10.1476459,0 11.0459108,0" fill="#00447C"></path>
        <path d="M18.1372358,0 L24.6856405,0 C25.6010159,0 26.1695541,0.726395645 25.9545566,1.62054075 L22.9062851,14.3819491 C22.6911281,15.2729819 21.7752739,16 20.8600583,16 L14.3146861,16 C13.398832,16 12.8307726,15.2729819 13.0452912,14.3819491 L16.0940415,1.62054075 C16.3072834,0.726395645 17.2213817,0 18.1372358,0" fill="#007B84"></path>
        <path d="M6.8483147,4.02349729 C6.18391077,4.03047508 5.98769191,4.02349729 5.92501526,4.00824353 C5.90092096,4.12621682 5.45257818,6.25736321 5.45131834,6.25914822 C5.3547837,6.69031062 5.2845481,6.99765782 5.04596738,7.19611911 C4.91053542,7.31149603 4.75242649,7.36715605 4.56912092,7.36715605 C4.27447768,7.36715605 4.10282554,7.21640339 4.07400688,6.93047635 L4.06849513,6.8323005 C4.06849513,6.8323005 4.15825816,6.2547668 4.15825816,6.25152132 C4.15825816,6.25152132 4.62880546,4.30942433 4.71305674,4.05270664 C4.71746615,4.03810197 4.71872598,4.03047508 4.71982833,4.02349729 C3.80393037,4.03177327 3.64156951,4.02349729 3.6303885,4.00824353 C3.62424681,4.02917689 3.60156984,4.1495843 3.60156984,4.1495843 L3.12110136,6.33850026 L3.07984186,6.52414191 L3,7.13137173 C3,7.31149603 3.03433043,7.4585164 3.10267632,7.58281841 C3.32157215,7.97698233 3.94597645,8.0360501 4.29920188,8.0360501 C4.75431624,8.0360501 5.18124184,7.93641378 5.46974338,7.75450447 C5.97052666,7.44959136 6.10154923,6.97299218 6.21839864,6.54945667 L6.27257141,6.33217157 C6.27257141,6.33217157 6.75729185,4.31510394 6.83965334,4.05270664 C6.84280297,4.03810197 6.84406276,4.03047508 6.8483147,4.02349729 Z M8.49754522,5.65068507 C8.38069575,5.65068507 8.16715422,5.67989439 7.97534479,5.77677209 C7.90573908,5.8136083 7.83991285,5.85612413 7.77046457,5.89847769 L7.83314123,5.66528973 L7.79881082,5.62601938 C7.3920425,5.71088877 7.30101965,5.72224795 6.92527472,5.77677209 L6.8937789,5.79835451 C6.85015723,6.17109827 6.81141736,6.4513457 6.64968644,7.18401347 C6.58811215,7.45403765 6.52417566,7.72665823 6.46008169,7.99603328 L6.47740437,8.03027314 C6.8624406,8.00933979 6.97929001,8.00933979 7.3139329,8.01501935 L7.34101931,7.9846741 C7.38353866,7.76024896 7.38905039,7.70767215 7.48322287,7.25314226 C7.52747448,7.03764217 7.61975717,6.56412621 7.66526862,6.39552341 C7.74888995,6.35560393 7.83140896,6.31633358 7.91014845,6.31633358 C8.09770599,6.31633358 8.07487153,6.48493643 8.06762748,6.55211795 C8.05959606,6.66489846 7.99125015,7.03326081 7.92117202,7.3495331 L7.87440073,7.55367397 C7.84180259,7.70442667 7.80605482,7.85096019 7.77345668,8.00041469 L7.78762978,8.03027314 C8.16715422,8.00933979 8.28290132,8.00933979 8.60699311,8.01501935 L8.64510304,7.9846741 C8.70368522,7.63416194 8.72085042,7.54036751 8.82478658,7.03001528 L8.87706961,6.79552916 C8.97864361,6.33661786 9.0296668,6.10391675 8.95281705,5.91438055 C8.87155788,5.70196367 8.67659887,5.65068507 8.49754522,5.65068507 Z M10.3399237,6.13116256 C10.1381931,6.17108204 10.0095327,6.19769496 9.88165978,6.21489602 C9.75488916,6.23582943 9.63126811,6.2548155 9.4363091,6.28272662 L9.42087616,6.29716901 L9.40670307,6.30869051 C9.38638829,6.45830729 9.37221514,6.58763973 9.34528625,6.73969064 C9.32245179,6.89693426 9.28733397,7.07559809 9.2301691,7.33231581 C9.18591749,7.52882977 9.16308303,7.5973095 9.13788636,7.66643829 C9.11331963,7.73556704 9.08623328,7.80274856 9.03646988,7.99601705 L9.04812335,8.01386724 L9.05788703,8.03025691 C9.24009025,8.02133181 9.35930188,8.01500312 9.48182056,8.01386724 C9.60418176,8.00932356 9.73095233,8.01386724 9.92717118,8.01500312 L9.94433643,8.00056073 L9.96276148,7.98465787 C9.99110767,7.81037545 9.99535962,7.76347821 10.0126823,7.67844655 C10.0298475,7.58724847 10.0594536,7.46099923 10.1320514,7.12379353 C10.1663819,6.96541398 10.2046493,6.80752124 10.2402395,6.64589616 C10.2772471,6.4849202 10.3159869,6.32637838 10.352837,6.16799883 L10.3473252,6.14885049 L10.3399237,6.13116256 Z M10.3442229,5.48333172 C10.1609173,5.37184942 9.83918769,5.40722516 9.62265401,5.56122335 C9.40675032,5.71213827 9.3821836,5.92634016 9.56485925,6.03928294 C9.74501521,6.14768209 10.0680047,6.11538956 10.2826485,5.96009317 C10.4980799,5.80593276 10.5250088,5.59367815 10.3442229,5.48333172 Z M11.4527964,8.06519454 C11.8236595,8.06519454 12.2038138,7.9598786 12.4899532,7.6473386 C12.7101089,7.39386641 12.8110529,7.01674128 12.8460133,6.86144495 C12.9598707,6.34671135 12.8712099,6.1063833 12.7598722,5.96001206 C12.5907398,5.73688507 12.2918447,5.66532219 11.9817685,5.66532219 C11.7953133,5.66532219 11.3512225,5.68430826 11.0042962,6.01388707 C10.7551644,6.25161866 10.6400472,6.5742197 10.570599,6.88351418 C10.5005209,7.19865059 10.4198915,7.76596099 10.9261866,7.97707967 C11.0824058,8.04620847 11.3076008,8.06519454 11.4527964,8.06519454 Z M11.4238203,6.90704393 C11.5093314,6.51726148 11.6102754,6.19011676 11.8679111,6.19011676 C12.0697992,6.19011676 12.0844447,6.43352802 11.9946817,6.82460868 C11.9786189,6.91142535 11.9049187,7.23418865 11.8052345,7.37163485 C11.7356287,7.47305618 11.6532672,7.53455809 11.5622443,7.53455809 C11.5351579,7.53455809 11.3740569,7.53455809 11.3715372,7.28806366 C11.3702774,7.16635806 11.3943717,7.04205605 11.4238203,6.90704393 Z M13.7730923,8.01506805 L13.8020684,7.9847228 C13.8431704,7.76029766 13.849942,7.70755853 13.9409649,7.25319096 C13.9864763,7.03769087 14.0806487,6.5641749 14.1249004,6.39557205 C14.2086792,6.35549036 14.2897809,6.31622001 14.37104,6.31622001 C14.5573377,6.31622001 14.5346607,6.48482286 14.5272593,6.55200433 C14.5204876,6.66494716 14.4521418,7.03314719 14.3808037,7.34941948 L14.3365522,7.55356039 C14.3026942,7.70447532 14.2658441,7.85084661 14.2332459,8.00046339 L14.2474191,8.03032184 C14.6282033,8.00938843 14.7395409,8.00938843 15.0655225,8.01506805 L15.1048923,7.9847228 C15.1620572,7.63404837 15.1774901,7.54025388 15.2845758,7.03006397 L15.3355991,6.79541559 C15.4376454,6.33650429 15.4892985,6.10396545 15.4137086,5.91442925 C15.3300872,5.70201237 15.1338684,5.65073376 14.9573344,5.65073376 C14.8403275,5.65073376 14.6256836,5.67978081 14.4349765,5.77682078 C14.3667882,5.813657 14.2984422,5.85601056 14.2313561,5.89852639 L14.2897809,5.66533842 L14.2584426,5.6259058 C13.8518318,5.71093746 13.7589191,5.72229664 13.3836466,5.77682078 L13.3548279,5.79840321 C13.3093165,6.17114692 13.2723089,6.45123213 13.110578,7.18406216 C13.0490038,7.45408634 12.9850673,7.72670687 12.9211308,7.99608198 L12.938296,8.03032184 C13.3239621,8.00938843 13.4390793,8.00938843 13.7730923,8.01506805 Z M16.5707857,8.03024068 C16.5947225,7.90983327 16.736926,7.19615158 16.7381858,7.19615158 C16.7381858,7.19615158 16.8592872,6.67249289 16.8666888,6.65350682 C16.8666888,6.65350682 16.9047987,6.59898273 16.9429086,6.57740025 L16.9989711,6.57740025 C17.5279432,6.57740025 18.1252611,6.57740025 18.5934461,6.22250668 C18.9120262,5.97909547 19.1298197,5.61965822 19.2269842,5.18281625 C19.2521809,5.07571531 19.2707634,4.9483301 19.2707634,4.82094491 C19.2707634,4.65364026 19.2381653,4.48812062 19.1439928,4.35878814 C18.9052546,4.01460467 18.4298255,4.00827598 17.8810111,4.00567958 C17.8792789,4.00567958 17.6104621,4.00827598 17.6104621,4.00827598 C16.9079483,4.01720105 16.6262183,4.01460467 16.5104712,4 C16.5007075,4.05273909 16.4822824,4.14653355 16.4822824,4.14653355 C16.4822824,4.14653355 16.230631,5.34833589 16.230631,5.35028317 C16.230631,5.35028317 15.6284313,7.90545186 15.600085,8.02585926 C16.2134658,8.01823242 16.4649598,8.01823242 16.5707857,8.03024068 Z M17.0370811,5.89536202 C17.0370811,5.89536202 17.3046379,4.69599381 17.3033781,4.70053748 L17.3120393,4.63903559 L17.3158189,4.59213836 L17.4227471,4.60349754 C17.4227471,4.60349754 17.9745536,4.65234206 17.987467,4.65364026 C18.2052604,4.74045693 18.2950234,4.96423297 18.2323468,5.25632641 C18.1751819,5.52326738 18.0071518,5.74769257 17.7912481,5.85609167 C17.6134543,5.94793882 17.3956607,5.95556572 17.1712532,5.95556572 L17.0260576,5.95556572 L17.0370811,5.89536202 Z M18.7029571,6.92925931 C18.632249,7.23985199 18.5509898,7.80716244 19.0547652,8.00935602 C19.2153937,8.07978297 19.3593296,8.10071632 19.5056276,8.09308948 C19.6601146,8.08448892 19.803263,8.00465007 19.9358603,7.88975996 C19.923892,7.93698174 19.9119236,7.98420352 19.8999551,8.03158757 L19.9227895,8.06193283 C20.2851487,8.04619223 20.3975888,8.04619223 20.7901839,8.04927545 L20.8257742,8.02136428 C20.8830966,7.6740976 20.9371119,7.33689195 21.0860871,6.67254159 C21.1586848,6.35432196 21.2311252,6.0391856 21.3056128,5.72226418 L21.2939594,5.68737524 C20.8886083,5.76478001 20.7802628,5.781332 20.3903447,5.83829022 L20.3607387,5.86311813 C20.3568017,5.89541071 20.3527073,5.92640504 20.3489277,5.95739942 C20.2882983,5.8564649 20.2004251,5.77029736 20.0648356,5.71658462 C19.8914511,5.64631988 19.4842105,5.73686884 19.1341346,6.06531171 C18.8881524,6.29979788 18.7700432,6.62110066 18.7029571,6.92925931 Z M19.5542886,6.94824538 C19.6410596,6.56544064 19.7407438,6.24154145 19.9990095,6.24154145 C20.1623151,6.24154145 20.2482987,6.39683779 20.2308185,6.66166921 C20.2169604,6.7277148 20.2019998,6.7973304 20.1842046,6.87603337 C20.1583782,6.98978755 20.1303469,7.10256806 20.103103,7.21551089 C20.0753866,7.29275338 20.0431035,7.36561447 20.0076708,7.41413445 C19.9412146,7.51117437 19.7831057,7.57137807 19.6920828,7.57137807 C19.6662562,7.57137807 19.5068874,7.57137807 19.5013757,7.32926506 C19.5001158,7.20869539 19.5242102,7.08455565 19.5542886,6.94824538 Z M24,5.6842758 L23.9686617,5.64743959 C23.5675626,5.73117304 23.4949647,5.7444795 23.126464,5.79575816 L23.0993774,5.82366928 C23.0981178,5.82821296 23.0970153,5.83519078 23.0951256,5.84151947 L23.0938657,5.83519078 C22.8195373,6.48737057 22.8275687,6.34667889 22.6042635,6.86011428 C22.6030036,6.83674679 22.6030036,6.82214213 22.6017439,6.79731417 L22.5458387,5.6842758 L22.5107209,5.64743959 C22.090567,5.73117304 22.0806458,5.7444795 21.6926174,5.79575816 L21.6623816,5.82366928 C21.6581295,5.83697579 21.6581295,5.85158045 21.6556099,5.86748331 L21.6581295,5.87316293 C21.7066331,6.12858244 21.6949796,6.07162422 21.7436407,6.47471319 C21.7663176,6.67252536 21.7965536,6.87147346 21.8192305,7.06685154 C21.857498,7.39383394 21.8789152,7.5548099 21.9256864,8.0538029 C21.6636413,8.49940769 21.6015945,8.66801054 21.3493132,9.05909125 L21.3510455,9.0629858 L21.1734091,9.35248286 C21.1530943,9.38299044 21.1346693,9.40392379 21.1088427,9.41284888 C21.0804965,9.42729128 21.0436464,9.42988763 20.9924657,9.42988763 L20.8940414,9.42988763 L20.7477434,9.93131476 L21.249629,9.94023986 C21.5442722,9.93894166 21.7294675,9.79695177 21.8291517,9.60611737 L22.1447397,9.04886795 L22.1397003,9.04886795 L22.1729285,9.0095976 C22.3852102,8.53867804 24,5.6842758 24,5.6842758 Z M18.7029413,12.2697663 L18.4900297,12.2697663 L19.2780547,9.58396693 L19.5394699,9.58396693 L19.6224613,9.30728952 L19.6304927,9.61496131 C19.620729,9.80514658 19.7659247,9.97374943 20.1473388,9.94583831 L20.5884375,9.94583831 L20.7402473,9.42867059 L20.5742645,9.42867059 C20.4788322,9.42867059 20.4345806,9.40384263 20.4400924,9.35061674 L20.4320609,9.03758988 L19.6152173,9.03758988 L19.6152173,9.03921262 C19.351125,9.04489223 18.56247,9.06533878 18.4027863,9.10915281 C18.2095596,9.16043142 18.0059392,9.31134639 18.0059392,9.31134639 L18.0859385,9.0343444 L17.3218503,9.0343444 L17.1626391,9.58396693 L16.364063,12.3108217 L16.2091036,12.3108217 L16.0571364,12.8242571 L17.5790136,12.8242571 L17.5279904,12.9954563 L18.2779054,12.9954563 L18.3276688,12.8242571 L18.5380608,12.8242571 L18.7029413,12.2697663 Z M18.0785371,10.1296949 C17.9561759,10.1645838 17.7284612,10.2703866 17.7284612,10.2703866 L17.9309792,9.58396693 L18.5380608,9.58396693 L18.3916053,10.0840959 C18.3916053,10.0840959 18.2040478,10.095455 18.0785371,10.1296949 Z M18.0901905,11.1103176 C18.0901905,11.1103176 17.8994834,11.1349832 17.7739726,11.1641926 C17.6503515,11.2028139 17.4185425,11.3245194 17.4185425,11.3245194 L17.6276746,10.6101887 L18.2379058,10.6101887 L18.0901905,11.1103176 Z M17.7500359,12.276095 L17.1410645,12.276095 L17.3175985,11.6732466 L17.92468,11.6732466 L17.7500359,12.276095 Z M19.2165748,10.6101887 L20.0943629,10.6101887 L19.9682222,11.0311278 L19.0787808,11.0311278 L18.9452385,11.4913373 L19.7234998,11.4913373 L19.1342134,12.3463597 C19.0929539,12.4091599 19.0559463,12.4313914 19.0148443,12.4490793 C18.9735848,12.4706617 18.9194121,12.4959765 18.8567354,12.4959765 L18.6408316,12.4959765 L18.4924863,13 L19.0572061,13 C19.350747,13 19.5241314,12.8623915 19.6521619,12.6817803 L20.056253,12.1118736 L20.143024,12.6905433 C20.161449,12.7989422 20.2370389,12.8623915 20.2882196,12.8870572 C20.3447546,12.9162665 20.4031793,12.9664093 20.4856984,12.9738738 C20.5742015,12.9777684 20.638138,12.9808517 20.6806573,12.9808517 L20.9581354,12.9808517 L21.1247481,12.4167867 L21.0153003,12.4167867 C20.952466,12.4167867 20.844278,12.4059143 20.825853,12.38563 C20.8074279,12.3609643 20.8074279,12.3229922 20.7975067,12.2652226 L20.709476,11.6852548 L20.3490064,11.6852548 L20.5071155,11.4913373 L21.3948246,11.4913373 L21.5313589,11.0311278 L20.709476,11.0311278 L20.8375064,10.6101887 L21.6568697,10.6101887 L21.808837,10.0910737 L19.3660225,10.0910737 L19.2165748,10.6101887 Z M11.8027463,12.3933057 L12.0076265,11.6909832 L12.8496669,11.6909832 L13.0035238,11.1686227 L12.1606961,11.1686227 L12.2893565,10.7363244 L13.1129717,10.7363244 L13.2655689,10.2305158 L11.2047984,10.2305158 L11.0553509,10.7363244 L11.523536,10.7363244 L11.3986551,11.1686227 L10.9292102,11.1686227 L10.773621,11.6999083 L11.2416485,11.6999083 L10.9685799,12.62909 C10.9317298,12.7520938 10.9859027,12.798991 11.0202331,12.8561115 C11.0553509,12.9117715 11.0909412,12.9486077 11.1709405,12.9695411 C11.2534595,12.9885272 11.3099945,12.9998863 11.3868443,12.9998863 L12.3361278,12.9998863 L12.5052602,12.4212167 L12.0844762,12.4807714 C12.0032171,12.4807714 11.7781796,12.4707104 11.8027463,12.3933057 Z M11.8993282,9.03118008 L11.6859441,9.42858948 C11.6402752,9.51540609 11.5991731,9.56928116 11.5621656,9.59410906 C11.5295675,9.61504247 11.4650011,9.62380524 11.3714585,9.62380524 L11.2601208,9.62380524 L11.1113032,10.1322101 L11.4810639,10.1322101 C11.6588577,10.1322101 11.795392,10.0650287 11.8605884,10.0314379 C11.9306665,9.99281667 11.9490915,10.014886 12.0032643,9.96101094 L12.1281453,9.84952858 L13.2827813,9.84952858 L13.4360085,9.32019033 L12.5908185,9.32019033 L12.7383764,9.03118008 L11.8993282,9.03118008 Z M13.603944,12.4035127 C13.5842591,12.3743033 13.5984323,12.3228624 13.6285107,12.2157615 L13.9440987,11.1393971 L15.0667666,11.1393971 C15.2303873,11.136963 15.3484965,11.1350157 15.4253463,11.1293361 C15.5078653,11.120411 15.5976284,11.0900657 15.6954228,11.0355417 C15.7963669,10.9784212 15.84802,10.9182174 15.8916417,10.8490886 C15.9403027,10.7801221 16.0184123,10.6292072 16.0854984,10.3965061 L16.482188,9.03437686 L15.3171583,9.04135468 C15.3171583,9.04135468 14.9584211,9.09587877 14.8004696,9.15608247 C14.6411009,9.22326399 14.4133861,9.41085291 14.4133861,9.41085291 L14.5185822,9.03746007 L13.798903,9.03746007 L12.7913523,12.4807552 C12.7556046,12.614469 12.7316678,12.711509 12.726156,12.7697654 C12.7242662,12.8325655 12.8030058,12.8947165 12.854029,12.9416137 C12.9143435,12.988511 13.0034765,12.9808841 13.0889876,12.988511 C13.1789082,12.9954888 13.3067812,12.9998701 13.483315,12.9998701 L14.0363814,12.9998701 L14.2061437,12.4091923 L13.7110298,12.4573877 C13.6581168,12.4573877 13.6198494,12.4281783 13.603944,12.4035127 Z M14.1477191,10.4124089 L15.326922,10.4124089 L15.251962,10.6545219 C15.2414109,10.6602015 15.2162142,10.6425136 15.0962152,10.6571183 L14.0751213,10.6571183 L14.1477191,10.4124089 Z M14.3839376,9.60038911 L15.5730616,9.60038911 L15.4875505,9.89199572 C15.4875505,9.89199572 14.9270827,9.88631615 14.8373197,9.9033549 C14.4423622,9.9737819 14.2116556,10.1912293 14.2116556,10.1912293 L14.3839376,9.60038911 Z M15.2783554,11.4652922 C15.2685917,11.5014794 15.2531588,11.5235487 15.2315842,11.5401006 C15.2076473,11.5560035 15.1689075,11.561683 15.1111127,11.561683 L14.9430826,11.561683 L14.9530038,11.266831 L14.2541119,11.266831 L14.2257657,12.7083122 C14.2246633,12.8123299 14.234427,12.8725337 14.3082847,12.9207291 C14.3821423,12.9809328 14.6096995,12.9885597 14.9159962,12.9885597 L15.3539454,12.9885597 L15.5120543,12.4489982 L15.1307975,12.4705806 L15.004027,12.4782075 C14.9867043,12.4705806 14.970169,12.4636028 14.951744,12.4446167 C14.935681,12.428227 14.9085947,12.4382881 14.9130041,12.3342703 L14.9159962,11.9647721 L15.3158355,11.9477333 C15.5317392,11.9477333 15.6240219,11.875359 15.7027613,11.8063925 C15.7778788,11.740347 15.8024456,11.6644027 15.8307919,11.561683 L15.8978779,11.2345384 L15.3484335,11.2345384 L15.2783554,11.4652922 Z" fill="#FEFEFE" fill-rule="nonzero"></path>
    </g>
</svg>