<svg viewBox="0 0 16 16" version="1.1" xmlns="http://www.w3.org/2000/svg" xmlns:xlink="http://www.w3.org/1999/xlink">
    <path d="M1.13714864,7.99973883 C1.13714864,10.7163331 2.71581078,13.0637589 5.00499494,14.1763573 L1.73131795,5.20675133 C1.33887816,6.08554697 1.13640611,7.03729911 1.13714864,7.99973883 Z M12.6329535,7.653423 C12.6329535,8.24093239 12.4071692,8.92272534 12.1103457,9.87195978 L11.425941,12.1594463 L8.94583918,4.78208351 C9.3587542,4.76040612 9.73131795,4.71665959 9.73131795,4.71665959 C10.1010088,4.67291306 10.0575234,4.12954197 9.68731024,4.15134994 C9.68731024,4.15134994 8.57601776,4.23845124 7.85831347,4.23845124 C7.18396396,4.23845124 6.05060233,4.15134994 6.05060233,4.15134994 C5.68078091,4.12954197 5.63742614,4.69498221 6.00724756,4.71665959 C6.00724756,4.71665959 6.3573504,4.76040612 6.72691065,4.78208351 L7.79628481,7.71153407 L6.29427704,12.2158597 L3.79510953,4.7822141 C4.20880807,4.76053671 4.58071888,4.71679018 4.58071888,4.71679018 C4.95014854,4.67304365 4.9065326,4.12967255 4.53658059,4.15148053 C4.53658059,4.15148053 3.42541869,4.23858183 2.70758382,4.23858183 C2.57882537,4.23858183 2.42695309,4.23531716 2.26593973,4.23048546 C3.49306258,2.36727498 5.60242891,1.13714864 8,1.13714864 C9.78668669,1.13714864 11.4134047,1.82011688 12.6345206,2.93872221 C12.6047468,2.93702458 12.5758872,2.93323757 12.5454605,2.93323757 C11.8715027,2.93323757 11.3931638,3.52048578 11.3931638,4.15134994 C11.3931638,4.71665959 11.7191081,5.19539029 12.066991,5.76069994 C12.3282949,6.21788384 12.6329535,6.80526264 12.6329535,7.653423 Z M8.1204009,8.60004571 L10.230159,14.3794195 C10.2435136,14.4123616 10.2598619,14.4440091 10.2789984,14.4739643 C9.56560347,14.7246907 8.79919036,14.8629819 8,14.8629819 C7.34371501,14.8629876 6.69082716,14.7687881 6.06131044,14.5832653 L8.1204009,8.60004571 Z M14.0218733,4.70712677 C14.5752183,5.71623469 14.8644204,6.84887559 14.8625902,7.99973883 C14.8625902,10.5316836 13.490255,12.742124 11.449969,13.9318991 L13.5462766,7.87098038 C13.9380366,6.89210277 14.0681009,6.10923574 14.0681009,5.41281708 C14.0681009,5.16052365 14.0513859,4.92572884 14.0218733,4.70712677 Z M8,0 C12.4109562,0 16.0002612,3.58865202 16.0003918,7.99973883 C16.0003918,12.4114786 12.4109562,16 8,16 C3.58878261,16 0,12.411348 0,7.99973883 C0,3.58865202 3.58891319,0 8,0 Z M8,15.6331821 C12.2085469,15.6331821 15.6327903,12.2088081 15.6327903,7.99973883 C15.6327903,3.79106134 12.2086775,0.366948516 8,0.366948516 C3.79106134,0.366948516 0.36681793,3.79106134 0.36681793,7.99973883 C0.36681793,12.2088081 3.79119193,15.6331821 8,15.6331821 Z" fill="#00749A"></path>
</svg>