<svg version="1.0" xmlns="http://www.w3.org/2000/svg" width="18" height="16" viewBox="0 0 256 256" preserveAspectRatio="xMidYMid meet"><g transform="translate(0.000000,221.000000) scale(0.100000,-0.100000)" fill="#ED1C24" stroke="none"><path d="M30 1105 c0 -591 4 -1075 9 -1075 7 0 901 2125 901 2143 0 4 -205 7 -455 7 l-455 0 0 -1075z"/><path d="M1570 2174 c0 -3 122 -296 271 -652 149 -356 272 -651 273 -657 2 -5 14 -35 27 -65 14 -30 92 -216 174 -412 82 -197 153 -358 157 -358 4 0 8 484 8 1075 l0 1075 -455 0 c-250 0 -455 -3 -455 -6z"/><path d="M1187 1238 c-222 -521 -327 -770 -327 -778 0 -6 87 -11 211 -12 l211 -3 83 -210 82 -210 192 -3 c128 -2 191 1 191 8 0 13 -560 1342 -570 1353 -4 5 -37 -61 -73 -145z"/></g></svg>
