<svg role="img" aria-label="Airbnb" viewBox="0 0 15 16" version="1.1" xmlns="http://www.w3.org/2000/svg" xmlns:xlink="http://www.w3.org/1999/xlink">
    <path d="M13.7994516,12.9346563 C13.6874846,13.7661825 13.1279694,14.4857417 12.3445203,14.8055103 C11.9607022,14.9652349 11.5450988,15.013312 11.1293358,14.9652349 C10.7297049,14.9173175 10.3299142,14.7893781 9.91431084,14.5497912 C9.33866348,14.2297032 8.76301612,13.7342376 8.09153397,12.9987059 C9.14683426,11.703659 9.78621177,10.5204192 10.0261181,9.46543838 C10.138085,8.96965328 10.1540574,8.52194528 10.1061401,8.1061822 C10.0422503,7.7065513 9.89833843,7.33870562 9.67440452,7.01893699 C9.17877919,6.29953745 8.34741275,5.88377438 7.42005183,5.88377438 C6.4926909,5.88377438 5.66132445,6.31550991 5.16569907,7.01893699 C4.94176521,7.33870562 4.79801309,7.7065513 4.73396353,8.1061822 C4.6700737,8.52194528 4.68604616,8.98562574 4.81398555,9.46543838 C5.05373214,10.5204192 5.70924182,11.7196314 6.74856968,13.0145186 C6.09306,13.75021 5.50144014,14.2458354 4.92579275,14.565604 C4.51018939,14.8055103 4.11039877,14.9334497 3.71076787,14.9812074 C3.27903232,15.0292845 2.86326923,14.9652349 2.49558325,14.8214828 C1.71213418,14.5017141 1.15261897,13.7819952 1.04065204,12.9506288 C0.992734667,12.5509979 1.02467958,12.151367 1.18456389,11.703659 C1.23248126,11.5436149 1.31250328,11.3840501 1.39236557,11.1920611 C1.5043325,10.9363421 1.63227189,10.6643311 1.76005155,10.3924799 L1.77618374,10.3606947 C2.87924169,7.97824284 4.06248139,5.54803332 5.29363846,3.18187338 L5.34155584,3.08571918 C5.46949523,2.84613231 5.59727489,2.59041326 5.72537401,2.35050693 C5.85315368,2.09462816 5.99706551,1.85472184 6.17292226,1.64676043 C6.50866336,1.26294226 6.95637136,1.05514058 7.45199675,1.05514058 C7.94762209,1.05514058 8.39533009,1.26294226 8.73107119,1.64676043 C8.90692794,1.85472184 9.05083977,2.09462816 9.17877919,2.35050693 C9.30671855,2.59041326 9.4344982,2.84613231 9.56243762,3.08571918 L9.61051472,3.18187338 C10.8255396,5.56400578 12.0087793,7.9942153 13.111997,10.3766671 L13.111997,10.3924799 C13.2399363,10.6483587 13.3517436,10.9363421 13.479683,11.1920611 C13.559705,11.3840501 13.6395672,11.5436149 13.6874846,11.703659 C13.8154241,12.1192623 13.8633414,12.5192126 13.7994516,12.9346563 Z M7.42005183,12.1831521 C6.55674046,11.0960667 5.99706551,10.0727112 5.80523629,9.20955959 C5.72537401,8.84171391 5.70924182,8.52194528 5.75731892,8.23412162 C5.78926384,7.97824284 5.88525832,7.75430899 6.01303797,7.56232 C6.31683414,7.13106365 6.82843194,6.85873322 7.42005183,6.85873322 C8.01167165,6.85873322 8.53924197,7.11477171 8.82706562,7.56232 C8.95484533,7.75430899 9.05083977,7.97824284 9.0827847,8.23412162 C9.13070209,8.52194528 9.11472962,8.85768638 9.0348673,9.20955959 C8.84303809,10.0568985 8.28336319,11.0800942 7.42005183,12.1831521 Z M14.630818,11.3517857 C14.5509557,11.1599565 14.4709337,10.9521548 14.3910714,10.776298 C14.2631321,10.4886341 14.1351926,10.2166231 14.0232257,9.96074435 L14.0072533,9.94493159 C12.9041953,7.5465073 11.7209556,5.11629778 10.4738261,2.71835264 L10.4259087,2.62219845 C10.2979693,2.38229213 10.1700299,2.12641334 10.0422503,1.8706943 C9.8822062,1.58271088 9.72232191,1.27923417 9.46660284,0.991250748 C8.95484533,0.351713528 8.21947333,0 7.43602429,0 C6.63660272,0 5.91720325,0.351713528 5.38947321,0.959465559 C5.14972661,1.24712953 4.97386985,1.55092568 4.81398555,1.8389091 C4.68604616,2.09462816 4.55810677,2.35050693 4.43016738,2.59041326 L4.38225001,2.68608828 C3.15125265,5.08435286 1.9520405,7.51472209 0.848822823,9.91298667 L0.832850365,9.94493159 C0.720883432,10.2006507 0.59294404,10.4723421 0.465004653,10.7603256 C0.385142363,10.9363421 0.305120348,11.1281713 0.225258057,11.335973 C0.0172966524,11.9274331 -0.04659318,12.487108 0.0332691106,13.0625957 C0.209285599,14.2618078 1.00870712,15.2691908 2.11192481,15.7167391 C2.52752817,15.8927555 2.95926371,15.9726179 3.40697171,15.9726179 C3.5349111,15.9726179 3.69479541,15.9566454 3.82273479,15.9405132 C4.35030509,15.8764637 4.89384784,15.7009263 5.42141813,15.3969704 C6.07708754,15.0292845 6.70065229,14.5017141 7.40407936,13.7342376 C8.10750643,14.5017141 8.74704365,15.0292845 9.38658087,15.3969704 C9.91431084,15.7009263 10.4578536,15.8764637 10.9854239,15.9405132 C11.1133633,15.9566454 11.2732476,15.9726179 11.401187,15.9726179 C11.848895,15.9726179 12.2964432,15.8927555 12.6962339,15.7167391 C13.8154241,15.2691908 14.5988731,14.2458354 14.7747299,13.0625957 C14.9026693,12.5029208 14.8386197,11.9435653 14.630818,11.3517857 Z" fill="#E0565B" fill-rule="nonzero"></path>
</svg>