<svg xmlns="http://www.w3.org/2000/svg" width="45" height="16"><g fill="#246EA9" transform="translate(1 2)"><path d="M22.192 5.232v-.998s-.054-.781-.882-.781h-1.288v1.779H18.7V.102h3.21s1.674-.2 1.674 1.501c0 .886-.74 1.198-.74 1.198s.643.296.643 1.164v1.267h-1.295m-2.17-2.986h1.367c.397 0 .723-.217.723-.486 0-.27-.326-.487-.723-.487h-1.367v.973"/><path d="M37.796 5.232l-2.098-3.429v3.429H33.106l-.467-1.076h-2.416l-.459 1.076h-2.072s-1.78-.251-1.78-2.422c0-2.848 2.02-2.735 2.089-2.752l1.631.044v1.154l-1.34.017s-.873 0-.979 1.12a3.42 3.42 0 0 0-.017.357c.005 1.735 1.529 1.196 1.578 1.18l1.64-3.828h1.85l1.984 4.653V.102h1.87l2.071 3.377V.102h1.332v5.13h-1.825m-7.008-2.387h1.286l-.634-1.528-.652 1.528"/><path d="M11.815 5.232V1.691l-1.657 3.541H9.074L7.408 1.708v3.524H4.798L4.34 4.156H1.925l-.468 1.076H.011L2.206.102h1.86l2.01 4.714V.102h2.09L9.62 3.288 11.067.102h2.09v5.13h-1.342M2.488 2.845h1.287l-.643-1.528-.644 1.528"/><path transform="translate(13.827 .099)" d="M0.06 5.133L0.06 0.003 4.187 0.003 4.187 1.201 1.392 1.201 1.392 1.991 4.116 1.991 4.116 3.154 1.392 3.154 1.392 4.023 4.187 4.023 4.187 5.133 0.06 5.133"/><path transform="translate(24.047 .099)" d="M0.085 5.151L0.085 0.003 1.416 0.003 1.416 5.151 0.085 5.151"/><g transform="translate(9.519 6.519)"><path d="M17.778 5.248V4.25s-.053-.781-.882-.781H15.61v1.78h-1.322V.117h3.209s1.675-.2 1.675 1.502c0 .885-.74 1.198-.74 1.198s.635.295.635 1.163v1.268h-1.288M15.61 2.262h1.368c.396 0 .722-.216.722-.486 0-.269-.326-.486-.722-.486h-1.368v.972"/><path d="M8.962 5.24H7.806l-1.4-1.52-1.412 1.52H.075V.1H4.89l1.517 1.633L7.931.109h1.014V.1h3.208s1.675-.182 1.675 1.51c0 1.511-.556 1.98-2.266 1.98h-1.295v1.65H8.962M7.305 2.714l1.64 1.788V.934l-1.64 1.78M1.407 4.13h2.785l1.305-1.415-1.305-1.407H1.407v.79h2.715V3.26H1.407v.868m8.86-1.876h1.366c.397 0 .723-.217.723-.486s-.326-.487-.723-.487h-1.366v.973"/><path d="M26.796 5.232h-2.354V4.05h2.063s.74.087.74-.407c0-.461-1.118-.425-1.118-.425s-1.825.156-1.825-1.528C24.302.014 25.95.11 25.95.11h2.54v1.197h-2.046s-.706-.14-.706.366c0 .424.96.363.96.363s2.02-.147 2.02 1.398c0 1.657-1.301 1.804-1.762 1.804-.1 0-.16-.006-.16-.006"/><path transform="translate(19.638 .099)" d="M0.08 5.141L0.08 0.019 4.204 0.019 4.204 1.208 1.41 1.208 1.41 1.998 4.134 1.998 4.134 3.162 1.41 3.162 1.41 4.031 4.204 4.031 4.204 5.141 0.08 5.141"/><path d="M31.46 5.232h-2.355V4.05h2.055s.749.087.749-.407c0-.461-1.119-.425-1.119-.425s-1.825.156-1.825-1.528c0-1.676 1.648-1.58 1.648-1.58h2.53v1.197h-2.037s-.705-.14-.705.366c0 .424.962.363.962.363s2.018-.147 2.018 1.398c0 1.657-1.3 1.804-1.762 1.804-.1 0-.16-.006-.16-.006"/></g></g></svg>