<svg role="img" aria-label="Bitbucket" viewBox="0 0 18 16" version="1.1" xmlns="http://www.w3.org/2000/svg" xmlns:xlink="http://www.w3.org/1999/xlink">
    <defs>
        <linearGradient x1="108.63338%" y1="13.818022%" x2="46.9265964%" y2="78.7761408%" id="linearGradient-1">
            <stop stop-color="#0052CC" offset="18%"></stop>
            <stop stop-color="#2684FF" offset="100%"></stop>
        </linearGradient>
    </defs>
    <polygon id="Path" points="7.01451692 10.5670151 10.7165861 10.5670151 11.6101891 5.35007623 6.0301353 5.35007623"></polygon>
    <path d="M0.575454938,4.7341869e-05 C0.407621108,-0.00211730194 0.247420026,0.0700437534 0.137825554,0.197173341 C0.0282310822,0.324302928 -0.0195384243,0.493387755 0.00733118072,0.6590709 L2.41901653,15.2996202 C2.48104147,15.669439 2.79964991,15.9413342 3.17462113,15.9444406 L14.7444614,15.9444406 C15.0259059,15.948063 15.2675737,15.745062 15.3125852,15.4672166 L17.7242705,0.661911519 C17.7511402,0.496228373 17.7033707,0.327143548 17.5937762,0.200013959 C17.4841817,0.0728843719 17.3239806,0.000723316843 17.1561468,0.00288796065 L0.575454938,4.7341869e-05 Z M10.7306671,10.5813523 L7.03786265,10.5813523 L6.03796486,5.35745437 L11.625462,5.35745437 L10.7306671,10.5813523 Z" id="Shape" fill="#2684FF" fill-rule="nonzero"></path>
    <path d="M16.9427411,5.35007623 L11.6151533,5.35007623 L10.7210722,10.5698065 L7.03121392,10.5698065 L2.67434275,15.7412849 C2.81243632,15.8606951 2.98849946,15.9270961 3.17105445,15.9286162 L14.7345027,15.9286162 C15.0157226,15.9322356 15.2571976,15.7293966 15.3021732,15.451773 L16.9427411,5.35007623 Z" id="Path" fill="url(#linearGradient-1)"></path>
</svg>