<svg role="img" aria-label="Cloudflare" viewBox="0 0 35 16" version="1.1" xmlns="http://www.w3.org/2000/svg" xmlns:xlink="http://www.w3.org/1999/xlink">
    <path d="M27.6727385,6.89148718 L26.9464479,6.60102564 C23.5329778,14.2815726 9.95362735,9.61217094 9.13653333,11.8970256 C9.00032821,13.4404103 16.5521915,12.1904957 21.9510291,12.4521026 C23.597388,12.5318291 24.4229607,13.7746325 23.7238838,15.8003419 L25.100841,15.8045812 C26.6892171,10.8529231 31.7583453,13.3799658 31.9701744,11.7457778 C31.6221402,10.6713162 26.1443966,11.7457778 27.6727385,6.89148718 Z" fill="#FFFFFF"></path>
    <path d="M24.1137778,14.9536137 C24.3316239,14.2273231 24.2590085,13.5010325 23.8959316,13.0652034 C23.5327179,12.6293744 23.0242735,12.3389128 22.3705983,12.2662974 L9.73264957,12.1209299 C9.66003419,12.1209299 9.5874188,12.0483145 9.51480342,12.0483145 C9.44218803,11.9756991 9.44218803,11.9030838 9.51480342,11.8304684 C9.5874188,11.6852376 9.66003419,11.6124855 9.80526496,11.6124855 L22.5158291,11.4672547 C24.0411624,11.3946393 25.6391111,10.1599043 26.2200342,8.70732308 L26.9464615,6.81891282 C26.9464615,6.74616068 27.0190769,6.6735453 26.9464615,6.60092991 C26.1474188,2.89672479 22.8064274,0.13665641 18.8842393,0.13665641 C15.2526496,0.13665641 12.1295043,2.46089573 11.04,5.72940855 C10.3137094,5.2209641 9.44218803,4.93036581 8.42529915,5.00311795 C6.68211966,5.14834872 5.30215385,6.60092991 5.08417094,8.3441094 C5.01155556,8.77993846 5.08417094,9.21576752 5.15692308,9.65145983 C2.32423932,9.72407521 0,12.0483145 0,14.9536137 C0,15.2440752 0,15.4620581 0.0726153846,15.7525197 C0.0726153846,15.8978872 0.217846154,15.9705026 0.290598291,15.9705026 L23.6053333,15.9705026 C23.7505641,15.9705026 23.8959316,15.8978872 23.8959316,15.7525197 L24.1137778,14.9536137 Z" fill="#F4811F"></path>
    <path d="M28.1085265,6.81884444 L27.7453128,6.81884444 C27.6726974,6.81884444 27.6000821,6.89145983 27.5274667,6.96407521 L27.0190222,8.7072547 C26.8011761,9.4335453 26.8737915,10.1599726 27.2370051,10.595665 C27.6000821,11.031494 28.1085265,11.3219556 28.7622017,11.3947077 L31.4496547,11.5399385 C31.5222701,11.5399385 31.5948855,11.6125538 31.6675009,11.6125538 C31.7401162,11.6851692 31.7401162,11.7577846 31.6675009,11.8304 C31.5948855,11.9757675 31.5222701,12.0483829 31.3769026,12.0483829 L28.6169709,12.1936137 C27.0916376,12.2662291 25.4938256,13.5009641 24.9127658,14.9535453 L24.7673983,15.6073573 C24.6947829,15.6799726 24.7673983,15.8252034 24.9127658,15.8252034 L34.5001846,15.8252034 C34.6454154,15.8252034 34.7180308,15.752588 34.7180308,15.6073573 C34.8632615,15.0262974 35.0084923,14.3726222 35.0084923,13.7188103 C35.0084923,9.94198974 31.885347,6.81884444 28.1085265,6.81884444" fill="#FAAD3F"></path>
</svg>