<svg role="img" aria-label="CSS3" viewBox="0 0 12 13" version="1.1" xmlns="http://www.w3.org/2000/svg" xmlns:xlink="http://www.w3.org/1999/xlink">
    <polygon id="Path" fill="#264DE4" points="5.66621022 12.959575 1.04871864 11.6777282 0.0197312715 0.136430551 11.3265291 0.136430551 10.2964507 11.6759203"></polygon>
    <polygon id="Path" fill="#2965F1" points="9.41459071 10.9411252 10.294861 1.08010277 5.67313019 1.08010277 5.67313019 11.9784041"></polygon>
    <polygon id="Path" fill="#EBEBEB" points="2.37866244 5.36060419 2.5055286 6.77608133 5.67313019 6.77608133 5.67313019 5.36060419"></polygon>
    <polygon id="Path" fill="#EBEBEB" points="2.12374564 2.49561108 2.25241971 3.91111942 5.67313019 3.91111942 5.67313019 2.49561108"></polygon>
    <polygon id="Path" fill="#EBEBEB" points="5.67313019 9.03679255 5.66692716 9.03844463 4.09048273 8.61277283 3.98970673 7.48385108 2.56877465 7.48385108 2.76708484 9.70637775 5.66661545 10.5113077 5.67313019 10.5094997"></polygon>
    <polygon id="Path" fill="#FFFFFF" points="8.95852716 5.36060419 9.21406741 2.49561108 5.66823632 2.49561108 5.66823632 3.91111942 7.66280917 3.91111942 7.53401042 5.36060419 5.66823632 5.36060419 5.66823632 6.77608133 7.41125881 6.77608133 7.24695628 8.61186885 5.66823632 9.03797704 5.66823632 10.5106219 8.57007362 9.70637775 8.59136341 9.46723351 8.92398963 5.74070391"></polygon>
</svg>