<svg role="img" aria-label="Dribbble" viewBox="0 0 16 16" version="1.1" xmlns="http://www.w3.org/2000/svg" xmlns:xlink="http://www.w3.org/1999/xlink">
    <path d="M8,0.53125 C12.125,0.53125 15.4625,3.86875 15.4625,7.9875 C15.4625,12.10625 12.125,15.45 8,15.45 C3.875,15.45 0.5375,12.1125 0.5375,7.99375 C0.5375,3.875 3.875,0.53125 8,0.53125 Z" id="Path" fill="#E74D89"></path>
    <path d="M8,15.98125 C3.5875,15.98125 0,12.4 0,7.99375 C0,3.58125 3.5875,0 8,0 C12.4125,0 16,3.58125 16,7.9875 C16,12.39375 12.4125,15.98125 8,15.98125 Z M14.74375,9.08125 C14.5125,9.00625 12.63125,8.45 10.4875,8.7875 C11.38125,11.2375 11.74375,13.2375 11.8125,13.65 C13.35,12.61875 14.44375,10.98125 14.74375,9.08125 Z M10.66875,14.28125 C10.56875,13.68125 10.16875,11.59375 9.2125,9.10625 C9.2,9.1125 9.18125,9.11875 9.16875,9.11875 C5.3125,10.4625 3.93125,13.13125 3.80625,13.38125 C4.9625,14.28125 6.41875,14.81875 8,14.81875 C8.94375,14.825 9.85,14.63125 10.66875,14.28125 Z M2.925,12.5625 C3.08125,12.3 4.95625,9.2 8.48125,8.05625 C8.56875,8.025 8.6625,8 8.75,7.975 C8.58125,7.5875 8.39375,7.2 8.19375,6.81875 C4.78125,7.8375 1.46875,7.79375 1.16875,7.7875 C1.16875,7.85625 1.1625,7.925 1.1625,7.99375 C1.16875,9.75 1.83125,11.35 2.925,12.5625 Z M1.3125,6.6 C1.61875,6.60625 4.43125,6.61875 7.63125,5.76875 C6.5,3.75625 5.275,2.06875 5.1,1.825 C3.18125,2.725 1.75625,4.4875 1.3125,6.6 Z M6.4,1.3625 C6.5875,1.6125 7.83125,3.3 8.95,5.35625 C11.38125,4.44375 12.40625,3.06875 12.53125,2.89375 C11.325,1.825 9.7375,1.175 8,1.175 C7.45,1.175 6.9125,1.24375 6.4,1.3625 Z M13.2875,3.68125 C13.14375,3.875 12,5.34375 9.475,6.375 C9.63125,6.7 9.7875,7.03125 9.93125,7.3625 C9.98125,7.48125 10.03125,7.6 10.08125,7.7125 C12.35625,7.425 14.6125,7.8875 14.8375,7.93125 C14.81875,6.325 14.24375,4.84375 13.2875,3.68125 Z" fill="#B2215A" fill-rule="nonzero"></path>
</svg>