<svg role="img" aria-label="Firefox" viewBox="0 0 16 16" version="1.1" xmlns="http://www.w3.org/2000/svg" xmlns:xlink="http://www.w3.org/1999/xlink">
    <defs>
        <radialGradient cx="101.594678%" cy="41.2241021%" fx="101.594678%" fy="41.2241021%" r="183.562355%" gradientTransform="translate(1.015947,0.412241),scale(1.000000,0.362763),rotate(2.260416),translate(-1.015947,-0.412241)" id="radialGradient-1">
            <stop stop-color="#FFEA00" offset="10%"></stop>
            <stop stop-color="#FFDE00" offset="17%"></stop>
            <stop stop-color="#FFBF00" offset="28%"></stop>
            <stop stop-color="#FF8E00" offset="43%"></stop>
            <stop stop-color="#FF272D" offset="77%"></stop>
            <stop stop-color="#E0255A" offset="87%"></stop>
            <stop stop-color="#CC2477" offset="95%"></stop>
            <stop stop-color="#C42482" offset="100%"></stop>
        </radialGradient>
        <radialGradient cx="66.4325008%" cy="7.79789291%" fx="66.4325008%" fy="7.79789291%" r="109.667491%" gradientTransform="translate(0.664325,0.077979),scale(1.000000,0.994990),translate(-0.664325,-0.077979)" id="radialGradient-2">
            <stop stop-color="#00CCDA" offset="0%"></stop>
            <stop stop-color="#0083FF" offset="22%"></stop>
            <stop stop-color="#007AF9" offset="26%"></stop>
            <stop stop-color="#0060E8" offset="33%"></stop>
            <stop stop-color="#005FE7" offset="33%"></stop>
            <stop stop-color="#2639AD" offset="44%"></stop>
            <stop stop-color="#401E84" offset="52%"></stop>
            <stop stop-color="#4A1475" offset="57%"></stop>
        </radialGradient>
        <linearGradient x1="57.3338369%" y1="75.1977606%" x2="35.1473889%" y2="6.72996743%" id="linearGradient-3">
            <stop stop-color="#000F43" stop-opacity="0.4" offset="0%"></stop>
            <stop stop-color="#001962" stop-opacity="0.17" offset="48%"></stop>
            <stop stop-color="#002079" stop-opacity="0" offset="100%"></stop>
        </linearGradient>
        <radialGradient cx="134.734521%" cy="-11.5037023%" fx="134.734521%" fy="-11.5037023%" r="171.975147%" gradientTransform="translate(1.347345,-0.115037),scale(0.923373,1.000000),rotate(5.617424),translate(-1.347345,0.115037)" id="radialGradient-4">
            <stop stop-color="#FFEA00" offset="0%"></stop>
            <stop stop-color="#FF272D" offset="50%"></stop>
            <stop stop-color="#C42482" offset="100%"></stop>
        </radialGradient>
        <radialGradient cx="113.028833%" cy="-43.5868421%" fx="113.028833%" fy="-43.5868421%" r="454.656202%" gradientTransform="translate(1.130288,-0.435868),scale(1.000000,0.541036),rotate(5.617424),translate(-1.130288,0.435868)" id="radialGradient-5">
            <stop stop-color="#FFE900" offset="0%"></stop>
            <stop stop-color="#FFAF0E" offset="16%"></stop>
            <stop stop-color="#FF7A1B" offset="32%"></stop>
            <stop stop-color="#FF4E26" offset="47%"></stop>
            <stop stop-color="#FF2C2E" offset="62%"></stop>
            <stop stop-color="#FF1434" offset="76%"></stop>
            <stop stop-color="#FF0538" offset="89%"></stop>
            <stop stop-color="#FF0039" offset="100%"></stop>
        </radialGradient>
        <radialGradient cx="201.19843%" cy="16.7243094%" fx="201.19843%" fy="16.7243094%" r="377.873134%" gradientTransform="translate(2.011984,0.167243),scale(0.533234,1.000000),rotate(5.617424),translate(-2.011984,-0.167243)" id="radialGradient-6">
            <stop stop-color="#FF272D" offset="0%"></stop>
            <stop stop-color="#C42482" offset="50%"></stop>
            <stop stop-color="#620700" offset="99%"></stop>
        </radialGradient>
        <radialGradient cx="76.8104384%" cy="39.134765%" fx="76.8104384%" fy="39.134765%" r="84.0488431%" gradientTransform="translate(0.768104,0.391348),scale(1.000000,0.959670),translate(-0.768104,-0.391348)" id="radialGradient-7">
            <stop stop-color="#FFEA00" offset="16%"></stop>
            <stop stop-color="#FFDE00" offset="23%"></stop>
            <stop stop-color="#FFBF00" offset="37%"></stop>
            <stop stop-color="#FF8E00" offset="54%"></stop>
            <stop stop-color="#FF272D" offset="76%"></stop>
            <stop stop-color="#F92433" offset="80%"></stop>
            <stop stop-color="#E91C45" offset="84%"></stop>
            <stop stop-color="#CF0E62" offset="89%"></stop>
            <stop stop-color="#B5007F" offset="94%"></stop>
        </radialGradient>
        <radialGradient cx="28.6254316%" cy="3.35411049%" fx="28.6254316%" fy="3.35411049%" r="241.341555%" gradientTransform="translate(0.286254,0.033541),scale(1.000000,0.396112),translate(-0.286254,-0.033541)" id="radialGradient-8">
            <stop stop-color="#FFEA00" offset="28%"></stop>
            <stop stop-color="#FFDD00" offset="40%"></stop>
            <stop stop-color="#FFBA00" offset="63%"></stop>
            <stop stop-color="#FF9100" offset="86%"></stop>
            <stop stop-color="#FF6711" offset="93%"></stop>
            <stop stop-color="#FF4A1D" offset="99%"></stop>
        </radialGradient>
        <linearGradient x1="-144.246387%" y1="71.2220922%" x2="140.920841%" y2="33.0072913%" id="linearGradient-9">
            <stop stop-color="#C42482" stop-opacity="0.5" offset="0%"></stop>
            <stop stop-color="#FF272D" stop-opacity="0.5" offset="47%"></stop>
            <stop stop-color="#FF2C2C" stop-opacity="0.51" offset="49%"></stop>
            <stop stop-color="#FF7A1A" stop-opacity="0.72" offset="68%"></stop>
            <stop stop-color="#FFB20D" stop-opacity="0.87" offset="83%"></stop>
            <stop stop-color="#FFD605" stop-opacity="0.96" offset="94%"></stop>
            <stop stop-color="#FFE302" offset="100%"></stop>
        </linearGradient>
        <linearGradient x1="57.7114481%" y1="97.6589433%" x2="20.9879382%" y2="8.87636636%" id="linearGradient-10">
            <stop stop-color="#891551" stop-opacity="0.6" offset="0%"></stop>
            <stop stop-color="#C42482" stop-opacity="0" offset="100%"></stop>
        </linearGradient>
        <linearGradient x1="7.27612549%" y1="5.86811925%" x2="46.8936529%" y2="46.8517893%" id="linearGradient-11">
            <stop stop-color="#891551" stop-opacity="0.5" offset="1%"></stop>
            <stop stop-color="#FF272D" stop-opacity="0.5" offset="48%"></stop>
            <stop stop-color="#FF272D" stop-opacity="0" offset="100%"></stop>
        </linearGradient>
        <linearGradient x1="47.6200657%" y1="98.3696928%" x2="50.1240179%" y2="27.7068609%" id="linearGradient-12">
            <stop stop-color="#C42482" offset="0%"></stop>
            <stop stop-color="#C42482" stop-opacity="0.81" offset="8%"></stop>
            <stop stop-color="#C42482" stop-opacity="0.57" offset="21%"></stop>
            <stop stop-color="#C42482" stop-opacity="0.36" offset="33%"></stop>
            <stop stop-color="#C42482" stop-opacity="0.2" offset="45%"></stop>
            <stop stop-color="#C42482" stop-opacity="0.09" offset="56%"></stop>
            <stop stop-color="#C42482" stop-opacity="0.02" offset="67%"></stop>
            <stop stop-color="#C42482" stop-opacity="0" offset="77%"></stop>
        </linearGradient>
        <linearGradient x1="6.37222552%" y1="1.68039216%" x2="92.3555248%" y2="89.4529412%" id="linearGradient-13">
            <stop stop-color="#FFF14F" offset="0%"></stop>
            <stop stop-color="#FFEE4C" offset="27%"></stop>
            <stop stop-color="#FFE643" offset="45%"></stop>
            <stop stop-color="#FFD834" offset="61%"></stop>
            <stop stop-color="#FFC41E" offset="76%"></stop>
            <stop stop-color="#FFAB02" offset="89%"></stop>
            <stop stop-color="#FFA900" offset="90%"></stop>
            <stop stop-color="#FFA000" offset="95%"></stop>
            <stop stop-color="#FF9100" offset="100%"></stop>
        </linearGradient>
        <linearGradient x1="71.8185621%" y1="7.14013496%" x2="42.7610887%" y2="81.8726885%" id="linearGradient-14">
            <stop stop-color="#FF8E00" offset="0%"></stop>
            <stop stop-color="#FF8E00" stop-opacity="0.86" offset="4%"></stop>
            <stop stop-color="#FF8E00" stop-opacity="0.73" offset="8%"></stop>
            <stop stop-color="#FF8E00" stop-opacity="0.63" offset="13%"></stop>
            <stop stop-color="#FF8E00" stop-opacity="0.56" offset="18%"></stop>
            <stop stop-color="#FF8E00" stop-opacity="0.51" offset="23%"></stop>
            <stop stop-color="#FF8E00" stop-opacity="0.5" offset="28%"></stop>
            <stop stop-color="#FF8E00" stop-opacity="0.48" offset="39%"></stop>
            <stop stop-color="#FF8E00" stop-opacity="0.42" offset="52%"></stop>
            <stop stop-color="#FF8E00" stop-opacity="0.31" offset="68%"></stop>
            <stop stop-color="#FF8E00" stop-opacity="0.17" offset="84%"></stop>
            <stop stop-color="#FF8E00" stop-opacity="0" offset="100%"></stop>
        </linearGradient>
    </defs>
            <path d="M12.4860377,1.48528302 C12.0996226,1.93811321 11.9184906,2.95245283 12.3109434,3.98490566 C12.7033962,5.01735849 13.3071698,4.79396226 13.6815094,5.8445283 C14.1766038,7.23320755 13.9471698,9.09886792 13.9471698,9.09886792 C13.9471698,9.09886792 14.5449057,10.8256604 14.9615094,8.99018868 C15.885283,5.54264151 12.4860377,2.33660377 12.4860377,1.48528302 Z" id="Path" fill="url(#radialGradient-1)"></path>
            <path d="M7.75245283,15.8007547 C11.7313208,15.8007547 14.949434,12.5645283 14.949434,8.56754717 C14.949434,4.57056604 11.725283,1.34037736 7.75245283,1.34037736 C3.77962264,1.34037736 0.561509434,4.57660377 0.561509434,8.56754717 C0.555471698,12.5645283 3.77962264,15.8007547 7.75245283,15.8007547 Z" id="_Path_" fill="url(#radialGradient-2)"></path>
            <path d="M13.1441509,13.029434 C12.9871698,13.1381132 12.8241509,13.234717 12.6550943,13.325283 C12.8784906,12.9932075 13.0898113,12.6550943 13.2769811,12.3049057 C13.4279245,12.1358491 13.5728302,11.9728302 13.6875472,11.7916981 C13.7418868,11.7011321 13.8083019,11.5984906 13.874717,11.4716981 C14.2792453,10.7411321 14.7260377,9.56377358 14.7381132,8.35622642 L14.7381132,8.26566038 C14.7381132,7.96377358 14.7079245,7.65584906 14.6475472,7.36 C14.6535849,7.38415094 14.6535849,7.40830189 14.6596226,7.43245283 C14.6535849,7.41433962 14.6535849,7.39622642 14.6475472,7.37811321 C14.6535849,7.40830189 14.6596226,7.4445283 14.6656604,7.47471698 C14.7501887,8.17509434 14.6898113,8.85735849 14.3939623,9.3645283 C14.3879245,9.37056604 14.3818868,9.37660377 14.3818868,9.38867925 C14.5328302,8.62188679 14.5871698,7.77660377 14.4181132,6.93132075 C14.4181132,6.93132075 14.3516981,6.52075472 13.8445283,5.2709434 C13.554717,4.55245283 13.0354717,3.96075472 12.5826415,3.53207547 C12.1841509,3.03698113 11.8158491,2.70490566 11.6166038,2.49358491 C11.2,2.05283019 11.0249057,1.72075472 10.9524528,1.50943396 C10.8920755,1.47924528 10.0890566,0.700377358 10.0286792,0.670188679 C9.67849057,1.21358491 8.58566038,2.90415094 9.10490566,4.48 C9.34037736,5.19849057 9.93811321,5.94113208 10.5660377,6.35773585 C10.5962264,6.38792453 10.9403774,6.76226415 11.1033962,7.60754717 C11.2724528,8.48301887 11.1818868,9.15924528 10.8377358,10.1675472 C10.4271698,11.0490566 9.37660377,11.9245283 8.39245283,12.0150943 C6.29132075,12.2083019 5.51849057,10.9584906 5.51849057,10.9584906 C6.26716981,11.2603774 7.10037736,11.1939623 7.60754717,10.8860377 C8.11471698,10.5720755 8.42264151,10.3366038 8.67622642,10.4271698 C8.92377358,10.5177358 9.11698113,10.2520755 8.94188679,9.97433962 C8.66415094,9.54566038 8.15698113,9.32830189 7.65584906,9.41283019 C7.14867925,9.49735849 6.67773585,9.90188679 6.01358491,9.50943396 C5.97132075,9.48528302 5.9290566,9.45509434 5.88679245,9.42490566 C5.8445283,9.39471698 6.03169811,9.46716981 5.98339623,9.43698113 C5.85660377,9.3645283 5.62113208,9.21358491 5.56679245,9.15924528 C5.55471698,9.14716981 5.66943396,9.1954717 5.65735849,9.18339623 C5.0354717,8.67018868 5.11396226,8.32 5.13207547,8.10264151 C5.15018868,7.92754717 5.25886792,7.70415094 5.45207547,7.61358491 C5.54264151,7.66188679 5.60301887,7.70415094 5.60301887,7.70415094 C5.60301887,7.70415094 5.56075472,7.62566038 5.54264151,7.58339623 C5.54867925,7.57735849 5.55471698,7.58339623 5.56679245,7.57735849 C5.64528302,7.61358491 5.80830189,7.71018868 5.89886792,7.7645283 C6.01358491,7.84301887 6.04981132,7.9154717 6.04981132,7.9154717 C6.04981132,7.9154717 6.08,7.89735849 6.05584906,7.8309434 C6.04981132,7.80075472 6.01358491,7.71018868 5.89886792,7.61962264 L5.90490566,7.61962264 C5.97132075,7.65584906 6.03773585,7.70415094 6.09811321,7.75245283 C6.12830189,7.63773585 6.18867925,7.51698113 6.17660377,7.29962264 C6.17056604,7.14867925 6.17056604,7.10641509 6.14641509,7.04603774 C6.12226415,6.99773585 6.15849057,6.97358491 6.20075472,7.02792453 C6.19471698,6.98566038 6.18264151,6.94339623 6.1645283,6.90716981 L6.1645283,6.90113208 C6.21886792,6.72 7.26943396,6.24301887 7.34792453,6.18867925 C7.47471698,6.09811321 7.57735849,5.98339623 7.65584906,5.85056604 C7.71622642,5.76 7.75849057,5.62716981 7.77056604,5.42792453 C7.77660377,5.28301887 7.71018868,5.18641509 6.64150943,5.07773585 C6.35169811,5.04754717 6.17660377,4.83622642 6.08,4.64301887 C6.06188679,4.60075472 6.04377358,4.5645283 6.02566038,4.52226415 C6.00754717,4.48 5.9954717,4.43169811 5.98339623,4.38339623 C6.15849057,3.88226415 6.44830189,3.45962264 6.88301887,3.13962264 C6.90716981,3.1154717 6.78641509,3.14566038 6.81056604,3.12150943 C6.84075472,3.09735849 7.01584906,3.02490566 7.05207547,3.00679245 C7.09433962,2.98867925 6.87698113,2.89207547 6.68377358,2.91622642 C6.49056604,2.94037736 6.44830189,2.9645283 6.33962264,3.00679245 C6.38188679,2.9645283 6.52075472,2.90415094 6.49056604,2.91018868 C6.27924528,2.94037736 6.01962264,3.06716981 5.79622642,3.20603774 C5.79622642,3.18188679 5.80226415,3.15773585 5.80830189,3.13358491 C5.70566038,3.17584906 5.44603774,3.35698113 5.37358491,3.50792453 C5.37962264,3.47773585 5.37962264,3.44754717 5.37962264,3.41735849 C5.30113208,3.48377358 5.22867925,3.55622642 5.16830189,3.64075472 L5.13207547,3.65283019 C4.52830189,3.41132075 3.9909434,3.39320755 3.54415094,3.50188679 C3.44754717,3.40528302 3.39924528,3.47773585 3.16981132,2.98264151 C3.15169811,2.95245283 3.18188679,3.01283019 3.16981132,2.98264151 C3.13358491,2.88603774 3.19396226,3.10943396 3.16981132,2.98264151 C2.7954717,3.2845283 2.30037736,3.62264151 2.05886792,3.85811321 C2.05886792,3.87018868 2.33660377,3.77962264 2.05886792,3.85811321 C1.96226415,3.88830189 1.96830189,3.94264151 1.95622642,4.46792453 C1.95018868,4.51018868 1.95622642,4.55245283 1.95018868,4.58867925 C1.75698113,4.83018868 1.63018868,5.0354717 1.58188679,5.14415094 C1.33433962,5.56679245 1.06264151,6.2309434 0.803018868,7.2754717 C0.917735849,6.99169811 1.05660377,6.72 1.21962264,6.46037736 C1.00226415,7.01584906 0.790943396,7.89132075 0.748679245,9.23169811 C0.803018868,8.95396226 0.869433962,8.68226415 0.953962264,8.41056604 C0.899622642,9.52754717 1.09283019,10.6384906 1.5154717,11.6709434 C1.66641509,12.0392453 1.91396226,12.6007547 2.34264151,13.2166038 C3.68301887,14.6233962 5.56679245,15.4988679 7.65584906,15.4988679 C9.8354717,15.4988679 11.7977358,14.5449057 13.1441509,13.029434 Z" id="Path" fill="url(#linearGradient-3)"></path>
            <path d="M11.5260377,14.0498113 C14.1645283,13.7418868 15.3358491,11.0249057 13.8324528,10.970566 C12.48,10.9283019 10.2762264,14.194717 11.5260377,14.0498113 Z" id="Path" fill="url(#radialGradient-4)"></path>
            <path d="M14.0256604,10.4150943 C15.8430189,9.35849057 15.3660377,7.07622642 15.3660377,7.07622642 C15.3660377,7.07622642 14.6656604,7.89132075 14.1886792,9.18943396 C13.7237736,10.4754717 12.9328302,11.0550943 14.0256604,10.4150943 Z" id="Path" fill="url(#radialGradient-5)"></path>
            <path d="M8.25962264,15.4022642 C10.7954717,16.2113208 12.9690566,14.2128302 11.6286792,13.5486792 C10.4090566,12.9509434 7.05811321,15.0218868 8.25962264,15.4022642 Z" id="Path" fill="url(#radialGradient-6)"></path>
            <path d="M14.2188679,11.3871698 C14.2792453,11.3026415 14.3637736,11.0249057 14.4362264,10.8981132 C14.8830189,10.1735849 14.8890566,9.6 14.8890566,9.58792453 C15.1607547,8.24150943 15.1366038,7.68603774 14.9675472,6.67169811 C14.834717,5.85056604 14.2490566,4.67320755 13.7418868,4.11169811 C13.2226415,3.52603774 13.5849057,3.71924528 13.0837736,3.29056604 C12.6430189,2.80150943 12.2083019,2.31245283 11.9788679,2.11924528 C10.2883019,0.706415094 10.3245283,0.404528302 10.3607547,0.356226415 C10.354717,0.362264151 10.3486792,0.368301887 10.3366038,0.380377358 C10.3184906,0.301886792 10.3003774,0.235471698 10.3003774,0.235471698 C10.3003774,0.235471698 9.37056604,1.15320755 9.17735849,2.69283019 C9.05056604,3.69509434 9.42490566,4.74566038 9.97433962,5.41584906 C10.2581132,5.76603774 10.5781132,6.08 10.9283019,6.35773585 C11.3388679,6.94943396 11.5683019,7.68 11.5683019,8.46490566 C11.5683019,10.4332075 9.97433962,12.0211321 8.00603774,12.0211321 C7.74037736,12.0211321 7.46867925,11.9909434 7.2090566,11.930566 C6.27924528,11.7554717 5.74792453,11.2845283 5.47622642,10.9645283 C5.32528302,10.7833962 5.25886792,10.650566 5.25886792,10.650566 C6.09207547,10.9464151 7.00981132,10.8860377 7.57132075,10.5781132 C8.13283019,10.2641509 8.47698113,10.034717 8.75471698,10.125283 C9.02641509,10.2158491 9.24377358,9.95018868 9.05056604,9.67849057 C8.85735849,9.40679245 8.36226415,9.01433962 7.62566038,9.12301887 C7.06415094,9.20754717 6.54490566,9.60603774 5.80830189,9.21962264 C5.76,9.1954717 5.71169811,9.16528302 5.66943396,9.14113208 C5.62113208,9.1109434 5.82641509,9.18339623 5.77811321,9.15320755 C5.63320755,9.08075472 5.37962264,8.92981132 5.31320755,8.8754717 C5.30113208,8.86339623 5.42188679,8.91169811 5.41584906,8.89962264 C4.72754717,8.39245283 4.81207547,8.04830189 4.83018868,7.8309434 C4.84830189,7.65584906 4.97509434,7.43849057 5.18641509,7.34792453 C5.2890566,7.39622642 5.34943396,7.43849057 5.34943396,7.43849057 C5.34943396,7.43849057 5.30716981,7.36 5.28301887,7.31773585 C5.2890566,7.31169811 5.30113208,7.31773585 5.30716981,7.31169811 C5.39169811,7.34792453 5.57886792,7.43849057 5.6754717,7.49886792 C5.80226415,7.57735849 5.8445283,7.64981132 5.8445283,7.64981132 C5.8445283,7.64981132 5.88075472,7.63169811 5.85056604,7.56528302 C5.83849057,7.53509434 5.80226415,7.4445283 5.6754717,7.35396226 L5.68150943,7.35396226 C5.75396226,7.39018868 5.82641509,7.43849057 5.89283019,7.48679245 C5.9290566,7.37207547 5.98943396,7.25132075 5.97735849,7.03396226 C5.97132075,6.88301887 5.97132075,6.84075472 5.94113208,6.78641509 C5.91698113,6.73811321 5.95320755,6.71396226 6.00150943,6.76830189 C5.9954717,6.72603774 5.97735849,6.68981132 5.95924528,6.64754717 L5.95924528,6.64150943 C6.01962264,6.46037736 7.18490566,5.98943396 7.26943396,5.93509434 C7.40830189,5.85056604 7.52301887,5.73584906 7.61358491,5.60301887 C7.68,5.51245283 7.72830189,5.37962264 7.74037736,5.18037736 C7.74641509,5.08981132 7.71622642,5.02339623 7.40830189,4.9509434 C7.22113208,4.90867925 6.93735849,4.87245283 6.49056604,4.83018868 C6.17056604,4.8 5.97735849,4.59471698 5.86867925,4.40150943 C5.85056604,4.35924528 5.82641509,4.32301887 5.80830189,4.28679245 C5.79018868,4.2445283 5.77207547,4.19622642 5.76,4.15396226 C5.95320755,3.64679245 6.30339623,3.21811321 6.75622642,2.92226415 C6.78037736,2.89811321 6.65358491,2.92830189 6.67773585,2.90415094 C6.70792453,2.88 6.90716981,2.80754717 6.94339623,2.78943396 C6.99169811,2.77132075 6.75018868,2.68075472 6.53283019,2.69886792 C6.3154717,2.72301887 6.27320755,2.74113208 6.15245283,2.78943396 C6.20075472,2.74716981 6.35169811,2.69283019 6.3154717,2.69283019 C6.09811321,2.71698113 5.80830189,2.83773585 5.56075472,2.97660377 C5.56075472,2.95245283 5.56679245,2.92830189 5.57283019,2.90415094 C5.45811321,2.94641509 5.17433962,3.12754717 5.08981132,3.27849057 C5.09584906,3.24830189 5.09584906,3.21811321 5.09584906,3.19396226 C5.01132075,3.26037736 4.92679245,3.33283019 4.86037736,3.41735849 L4.85433962,3.42339623 C4.18415094,3.18188679 3.59245283,3.16377358 3.09735849,3.27245283 C2.98867925,3.17584906 2.81358491,3.02490566 2.56603774,2.53584906 C2.54792453,2.50566038 2.54188679,2.59622642 2.52981132,2.56603774 C2.43320755,2.34264151 2.37283019,1.97433962 2.38490566,1.72075472 C2.38490566,1.72075472 2.18566038,1.81132075 2.02264151,2.19169811 C1.99245283,2.25811321 1.97433962,2.30037736 1.95018868,2.33660377 C1.93811321,2.34867925 1.96830189,2.20981132 1.96830189,2.22188679 C1.93811321,2.27018868 1.86566038,2.33660377 1.8354717,2.42716981 C1.81132075,2.49358491 1.78113208,2.52981132 1.76301887,2.60830189 L1.75698113,2.61433962 C1.75698113,2.59018868 1.76301887,2.51773585 1.75698113,2.52981132 C1.67849057,2.68679245 1.61207547,2.84981132 1.55773585,3.01283019 C1.46716981,3.30264151 1.3645283,3.70113208 1.34641509,4.22037736 C1.34037736,4.25660377 1.34641509,4.30490566 1.34037736,4.34113208 C1.1290566,4.58264151 0.984150943,4.78792453 0.929811321,4.89056604 C0.658113208,5.31320755 0.356226415,5.96528302 0.0664150943,7.00377358 C0.193207547,6.72 0.350188679,6.44830189 0.531320755,6.19471698 C0.289811321,6.74415094 0.0543396226,7.61358491 0.00603773585,8.94188679 C0.0664150943,8.66415094 0.138867925,8.39245283 0.229433962,8.12679245 C0.187169811,9.01433962 0.289811321,10.1192453 0.851320755,11.3630189 C1.18339623,12.0935849 1.95018868,13.5788679 3.82792453,14.7381132 C3.82792453,14.7381132 4.46792453,15.2150943 5.56075472,15.5713208 C5.63924528,15.6015094 5.72377358,15.6316981 5.80830189,15.6558491 C5.78415094,15.6437736 5.75396226,15.6316981 5.72981132,15.6256604 C6.46037736,15.8430189 7.21509434,15.9577358 7.98188679,15.9577358 C10.8196226,15.9577358 11.6588679,14.8166038 11.6588679,14.8166038 L11.6528302,14.8226415 C11.6950943,14.7864151 11.7313208,14.7441509 11.7675472,14.7079245 C11.3207547,15.130566 10.2943396,15.1607547 9.91396226,15.130566 C10.5660377,14.9373585 10.994717,14.7743396 11.8279245,14.4603774 C11.9245283,14.4241509 12.0271698,14.3818868 12.1298113,14.3335849 L12.16,14.3154717 C12.1781132,14.3033962 12.2022642,14.2973585 12.2203774,14.285283 C12.6249057,14.0920755 13.0113208,13.8566038 13.3615094,13.5728302 C14.2007547,12.9026415 14.3818868,12.250566 14.4784906,11.8218868 C14.4664151,11.8641509 14.4241509,11.9607547 14.3939623,12.0211321 C14.1766038,12.48 13.6996226,12.7698113 13.1803774,13.0113208 C13.4279245,12.685283 13.6573585,12.3471698 13.8686792,11.9969811 C14.0377358,11.8279245 14.0860377,11.5622642 14.2188679,11.3871698 Z" id="Path" fill="url(#radialGradient-7)"></path>
            <path d="M13.1984906,12.9871698 C13.5426415,12.6128302 13.8445283,12.1781132 14.08,11.6890566 C14.6777358,10.4332075 15.6015094,8.33811321 14.8769811,6.15849057 C14.3033962,4.43169811 13.5124528,3.48981132 12.5101887,2.56603774 C10.88,1.06867925 10.4271698,0.398490566 10.4271698,0 C10.4271698,0 8.54339623,2.09509434 9.35849057,4.28679245 C10.1735849,6.47849057 11.8460377,6.39396226 12.9509434,8.67622642 C14.2550943,11.3630189 11.9003774,14.2973585 9.95018868,15.1184906 C10.0709434,15.0943396 14.2792453,14.1403774 14.5026415,11.7313208 C14.490566,11.7735849 14.3939623,12.4437736 13.1984906,12.9871698 Z" id="Path" fill="url(#radialGradient-8)"></path>
            <path d="M7.74037736,5.18037736 C7.74641509,5.0354717 7.67396226,4.94490566 6.49660377,4.83018868 C6.01358491,4.78792453 5.82641509,4.34113208 5.77207547,4.14792453 C5.60301887,4.59471698 5.53056604,5.06566038 5.56679245,5.63320755 C5.5909434,6.00754717 5.8445283,6.40603774 5.95924528,6.6354717 C5.95924528,6.6354717 5.98339623,6.59924528 5.9954717,6.58716981 C6.21886792,6.35169811 7.16075472,5.9954717 7.25132075,5.94716981 C7.35396226,5.88679245 7.72830189,5.61509434 7.74037736,5.18037736 Z" id="Path" fill="url(#linearGradient-9)"></path>
            <path d="M2.56603774,2.53584906 C2.54792453,2.50566038 2.54188679,2.59622642 2.52981132,2.56603774 C2.43320755,2.34264151 2.37283019,1.98037736 2.3909434,1.72075472 C2.3909434,1.72075472 2.19169811,1.81132075 2.02867925,2.19169811 C1.99849057,2.25811321 1.98037736,2.30037736 1.95622642,2.33660377 C1.94415094,2.34867925 1.97433962,2.20981132 1.97433962,2.22188679 C1.94415094,2.27018868 1.87169811,2.33660377 1.84150943,2.42113208 C1.81735849,2.48754717 1.78716981,2.52981132 1.7690566,2.61433962 C1.76301887,2.63849057 1.77509434,2.51169811 1.7690566,2.52981132 C1.38264151,3.27245283 1.31018868,4.3954717 1.35245283,4.34716981 C2.17358491,3.47169811 3.10943396,3.26641509 3.10943396,3.26641509 C2.99471698,3.19396226 2.77735849,2.97660377 2.56603774,2.53584906 Z" id="Path" fill="url(#linearGradient-10)"></path>
            <path d="M5.66943396,11.6769811 C4.54037736,11.1939623 3.25433962,10.5116981 3.30264151,8.96603774 C3.3690566,6.93132075 5.2045283,7.32981132 5.2045283,7.32981132 C5.13811321,7.34792453 4.9509434,7.48075472 4.8845283,7.61962264 C4.81811321,7.79471698 4.69132075,8.19320755 5.07169811,8.60981132 C5.6754717,9.26188679 3.83396226,10.1554717 6.67169811,11.8460377 C6.74415094,11.8822642 6.00754717,11.8218868 5.66943396,11.6769811 Z" id="Path" fill="url(#linearGradient-11)"></path>
            <path d="M5.2709434,10.6626415 C6.07396226,10.9403774 7.00377358,10.8920755 7.56528302,10.5841509 C7.93962264,10.3728302 8.42264151,10.0407547 8.71245283,10.125283 C8.45886792,10.0226415 8.26566038,9.97433962 8.03018868,9.96830189 C7.98792453,9.96830189 7.94566038,9.96830189 7.90339623,9.96226415 C7.81886792,9.96226415 7.73433962,9.96830189 7.64981132,9.97433962 C7.50490566,9.98641509 7.34792453,10.0769811 7.20301887,10.0649057 C7.19698113,10.0649057 7.34188679,10.0045283 7.32981132,10.0045283 C7.25132075,10.0226415 7.16679245,10.0226415 7.08226415,10.034717 C7.02792453,10.0407547 6.97962264,10.0467925 6.91924528,10.0528302 C5.24679245,10.1916981 3.84,9.14716981 3.84,9.14716981 C3.71924528,9.54566038 4.37735849,10.3486792 5.2709434,10.6626415 Z" id="Path" fill="url(#linearGradient-12)"></path>
            <path d="M13.1924528,12.9992453 C14.8830189,11.3388679 15.7343396,9.32830189 15.3720755,7.06415094 C15.3720755,7.06415094 15.5169811,8.22339623 14.9675472,9.40679245 C15.2332075,8.24754717 15.2633962,6.81056604 14.5630189,5.31924528 C13.6332075,3.33283019 12.0996226,2.28226415 11.5139623,1.84754717 C10.6264151,1.18339623 10.2581132,0.513207547 10.2520755,0.374339623 C9.98641509,0.917735849 9.18339623,2.77735849 10.1675472,4.37735849 C11.085283,5.88075472 12.5343396,6.32150943 13.5426415,7.69811321 C15.4143396,10.24 13.1924528,12.9992453 13.1924528,12.9992453 Z" id="Path" fill="url(#linearGradient-13)"></path>
            <path d="M12.9509434,8.68226415 C12.3592453,7.46264151 11.6226415,6.93132075 10.9283019,6.35773585 C11.0067925,6.47245283 11.0309434,6.50867925 11.0732075,6.58716981 C11.6890566,7.23924528 12.5886792,8.83320755 11.9366038,10.8377358 C10.6988679,14.605283 5.76,12.8301887 5.24075472,12.3350943 C5.45207547,14.514717 9.09886792,15.5592453 11.4777358,14.1464151 C12.8241509,12.8543396 13.9169811,10.6807547 12.9509434,8.68226415 Z" id="Path" fill="url(#linearGradient-14)"></path>
</svg>