<svg role="img" aria-label="Gmail" viewBox="0 0 22 16" version="1.1" xmlns="http://www.w3.org/2000/svg" xmlns:xlink="http://www.w3.org/1999/xlink">
    <defs>
        <linearGradient x1="0.00388991071%" y1="49.997619%" x2="100.032232%" y2="49.997619%" id="linearGradient-1">
            <stop stop-color="#000000" stop-opacity="0.1" offset="0%"></stop>
            <stop stop-color="#000000" stop-opacity="0.2" offset="100%"></stop>
        </linearGradient>
    </defs>
    <path d="M19.6976431,15.9665985 L1.33230676,15.9665985 C0.62018148,15.9665985 0.0204970271,15.3856542 0.0204970271,14.6547888 L0.0204970271,1.38677029 C0.0204970271,0.674645009 0.60144134,0.0749605565 1.33230676,0.0749605565 L19.6976431,0.0749605565 C20.4097684,0.0749605565 21.0094529,0.655904869 21.0094529,1.38677029 L21.0094529,14.6547888 C21.0094529,15.3856542 20.4285085,15.9665985 19.6976431,15.9665985 Z" id="Path" fill="#E3E3E3"></path>
    <polygon id="Path" fill="#231F20" opacity="0.1" points="2.6441165 15.9665985 10.4962348 9.65117163 10.5524553 9.31384915 2.45671512 3.48566588 2.43797498 15.6854964"></polygon>
    <path d="M1.33230676,15.9665985 C0.60144134,15.9665985 0.0204970271,15.3856542 0.0204970271,14.6547888 L0.0204970271,1.36803015 C0.0204970271,0.637164731 0.60144134,0.505983757 1.33230676,0.505983757 C2.06317219,0.505983757 2.6441165,0.655904869 2.6441165,1.36803015 L2.6441165,15.9665985 L1.33230676,15.9665985 Z" id="Path" fill="#D54B3D"></path>
    <path d="M1.33230676,0.693385148 C2.26931372,0.693385148 2.45671512,0.974487233 2.45671512,1.36803015 L2.45671512,15.7791971 L1.33230676,15.7791971 C0.713882175,15.7791971 0.207898418,15.2732134 0.207898418,14.6547888 L0.207898418,1.36803015 C0.207898418,0.955747093 0.395299809,0.693385148 1.33230676,0.693385148 Z M1.33230676,0.505983757 C0.60144134,0.505983757 0.0204970271,0.655904869 0.0204970271,1.36803015 L0.0204970271,14.6547888 C0.0204970271,15.3856542 0.60144134,15.9665985 1.33230676,15.9665985 L2.6441165,15.9665985 L2.6441165,1.36803015 C2.6441165,0.637164731 2.06317219,0.505983757 1.33230676,0.505983757 Z" id="Shape" fill="#D72B27" fill-rule="nonzero"></path>
    <path d="M19.6976431,15.9665985 L18.3858334,15.9665985 L18.3858334,1.33054988 C18.3858334,0.599684452 18.9667776,0.505983757 19.6976431,0.505983757 C20.4285085,0.505983757 21.0094529,0.599684452 21.0094529,1.33054988 L21.0094529,14.6735289 C21.0094529,15.3856542 20.4285085,15.9665985 19.6976431,15.9665985 Z" id="Path" fill="#D54B3D"></path>
    <path d="M19.6976431,0.693385148 C20.5409494,0.693385148 20.8220515,0.8620464 20.8220515,1.33054988 L20.8220515,14.6735289 C20.8220515,15.2919536 20.3160677,15.7979373 19.6976431,15.7979373 L18.5732348,15.7979373 L18.5732348,1.33054988 C18.5732348,0.84330626 18.8543368,0.693385148 19.6976431,0.693385148 Z M19.6976431,0.505983757 C18.9667776,0.505983757 18.3858334,0.599684452 18.3858334,1.33054988 L18.3858334,15.9853386 L19.6976431,15.9853386 C20.4285085,15.9853386 21.0094529,15.4043944 21.0094529,14.6735289 L21.0094529,1.33054988 C21.0094529,0.599684452 20.4285085,0.505983757 19.6976431,0.505983757 Z" id="Shape" fill="#D72B27" fill-rule="nonzero"></path>
    <path d="M14.0756014,15.9665985 L0.130292706,1.91296944 L0.863803291,2.21133642 L10.5711954,9.20140833 L21.0094532,1.54725469 L21.0094529,14.6735289 C21.0094529,15.3856542 20.4285085,15.9665985 19.6976431,15.9665985 L14.0756014,15.9665985 Z" id="Path" fill="url(#linearGradient-1)"></path>
    <path d="M10.4962348,9.65117163 L0.582701201,2.45495823 C0.00175688804,2.02393503 -0.166904365,1.19936891 0.264118835,0.618424591 C0.695142035,0.0374802783 1.5384483,-0.0937006953 2.13813275,0.337322505 L10.5149749,6.42786772 L18.9480375,0.262361948 C19.5289819,-0.168661252 20.353548,-0.0374802783 20.7845712,0.562204174 C21.2155944,1.14314849 21.0844134,1.96771461 20.484729,2.39873781 L10.4962348,9.65117163 Z" id="Path" fill="#D54B3D"></path>
    <path d="M19.6976431,0.187401391 C20.0537057,0.187401391 20.3910283,0.356062643 20.6159099,0.655904869 C20.9719725,1.16188863 20.8595317,1.85527377 20.3722881,2.23007655 L10.4962348,9.42628998 L0.695142035,2.30503711 C0.18915828,1.93023433 0.0579773054,1.21810905 0.414039949,0.730865426 C0.62018148,0.449763339 0.976244124,0.262361948 1.3510469,0.262361948 C1.59466872,0.262361948 1.83829052,0.337322505 2.02569192,0.487243617 L10.383794,6.55904869 L10.4962348,6.63400925 L10.6086756,6.55904869 L19.0229981,0.393542922 C19.2291396,0.262361948 19.4540213,0.187401391 19.6976431,0.187401391 Z M19.6976431,0 C19.4352812,0 19.1541791,0.0749605565 18.9292974,0.243621809 L10.4962348,6.40912758 L2.11939261,0.318582365 C1.89451094,0.149921113 1.61340885,0.0749605565 1.33230676,0.0749605565 C0.920023703,0.0749605565 0.507740645,0.262361948 0.245378697,0.618424591 C-0.166904365,1.19936891 0.00175688804,2.02393503 0.582701201,2.45495823 L10.4962348,9.66991175 L20.4659888,2.39873781 C21.0469331,1.96771461 21.1781141,1.16188863 20.765831,0.562204174 C20.5034691,0.187401391 20.1099262,0 19.6976431,0 Z" id="Shape" fill="#D72B27" fill-rule="nonzero"></path>
</svg>