<svg viewBox="0 0 24 16" version="1.1" xmlns="http://www.w3.org/2000/svg" xmlns:xlink="http://www.w3.org/1999/xlink">
    <g stroke="none" stroke-width="1" fill="none" fill-rule="evenodd">
        <path d="M20.5611961,7.26643125 C20.5695141,7.12959609 20.5819453,6.99394922 20.5819453,6.85528594 C20.5819453,3.06923906 17.4653578,0 13.6204453,0 C10.8480937,0 8.46120234,1.59951797 7.34156719,3.9092625 C6.77803585,3.47795463 6.08798706,3.24454349 5.37834375,3.24519609 C3.60469688,3.24519609 2.16696797,4.66107891 2.16696797,6.40748672 C2.16696797,6.73563516 2.21724141,7.05254062 2.31202969,7.34988516 C0.929601562,8.15983594 0,9.64089141 0,11.3398594 C0,13.8801305 2.07163125,15.9405187 4.64206641,15.9796406 L4.69654453,15.9825656 L4.71555703,15.9832055 L4.73447812,15.9825656 L18.5399297,15.9825656 C18.6240234,15.9866789 18.7062891,15.9949969 18.7916625,15.9949969 C21.3366867,15.9949969 23.4,13.9636758 23.4,11.457225 C23.4,9.56804063 22.2276234,7.95015 20.5611961,7.26652266 L20.5611961,7.26643125 Z M6.28189453,12.484357 C5.81444297,12.0613289 5.52358828,11.548357 5.4068625,10.9441617 C5.36751515,10.7343706 5.34808111,10.5213306 5.34881953,10.3078828 C5.34827109,9.44647031 5.66161172,8.73432422 6.28957266,8.17354687 C6.91689375,7.61185547 7.71487031,7.33050703 8.68405078,7.33105547 C9.67873359,7.33105547 10.6164703,7.70307891 11.4447023,8.44767422 C11.6514633,8.63322891 11.8510945,8.842275 12.0435961,9.07380703 L13.1086617,10.3262555 C13.2929367,10.5786281 13.4908312,10.7965406 13.6951242,10.9802672 C14.2419164,11.471393 14.8355086,11.7171844 15.3367805,11.7171844 C15.763282,11.7171844 16.119218,11.5868391 16.4060508,11.3250516 C16.6560469,11.0868469 16.7970867,10.8019336 16.8284391,10.471957 L16.8348375,10.3275352 C16.8348375,10.1840273 16.8147281,10.0484719 16.7733211,9.92114297 C16.7052234,9.70908047 16.5801797,9.51822422 16.3989211,9.34820859 C16.1157445,9.07810312 15.7590773,8.94474141 15.3267258,8.94474141 C14.7952898,8.94474141 14.2697953,9.12371484 13.6939359,9.68165859 L12.7508977,8.57271797 L12.6359086,8.44410937 C13.4606672,7.63607812 14.2839633,7.33279219 15.3924469,7.33279219 C16.374607,7.33279219 17.1696586,7.61185547 17.7780586,8.16870234 L17.7916781,8.17994531 C18.4100414,8.73560391 18.7199086,9.45414844 18.7199086,10.3357617 C18.7199086,10.5537656 18.7003477,10.7622633 18.6618656,10.9607062 C18.5457797,11.5572234 18.2543766,12.0655336 17.7886617,12.4867336 C17.3314477,12.9079336 16.7733211,13.1715492 16.1145562,13.2763922 C15.8852902,13.3121844 15.6535561,13.3298197 15.4215141,13.3291336 C14.4043453,13.3284937 13.4635922,12.9647883 12.6542812,12.2384742 C12.4272738,12.033198 12.2178328,11.8092949 12.0281484,11.5691062 L10.9630828,10.3256156 C10.7830125,10.0762594 10.588043,9.86054062 10.3853953,9.67809375 C9.83988281,9.18815625 9.23852109,8.94291328 8.72317266,8.94291328 C8.56321172,8.94291328 8.41330547,8.96183437 8.27345391,8.99921953 C8.04128203,9.06137578 7.83808594,9.17636484 7.66276875,9.34345547 C7.44832969,9.54774844 7.31387109,9.78311953 7.26058125,10.0489289 C7.24226896,10.1397898 7.23332528,10.2322896 7.23389062,10.3249758 C7.23389062,10.7029406 7.37008594,11.0264273 7.64265937,11.2947961 L7.66331719,11.314357 C7.956,11.5821773 8.31559219,11.7154477 8.74209375,11.7154477 C9.27828281,11.7154477 9.8060625,11.5353773 10.3807336,10.9725891 L11.3191102,12.0679102 L11.4227648,12.1928625 C10.5661055,13.0104 9.75158437,13.3196273 8.68587891,13.3189875 C7.70417578,13.3189875 6.90327422,13.0406555 6.28189453,12.484357 Z" fill="#4679A4"></path>
    </g>
</svg>