<svg xmlns="http://www.w3.org/2000/svg" width="75" height="16"><g fill="#222" fill-rule="evenodd"><path d="M10.649 5.646c-.467 1.128-.936 2.255-1.4 3.383a606.896 606.896 0 0 0-1.56 3.821c-.07.173-.176.228-.352.225a63.698 63.698 0 0 0-2.004 0c-.262.006-.327-.106-.324-.348.023-1.166-.13-2.32-.162-3.482-.026-.889-.103-1.776-.156-2.662-.023-.354-.037-.715-.148-1.081-.068.36-.142.72-.205 1.084-.347 2.085-.7 4.17-1.033 6.258-.031.194-.094.231-.259.228-.592-.003-1.18-.011-1.773.003-.248.01-.273-.106-.239-.308.302-1.734.592-3.472.9-5.208.241-1.39.502-2.78.75-4.17.028-.162.074-.344.065-.488-.034-.499.216-.571.61-.525.139.015.281-.01.42-.014a13.538 13.538 0 0 1 2.314 0c.077.005.154.026.228.014.284-.044.355.063.373.36.079 1.402.156 2.81.233 4.21.029.483-.003.975.105 1.578.308-.744.57-1.384.834-2.021.54-1.318 1.08-2.64 1.625-3.957.057-.139.159-.173.304-.17.359.006.717-.01 1.076-.014a6.315 6.315 0 0 1 1.542 0c.267.005.54.037.805.01.32-.028.364.116.316.385-.154.882-.296 1.768-.452 2.65-.222 1.27-.452 2.538-.675 3.807-.207 1.18-.41 2.362-.617 3.542-.034.193-.1.337-.367.326-.564-.032-1.13-.015-1.693-.009-.22.003-.262-.026-.213-.286.278-1.496.52-2.999.776-4.498.139-.808.279-1.612.421-2.42.077-.087.054-.187.003-.268-.025-.042-.042.03-.068.045zm21.014 2.169c.23-1.338.913-2.38 2.046-3.092.46-.288.999-.42 1.536-.47 1.232-.112 2.436-.065 3.37.932.414.444.596.996.682 1.602.116.803-.114 1.574-.157 2.364-.011.27-.213.175-.34.175-1.478.006-2.955.003-4.431.003-.487 0-.532.067-.393.54.216.75.894 1.232 1.653 1.32.771.09 1.517.09 2.248-.17.316-.115.617-.28.968-.441l-.319 1.964c-.023.127-.142.144-.228.19a2.522 2.522 0 0 1-1.158.324c-1.15.025-2.313.127-3.423-.353-1.206-.519-1.92-1.404-2.125-2.725-.043-.268-.051-.537-.08-.804-.173-.48-.085-.926.15-1.36zm2.629-.153h2.228c.587 0 .587 0 .498-.585-.088-.591-.711-1.116-1.28-1.021-.865.147-1.415.755-1.446 1.606zm11.64-3.371c.462-.548.906-1.105 1.531-1.486a5.068 5.068 0 0 1 2.197-.715c1.156-.115 2.299 0 3.398.406.176.066.313.136.239.422a8.357 8.357 0 0 0-.285 1.59c-.028.466-.176.4-.501.247-.842-.395-1.736-.453-2.652-.326-1.002.136-1.565.802-1.992 1.638-.42.84-.632 1.736-.54 2.68.126 1.254.774 1.894 2.123 2.122.916.156 1.758-.018 2.55-.606.027.41-.109.756-.143 1.11-.029.292-.097.58-.148.87-.05.315-.3.465-.54.551-1.4.505-4.057.51-5.304-1a5.33 5.33 0 0 1-.717-1.085c-.341-.288-.341-.72-.438-1.112-.04-.147-.035-.303-.046-.456-.091-.453-.142-.9.102-1.327.199-1.236.546-2.427 1.167-3.523zM25.23 4.226a9.09 9.09 0 0 1 2.015.14c.242.046.231.155.2.31-.092.453-.197.903-.29 1.353-.04.179-.132.257-.323.251a7.452 7.452 0 0 1-.948-.107c-.466-.075-.899.038-1.342.095-.35.046-.637.253-.666.592-.031.357.259.609.566.753.413.19.845.342 1.272.495 1.061.378 1.423 1.364 1.238 2.397-.031.178-.017.354-.06.536-.307 1.29-1.428 1.86-2.552 2.036a8.65 8.65 0 0 1-1.872.058c-.637-.044-1.286-.04-1.901-.289-.225-.089-.29-.172-.216-.427.113-.389.202-.795.244-1.203.032-.297.168-.333.39-.265.811.251 1.642.326 2.487.303.595-.02.913-.36.89-.955-.007-.256-.136-.391-.343-.508-.597-.336-1.28-.481-1.858-.882-.789-.55-.954-1.335-.868-2.17.048-.472.196-.919.455-1.328.452-.71 1.153-.957 1.918-1.113.517-.107 1.04-.063 1.564-.072z"/><path d="M31.148 2.45a.08.08 0 0 0 .003.067c.02.017.028.034.023.052-.006.014-.015.023-.02.023l-.225 1.254c-.02.164-.043.328-.069.528h1.344c-.103.588-.214 1.136-.282 1.687-.026.204-.114.219-.27.216-.256-.006-.527.049-.766-.014-.387-.107-.435.13-.487.398-.05.273-.1.55-.148.828-.008.147.009.291.017.438-.04.147-.008.315-.128.438-.136.768-.279 1.535-.407 2.304-.042.252.017.424.308.531.407.147.794.118 1.184.003.231-.063.256.038.213.21-.099.384-.199.768-.222 1.163-.005.13-.099.164-.19.216-.236.136-.495.2-.76.23-.748.09-1.499.12-2.225-.117-.575-.188-.85-.68-.728-1.361.219-1.235.401-2.472.646-3.7.247-1.249.427-2.513.635-3.773.079-.464.154-.928.242-1.39.037-.199.123-.323.378-.312.552.03 1.104.006 1.656.012.096 0 .209-.046.278.07zm10.636 8.26c-.14.453-.216.918-.233 1.39-.148.2-.117.451-.143.667-.028.266-.11.314-.344.308-.6-.012-1.204-.014-1.806 0-.26.01-.288-.08-.242-.32.25-1.341.492-2.685.72-4.031.236-1.377.452-2.755.671-4.13.03-.197.134-.22.293-.217.626.006 1.255.006 1.88-.003.2 0 .32.058.223.268-.085.173.006.37-.103.528-.068.086-.028.194-.04.288-.005.052.017.084.012.032 0-.003.017-.012.028-.018.313-.138.433-.481.7-.686.603-.47 1.264-.516 2.026-.464-.358.582-.632 1.156-.752 1.791-.016.086-.022.178-.045.262-.047.147-.029.285-.308.228-.82-.168-1.837.482-2.003 1.214.051.476-.17.911-.204 1.372-.12.506-.09 1.045-.33 1.52zm28.585 1.707c-.689.537-1.445.84-2.31.805-1.207-.051-2.043-.706-2.476-1.75-.786-1.916-.432-3.73.694-5.378.802-1.168 1.94-1.814 3.392-1.708.78.055 1.4.43 1.895 1.148.142-.805.285-1.537.404-2.272.028-.177.103-.344.091-.531-.012-.147.07-.277.251-.274h2.043c-.257 1.508-.5 2.982-.752 4.453-.3 1.781-.598 3.567-.91 5.35-.142.812-.159.81-.973.81-.358 0-.723-.032-1.075.008-.364.044-.404-.13-.347-.41.016-.086.05-.166.073-.25zm.689-4.253c0-.13.006-.263 0-.393-.04-.631-.518-1.413-1.132-1.447-.49-.026-.91.132-1.223.493-.81.92-1.127 1.978-.843 3.212.25 1.1 1.155 1.449 2.06.75.847-.648 1.126-1.58 1.138-2.615zm-13.949 4.248c-.523.363-1.03.654-1.61.767-1.053.2-2.01.086-2.783-.77-.285-.315-.404-.698-.455-1.084-.12-.981.057-1.921.75-2.659.599-.632 1.356-.986 2.22-1.079.809-.086 1.617-.196 2.436-.16.21.008.205-.266.182-.422-.063-.43-.416-.721-.887-.727-1.098-.014-2.197-.026-3.238.39-.211.08-.234-.056-.194-.197.154-.568.336-1.127.483-1.698.04-.158.148-.193.268-.236a5.313 5.313 0 0 1 1.786-.306c.814.009 1.64-.104 2.436.153.877.28 1.645.716 1.895 1.69.154.609 0 1.235-.13 1.837a112.08 112.08 0 0 0-.935 4.922c-.045.263-.14.321-.369.318-.478-.012-.956-.032-1.429.005-.364.026-.478-.106-.427-.453.013-.072.001-.147.001-.29zm.006-3.466c-.182.022-.392.046-.608.075-.598.08-1.133.294-1.537.775-.28.332-.33.77-.114 1.177.177.332.513.386.826.349 1.018-.13 1.86-.611 1.9-1.892.011-.406-.034-.481-.467-.484zm6.573-3.268c.66-.819 1.355-1.424 2.425-1.367-.041.652-.194 1.264-.296 1.883-.029.176-.085.231-.268.24-1.502.083-2.185.761-2.407 2.306-.194 1.332-.439 2.662-.66 3.995-.04.216-.12.357-.399.343-.586-.026-1.178-.012-1.77-.006-.2.003-.256-.035-.216-.266.233-1.31.45-2.621.7-3.925.261-1.356.477-2.716.7-4.08.045-.304.13-.448.466-.43.552.031 1.104.008 1.656.008.16 0 .296-.034.217.24-.09.315-.097.652-.148 1.059zm-43.214-.312a2.977 2.977 0 0 0-2.14-1.055c-.72-.04-1.442-.003-2.163-.012-.398-.006-.78.087-1.158.179-.165.04-.427.06-.489.245-.208.623-.376 1.264-.564 1.913.225.014.361-.101.515-.144.692-.194 1.403-.214 2.106-.28.509-.049 1.044-.09 1.494.28.27.222.319.513.247.822-.077.314-.35.187-.544.19-.737.015-1.468.055-2.205.139-1.52.173-3.028 1.563-2.874 3.326.068.769.31 1.407.968 1.83.777.499 1.607.528 2.478.289a4.775 4.775 0 0 0 1.48-.706c.07.26.034.458-.029.692h1.403c.731 0 .748 0 .848-.712.028-.19.06-.384.094-.572.284-1.547.577-3.094.88-4.642.126-.648.095-1.268-.347-1.782zm-2.427 4.038c-.117.386-.168.781-.37 1.153-.287.522-1.51.915-2.12.684-.25-.092-.373-.35-.373-.794-.074-.519.324-.784.666-1.02.538-.37 1.175-.47 1.819-.476.281 0 .495.06.378.453z"/></g></svg>