
<svg viewBox="0 0 31 24" version="1.1" xmlns="http://www.w3.org/2000/svg" xmlns:xlink="http://www.w3.org/1999/xlink">
    <path d="M6.49103243,22.6668162 C6.49103243,22.2444334 6.77810033,21.89745 7.24728169,21.89745 C7.69565441,21.89745 7.99821487,22.2295 7.99821487,22.6668162 C7.99821487,23.1041324 7.69565441,23.4361823 7.24728169,23.4361823 C6.77810033,23.4361823 6.49103243,23.0891989 6.49103243,22.6668162 Z M8.50931724,22.6668162 L8.50931724,21.4648188 L7.96722976,21.4648188 L7.96722976,21.7576318 C7.79529279,21.541243 7.53450148,21.4055242 7.17984351,21.4055242 C6.48115973,21.4055242 5.93284484,21.9337588 5.93284484,22.6674018 C5.93284484,23.4010447 6.48085595,23.9292794 7.17984351,23.9292794 C7.53434959,23.9292794 7.79529279,23.7934142 7.96722976,23.5771718 L7.96722976,23.8689599 L8.50870969,23.8689599 L8.50870969,22.6668162 L8.50931724,22.6668162 Z M26.8257683,22.6668162 C26.8257683,22.2444334 27.1128362,21.89745 27.5821695,21.89745 C28.0309979,21.89745 28.3331027,22.2295 28.3331027,22.6668162 C28.3331027,23.1041324 28.0309979,23.4361823 27.5821695,23.4361823 C27.1129881,23.4361823 26.8257683,23.0891989 26.8257683,22.6668162 Z M28.8446607,22.6668162 L28.8446607,20.5 L28.3021176,20.5 L28.3021176,21.7576318 C28.1301806,21.541243 27.8693893,21.4055242 27.5147313,21.4055242 C26.8160475,21.4055242 26.2677326,21.9337588 26.2677326,22.6674018 C26.2677326,23.4010447 26.8157437,23.9292794 27.5147313,23.9292794 C27.8693893,23.9292794 28.1301806,23.7934142 28.3021176,23.5771718 L28.3021176,23.8689599 L28.8446607,23.8689599 L28.8446607,22.6668162 Z M15.2373383,21.8727073 C15.5866802,21.8727073 15.8110185,22.0838255 15.8682802,22.4555516 L14.5748038,22.4555516 C14.6326731,22.1085682 14.8512396,21.8727073 15.2374902,21.8727073 L15.2373383,21.8727073 Z M15.2482742,21.4042065 C14.517694,21.4042065 14.0065916,21.9166293 14.0065916,22.6660841 C14.0065916,23.4301796 14.5381989,23.9279617 15.2845754,23.9279617 C15.660042,23.9279617 16.0039159,23.8376289 16.3064764,23.5912268 L16.0408247,23.2039816 C15.8318271,23.3650287 15.5657197,23.4553616 15.3155605,23.4553616 C14.9662186,23.4553616 14.6481656,23.2994386 14.5699434,22.8668074 L16.4209998,22.8668074 C16.4263159,22.801803 16.4317838,22.7362128 16.4317838,22.6659377 C16.4263159,21.9167757 15.9457429,21.4040601 15.2479705,21.4040601 L15.2482742,21.4042065 Z M21.7928149,22.6659377 C21.7928149,22.243555 22.0798828,21.8965716 22.5490641,21.8965716 C22.9974369,21.8965716 23.2999973,22.2286215 23.2999973,22.6659377 C23.2999973,23.1032539 22.9974369,23.4353039 22.5490641,23.4353039 C22.0798828,23.4353039 21.792663,23.0883205 21.792663,22.6659377 L21.7928149,22.6659377 Z M23.8109478,22.6659377 L23.8109478,21.4648188 L23.2691641,21.4648188 L23.2691641,21.7576318 C23.0966196,21.541243 22.8364358,21.4055242 22.4817778,21.4055242 C21.7830941,21.4055242 21.2347792,21.9337588 21.2347792,22.6674018 C21.2347792,23.4010447 21.7827903,23.9292794 22.4817778,23.9292794 C22.8364358,23.9292794 23.0966196,23.7934142 23.2691641,23.5771718 L23.2691641,23.8689599 L23.8110997,23.8689599 L23.8110997,22.6668162 L23.8109478,22.6659377 Z M18.7315167,22.6659377 C18.7315167,23.3948957 19.2579597,23.9278153 20.0614461,23.9278153 C20.4369127,23.9278153 20.6870718,23.8472918 20.957584,23.6412978 L20.6972483,23.2189151 C20.4937187,23.3599045 20.2800126,23.4353039 20.0441309,23.4353039 C19.6114026,23.4301796 19.2931977,23.1285823 19.2931977,22.6659377 C19.2931977,22.2032932 19.6114026,21.9018422 20.0441309,21.8965716 C20.279405,21.8965716 20.4931112,21.9719709 20.6972483,22.1129604 L20.957584,21.6905776 C20.6866162,21.4845837 20.436457,21.4040601 20.0614461,21.4040601 C19.2579597,21.4040601 18.7315167,21.9368334 18.7315167,22.6659377 Z M25.7198734,21.4040601 C25.4071365,21.4040601 25.203455,21.5450496 25.062655,21.7561677 L25.062655,21.4648188 L24.5254279,21.4648188 L24.5254279,23.8676423 L25.068123,23.8676423 L25.068123,22.5207025 C25.068123,22.1230624 25.245376,21.902135 25.5997302,21.902135 C25.7157677,21.9005206 25.8309883,21.9210712 25.9387437,21.9626009 L26.1058203,21.4700895 C25.9858289,21.424557 25.8293845,21.4044993 25.7195696,21.4044993 L25.7198734,21.4040601 Z M11.1893771,21.6558793 C10.9285858,21.4901471 10.5692193,21.4044993 10.1727922,21.4044993 C9.54124282,21.4044993 9.13463923,21.6962875 9.13463923,22.1737191 C9.13463923,22.5655029 9.43735158,22.80722 9.99477973,22.8826193 L10.2508625,22.9177569 C10.5481069,22.9580187 10.6884512,23.033418 10.6884512,23.1691369 C10.6884512,23.3549267 10.4909971,23.460925 10.120239,23.460925 C9.74477244,23.460925 9.47380464,23.3452639 9.29108365,23.209545 L9.03636784,23.6169943 C9.33361222,23.8281125 9.70907881,23.9288402 10.1156824,23.9288402 C10.8356305,23.9288402 11.2528662,23.6020609 11.2528662,23.1445406 C11.2528662,22.7221578 10.9244848,22.5012304 10.3819417,22.4258311 L10.1264664,22.3901079 C9.89179981,22.3608266 9.70376274,22.3152942 9.70376274,22.154247 C9.70376274,21.9785592 9.88101578,21.8728537 10.1784121,21.8728537 C10.496617,21.8728537 10.8046454,21.9885149 10.9556218,22.0788477 L11.1902884,21.6564649 L11.1893771,21.6558793 Z M18.1839612,21.4049386 C17.8712243,21.4049386 17.6675428,21.545928 17.5273504,21.7570462 L17.5273504,21.4648188 L16.9901233,21.4648188 L16.9901233,23.8676423 L17.5322108,23.8676423 L17.5322108,22.5207025 C17.5322108,22.1230624 17.7094638,21.902135 18.063818,21.902135 C18.1798555,21.9005206 18.2950761,21.9210712 18.4028315,21.9626009 L18.5699081,21.4700895 C18.4499167,21.424557 18.2934723,21.4044993 18.1836575,21.4044993 L18.1839612,21.4049386 Z M13.558067,21.4648188 L12.67165,21.4648188 L12.67165,20.7358609 L12.1236388,20.7358609 L12.1236388,21.4648188 L11.6180044,21.4648188 L11.6180044,21.9423968 L12.1236388,21.9423968 L12.1236388,23.0385423 C12.1236388,23.5960582 12.348129,23.9281081 12.9893992,23.9281081 C13.2246734,23.9281081 13.4956412,23.857833 13.6675781,23.7423183 L13.5109818,23.2949 C13.3492213,23.3852328 13.1719683,23.4307653 13.0310164,23.4307653 C12.7600486,23.4307653 12.67165,23.2697181 12.67165,23.0285866 L12.67165,21.942836 L13.558067,21.942836 L13.558067,21.4648188 Z M5.45348701,23.8682279 L5.45348701,22.360241 C5.45348701,21.7923302 5.07802042,21.4102092 4.47274762,21.405085 C4.15454272,21.3999607 3.82631323,21.4954178 3.59650702,21.8325919 C3.42457005,21.5661321 3.15360225,21.405085 2.7726677,21.405085 C2.50640843,21.405085 2.24622466,21.4804843 2.04254315,21.7618776 L2.04254315,21.4648188 L1.5,21.4648188 L1.5,23.8676423 L2.04679601,23.8676423 L2.04679601,22.5353431 C2.04679601,22.118231 2.2867787,21.8965716 2.65738488,21.8965716 C3.01735892,21.8965716 3.19947236,22.1227696 3.19947236,22.5300725 L3.19947236,23.8673494 L3.74748347,23.8673494 L3.74748347,22.5350503 C3.74748347,22.1179382 3.99764264,21.8962788 4.35746479,21.8962788 C4.72761531,21.8962788 4.9042608,22.1224768 4.9042608,22.5297797 L4.9042608,23.8670566 L5.45348701,23.8682279 Z" fill="#231F20" fill-rule="nonzero"></path>
    <polygon fill="#FF5F00" points="18.9998521 17 11 17 11 2 19 2"></polygon>
    <path d="M11.8409343,9.49999989 C11.8409343,6.46990632 13.2717655,3.77068416 15.499845,2.03118884 C13.8133036,0.712539684 11.7273098,-0.00313639458 9.57953284,1.03325775e-05 C4.28877401,1.03325775e-05 0,4.25323697 0,9.49999989 C0,14.7467628 4.28877401,18.9999894 9.57953284,18.9999894 C11.7273629,19.0031708 13.8134169,18.2874928 15.5,16.9688109 C13.2720755,15.229623 11.8409343,12.5302471 11.8409343,9.49999989" fill="#EB001B"></path>
    <path d="M30.5,9.49999989 C30.5,14.746763 26.2114404,18.9999898 20.9209461,18.9999898 C18.7729965,19.0031156 16.6868194,18.2874533 15,16.9688112 C17.228588,15.2293158 18.6593477,12.5302472 18.6593477,9.49999989 C18.6593477,6.46975253 17.228588,3.77068394 15,2.03118856 C16.6867777,0.71257919 18.7728946,-0.00308123854 20.9207911,9.9721729e-06 C26.2112854,9.9721729e-06 30.499845,4.25323677 30.499845,9.49999989" fill="#F79E1B"></path>
</svg>