<svg viewBox="0 0 19 16" version="1.1" xmlns="http://www.w3.org/2000/svg" xmlns:xlink="http://www.w3.org/1999/xlink">
    <path d="M12.5258964,0.019123506 C12.4302789,-0.025498008 12.3537849,0.019123506 12.3537849,0.12749004 L12.3537849,13.0613546 L18.0207171,15.8916335 C18.3011952,16.0318725 18.5306773,15.8916335 18.5306773,15.5729084 L18.5306773,3.12350598 C18.5306773,3.05976096 18.4988048,3.00239044 18.4414343,2.97689243 L12.5258964,0.019123506 Z" fill="#2FFC8D"></path>
    <path d="M6.17689243,9.97609562 L12.2517928,0.101992032 C12.3091633,0.012749004 12.4302789,-0.025498008 12.5258964,0.025498008 L18.3968127,2.95776892 C18.4669323,2.99601594 18.4988048,3.08525896 18.4541833,3.15537849 L12.3537849,13.0613546 L6.17689243,9.97609562 Z" fill="#03E370"></path>
    <path d="M0.682071713,0.280478088 C0.305976096,0.0892430279 0.178486056,0.229482072 0.401593625,0.592828685 L6.17689243,9.97609562 L12.3537849,13.0677291 L6.21513944,3.09163347 C6.18964143,3.04701195 6.15139442,3.01513944 6.10677291,2.98964143 L0.682071713,0.280478088 Z" fill="#10C767"></path>
    <path d="M6.17689243,15.5792829 C6.17689243,15.8916335 5.94741036,16.038247 5.66693227,15.898008 L0.344223108,13.2334661 C0.152988048,13.1378486 0,12.889243 0,12.6788845 L0,0.3187251 C0,0.108366534 0.152988048,0.012749004 0.344223108,0.108366534 L6.10039841,2.98964143 C6.14501992,3.01513944 6.17689243,3.05976096 6.17689243,3.11075697 L6.17689243,15.5792829 Z" fill="#00AB6C"></path>
</svg>