<svg viewBox="0 0 15 16" version="1.1" xmlns="http://www.w3.org/2000/svg" xmlns:xlink="http://www.w3.org/1999/xlink">
    <path d="M7.33333333,0 L0.403333333,4 L0.403333333,12 L7.33333333,16 L14.2633333,12 L14.2633333,4 L7.33333333,0 Z M11.3333333,11.06 C11.3333333,11.53 10.9026667,11.92 10.314,11.92 C9.89333333,11.92 9.41333333,11.75 9.11333333,11.38 L5.11333333,6.61933333 L5.11333333,11.0593333 C5.11333333,11.54 4.73333333,11.9193333 4.264,11.9193333 L4.21333333,11.9193333 C3.73266667,11.9193333 3.35333333,11.5193333 3.35333333,11.0593333 L3.35333333,4.94 C3.35333333,4.47 3.77333333,4.08 4.35333333,4.08 C4.784,4.08 5.27333333,4.25 5.57333333,4.62 L9.55333333,9.38066667 L9.55333333,4.94 C9.55333333,4.45933333 9.95333333,4.08 10.4133333,4.08 L10.4633333,4.08 C10.9433333,4.08 11.3233333,4.48 11.3233333,4.94 L11.3233333,11.06 L11.3333333,11.06 Z" fill="#269539"></path>
</svg>