<svg viewBox="0 0 18 18" version="1.1" xmlns="http://www.w3.org/2000/svg" xmlns:xlink="http://www.w3.org/1999/xlink">
    <path d="M9,18 C13.9706719,18 18,13.9706719 18,9 C18,4.02932812 13.9706719,0 9,0 C4.02932813,0 0,4.02932813 0,9 C0,13.9706719 4.02932813,18 9,18 Z M6.69767442,5.44186047 L6.69767442,12.5581395 L8.05008945,12.5581395 L8.05008945,10.3343023 L10.0967442,10.3343023 C11.4559213,10.2987209 12.5581395,9.21126453 12.5581395,7.8880814 C12.5581395,6.52931686 11.4559213,5.44186047 10.0967442,5.44186047 L6.69767442,5.44186047 Z M10.1134381,9 L8.05008945,9 L8.05008945,6.77616279 L10.1134381,6.77616279 C10.7166011,6.77616279 11.2057245,7.27430233 11.2057245,7.8880814 C11.2057245,8.50186047 10.7166011,9 10.1134381,9 Z" fill="#DA5530"></path>
</svg>