<svg viewBox="0 0 22 16" version="1.1" xmlns="http://www.w3.org/2000/svg" xmlns:xlink="http://www.w3.org/1999/xlink">
    <path d="M18.3567699,9.20947175 C17.6145719,9.21335758 16.9695203,9.39210683 16.4293868,9.65634483 C16.2312083,9.26387375 16.0330298,8.91414692 15.9980571,8.65768067 C15.9591986,8.35846992 15.9125683,8.17583485 15.9591986,7.81833637 C16.0058287,7.46083788 16.2156648,6.95179113 16.211779,6.91293261 C16.2078932,6.87407408 16.1651488,6.69143898 15.7377049,6.68755312 C15.3102611,6.68366727 14.941105,6.76915604 14.8983607,6.88184578 C14.8556162,6.99453552 14.7740133,7.25100182 14.7196114,7.51523983 C14.6457802,7.90382513 13.8647237,9.29107467 13.4178507,10.0177292 C13.2740741,9.73406192 13.1497267,9.48536733 13.1225258,9.28718883 C13.0836672,8.98797817 13.037037,8.80534308 13.0836672,8.44784458 C13.1302975,8.09034608 13.3401336,7.58129933 13.3362478,7.5424408 C13.3323618,7.50358227 13.2896175,7.32094718 12.8621737,7.31706132 C12.4347298,7.31317547 12.0655738,7.39866424 12.0228294,7.51135397 C11.980085,7.62404372 11.9334548,7.88828172 11.8440802,8.14474802 C11.7547055,8.40121433 10.7171828,10.7171827 10.4451731,11.3156042 C10.3052823,11.6225865 10.1848209,11.8673952 10.0993321,12.0344869 C10.0993321,12.0344869 10.0954463,12.0461445 10.0837887,12.0655737 C10.0099575,12.2093503 9.96721308,12.2870674 9.96721308,12.2870674 C9.96721308,12.2870674 9.96721308,12.2870674 9.96721308,12.2909532 C9.90892533,12.3958712 9.84675167,12.4930176 9.81566483,12.4930176 C9.79234975,12.4930176 9.74960533,12.2132362 9.82343658,11.8324226 C9.97887067,11.028051 10.3480268,9.77680633 10.3441408,9.73406192 C10.3441408,9.71074683 10.4140863,9.493139 10.103218,9.38044933 C9.80012142,9.26775958 9.69131758,9.4542805 9.66411658,9.4542805 C9.63691558,9.4542805 9.61748633,9.52034 9.61748633,9.52034 C9.61748633,9.52034 9.95555558,8.1136612 8.97243475,8.1136612 C8.35846992,8.1136612 7.51135398,8.78591375 7.09168184,9.39210683 C6.82744383,9.53588342 6.26399514,9.84286583 5.66168792,10.1731633 C5.43242258,10.3013965 5.19538555,10.4296297 4.97389193,10.5500911 C4.95834851,10.5345477 4.9428051,10.5151184 4.92726169,10.499575 C3.73819065,9.228901 1.53879782,8.33126898 1.63205829,6.62537947 C1.66703097,6.00364298 1.88075288,4.3715847 5.85598057,2.38979963 C9.12786883,0.777170613 11.7313904,1.22404372 12.1821493,2.21493625 C12.827201,3.62938677 10.7871281,6.25622343 7.40643594,6.63703703 C6.11633273,6.7808136 5.44019429,6.28342441 5.26921676,6.09690346 C5.09046752,5.90261081 5.06326654,5.89095325 4.99720704,5.92981177 C4.88840316,5.98809957 4.95834851,6.16296297 4.99720704,6.26399514 C5.09823923,6.52823315 5.5140255,6.99453552 6.21736491,7.22380085 C6.8391014,7.42586521 8.35069825,7.53855495 10.180935,6.83132969 C12.2287796,6.03861567 13.8297511,3.83533697 13.3595628,1.98955677 C12.8893746,0.116575592 9.78069217,-0.501275046 6.8391014,0.544019429 C5.09046752,1.16575592 3.19417122,2.14499089 1.83023679,3.4195507 C0.209836066,4.93503339 -0.0466302368,6.25233758 0.058287796,6.80412872 C0.435215543,8.76259867 3.13588342,10.0371585 4.21615058,10.9814207 C4.16174863,11.0125076 4.11123254,11.0397086 4.06848816,11.0630237 C3.52835458,11.3311475 1.46885246,12.4075288 0.955919858,13.5460837 C0.373041894,14.836187 1.04918033,15.76102 1.49605343,15.8853673 C2.88330298,16.2700667 4.30941105,15.5783849 5.07492411,14.4359442 C5.84043716,13.2935033 5.74717668,11.8091075 5.39356406,11.1290832 C5.3896782,11.1213115 5.38579235,11.1135397 5.37802064,11.1057681 C5.51791135,11.0241652 5.66168792,10.9386764 5.80157863,10.8570735 C6.07747419,10.6938677 6.34948391,10.5423193 6.58263509,10.4179721 C6.45051609,10.7793564 6.35336977,11.2106861 6.30673953,11.8324226 C6.24845173,12.562963 6.54766242,13.5111111 6.94013358,13.884153 C7.11499697,14.0473588 7.32094718,14.0512447 7.45306618,14.0512447 C7.91159684,14.0512447 8.11754706,13.6704311 8.34681242,13.2196722 C8.62659383,12.667881 8.87917425,12.0267152 8.87917425,12.0267152 C8.87917425,12.0267152 8.56442017,13.7598057 9.41930783,13.7598057 C9.73017608,13.7598057 10.0449302,13.355677 10.1848209,13.1497267 L10.1848209,13.1536127 C10.1848209,13.1536127 10.1925926,13.1419551 10.208136,13.1147541 C10.2392228,13.064238 10.2586521,13.0331512 10.2586521,13.0331512 L10.2586521,13.0253795 C10.3829994,12.8077717 10.6627808,12.3142683 11.0785671,11.4943533 C11.6148148,10.4374013 12.1316333,9.11621133 12.1316333,9.11621133 C12.1316333,9.11621133 12.1782635,9.43873708 12.3375835,9.97498483 C12.430844,10.2897389 12.6251366,10.6355798 12.7805708,10.9697632 C12.6562234,11.1446266 12.5785064,11.2417729 12.5785064,11.2417729 C12.5785064,11.2417729 12.5785064,11.2417729 12.5823922,11.2456587 C12.4813601,11.3777777 12.3725562,11.5215543 12.2520947,11.6614451 C11.8285367,12.1666059 11.3233758,12.7455981 11.2534305,12.9126897 C11.1718276,13.1108682 11.1912568,13.2546448 11.3466909,13.3712204 C11.4593807,13.4567092 11.6614451,13.4683667 11.8673952,13.4567092 C12.2482088,13.4295082 12.5163328,13.3362477 12.6484517,13.2779599 C12.8544019,13.2041287 13.0953248,13.091439 13.3207043,12.9243473 C13.7364906,12.6173649 13.989071,12.1782635 13.9657559,11.5992714 C13.9540983,11.2806314 13.8491803,10.9619915 13.7209472,10.6627808 C13.7598057,10.6083788 13.7947784,10.5539769 13.8336369,10.499575 C14.4903461,9.53976925 14.9993928,8.48670308 14.9993928,8.48670308 C14.9993928,8.48670308 15.0460231,8.80922892 15.2053431,9.34547658 C15.2830601,9.61748633 15.4423801,9.91281117 15.5822708,10.2003643 C14.9644202,10.7016393 14.5836066,11.2845173 14.4476017,11.6653309 C14.2027929,12.3725562 14.3931998,12.6911961 14.7545841,12.7650273 C14.9177899,12.8 15.1509411,12.7222829 15.3219187,12.6484517 C15.5395264,12.5785064 15.7959928,12.4580449 16.0408014,12.2792957 C16.4565878,11.9723133 16.8568306,11.5448695 16.8335155,10.9658773 C16.8218579,10.7016393 16.7519126,10.4412872 16.6547663,10.1887067 C17.1793564,9.971099 17.8554948,9.8506375 18.7181543,9.95166967 C20.5678203,10.1692775 20.9330905,11.3233758 20.8631451,11.8091075 C20.7931997,12.2948391 20.4046144,12.5590771 20.2763813,12.64068 C20.1481482,12.7222829 20.1054038,12.7494839 20.1170613,12.8077717 C20.1326048,12.8932605 20.1947784,12.8893746 20.3035823,12.8738312 C20.4551305,12.8466302 21.2750455,12.4813601 21.3100183,11.5876138 C21.368306,10.4451731 20.2802672,9.19781417 18.3567699,9.20947175 Z M4.08791742,14.0201578 C3.47395264,14.6885246 2.61906497,14.941105 2.24990893,14.7273831 C1.85355192,14.4981177 2.00898603,13.5111111 2.76284153,12.8038858 C3.22137219,12.3725562 3.81202186,11.9723133 4.20449302,11.7275046 C4.29386764,11.6731026 4.42598664,11.5953856 4.58530662,11.4982392 C4.61250759,11.4826958 4.628051,11.4749241 4.628051,11.4749241 C4.65913783,11.4554948 4.69022465,11.4360656 4.72131148,11.4166363 C4.99720704,12.4269581 4.73296903,13.3168184 4.08791742,14.0201578 Z M8.55664842,10.9814207 C8.3429265,11.5021251 7.89605343,12.8349727 7.62404372,12.7611415 C7.39089253,12.6989678 7.24711597,11.688646 7.57741348,10.6899817 C7.74450516,10.1887067 8.09811779,9.59028533 8.304068,9.35713417 C8.63825133,8.98409225 9.00740742,8.859745 9.096782,9.01129325 C9.20947175,9.20947175 8.68876742,10.6550091 8.55664842,10.9814207 Z M12.244323,12.7455981 C12.1549484,12.7922283 12.0694596,12.8233151 12.0306011,12.8 C12.0034001,12.7844566 12.0694596,12.7222829 12.0694596,12.7222829 C12.0694596,12.7222829 12.5318762,12.2248937 12.7145113,11.9995142 C12.8194292,11.8673952 12.9437766,11.7119612 13.0758956,11.5370977 L13.0758956,11.5876138 C13.0758956,12.1821493 12.5007893,12.5823922 12.244323,12.7455981 Z M15.0887674,12.0966606 C15.0227079,12.0500303 15.0343655,11.8945962 15.2558592,11.4088646 C15.3413479,11.2184578 15.5434122,10.8998178 15.8892532,10.5928355 C15.9281117,10.7171827 15.9553127,10.8376442 15.9514268,10.9503339 C15.947541,11.7003036 15.4112932,11.980085 15.0887674,12.0966606 Z" fill="#CD6799"></path>
</svg>