<svg viewBox="0 0 29 13" version="1.1" xmlns="http://www.w3.org/2000/svg" xmlns:xlink="http://www.w3.org/1999/xlink">
    <defs>
        <linearGradient x1="49.7191011%" y1="-27.7011704%" x2="49.7191011%" y2="100.084483%" id="linearGradient-1">
            <stop stop-color="#F6871F" offset="0%"></stop>
            <stop stop-color="#F57E20" offset="23.93%"></stop>
            <stop stop-color="#F36621" offset="62.62%"></stop>
            <stop stop-color="#F04923" offset="100%"></stop>
        </linearGradient>
        <linearGradient x1="50.2079545%" y1="-25.000033%" x2="50.2079545%" y2="100.195383%" id="linearGradient-2">
            <stop stop-color="#F6871F" offset="0%"></stop>
            <stop stop-color="#F57E20" offset="23.93%"></stop>
            <stop stop-color="#F36621" offset="62.62%"></stop>
            <stop stop-color="#F04923" offset="100%"></stop>
        </linearGradient>
        <linearGradient x1="50.0305882%" y1="-26.1661483%" x2="50.0305882%" y2="100.311149%" id="linearGradient-3">
            <stop stop-color="#F6871F" offset="0%"></stop>
            <stop stop-color="#F57E20" offset="23.93%"></stop>
            <stop stop-color="#F36621" offset="62.62%"></stop>
            <stop stop-color="#F04923" offset="100%"></stop>
        </linearGradient>
        <linearGradient x1="49.9360465%" y1="-23.1964773%" x2="49.9360465%" y2="100.193452%" id="linearGradient-4">
            <stop stop-color="#F6871F" offset="0%"></stop>
            <stop stop-color="#F57E20" offset="23.93%"></stop>
            <stop stop-color="#F36621" offset="62.62%"></stop>
            <stop stop-color="#F04923" offset="100%"></stop>
        </linearGradient>
        <linearGradient x1="49.5253165%" y1="-89.8451915%" x2="49.5253165%" y2="101.504131%" id="linearGradient-5">
            <stop stop-color="#F6871F" offset="0%"></stop>
            <stop stop-color="#F57E20" offset="23.93%"></stop>
            <stop stop-color="#F36621" offset="62.62%"></stop>
            <stop stop-color="#F04923" offset="100%"></stop>
        </linearGradient>
        <linearGradient x1="50.151087%" y1="-13.84615%" x2="50.151087%" y2="100.178769%" id="linearGradient-6">
            <stop stop-color="#F6871F" offset="0%"></stop>
            <stop stop-color="#F57E20" offset="23.93%"></stop>
            <stop stop-color="#F36621" offset="62.62%"></stop>
            <stop stop-color="#F04923" offset="100%"></stop>
        </linearGradient>
        <linearGradient x1="49.6594937%" y1="-95.2380781%" x2="49.6594937%" y2="100.836155%" id="linearGradient-7">
            <stop stop-color="#F6871F" offset="0%"></stop>
            <stop stop-color="#F57E20" offset="23.93%"></stop>
            <stop stop-color="#F36621" offset="62.62%"></stop>
            <stop stop-color="#F04923" offset="100%"></stop>
        </linearGradient>
        <linearGradient x1="49.5962963%" y1="-51.0899673%" x2="49.5962963%" y2="100.373025%" id="linearGradient-8">
            <stop stop-color="#F6871F" offset="0%"></stop>
            <stop stop-color="#F57E20" offset="23.93%"></stop>
            <stop stop-color="#F36621" offset="62.62%"></stop>
            <stop stop-color="#F04923" offset="100%"></stop>
        </linearGradient>
        <linearGradient x1="50.4142857%" y1="-33.2107591%" x2="50.4142857%" y2="100.080323%" id="linearGradient-9">
            <stop stop-color="#F6871F" offset="0%"></stop>
            <stop stop-color="#F57E20" offset="23.93%"></stop>
            <stop stop-color="#F36621" offset="62.62%"></stop>
            <stop stop-color="#F04923" offset="100%"></stop>
        </linearGradient>
        <linearGradient x1="50.0343434%" y1="-7.14284164%" x2="50.0343434%" y2="100.167761%" id="linearGradient-10">
            <stop stop-color="#F6871F" offset="0%"></stop>
            <stop stop-color="#F57E20" offset="23.93%"></stop>
            <stop stop-color="#F36621" offset="62.62%"></stop>
            <stop stop-color="#F04923" offset="100%"></stop>
        </linearGradient>
        <linearGradient x1="50.3245902%" y1="-220.198737%" x2="50.3245902%" y2="147.927152%" id="linearGradient-11">
            <stop stop-color="#F6871F" offset="0%"></stop>
            <stop stop-color="#F57E20" offset="23.93%"></stop>
            <stop stop-color="#F36621" offset="62.62%"></stop>
            <stop stop-color="#F04923" offset="100%"></stop>
        </linearGradient>
        <linearGradient x1="49.1592105%" y1="-121.473836%" x2="49.1592105%" y2="112.576421%" id="linearGradient-12">
            <stop stop-color="#F6871F" offset="0%"></stop>
            <stop stop-color="#F57E20" offset="23.93%"></stop>
            <stop stop-color="#F36621" offset="62.62%"></stop>
            <stop stop-color="#F04923" offset="100%"></stop>
        </linearGradient>
        <linearGradient x1="50.4220779%" y1="-94.4840187%" x2="50.4220779%" y2="103.334164%" id="linearGradient-13">
            <stop stop-color="#F6871F" offset="0%"></stop>
            <stop stop-color="#F57E20" offset="23.93%"></stop>
            <stop stop-color="#F36621" offset="62.62%"></stop>
            <stop stop-color="#F04923" offset="100%"></stop>
        </linearGradient>
        <linearGradient x1="49.9306056%" y1="-1.53385045e-09%" x2="49.9306056%" y2="100.017117%" id="linearGradient-14">
            <stop stop-color="#F7941E" offset="0%"></stop>
            <stop stop-color="#F68B1F" offset="0%"></stop>
            <stop stop-color="#F6871F" offset="0%"></stop>
            <stop stop-color="#F57E20" offset="24.02%"></stop>
            <stop stop-color="#F36621" offset="63.06%"></stop>
            <stop stop-color="#F04923" offset="100%"></stop>
        </linearGradient>
    </defs>
    <path d="M12.1346679,8.99108547 L11.9697948,2.97870924 C11.9697948,2.79185294 11.815913,2.64896284 11.6400483,2.64896284 C11.4531921,2.64896284 11.3103019,2.79185294 11.3103019,2.97870924 L11.1564202,8.99108547 L11.3103019,11.8818623 C11.3103019,12.0687187 11.4641835,12.2116087 11.6400483,12.2116087 C11.8269046,12.2116087 11.9697948,12.0687187 11.9697948,11.8818623 L12.1346679,8.99108547 Z" id="Path" fill="url(#linearGradient-1)"></path>
    <path d="M10.9475808,8.99108547 L10.7607245,2.74788675 C10.7607245,2.572022 10.6178344,2.44012344 10.4529612,2.44012344 C10.288088,2.44012344 10.1451979,2.572022 10.1451979,2.74788675 L9.9803247,8.98009393 L10.1451979,11.8928538 C10.1451979,12.0687187 10.288088,12.2006172 10.4529612,12.2006172 C10.6178344,12.2006172 10.7607245,12.0687187 10.7607245,11.8928538 L10.9475808,8.99108547 Z" id="Path" fill="url(#linearGradient-2)"></path>
    <path d="M8.38655038,2.79185294 C8.37555883,2.64896284 8.26564337,2.52805581 8.12275326,2.52805581 C7.97986314,2.52805581 7.86994767,2.63797129 7.85895613,2.79185294 L7.67209983,8.98009393 L7.85895613,11.9368201 C7.85895613,12.0797102 7.97986314,12.1896256 8.12275326,12.1896256 C8.26564337,12.1896256 8.37555883,12.0797102 8.38655038,11.9258285 L8.60638132,8.96910238 L8.38655038,2.79185294 Z" id="Path" fill="url(#linearGradient-3)"></path>
    <path d="M9.57363746,2.58301355 C9.57363746,2.4291319 9.4417389,2.29723332 9.28785724,2.29723332 C9.13397558,2.29723332 9.00207702,2.41814035 9.00207702,2.58301355 L8.82621226,8.98009393 L9.00207702,11.914837 C9.00207702,12.0687187 9.13397558,12.2006172 9.28785724,12.2006172 C9.4417389,12.2006172 9.56264591,12.0797102 9.57363746,11.914837 L9.77148531,8.98009393 L9.57363746,2.58301355 Z" id="Path" fill="url(#linearGradient-4)"></path>
    <path d="M3.58324434,12.1236764 C3.67117671,12.1236764 3.73712599,12.0577271 3.74811754,11.9588032 L4.03389775,8.98009393 L3.74811754,5.90246076 C3.73712599,5.81452838 3.67117671,5.73758755 3.58324434,5.73758755 C3.49531196,5.73758755 3.42936267,5.80353683 3.41837112,5.90246076 L3.16556554,8.98009393 L3.41837112,11.9588032 C3.41837112,12.0577271 3.49531196,12.1236764 3.58324434,12.1236764 Z" id="Path" fill="url(#linearGradient-5)"></path>
    <path d="M13.3327466,8.99108547 L13.1788649,1.84657991 C13.1788649,1.72567288 13.1129156,1.61575742 13.0139917,1.54980813 C12.9590339,1.51683349 12.8930847,1.48385885 12.8161439,1.48385885 C12.7501945,1.48385885 12.6842453,1.50584194 12.6182959,1.53881658 C12.519372,1.60476587 12.4534228,1.71468134 12.4534228,1.83558836 L12.4534228,1.90153763 L12.3215242,8.98009393 L12.4534228,11.8488877 L12.4534228,11.8598793 C12.4534228,11.9368201 12.4863975,12.0137609 12.5413551,12.0687187 C12.6073044,12.1456595 12.7062284,12.2006172 12.8161439,12.2006172 C12.9150678,12.2006172 13.0030002,12.156651 13.0689494,12.1016932 C13.1348986,12.035744 13.1788649,11.9478116 13.1788649,11.8488877 L13.1898564,11.5631074 L13.3327466,8.99108547 Z" id="Path" fill="url(#linearGradient-6)"></path>
    <path d="M4.89123842,6.1222917 C4.88024689,6.01237622 4.80330605,5.9354354 4.70438212,5.9354354 C4.60545821,5.9354354 4.51752583,6.01237622 4.51752583,6.1222917 L4.28670334,8.98009393 L4.51752583,11.9807862 C4.52851737,12.0907017 4.60545821,12.1676426 4.70438212,12.1676426 C4.80330605,12.1676426 4.89123842,12.0907017 4.89123842,11.9807862 L5.15503555,8.98009393 L4.89123842,6.1222917 Z" id="Path" fill="url(#linearGradient-7)"></path>
    <path d="M5.83651147,4.12183014 C5.72659601,4.12183014 5.62767208,4.20976252 5.62767208,4.33066953 L5.40784114,8.98009393 L5.62767208,11.9807862 C5.63866362,12.1016932 5.72659601,12.1896256 5.83651147,12.1896256 C5.94642695,12.1896256 6.04535086,12.1016932 6.04535086,11.9807862 L6.29815645,8.98009393 L6.04535086,4.33066953 C6.04535086,4.22075406 5.94642695,4.12183014 5.83651147,4.12183014 Z" id="Path" fill="url(#linearGradient-8)"></path>
    <path d="M7.1994633,11.9807862 L7.43028579,8.99108547 L7.1994633,3.27548102 C7.18847176,3.14358246 7.08954783,3.04465853 6.95764927,3.04465853 C6.82575071,3.04465853 6.72682678,3.14358246 6.71583523,3.27548102 L6.50699584,8.99108547 L6.71583523,11.9807862 C6.71583523,12.1126848 6.82575071,12.2116087 6.95764927,12.2116087 C7.08954783,12.2226003 7.18847176,12.1126848 7.1994633,11.9807862 Z" id="Path" fill="url(#linearGradient-9)"></path>
    <path d="M14.2010787,0.868332215 C14.146121,0.835357575 14.0801717,0.813374481 14.0032309,0.813374481 C13.9152985,0.813374481 13.8273662,0.846349121 13.7614168,0.901306857 C13.6734845,0.967256138 13.6185268,1.07717161 13.6185268,1.19807862 L13.6185268,1.24204481 L13.4646451,9.00207702 L13.541586,10.4309781 L13.6185268,11.8269046 C13.6185268,12.035744 13.7943915,12.2006172 14.0032309,12.2006172 C14.2120703,12.2006172 14.3769436,12.0247524 14.387935,11.815913 L14.5528083,8.99108547 L14.387935,1.19807862 C14.3769436,1.05518851 14.3109942,0.934281497 14.2010787,0.868332215 Z" id="Path" fill="url(#linearGradient-10)"></path>
    <path d="M0.318754863,10.628826 C0.373712599,10.628826 0.417678787,10.5848598 0.428670334,10.5189105 L0.670484369,8.98009393 L0.428670334,7.41929425 C0.417678787,7.35334496 0.373712599,7.30937877 0.318754863,7.30937877 C0.263797129,7.30937877 0.208839393,7.35334496 0.208839393,7.41929425 L0,8.98009393 L0.208839393,10.5189105 C0.208839393,10.5848598 0.263797129,10.628826 0.318754863,10.628826 Z" id="Path" fill="url(#linearGradient-11)"></path>
    <path d="M1.36295183,11.5631074 C1.41790956,11.5631074 1.4728673,11.5191413 1.48385885,11.4531921 L1.80261372,8.98009393 L1.48385885,6.4520381 C1.4728673,6.38608883 1.42890111,6.34212264 1.36295183,6.34212264 C1.3079941,6.34212264 1.25303636,6.38608883 1.24204481,6.4520381 L0.967256138,8.98009393 L1.24204481,11.4531921 C1.25303636,11.5191413 1.29700255,11.5631074 1.36295183,11.5631074 Z" id="Path" fill="url(#linearGradient-12)"></path>
    <path d="M2.46210654,12.0137609 C2.53904736,12.0137609 2.5940051,11.9588032 2.60499665,11.8708708 L2.90176842,8.98009393 L2.60499665,5.97940158 C2.5940051,5.90246076 2.53904736,5.83651147 2.46210654,5.83651147 C2.3851657,5.83651147 2.33020797,5.89146921 2.31921642,5.97940158 L2.0554193,8.98009393 L2.31921642,11.8708708 C2.33020797,11.9478116 2.3851657,12.0137609 2.46210654,12.0137609 Z" id="Path" fill="url(#linearGradient-13)"></path>
    <path d="M24.6760231,5.29792567 C24.2033866,5.29792567 23.7527331,5.39684959 23.3350543,5.56172279 C23.0602657,2.45111499 20.4442775,0 17.2567288,0 C16.476329,0 15.7179123,0.153881658 15.0474279,0.417678787 C14.7836308,0.51660271 14.7176814,0.62651818 14.7176814,0.824366027 L14.7176814,11.8049215 C14.7176814,12.0137609 14.8825547,12.1786342 15.0913941,12.2006172 L24.6870146,12.2006172 C26.5995438,12.2006172 28.1493519,10.6727922 28.1493519,8.76026298 C28.1383604,6.84773379 26.5885523,5.29792567 24.6760231,5.29792567 Z" id="Path" fill="url(#linearGradient-14)"></path>
</svg>