<svg viewBox="0 0 14 18" version="1.1" xmlns="http://www.w3.org/2000/svg" xmlns:xlink="http://www.w3.org/1999/xlink">
    <g transform="translate(1.000000, 1.008203)" fill="#DF4723" stroke="#DF4723" stroke-width="0.5">
        <path d="M6.42837332,0.0184900479 C6.56807591,0.125321436 6.68928844,0.256806221 6.82282768,0.371855408 C8.02878969,1.51002058 9.13408366,2.76734384 10.0236604,4.17053303 C10.8844749,5.52852432 11.5460282,7.0303271 11.839794,8.61636232 C12.002075,9.48539457 12.0555112,10.3770052 11.960986,11.2563303 C11.9178631,11.6240768 11.8541752,11.9918233 11.7370715,12.3431342 C11.5727155,12.8526377 11.3569983,13.3477601 11.0611575,13.7956302 C10.8064058,14.1818667 10.4879661,14.5270143 10.1202196,14.8064195 C9.71549295,15.1125325 9.25324175,15.3364675 8.77250051,15.4905512 C8.17463508,15.6816151 7.5480279,15.7761198 6.92349571,15.827481 C6.1777099,15.8829306 5.42783574,15.8932029 4.68414547,15.7987187 C3.84182106,15.6939418 3.00566001,15.4700067 2.25578584,15.0652801 C1.56138182,14.6913703 0.951210242,14.1428527 0.558810337,13.4525371 C0.104776938,12.6636284 -0.0451978949,11.7288537 0.026707847,10.8269503 C0.100668039,9.87163113 0.404726604,8.94507429 0.807398758,8.08015093 C1.15665522,7.33644012 1.58398077,6.63176385 2.05853812,5.96201322 C2.46326473,5.39498509 2.89880808,4.8505559 3.37546097,4.34105236 C3.38365822,4.33488901 3.40011436,4.32050786 3.41038661,4.31434451 C3.40216881,4.74372451 3.44325781,5.17515896 3.5665248,5.58810337 C3.69184623,6.00926557 3.90345456,6.40577437 4.18491418,6.74475859 C4.20137032,6.76530308 4.21367647,6.79406538 4.24449322,6.79819482 C4.8546648,6.34005253 5.43196518,5.82644008 5.88188968,5.2080507 C6.34824978,4.56909628 6.6605056,3.82127657 6.77968423,3.03853121 C6.93785632,2.02568747 6.80228318,0.97175474 6.42837332,0.0184900479 Z"></path>
    </g>
</svg>