<svg viewBox="0 0 16 16" version="1.1" xmlns="http://www.w3.org/2000/svg" xmlns:xlink="http://www.w3.org/1999/xlink">
    <path d="M1.0422634,0 L0,2.77945784 L0,13.8959574 L3.81985672,13.8959574 L3.81985672,15.9815496 L5.90534241,15.9815496 L7.98875051,13.8959574 L11.1147416,13.8959574 L15.2835821,9.72860854 L15.2835821,0 L1.0422634,0 Z M2.43084697,1.38884993 L13.8944125,1.38884993 L13.8944125,9.03234567 L11.4622337,11.4646842 L7.64179104,11.4646842 L5.55896896,13.5473998 L5.55896896,11.4646842 L2.43084697,11.4646842 L2.43084697,1.38884993 Z M6.25223791,8.33841081 L7.64178042,8.33841081 L7.64178042,4.1697834 L6.25223791,4.1697834 L6.25223791,8.33841081 Z M10.072947,8.33841081 L11.4622231,8.33841081 L11.4622231,4.1697834 L10.072947,4.1697834 L10.072947,8.33841081 Z" fill="#5A3E85" fill-rule="nonzero"></path>
</svg>