<svg viewBox="0 0 16 16" version="1.1" xmlns="http://www.w3.org/2000/svg" xmlns:xlink="http://www.w3.org/1999/xlink">
    <path d="M9.99993719,8.00351925 C9.99968581,8.59802044 9.89084056,9.16688138 9.69275725,9.69250588 C9.16738412,9.89058919 8.59802044,9.99943444 8.00326787,10.0001885 L7.99648075,10.0001885 C7.40223094,9.99943444 6.83286725,9.89084056 6.30749412,9.69275725 C6.10941084,9.16738413 6.00031422,8.59802044 6.00006284,8.00351925 L6.00006284,7.99648075 C6.00031422,7.40223094 6.10915947,6.83286725 6.30699137,6.3077455 C6.8323645,6.10941084 7.40197956,6.00031422 7.99648075,6.00006284 L8.00326787,6.00006284 C8.59802044,6.00031422 9.16738412,6.10941084 9.69275725,6.3077455 C9.89084056,6.83286725 9.99968581,7.40223094 9.99993719,7.99648075 L9.99993719,8.00351925 Z M15.8888924,6.66670856 L11.2191045,6.66670856 L14.5209112,3.36465043 C14.2614926,3.00015711 13.9721602,2.65828751 13.656685,2.34281226 L13.656685,2.34256088 C13.3412098,2.027337 12.9993401,1.73850746 12.6350982,1.47908877 L9.33304006,4.7811469 L9.33304006,0.111358994 C8.90092694,0.0387117046 8.45699919,0.000251374706 8.004022,0 L7.99572662,0 C7.54274944,0.000251374706 7.09907306,0.0387117046 6.66670856,0.111358994 L6.66670856,4.7811469 L3.36465043,1.47908877 C3.00015711,1.73850746 2.65853889,2.02758838 2.34356638,2.34306363 L2.34180676,2.3443205 C2.02683425,2.65929301 1.73825609,3.00065986 1.47883739,3.36465043 L4.7811469,6.66670856 L0.111358994,6.66670856 C0.111358994,6.66670856 0,7.54375494 0,7.99723488 L0,8.00276512 C0,8.45624506 0.0384603299,8.90067556 0.111358994,9.33329144 L4.7811469,9.33329144 L1.47883739,12.6353496 C1.99817753,13.3640848 2.63591516,14.0020738 3.36465043,14.5211626 L6.66670856,11.2188531 L6.66670856,15.8888924 C7.09882169,15.9612883 7.54199531,15.9994972 7.99421837,16 L8.00553025,16 C8.45800469,15.9994972 8.90168106,15.9612883 9.33304006,15.8888924 L9.33304006,11.2188531 L12.6353496,14.5211626 C12.9995915,14.2617439 13.3412098,13.972663 13.656685,13.6574391 L13.6574391,13.656685 C13.9724116,13.3412098 14.2617439,12.9993401 14.5209112,12.6353496 L11.2186017,9.33329144 L15.8888924,9.33329144 C15.9615397,8.90142969 15.9994972,8.45825606 16,8.00578162 L16,7.99421837 C15.9994972,7.54174394 15.9615397,7.09857031 15.8888924,6.66670856 Z" fill="#FF4A00"></path>
</svg>