<svg xmlns="http://www.w3.org/2000/svg" width="45" height="16"><g fill="#494B4D"><path d="M23.192 7.232v-.998s-.054-.781-.882-.781h-1.288v1.779H19.7v-5.13h3.21s1.674-.2 1.674 1.501c0 .886-.74 1.198-.74 1.198s.643.296.643 1.164v1.267h-1.295m-2.17-2.986h1.367c.397 0 .723-.217.723-.486 0-.27-.326-.487-.723-.487h-1.367v.973m17.774 2.986l-2.098-3.429v3.429h-2.592l-.467-1.076h-2.416l-.459 1.076h-2.072s-1.78-.251-1.78-2.422c0-2.848 2.02-2.735 2.089-2.752l1.631.044v1.154l-1.34.017s-.873 0-.979 1.12a3.42 3.42 0 0 0-.017.357c.005 1.735 1.529 1.196 1.578 1.18l1.64-3.828h1.85l1.984 4.653V2.102h1.87l2.071 3.377V2.102h1.332v5.13h-1.825m-7.008-2.387h1.286l-.634-1.528-.652 1.528M12.815 7.232V3.691l-1.657 3.541h-1.084L8.408 3.708v3.524h-2.61L5.34 6.156H2.925l-.468 1.076H1.011l2.195-5.13h1.86l2.01 4.714V2.102h2.09l1.454 3.186 1.447-3.186h2.09v5.13h-1.342M3.488 4.845h1.287l-.643-1.528-.644 1.528"/><path d="M14.887 7.232v-5.13h4.127V3.3h-2.795v.79h2.724v1.163h-2.724v.869h2.795v1.11h-4.127"/><path d="M25.132 7.25V2.102h1.331V7.25h-1.331"/><path d="M28.297 13.767v-.998s-.053-.781-.882-.781h-1.286v1.78h-1.322V8.636h3.209s1.675-.2 1.675 1.502c0 .885-.74 1.198-.74 1.198s.635.295.635 1.163v1.268h-1.288m-2.169-2.986h1.368c.396 0 .722-.216.722-.486 0-.269-.326-.486-.722-.486h-1.368v.972m-6.648 2.978h-1.156l-1.4-1.52-1.412 1.52h-4.919v-5.14h4.815l1.517 1.633 1.524-1.624h1.014v-.009h3.208s1.675-.182 1.675 1.51c0 1.511-.556 1.98-2.266 1.98h-1.295v1.65h-1.305m-1.657-2.526l1.64 1.788V9.453l-1.64 1.78m-5.898 1.416h2.785l1.305-1.415-1.305-1.407h-2.785v.79h2.715v1.162h-2.715v.868m8.86-1.876h1.366c.397 0 .723-.217.723-.486s-.326-.487-.723-.487h-1.366v.973m16.529 2.98h-2.354v-1.182h2.063s.74.087.74-.407c0-.461-1.118-.425-1.118-.425s-1.825.156-1.825-1.528c0-1.676 1.648-1.58 1.648-1.58h2.54v1.197h-2.046s-.706-.14-.706.366c0 .424.96.363.96.363s2.02-.147 2.02 1.398c0 1.657-1.301 1.804-1.762 1.804-.1 0-.16-.006-.16-.006"/><path d="M30.237 13.759V8.637h4.124v1.189h-2.794v.79h2.724v1.164h-2.724v.869h2.794v1.11h-4.124"/><path d="M41.979 13.751h-2.355v-1.182h2.055s.749.087.749-.407c0-.461-1.119-.425-1.119-.425s-1.825.156-1.825-1.528c0-1.676 1.648-1.58 1.648-1.58h2.53v1.197h-2.037s-.705-.14-.705.366c0 .424.962.363.962.363s2.018-.147 2.018 1.398c0 1.657-1.3 1.804-1.762 1.804-.1 0-.16-.006-.16-.006"/></g></svg>