<svg height="16" width="36" xmlns="http://www.w3.org/2000/svg"><g fill="#494b4d" fill-rule="evenodd"><path d="m23.627 2.316c.346.065.692.126 1.037.195.267.053.605.06.76.246.167.198-.026.512-.062.775-.053.386-.138.769-.19 1.156-.025.183-.06.22-.247.14-.812-.346-1.659-.486-2.54-.372-.289.037-.565.118-.801.299-.382.292-.402.693-.049 1.02.304.28.678.45 1.043.63.495.243.997.474 1.437.815 1.249.965 1.46 2.522.51 3.79-.601.801-1.445 1.212-2.39 1.448-.33.083-.666.133-1.005.165-.055.006-.122-.016-.157.053h-.103a.9.9 0 0 0 -.459 0h-.153a.684.684 0 0 0 -.409 0h-.102c-.397-.117-.816-.109-1.218-.2a9.104 9.104 0 0 1 -1.033-.278c-.125-.044-.174-.113-.15-.247.11-.628.216-1.256.319-1.884.034-.208.149-.132.256-.082.764.359 1.564.562 2.41.588.454.014.902-.016 1.322-.208.724-.33.798-.994.166-1.469-.35-.262-.751-.431-1.141-.619a6.865 6.865 0 0 1 -1.197-.725c-1.426-1.086-1.193-2.666-.416-3.647.561-.71 1.326-1.098 2.178-1.339.337-.095.68-.151 1.026-.194.063-.008.14.02.184-.056h.05c.17.041.34.041.51 0h.103c.153.04.306.04.459 0zm-22.611.204c1.51 0 3.02-.013 4.53.002.67.007 1.03.319 1.164.954.297 1.4.585 2.803.876 4.205.008.04.004.084.006.126-.175-.004-.211-.154-.267-.27a7.639 7.639 0 0 0 -.958-1.522 8.28 8.28 0 0 0 -2.054-1.796 1.35 1.35 0 0 1 -.424-.388c-.9-.52-1.864-.869-2.873-1.107z"/><path d="m23.014 2.316a.588.588 0 0 1 -.51 0zm.557 0a.472.472 0 0 1 -.455 0zm-3.16 10.36a.47.47 0 0 1 .455 0zm-.561 0a.39.39 0 0 1 .404 0zm-15.961-8.846c1.606.884 2.844 2.117 3.613 3.797.027.061.06.12.09.18l.329 1.455c.089-.077.103-.18.137-.267a1964.61 1964.61 0 0 0 2.45-6.266c.061-.159.135-.223.311-.221.808.01 1.616.008 2.423 0 .193-.001.234.036.153.224-1.376 3.19-2.749 6.383-4.118 9.576-.059.139-.138.19-.287.188a145.77 145.77 0 0 0 -2.474.001c-.172.002-.235-.07-.277-.222-.781-2.815-1.566-5.63-2.35-8.445zm10.373 8.685c-.375 0-.75-.008-1.123.004-.193.006-.255-.045-.22-.247.294-1.69.58-3.383.868-5.075.25-1.466.507-2.931.747-4.398.036-.217.104-.298.335-.293.73.016 1.462.01 2.194.003.186-.002.251.032.215.242-.545 3.165-1.084 6.332-1.617 9.499-.035.206-.11.284-.328.271-.356-.02-.714-.006-1.071-.006zm20.252-1.424c-.464-2.091-.929-4.181-1.386-6.273-.147-.673-.293-1.346-.451-2.016-.083-.348-.135-.384-.485-.384-.638 0-1.276.008-1.913-.003-.69-.012-1.175.287-1.449.916-.454 1.044-.922 2.083-1.379 3.125-.618 1.408-1.244 2.813-1.862 4.221-.229.521-.483 1.032-.677 1.567-.09.25-.01.354.253.355.808.002 1.615-.004 2.423.004.192.002.297-.077.369-.245a13.2 13.2 0 0 0 .356-.928c.078-.228.215-.322.453-.321.876.005 1.752 0 2.627.003.308.002.36.05.427.356.063.29.126.581.197.87.045.185.137.268.337.265.697-.008 1.394-.003 2.091-.003.094 0 .19.009.257-.077v-.102c-.083-.44-.091-.89-.188-1.33zm-3.347-2.129c-.603-.01-1.206-.01-1.809 0-.192.003-.208-.056-.144-.217.313-.789.618-1.58.925-2.371.134-.345.265-.69.397-1.035l.069.01c.19.87.382 1.739.571 2.608.056.257.1.517.17.77.05.18.016.238-.179.235z"/></g></svg>