<svg viewBox="0 0 18 16" version="1.1" xmlns="http://www.w3.org/2000/svg" xmlns:xlink="http://www.w3.org/1999/xlink">
    <g stroke="none" stroke-width="1" fill="none" fill-rule="evenodd">
        <g fill="#000000">
            <g transform="translate(9.000000, 8.000000) scale(-1, 1) rotate(-180.000000) translate(-9.000000, -8.000000) translate(0.000000, -0.000000)">
                <path d="M0,8.03334877 C0,3.65354331 0.0293877551,0.0666975452 0.066122449,0.0666975452 C0.11755102,0.0666975452 6.68571429,15.814729 6.68571429,15.9481241 C6.68571429,15.9777675 5.17959184,16 3.34285714,16 L0,16 L0,8.03334877 Z"></path>
                <path d="M11.3142857,15.955535 C11.3142857,15.9333025 12.2106122,13.7619268 13.3053061,11.1236684 C14.4,8.48540991 15.3036735,6.2992126 15.3110204,6.25474757 C15.3257143,6.21769338 15.4138776,5.99536823 15.5093878,5.77304308 C15.6122449,5.55071792 16.1853061,4.17230199 16.7877551,2.71977767 C17.3902041,1.25984252 17.9118367,0.0666975452 17.9412245,0.0666975452 C17.9706122,0.0666975452 18,3.65354331 18,8.03334877 L18,16 L14.6571429,16 C12.8204082,16 11.3142857,15.9777675 11.3142857,15.955535 Z"></path>
                <path d="M8.50040816,9.01899027 C6.86938776,5.15794349 6.09795918,3.31264474 6.09795918,3.25335804 C6.09795918,3.20889301 6.73714286,3.17183881 7.64816327,3.16442798 L9.19836735,3.14219546 L9.80816327,1.58591941 L10.4106122,0.0296433534 L11.8212245,0.00741083835 C12.7616327,-0.00741083835 13.2244898,0.0148216767 13.2244898,0.0666975452 C13.2244898,0.163038444 9.11020408,10.0120426 9.03673469,10.0935618 C9.00734694,10.130616 8.76489796,9.64150069 8.50040816,9.01899027 Z"></path>
            </g>
        </g>
    </g>
</svg>