<svg viewBox="0 0 16 16" version="1.1" xmlns="http://www.w3.org/2000/svg" xmlns:xlink="http://www.w3.org/1999/xlink">
    <path d="M0.666658827,0.686709929 L15.3333681,0.686709929 L15.3333681,14.9534185 L0.666658827,14.9534185 L0.666658827,0.686709929 Z M0,15.6201042 L16.0000269,15.6201042 L16.0000269,0.0200511021 L0,0.0200511021 L0,15.6201042 Z M11.3200029,7.54007449 C11.6599846,7.54007449 11.7799956,7.54007449 11.8133245,7.52674292 C11.8133245,7.48008245 11.8266561,7.44672666 11.8266561,7.41339775 C11.8266561,7.05339177 11.6533189,6.38673294 10.9599969,6.38673294 C10.3199743,6.38673294 10.0466773,6.94671238 9.97999257,7.54007449 L11.3200029,7.54007449 Z M9.96668789,8.45339412 C9.98001945,9.35340907 10.4066833,9.96007586 11.4200165,9.96007586 C11.8133514,9.96007586 12.1533331,9.90677649 12.5067002,9.75343662 C12.5533607,9.73343928 12.5867165,9.74010506 12.5867165,9.8000971 L12.5867165,10.6334274 C12.5867165,10.7000852 12.5667191,10.733441 12.5200587,10.7667699 C12.1667185,10.9400802 11.7266962,11.0200965 11.1800483,11.0200965 C9.42006689,11.0200965 8.76004697,9.72010771 8.76004697,8.27344489 C8.76004697,6.70010533 9.57340676,5.41344815 11.006738,5.41344815 C12.4600666,5.41344815 12.9667467,6.63344751 12.9667467,7.62678341 C12.9667467,7.9467947 12.9467493,8.20678707 12.9134204,8.3334638 C12.9000889,8.38679006 12.8800915,8.40681428 12.8267384,8.42014585 C12.6933959,8.44014319 12.300061,8.46677944 11.7133915,8.46677944 L9.96668789,8.46677944 L9.96668789,8.45339412 Z M6.39337185,7.77340373 C6.20670308,7.03339443 5.75334927,5.42006017 5.58667784,4.64005618 L5.57334628,4.64005618 C5.43336486,5.42006017 5.06666622,6.74004626 4.79334228,7.77340373 L6.39337185,7.77340373 Z M4.51999147,8.85342167 L3.99334094,10.8467593 C3.98000937,10.9000586 3.96001203,10.9200829 3.89332733,10.9200829 L2.913323,10.9200829 C2.84666518,10.9200829 2.83330674,10.9000855 2.84666518,10.8200961 L4.73998915,4.20006081 C4.77331806,4.08007674 4.7933154,3.98672891 4.80664697,3.65341294 C4.80664697,3.60675246 4.82664431,3.58675512 4.85997322,3.58675512 L6.25997557,3.58675512 C6.30663605,3.58675512 6.32663339,3.60008668 6.33999184,3.65341294 L8.45997927,10.8334277 C8.47331083,10.8867271 8.45997927,10.9200829 8.40665301,10.9200829 L7.30666461,10.9200829 C7.25333835,10.9200829 7.21998256,10.9000855 7.206651,10.8534519 L6.65997625,8.85344855 L4.51999147,8.85344855 L4.51999147,8.85342167 Z"></path>
</svg>