<svg viewBox="0 0 17 16" version="1.1" xmlns="http://www.w3.org/2000/svg" xmlns:xlink="http://www.w3.org/1999/xlink">
    <path d="M16.4445528,10.3640236 C16.4445528,10.7647401 16.1844026,10.9514958 15.7187922,10.9514958 L14.8289612,10.9514958 L14.8289612,10.5507794 L15.7187922,10.5507794 C15.8009762,10.5507794 15.869463,10.5375157 15.8969569,10.5108917 C15.9242523,10.484074 15.951647,10.4439926 15.951647,10.3906477 C15.951647,10.3371091 15.9243516,10.2837642 15.8969569,10.2571401 C15.869463,10.2303224 15.8147728,10.2170588 15.7325888,10.2170588 C15.3082689,10.2036015 14.7741718,10.2303224 14.7741718,9.64275341 C14.7741718,9.37554458 14.952138,9.08171169 15.4313465,9.08171169 L16.3486714,9.08171169 L16.3486714,9.48242812 L15.499734,9.48242812 C15.4177484,9.48242812 15.3628598,9.48242812 15.3217678,9.50905218 C15.2806757,9.54913351 15.2533803,9.58921483 15.2533803,9.65601704 C15.2533803,9.72281925 15.2944723,9.76290057 15.3491625,9.78971827 C15.4040511,9.8029819 15.4588405,9.81634234 15.5273272,9.81634234 L15.7736808,9.81634234 C16.0338311,9.81634234 16.1981992,9.86968729 16.3077779,9.96330719 C16.3897635,10.0567335 16.4445528,10.1770743 16.4445528,10.3640236 Z M14.5139223,9.96330719 C14.4043436,9.86968729 14.2399755,9.81634234 13.9798252,9.81634234 L13.7334716,9.81634234 C13.6650841,9.81634234 13.6101955,9.80288508 13.5555054,9.78971827 C13.5006168,9.76290057 13.4597233,9.72281925 13.4597233,9.65601704 C13.4597233,9.58921483 13.4733213,9.54913351 13.5281107,9.50905218 C13.5692027,9.48242812 13.6238929,9.48242812 13.7060769,9.48242812 L14.5550144,9.48242812 L14.5550144,9.08171169 L13.6376895,9.08171169 C13.1446844,9.08171169 12.9803163,9.37554458 12.9803163,9.64275341 C12.9803163,10.2302256 13.5144134,10.2036015 13.9389317,10.2170588 C14.0209173,10.2170588 14.0758059,10.2303224 14.1031013,10.2571401 C14.1303968,10.2837642 14.15799,10.3371091 14.15799,10.3906477 C14.15799,10.4439926 14.130496,10.484074 14.1031013,10.5108917 C14.0620093,10.5375157 14.0073192,10.5507794 13.9251351,10.5507794 L13.0351056,10.5507794 L13.0351056,10.9514958 L13.9251351,10.9514958 C14.390547,10.9514958 14.6507965,10.7646432 14.6507965,10.3640236 C14.6507965,10.1770743 14.5961064,10.0567335 14.5139223,9.96330719 Z M12.7612581,10.5643334 L11.6797635,10.5643334 L11.6797635,10.1903379 L12.7339626,10.1903379 L12.7339626,9.81653597 L11.6797635,9.81653597 L11.6797635,9.46916449 L12.7612581,9.46916449 L12.7612581,9.08190532 L11.2278505,9.08190532 L11.2278505,10.9515926 L12.7612581,10.9515926 L12.7612581,10.5643334 Z M10.7348454,9.17542841 C10.5841747,9.09526576 10.4062085,9.0818085 10.1734529,9.0818085 L9.11925383,9.0818085 L9.11925383,10.9514958 L9.5846657,10.9514958 L9.5846657,10.2704037 L10.0776708,10.2704037 C10.2418404,10.2704037 10.337821,10.283861 10.4063077,10.3505664 C10.4884918,10.4439926 10.4884918,10.6043179 10.4884918,10.7245619 L10.4884918,10.9514958 L10.9402063,10.9514958 L10.9402063,10.5908607 C10.9402063,10.4172718 10.9266082,10.3371091 10.8718189,10.2436828 C10.8307268,10.1901443 10.7487413,10.1234389 10.6391625,10.0833575 C10.7622401,10.0434698 10.9677995,9.88314454 10.9677995,9.58921483 C10.9677003,9.3756414 10.8855162,9.25539742 10.7348454,9.17542841 Z M8.13334294,9.0818085 L6.66822359,9.0818085 L6.07943638,9.69619518 L5.51804386,9.0818085 L3.66959743,9.0818085 L3.66959743,10.9514958 L5.49074843,10.9514958 L6.07953564,10.3371091 L6.64092816,10.9514958 L7.53095765,10.9514958 L7.53095765,10.3239423 L8.10604752,10.3239423 C8.50307193,10.3239423 8.90029486,10.2170588 8.90029486,9.69619518 C8.9001956,9.18869203 8.48937459,9.0818085 8.13334294,9.0818085 Z M10.3651164,9.85652048 C10.296729,9.88314454 10.2282423,9.88314454 10.1460582,9.88314454 L9.5846657,9.8966018 L9.5846657,9.46906767 L10.1460582,9.46906767 C10.2282423,9.46906767 10.3104263,9.46906767 10.3651164,9.509149 C10.4200051,9.5359667 10.4608986,9.58931165 10.4608986,9.6694743 C10.4608986,9.74963694 10.4200051,9.81643915 10.3651164,9.85652048 Z M8.13334294,9.94994675 L7.53085839,9.94994675 L7.53085839,9.46906767 L8.13334294,9.46906767 C8.29771105,9.46906767 8.40719054,9.5359667 8.40719054,9.69619518 C8.40719054,9.85652048 8.2976118,9.94994675 8.13334294,9.94994675 Z M6.36698131,10.0166521 L7.07894535,9.28221512 L7.07894535,10.7913641 L6.36698131,10.0166521 Z M5.25789361,10.5643334 L4.12141121,10.5643334 L4.12141121,10.1903379 L5.13461752,10.1903379 L5.13461752,9.81653597 L4.12141121,9.81653597 L4.12141121,9.46916449 L5.27159095,9.46916449 L5.7781941,10.016749 L5.25789361,10.5643334 Z M15.171097,7.73288799 L14.5139223,7.73288799 L13.6512875,6.3305257 L13.6512875,7.73288799 L12.7203645,7.73288799 L12.5421998,7.31881111 L11.5837829,7.31881111 L11.4058167,7.73288799 L10.8717196,7.73288799 C10.6526614,7.73288799 10.3651164,7.67944622 10.2009468,7.51912092 C10.0502761,7.35889244 9.96809203,7.14522219 9.96809203,6.81130797 C9.96809203,6.53083551 10.0091841,6.27708394 10.2144457,6.07677413 C10.3513198,5.92980927 10.597872,5.86310388 10.9127124,5.86310388 L11.3508288,5.86310388 L11.3508288,6.26382031 L10.9127124,6.26382031 C10.7485428,6.26382031 10.6525621,6.29054119 10.55678,6.37070384 C10.4745959,6.45086649 10.4335039,6.59773453 10.4335039,6.79804434 C10.4335039,6.99835415 10.4745959,7.145319 10.55678,7.2388421 C10.6251674,7.30554749 10.7485428,7.33226837 10.8716203,7.33226837 L11.0770805,7.33226837 L11.7342551,5.8632007 L12.4189238,5.8632007 L13.1856772,7.62610127 L13.1856772,5.86310388 L13.8977404,5.86310388 L14.7055859,7.15858263 L14.7055859,5.86310388 L15.1709978,5.86310388 L15.1709978,7.73288799 L15.171097,7.73288799 Z M9.73533647,5.86310388 L9.26992459,5.86310388 L9.26992459,7.73288799 L9.73533647,7.73288799 L9.73533647,5.86310388 Z M8.76312292,5.94326653 C8.61245216,5.86310388 8.44828256,5.86310388 8.215527,5.86310388 L7.1611294,5.86310388 L7.1611294,7.73288799 L7.61294319,7.73288799 L7.61294319,7.0516991 L8.105849,7.0516991 C8.27021711,7.0516991 8.37979585,7.06505954 8.44818331,7.13186175 C8.53036736,7.22538484 8.51657076,7.38571014 8.51657076,7.49249685 L8.51657076,7.73288799 L8.98198263,7.73288799 L8.98198263,7.35889244 C8.98198263,7.19866396 8.96838455,7.11850131 8.89999709,7.02497822 C8.85890507,6.97153645 8.77672101,6.90473424 8.68093887,6.86474973 C8.80401644,6.81130797 9.00957583,6.66443993 9.00957583,6.37060703 C9.00967509,6.15693678 8.91369443,6.03669281 8.76312292,5.94326653 Z M6.83249244,7.34562881 L5.76449676,7.34562881 L5.76449676,6.97163327 L6.8187951,6.97163327 L6.8187951,6.58437409 L5.76449676,6.58437409 L5.76449676,6.25045987 L6.83249244,6.25045987 L6.83249244,5.8632007 L5.29898563,5.8632007 L5.29898563,7.7329848 L6.83249244,7.7329848 L6.83249244,7.34562881 Z M4.95665133,5.86310388 L4.20359527,5.86310388 L3.64220274,7.13186175 L3.03971819,5.86310388 L2.30035947,5.86310388 L2.30035947,7.62600445 L1.51990872,5.86310388 L0.835339373,5.86310388 L0.0137965985,7.73288799 L0.506702412,7.73288799 L0.684668607,7.31881111 L1.64308555,7.31881111 L1.82105174,7.73288799 L2.75217326,7.73288799 L2.75217326,6.26382031 L3.42304526,7.73288799 L3.82006968,7.73288799 L4.49104095,6.26382031 L4.49104095,7.73288799 L4.95655207,7.73288799 L4.95655207,5.86310388 L4.95665133,5.86310388 Z M12.3780302,6.9181915 L12.0629914,6.18365766 L11.748151,6.9181915 L12.3780302,6.9181915 Z M8.40719054,6.62445542 C8.33880308,6.66453674 8.27031637,6.66453674 8.17443497,6.66453674 L7.61294319,6.66453674 L7.61294319,6.25055669 L8.17433571,6.25055669 C8.25651977,6.25055669 8.35220265,6.25055669 8.40709128,6.27727757 C8.46178139,6.31735889 8.48927533,6.37080066 8.48927533,6.45086649 C8.48927533,6.53093233 8.46188065,6.59763772 8.40719054,6.62445542 Z M0.848937459,6.9181915 L1.16387708,6.18365766 L1.4788167,6.9181915 L0.848937459,6.9181915 Z M16.3350733,0 L0,0 L0,6.73124213 L0.561392525,5.48920515 L1.75256503,5.48920515 L1.91693314,5.79639849 L1.91693314,5.48920515 L3.31356578,5.48920515 L3.6285054,6.15693678 L3.92974768,5.48920515 L8.37979585,5.48920515 C8.58505747,5.48920515 8.76302367,5.52928647 8.90009635,5.63607319 L8.90009635,5.48920515 L10.1186635,5.48920515 L10.1186635,5.63607319 C10.3239252,5.52918966 10.5840754,5.48920515 10.8854169,5.48920515 L12.6516793,5.48920515 L12.8160474,5.79639849 L12.8160474,5.48920515 L14.1167987,5.48920515 L14.3085615,5.79639849 L14.3085615,5.48920515 L15.5818188,5.48920515 L15.5818188,8.10688353 L14.2948641,8.10688353 L14.0485105,7.70626392 L14.0485105,8.10688353 L12.4464177,8.10688353 L12.2684515,7.67954303 L11.8712286,7.67954303 L11.6932624,8.10688353 L10.8581215,8.10688353 C10.5294846,8.10688353 10.2829324,8.02672088 10.1187628,7.94665505 L10.1187628,8.10688353 L8.13334294,8.10688353 L8.13334294,7.50585729 C8.13334294,7.42569465 8.1196456,7.4123342 8.06485623,7.4123342 L7.99646878,7.4123342 L7.99646878,8.10678672 L4.16250324,8.10678672 L4.16250324,7.77287249 L4.02562907,8.10678672 L3.21778364,8.10678672 L3.08090947,7.78623294 L3.08090947,8.10678672 L1.53360607,8.10678672 L1.36933721,7.67944622 L0.97221354,7.67944622 L0.794247346,8.10678672 L0,8.10678672 L0,16 L16.3350733,16 L16.3350733,11.2052474 C16.1571071,11.28541 15.910555,11.3254913 15.6641021,11.3254913 L14.4728303,11.3254913 L14.4728303,11.165166 C14.3359561,11.2721464 14.089404,11.3254913 13.8567477,11.3254913 L10.1049662,11.3254913 L10.1049662,10.7245619 C10.1049662,10.6443993 10.0913681,10.6443993 10.0227821,10.6443993 L9.95439469,10.6443993 L9.95439469,11.3254913 L8.7220309,11.3254913 L8.7220309,10.6176784 C8.51676927,10.7111047 8.28391445,10.7111047 8.07855357,10.7111047 L7.94158015,10.7111047 L7.94158015,11.3254913 L6.43546803,11.3254913 L6.07953564,10.9247749 L5.68251122,11.3254913 L3.25877641,11.3254913 L3.25877641,8.70790977 L5.72340473,8.70790977 L6.07943638,9.10843257 L6.46286271,8.70790977 L8.1196456,8.70790977 C8.31120988,8.70790977 8.62624876,8.73453384 8.76312292,8.86804144 L8.76312292,8.70790977 L10.2418404,8.70790977 C10.3925111,8.70790977 10.6801553,8.73453384 10.8717196,8.86804144 L10.8717196,8.70790977 L13.1035924,8.70790977 L13.1035924,8.86813825 C13.2268684,8.76125472 13.4597233,8.70800658 13.6649849,8.70800658 L14.9109468,8.70800658 L14.9109468,8.86813825 C15.0480194,8.77471198 15.2395837,8.70800658 15.4861359,8.70800658 L16.3350733,8.70800658 L16.3350733,0 Z" fill="#000000" fill-rule="nonzero"></path>
</svg>