<svg viewBox="0 0 21 16" version="1.1" xmlns="http://www.w3.org/2000/svg" xmlns:xlink="http://www.w3.org/1999/xlink">
    <path d="M5.92110442,9.9118446 L4.06402218,10.6887792 L5.78389732,11.4051128 L7.77818666,10.6887792 L5.92110442,9.9118446 Z M3.12909934,10.8830128 L3.06687751,14.3792183 L5.78389732,15.5446202 L5.78389732,11.9147819 L3.12909934,10.8830128 Z M8.71310951,10.8830128 L6.25774046,11.7935801 L6.25774046,15.2167538 L8.71310951,14.2455856 L8.71310951,10.8830128 Z M11.6423217,0.00592894302 L9.77247601,0.782863504 L11.5051146,1.49919717 L13.4994039,0.782863504 L11.6423217,0.00592894302 Z M9.04974555,1.03808651 L9.04974555,4.53429203 L11.3679075,5.1900248 L11.4428928,2.00925471 L9.04974555,1.03808651 Z M14.2348979,1.23232015 L12.0411796,2.14288745 L12.0411796,5.57849208 L14.2348979,4.60732388 L14.2348979,1.23232015 Z M2.86106685,4.92664399 L1.00398461,5.70357855 L2.72385974,6.41991221 L4.71814909,5.70357855 L2.86106685,4.92664399 Z M0.0690617615,5.89781219 L0.00683993383,9.39401771 L2.72385974,10.5594196 L2.72385974,6.92958128 L0.0690617615,5.89781219 Z M5.65307193,5.89781219 L3.19770289,6.80837949 L3.19770289,10.2315532 L5.65307193,9.26038497 L5.65307193,5.89781219 Z M8.84393489,4.79767285 L6.98685265,5.57460741 L8.70672778,6.29094107 L10.7010171,5.57460741 L8.84393489,4.79767285 Z M6.0519298,5.76884105 L5.98970798,9.26504657 L8.70672778,10.4304484 L8.70672778,6.80099861 L6.0519298,5.76884105 Z M11.63594,5.76884105 L9.18057093,6.67940835 L9.18057093,10.102582 L11.63594,9.13141383 L11.63594,5.76884105 Z M17.4859883,0.00592894302 L15.6289061,0.782863504 L17.3487812,1.49919717 L19.3430706,0.782863504 L17.4859883,0.00592894302 Z M14.6939833,0.977097144 L14.6317614,4.47330267 L17.3487812,5.63870451 L17.3487812,2.00925471 L14.6939833,0.977097144 Z M20.2779934,0.977097144 L17.8226244,1.88766445 L17.8226244,5.31083813 L20.2779934,4.33966992 L20.2779934,0.977097144 Z" fill-rule="nonzero"></path>
</svg>