
<svg viewBox="0 0 41 16" version="1.1" xmlns="http://www.w3.org/2000/svg" xmlns:xlink="http://www.w3.org/1999/xlink">
    <g stroke="none" stroke-width="1" fill="none" fill-rule="evenodd">
            <g fill-rule="nonzero">
                <path d="M14.1222417,5.86680127 C13.2670655,5.86680127 12.3124241,6.18765097 12.112372,7.24379638 C12.091058,7.35596631 12.1673396,7.40950196 12.2410037,7.42589042 L13.1174938,7.52822727 C13.1986365,7.5242212 13.2536041,7.43827282 13.2693091,7.35742306 C13.344095,6.99396336 13.6510909,6.82243078 13.993984,6.82243078 C14.179079,6.82243078 14.3869836,6.88434275 14.4965449,7.05004833 C14.6221851,7.23469168 14.6132108,7.48561727 14.6132108,7.69866729 L14.6132108,7.82394799 C14.0923274,7.88221808 13.4065411,7.91754432 12.9189374,8.13132272 C12.3561739,8.37496455 11.9609306,8.87062452 11.9609306,9.59936486 C11.9609306,10.5331431 12.5483735,10.9993038 13.3048324,10.9993038 C13.9435035,10.9993038 14.2964928,10.8532644 14.7889576,10.3506849 C14.9523647,10.5874071 15.0047148,10.6948426 15.3031103,10.9424905 C15.3707871,10.9800895 15.4556246,10.9709741 15.5132585,10.9199108 L15.5132585,10.9312006 C15.6927446,10.7716863 16.0191848,10.4817926 16.2027841,10.3281052 C16.2760742,10.2683784 16.2599953,10.1700476 16.2027841,10.0891978 C16.0386291,9.86267283 15.8640042,9.67985042 15.8640042,9.25848482 L15.8640042,7.85854586 C15.8640042,7.26564767 15.9156064,6.71900137 15.4784831,6.31074653 C15.1333464,5.98042795 14.5589911,5.86680127 14.1222417,5.86680127 Z M25.9010132,5.86680127 C25.0454631,5.86680127 24.0915695,6.18765097 23.8911435,7.24379638 C23.8698295,7.35596631 23.9457371,7.40950196 24.0197751,7.42589042 L24.8962653,7.52822727 C24.9774079,7.5242212 25.0327495,7.43827282 25.0480806,7.35742306 C25.1232403,6.99396336 25.4298623,6.82243078 25.7727555,6.82243078 C25.9582244,6.82243078 26.1657551,6.88434275 26.2753164,7.05004833 C26.4005827,7.23469168 26.3803905,7.48561727 26.3803905,7.69866729 L26.3803905,7.82394799 C25.859507,7.88221808 25.1856865,7.91754432 24.6977089,8.13132272 C24.1345714,8.37496455 23.7397021,8.87062452 23.7397021,9.59936486 C23.7397021,10.5331431 24.3275189,10.9993038 25.0836038,10.9993038 C25.7215271,10.9993038 26.0745164,10.8532644 26.567729,10.3506849 C26.7307622,10.5874071 26.7834862,10.6948426 27.0818818,10.9424905 C27.149189,10.9774525 27.2325753,10.9738107 27.29203,10.9199108 L27.29203,10.9312006 C27.471516,10.7716863 27.7979563,10.4817926 27.9815555,10.3281052 C28.0544718,10.2683784 28.0376449,10.1700476 27.9815555,10.0891978 C27.8174006,9.86267283 27.6427756,9.67985042 27.6427756,9.25848482 L27.6427756,7.85854586 C27.6427756,7.26564767 27.6820382,6.71900137 27.2456628,6.31074653 C26.9001521,5.98042795 26.3377626,5.86680127 25.9010132,5.86680127 Z M19.2753608,5.91232478 C18.7226933,5.91232478 18.3128669,6.18400908 18.09524,6.76598163 L18.0836482,6.76598163 L18.0836482,6.16288618 C18.0775224,6.07738192 18.0076585,6.00933808 17.9198672,6.0033718 L17.0785264,6.0033718 C16.9822589,6.00474077 16.9045592,6.08041635 16.9031536,6.17417601 L16.9031536,10.7833403 C16.911378,10.867898 16.9801152,10.9348445 17.0669346,10.9428547 L17.9666084,10.9428547 C18.0630418,10.9418691 18.1409692,10.8659717 18.1419812,10.7720505 L18.1419812,8.32507078 C18.1419812,7.79153525 18.1154322,7.06170235 18.761208,7.06170235 C19.3987574,7.06170235 19.3105101,7.81156559 19.3105101,8.32507078 L19.3105101,10.7720505 C19.3105101,10.8590914 19.3834263,10.9370277 19.4742911,10.9428547 L20.3739649,10.9428547 C20.4703984,10.9418691 20.5483257,10.8659717 20.5493377,10.7720505 L20.5493377,8.32507078 C20.5493377,8.06321955 20.5384938,7.68191464 20.6312282,7.44883427 C20.7235888,7.2157539 20.9505638,7.06206653 21.1689385,7.06206653 C21.4291933,7.06206653 21.6277497,7.15056424 21.694683,7.46048829 C21.7365631,7.64476745 21.7178666,8.13168691 21.7178666,8.32543497 L21.7178666,10.7724146 C21.7178666,10.8594556 21.7907828,10.9373918 21.8816476,10.9432189 L22.7813214,10.9432189 C22.8777549,10.9422332 22.9556823,10.8663359 22.9566943,10.7724146 L22.9566943,7.85891004 C22.9566943,7.36397845 23.0079226,6.80203625 22.7229885,6.41344757 C22.4713341,6.0645554 22.0600119,5.91268897 21.6830912,5.91268897 C21.1543553,5.91268897 20.6626383,6.18437327 20.4446375,6.76634582 C20.1926092,6.18437327 19.8373764,5.91232478 19.2753608,5.91232478 Z M34.5716847,5.91232478 C33.2715327,5.91232478 32.5502232,7.02564773 32.5502232,8.46164131 C32.5502232,9.88780181 33.2636802,11.0335375 34.5716847,11.0335375 C35.8299566,11.0335375 36.6282956,9.91402335 36.6282956,8.50680063 C36.6282956,7.05259764 35.9051164,5.91232478 34.5716847,5.91232478 Z M39.7012462,5.91232478 C39.0801497,5.91232478 38.7252908,6.21496507 38.4743843,6.84537463 L38.4627925,6.84537463 L38.4627925,6.13957814 C38.4467135,6.06819728 38.3775366,6.0186677 38.2990115,6.01429744 L37.4692625,6.01429744 C37.3804716,6.01235171 37.3046324,6.0762932 37.2938897,6.1621578 L37.2938897,10.7713221 C37.2956416,10.8606561 37.3662808,10.9343244 37.4576707,10.9421263 L38.3457526,10.9421263 C38.4420202,10.9407573 38.5197199,10.8650817 38.5211255,10.7713221 L38.5211255,8.29047291 C38.5211255,7.9794563 38.5480484,7.69575379 38.6729407,7.4142364 C38.7739016,7.19098911 38.9687188,7.05004833 39.1870935,7.05004833 C39.8070682,7.05004833 39.7479873,7.78607243 39.7479873,8.29047291 L39.7479873,10.7942659 C39.7598271,10.8750646 39.8281502,10.9367462 39.9117684,10.9421263 L40.8114421,10.9421263 C40.8996894,10.9421263 40.9763449,10.8765724 40.986815,10.7942659 L40.986815,7.89205116 C40.986815,7.44592077 40.9879367,6.82607266 40.7531092,6.45787852 C40.5014548,6.06054933 40.1032201,5.91232478 39.7012462,5.91232478 Z M28.904039,5.99208197 C28.8128003,5.99208197 28.7406319,6.06273446 28.740258,6.16288618 L28.740258,6.82279497 C28.7406319,6.92148994 28.8105567,6.9928708 28.904039,6.99359918 L30.4464972,6.99359918 L28.681925,9.53162587 C28.5742334,9.69514632 28.5652591,9.88051805 28.5652591,9.98686097 L28.5652591,10.6584238 C28.5652591,10.7552978 28.6733247,10.8605482 28.7754074,10.8062841 C29.7809031,10.271656 30.9860771,10.3190005 31.895473,10.7949943 C32.0057822,10.8536286 32.117587,10.7436438 32.117587,10.6471339 L32.117587,9.94133746 C32.1123855,9.83546777 32.0500928,9.74016889 31.953806,9.69077606 C31.4377836,9.40161073 30.838749,9.31311303 30.2711244,9.32658799 L31.8019907,7.14145953 C31.9437099,6.94516216 32.0229829,6.82680104 32.0241047,6.73174795 L32.0241047,6.16288618 C32.0241047,6.06491958 31.9553017,5.99208197 31.8603237,5.99208197 L28.904039,5.99208197 Z M34.5716847,6.85702865 C34.8566188,6.85702865 35.066767,6.98085259 35.1677279,7.30097391 C35.2843939,7.66989643 35.2963596,8.13059435 35.2963596,8.51881884 C35.2963596,9.11026027 35.267941,10.0891978 34.5716847,10.0891978 C33.8675759,10.0891978 33.8705673,8.8771799 33.8705673,8.31378095 C33.8705673,7.75183875 33.9090821,6.85702865 34.5716847,6.85702865 Z M14.6012451,8.5413985 L14.6012451,8.73478236 C14.6012451,9.08476711 14.6143326,9.37939526 14.4374641,9.69077606 C14.2946231,9.94388678 14.0702656,10.1004876 13.8182372,10.1004876 C13.4742223,10.1004876 13.2689352,9.82880334 13.2689352,9.44057886 C13.2693091,8.67505552 13.9521039,8.5413985 14.6012451,8.5413985 Z M26.3800166,8.5413985 L26.3800166,8.73478236 C26.3800166,9.08476711 26.3931041,9.37939526 26.2162355,9.69077606 C26.0733946,9.94388678 25.8501588,10.1004876 25.5970087,10.1004876 C25.2526199,10.1004876 25.0477066,9.82880334 25.0477066,9.44057886 C25.0480806,8.67505552 25.7301275,8.5413985 26.3800166,8.5413985 Z"></path>
                <path d="M32.2110693,11.090715 L32.2110693,11.7506238 L32.6668891,11.7506238 L32.6668891,11.090715 L32.2110693,11.090715 Z M18.9949138,11.2043417 L18.9949138,15.904553 L19.4155842,15.904553 L19.4155842,15.4835516 C19.5053272,15.6503497 19.6074099,15.7752662 19.7311805,15.8590295 C19.8545772,15.9427928 19.9962964,15.9843102 20.1518509,15.9843102 C20.4607165,15.9843102 20.727328,15.8306228 20.9580424,15.5177853 C21.1887567,15.2049477 21.308788,14.7515336 21.308788,14.1746596 C21.308788,13.7969966 21.2590554,13.4841591 21.1569728,13.2186659 C21.0548901,12.9539012 20.9184059,12.7568755 20.7478942,12.6268603 C20.5773824,12.4968452 20.3836871,12.4221866 20.1754085,12.4221866 C20.0306305,12.4206963 19.8885212,12.4601689 19.7663299,12.5358133 C19.6448029,12.6115644 19.5464595,12.7350242 19.4507336,12.8887116 L19.4507336,11.2043417 L18.9949138,11.2043417 Z M23.3186578,12.3085599 C23.0015658,12.3085599 22.7499114,12.3999712 22.5707993,12.581701 C22.3916871,12.7630667 22.3019441,12.9972396 22.3019441,13.2874975 C22.3019441,13.4561166 22.3408328,13.5985141 22.4070182,13.7314428 C22.4732037,13.8643714 22.5685557,13.9710785 22.6874652,14.0501073 C22.8071225,14.1291361 23.0456894,14.2329297 23.4001743,14.345828 C23.6454719,14.4226717 23.7920522,14.4882256 23.8559941,14.5392119 C23.9487286,14.6138705 23.9962176,14.7118371 23.9962176,14.8465866 C23.9962176,15.0024591 23.940876,15.1324743 23.8324366,15.2333544 C23.724371,15.3349629 23.5740514,15.3812147 23.3766168,15.3812147 C23.1791822,15.3812147 23.0165229,15.3273149 22.8976134,15.2104105 C22.7787039,15.0935062 22.7143881,14.9157824 22.6874652,14.6754183 L22.2316454,14.7664653 C22.334476,15.4966624 22.7084052,15.8593937 23.3534332,15.8590295 C23.6974481,15.8590295 23.9606943,15.7639764 24.1596247,15.5633088 C24.358555,15.3626412 24.4632552,15.0916852 24.4632552,14.7664653 C24.4632552,14.5909266 24.4314712,14.438696 24.3697729,14.3112302 C24.3080746,14.1837643 24.2231926,14.0894396 24.1125096,14.0155095 C24.0014526,13.9419435 23.7539114,13.8436127 23.3762429,13.7197887 C23.1017788,13.6261924 22.9409892,13.557725 22.8856477,13.515115 C22.7925393,13.4430058 22.7454242,13.344675 22.7454242,13.2193943 C22.7454242,13.0912001 22.7888,12.9826721 22.8856477,12.9007298 C22.9824954,12.8187874 23.1316931,12.7754491 23.3298756,12.7754491 C23.6783777,12.7754491 23.8731948,12.9619134 23.9139531,13.333021 L24.3581811,13.2645536 C24.3275189,13.0296523 24.2747949,12.8442806 24.1944001,12.7182715 C24.1140053,12.5922625 23.9950958,12.4859195 23.8436544,12.4108968 C23.692587,12.3362382 23.5187099,12.3085599 23.3186578,12.3085599 Z M26.1115354,12.3085599 C25.7462065,12.3085599 25.4380888,12.4549636 25.1998958,12.763795 C24.9617029,13.0726265 24.8491502,13.5198495 24.8491502,14.1069207 C24.8491502,14.6725047 24.9639465,15.1157216 25.1998958,15.4158126 C25.4358452,15.7155394 25.7417193,15.8597579 26.1231272,15.8597579 C26.4263838,15.8597579 26.6776642,15.7712602 26.8825775,15.5866168 C27.0878646,15.4019735 27.2366885,15.1302892 27.3148397,14.7671936 L26.8474281,14.6874365 C26.7131875,15.1525046 26.4656464,15.3808506 26.1227532,15.3815789 C25.9043785,15.3815789 25.7260143,15.2912603 25.5734512,15.097148 C25.420888,14.9026716 25.3345104,14.6142347 25.3161878,14.2322014 L27.3260576,14.2322014 L27.3260576,14.072687 C27.3260576,13.4983624 27.2086438,13.0671637 26.9753119,12.763795 C26.7427279,12.4604264 26.4596635,12.3085599 26.1115354,12.3085599 Z M28.8808554,12.3085599 C28.7716681,12.3085599 28.6763161,12.3446146 28.5888167,12.4221866 C28.5013172,12.4997587 28.401852,12.6607298 28.2967779,12.9000014 L28.2967779,12.3762989 L27.8876993,12.3762989 L27.8876993,15.7792723 L28.3435191,15.7792723 L28.3435191,14.0042196 C28.3435191,13.7565717 28.3674505,13.5183927 28.4254096,13.2984231 C28.4583153,13.1724141 28.5203876,13.0729907 28.6007824,13.0027024 C28.6811772,12.9324141 28.7727898,12.9003656 28.8696375,12.9003656 C28.9769552,12.9003656 29.0835251,12.9422472 29.1968256,13.0256463 L29.3486409,12.490654 C29.189347,12.36683 29.0334185,12.3085599 28.8808554,12.3085599 Z M34.4662366,12.3085599 C34.1053949,12.3085599 33.8081212,12.4564203 33.5781547,12.7525052 C33.348936,13.0482259 33.227409,13.4925354 33.227409,14.0839768 C33.227409,14.6706838 33.3500578,15.1153574 33.5781547,15.4154484 C33.8058776,15.7151752 34.0908117,15.8593937 34.4426791,15.8593937 C34.7332221,15.8593937 34.9830069,15.7541433 35.1905376,15.5407291 C35.3980683,15.3273149 35.5244564,15.0133848 35.5760587,14.6076793 L35.1318307,14.5392119 C35.0989249,14.8294698 35.0211477,15.0381496 34.8981249,15.176541 C34.7751022,15.3142041 34.6270262,15.3812147 34.453897,15.3812147 C34.2332787,15.3812147 34.0455662,15.281063 33.9045949,15.07384 C33.7636236,14.866617 33.6944467,14.5352058 33.6944467,14.0723228 C33.6944467,13.6236431 33.7688586,13.2998799 33.9165606,13.0933853 C34.0642627,12.8868906 34.2523491,12.7747207 34.4774545,12.7747207 C34.6277741,12.7747207 34.7560318,12.831534 34.8629756,12.9455249 C34.9706672,13.0591516 35.0420877,13.2397889 35.0850896,13.4692273 L35.5293175,13.3781803 C35.4758456,13.0198193 35.357684,12.7492275 35.1669801,12.570047 C34.9762761,12.3905023 34.7448139,12.3085599 34.4662366,12.3085599 Z M37.0721496,12.3085599 C36.7068207,12.3085599 36.398703,12.4549636 36.1605101,12.763795 C35.9223172,13.0726265 35.8097645,13.5198495 35.8097645,14.1069207 C35.8097645,14.6725047 35.9245607,15.1157216 36.1605101,15.4158126 C36.3968334,15.7155394 36.7023336,15.8597579 37.0837414,15.8597579 C37.3862502,15.8597579 37.6379046,15.7712602 37.8431917,15.5866168 C38.048105,15.4019735 38.1969288,15.1302892 38.2754539,14.7671936 L37.8080424,14.6874365 C37.6738018,15.1525046 37.4371046,15.3808506 37.0953332,15.3815789 C36.8769585,15.3815789 36.6870025,15.2912603 36.5344393,15.097148 C36.3818762,14.9026716 36.2958725,14.6142347 36.277176,14.2322014 L38.2870458,14.2322014 L38.2870458,14.072687 C38.2870458,13.4983624 38.169632,13.0671637 37.9363001,12.763795 C37.704464,12.4604264 37.4206517,12.3085599 37.0721496,12.3085599 Z M39.7715449,12.3085599 C39.453705,12.3085599 39.2027985,12.3999712 39.0236864,12.581701 C38.8442003,12.7630667 38.7548312,12.9972396 38.7548312,13.2874975 C38.7548312,13.4561166 38.7821281,13.5985141 38.8483136,13.7314428 C38.9141251,13.8640072 39.0091031,13.9710785 39.1287605,14.0501073 C39.24767,14.1291361 39.4873587,14.2329297 39.8414697,14.345828 C40.0860194,14.4226717 40.2449393,14.4882256 40.3088812,14.5392119 C40.4016157,14.6138705 40.4491047,14.7118371 40.4491047,14.8465866 C40.4491047,15.0024591 40.3937632,15.1324743 40.2853237,15.2333544 C40.1776321,15.3349629 40.0269386,15.3812147 39.8295039,15.3812147 C39.6316953,15.3812147 39.46941,15.3273149 39.3505005,15.2104105 C39.231591,15.0935062 39.1549355,14.9157824 39.1283866,14.6754183 L38.6725668,14.7664653 C38.7753974,15.4966624 39.1485787,15.8593937 39.7943546,15.8590295 C40.1387434,15.8590295 40.4132075,15.7639764 40.6125118,15.5633088 C40.8118161,15.3626412 40.9161423,15.0916852 40.9161423,14.7664653 C40.9161423,14.5909266 40.8843583,14.438696 40.82266,14.3112302 C40.7609617,14.1837643 40.6648619,14.0894396 40.5538049,14.0155095 C40.4431218,13.9419435 40.2067985,13.8436127 39.82913,13.7197887 C39.5546659,13.6261924 39.3822845,13.557725 39.3265691,13.515115 C39.2334607,13.4430058 39.1863456,13.344675 39.1863456,13.2193943 C39.1863456,13.0912001 39.2413132,12.9826721 39.3381609,12.9007298 C39.4350086,12.8187874 39.5849542,12.7754491 39.7823888,12.7754491 C40.1308909,12.7754491 40.325708,12.9619134 40.3664663,13.333021 L40.8106943,13.2645536 C40.7796581,13.0296523 40.727682,12.8442806 40.6469133,12.7182715 C40.561132,12.5864413 40.4397976,12.4801103 40.2961676,12.4108968 C40.146222,12.3362382 39.9712231,12.3085599 39.7715449,12.3085599 Z M29.348267,12.3766631 L30.3649806,15.7796365 L30.7972428,15.7796365 L31.8139565,12.3766631 L31.3465449,12.3766631 L30.7505017,14.4594547 C30.6783333,14.7111087 30.6147653,14.928529 30.5751288,15.1080737 C30.5253963,14.8819129 30.4779072,14.6444623 30.4113478,14.4139312 L29.8272703,12.3766631 L29.348267,12.3766631 Z M32.2110693,12.3766631 L32.2110693,15.7796365 L32.6668891,15.7796365 L32.6668891,12.3766631 L32.2110693,12.3766631 Z M17.2307156,12.4221866 C16.869126,12.4221866 16.5782091,12.5802443 16.3426336,12.8887116 C16.1066843,13.197543 15.9802962,13.644766 15.9802962,14.2318372 C15.9802962,14.7974213 16.0969621,15.2293483 16.3310418,15.5290751 C16.5651215,15.8288019 16.8766046,15.9843102 17.2542731,15.9843102 C17.5541644,15.9843102 17.7990881,15.8845227 18.0021317,15.6998793 C18.2048013,15.515236 18.3450248,15.2435516 18.4228021,14.8804561 L17.9669823,14.8119888 C17.8342374,15.277057 17.593053,15.5054029 17.2542731,15.5061313 C17.0377681,15.5061313 16.8560385,15.4158126 16.7049711,15.2217004 C16.5539037,15.0272239 16.4660303,14.738787 16.4477077,14.3567537 L18.4340199,14.3567537 L18.4456117,14.1972393 C18.4456117,13.6229147 18.3259544,13.1804262 18.0948661,12.8770575 C17.8637778,12.5736889 17.5751044,12.4221866 17.2307156,12.4221866 Z M12.1007802,12.5019438 L12.9189374,15.9049172 L13.3979408,15.9049172 L13.935651,13.2871333 L14.0291333,13.8676491 L14.4613956,15.9049172 L14.9288071,15.9049172 L15.7585561,12.5019438 L15.3262939,12.5019438 L14.8704742,14.4707446 L14.7186589,15.1306533 L14.5784354,14.4707446 L14.1813225,12.5019438 L13.713911,12.5019438 L13.2932406,14.4936884 L13.1530171,15.1994849 L12.9892361,14.4711087 L12.5685657,12.502308 L12.1007802,12.502308 L12.1007802,12.5019438 Z M26.0995696,12.7750849 C26.3265447,12.7750849 26.5135093,12.8821562 26.6604635,13.0937494 C26.7614244,13.2386963 26.826862,13.4593943 26.8474281,13.7536582 L25.3401193,13.7536582 C25.3543286,13.455024 25.4410802,13.224493 25.5854169,13.0478617 C25.7297536,12.8712305 25.8957782,12.7750849 26.0995696,12.7750849 Z M37.0605578,12.7750849 C37.286785,12.7750849 37.4744975,12.8821562 37.6214517,13.0937494 C37.7224126,13.2386963 37.7878502,13.4593943 37.8084163,13.7536582 L36.3011075,13.7536582 C36.3153168,13.455024 36.4020684,13.224493 36.5464051,13.0478617 C36.6903678,12.8719589 36.8563924,12.7750849 37.0605578,12.7750849 Z M17.2307156,12.9003656 C17.4550732,12.9003656 17.6353071,13.0074369 17.7800177,13.2190301 C17.8798568,13.363977 17.9464162,13.584675 17.9669823,13.8789389 L16.4828571,13.8789389 C16.4970664,13.5803047 16.572974,13.3384838 16.7165629,13.1618526 C16.8590299,12.9855856 17.0284199,12.9003656 17.2307156,12.9003656 Z M20.1286673,12.9003656 C20.331337,12.9003656 20.5037184,13.0099862 20.64282,13.2190301 C20.7819217,13.4284383 20.8413765,13.7511089 20.8413765,14.1979677 C20.8413765,14.6331724 20.7755649,14.957664 20.6312282,15.1769052 C20.4868915,15.3961465 20.3148841,15.5068596 20.1286673,15.5068596 C19.9918092,15.5068596 19.8672908,15.4620645 19.7547381,15.3702891 C19.6418114,15.2785137 19.5591731,15.1470418 19.4974747,14.9718673 C19.4357764,14.7966929 19.4039924,14.5271937 19.4039924,14.1750238 C19.4039924,13.7602136 19.4799001,13.4495612 19.6261064,13.23032 C19.7723127,13.0110787 19.9424505,12.9003656 20.1286673,12.9003656 Z"></path>
                <path d="M5.5510354,9.29235431 L3.8100208,10.0207305 L5.42240373,10.6922933 L7.29205,10.0207305 L5.5510354,9.29235431 Z M2.93353063,10.2028245 L2.87519766,13.4805172 L5.42240373,14.5730814 L5.42240373,11.170108 L2.93353063,10.2028245 Z M8.16854017,10.2028245 L5.86663169,11.0564813 L5.86663169,14.2657067 L8.16854017,13.3552365 L8.16854017,10.2028245 Z M10.9146766,0.00555838408 L9.16169626,0.733934535 L10.7860449,1.40549735 L12.6556912,0.733934535 L10.9146766,0.00555838408 Z M8.48413645,0.973206101 L8.48413645,4.25089878 L10.6574133,4.86564825 L10.727712,1.88367629 L8.48413645,0.973206101 Z M13.3452167,1.15530014 L11.2886058,2.00895699 L11.2886058,5.22983633 L13.3452167,4.31936614 L13.3452167,1.15530014 Z M2.68225017,4.61872874 L0.94123557,5.34710489 L2.55361851,6.0186677 L4.42326477,5.34710489 L2.68225017,4.61872874 Z M0.0647454014,5.52919892 L0.00641243797,8.8068916 L2.55361851,9.89945583 L2.55361851,6.49648245 L0.0647454014,5.52919892 Z M5.29975494,5.52919892 L2.99784646,6.38285577 L2.99784646,9.59208109 L5.29975494,8.68161091 L5.29975494,5.52919892 Z M8.29118896,4.49781829 L6.55017436,5.22619445 L8.1625573,5.89775726 L10.0322036,5.22619445 L8.29118896,4.49781829 Z M5.67368419,5.40828848 L5.61535123,8.68598116 L8.1625573,9.77854539 L8.1625573,6.3759362 L5.67368419,5.40828848 Z M10.9086937,5.40828848 L8.60678525,6.26194533 L8.60678525,9.47117065 L10.9086937,8.56070046 L10.9086937,5.40828848 Z M16.3931141,0.00555838408 L14.6520995,0.733934535 L16.2644824,1.40549735 L18.1341287,0.733934535 L16.3931141,0.00555838408 Z M13.7756093,0.916028573 L13.7172763,4.19372125 L16.2644824,5.28628548 L16.2644824,1.88367629 L13.7756093,0.916028573 Z M19.0106188,0.916028573 L16.7087104,1.76968542 L16.7087104,4.97891074 L19.0106188,4.06844055 L19.0106188,0.916028573 Z"></path>
            </g>
        </g>
    </g>
</svg>