<svg role="img" aria-label="Google Chrome" viewBox="0 0 16 16" version="1.1" xmlns="http://www.w3.org/2000/svg" xmlns:xlink="http://www.w3.org/1999/xlink">
    <path d="M5.01015082,8.00057705 C5.01015082,6.352 6.35137049,5.01078033 8,5.01078033 C9.64852459,5.01078033 10.9896393,6.352 10.9896393,8.00057705 C10.9896393,9.64910164 9.64852459,10.9902689 8,10.9902689 C6.35137049,10.9902689 5.01015082,9.6491541 5.01015082,8.00057705 Z M14.8843541,4.05408525 C14.8610623,4.0951082 14.8175213,4.12039344 14.7703607,4.12039344 L8.34984918,4.12039344 C8.34612459,4.12039344 8.34234754,4.12023607 8.33862295,4.11986885 C8.22415738,4.11011148 8.11026885,4.10507541 8,4.10507541 C6.22295082,4.10507541 4.67168525,5.3067541 4.22761967,7.02735738 C4.21429508,7.07892459 4.17112131,7.11732459 4.11834754,7.12451148 C4.11241967,7.12529836 4.10643934,7.12571803 4.10056393,7.12571803 C4.05419016,7.12571803 4.01064918,7.1010623 3.98704262,7.06014426 L1.73497705,3.1595541 C1.70796066,3.11281311 1.71236721,3.05432131 1.74609836,3.01214426 C3.27464918,1.09828197 5.55409836,0.000629508197 8,0.000629508197 C9.41329836,0.000629508197 10.8024656,0.374242623 12.0171541,1.08112787 C13.1956984,1.76692459 14.1867541,2.74937705 14.8831475,3.92225574 C14.9072262,3.96280656 14.9076459,4.01311475 14.8843541,4.05408525 Z M9.18216393,11.7999213 C9.21479344,11.8420459 9.21872787,11.8997508 9.19207869,11.9459148 L6.93943607,15.8477115 C6.91577705,15.8886295 6.87223607,15.9132852 6.82591475,15.9132852 C6.8194623,15.9132852 6.81295738,15.9128656 6.80645246,15.9118689 C4.93078033,15.6312131 3.20918033,14.6840656 1.9586623,13.2448525 C0.695606557,11.7911607 1.77635684e-15,9.9287082 1.77635684e-15,8.00057705 C1.77635684e-15,6.62615082 0.354990164,5.26982295 1.02651803,4.07821639 C1.0496,4.03719344 1.09298361,4.01175082 1.1400918,4.01148852 C1.14030164,4.01148852 1.14056393,4.01148852 1.14077377,4.01148852 C1.18761967,4.01148852 1.23095082,4.03640656 1.25434754,4.0770623 L4.4669377,9.64128525 C4.46877377,9.6445377 4.47050492,9.64779016 4.47207869,9.65114754 C5.11276066,11.0148721 6.49752131,11.8960787 8,11.8960787 C8.35362623,11.8960787 8.70462951,11.8482885 9.04335738,11.7539672 C9.09492459,11.7396984 9.14958689,11.7577967 9.18216393,11.7999213 Z M15.3272131,4.9954623 C15.381141,4.9954623 15.4295607,5.02845902 15.4492852,5.07871475 C15.8147148,6.00944262 16,6.99247213 16,8.00057705 C16,10.1214951 15.1783869,12.1197115 13.6865049,13.6271213 C12.1958295,15.1332721 10.2085246,15.9758164 8.0907541,15.999423 C8.09028197,15.999423 8.08975738,15.999423 8.08928525,15.999423 C8.0427541,15.999423 7.99963279,15.9747672 7.97607869,15.9345311 C7.95231475,15.893823 7.95215738,15.8435148 7.97571148,15.8027016 L11.1938623,10.2288262 C11.1956984,10.2256262 11.1976393,10.2225311 11.1997377,10.2194885 C11.6549246,9.56511475 11.8955016,8.79784918 11.8955016,8.00057705 C11.8955016,6.94740984 11.4799213,5.96002623 10.7252984,5.22024918 C10.6872656,5.18300328 10.6755672,5.12634754 10.6957115,5.07703607 C10.7158033,5.02772459 10.7638033,4.9954623 10.8171016,4.9954623 L15.3272131,4.9954623 Z"></path>
</svg>