<svg role="img" aria-label="Cloudflare" viewBox="0 0 35 16" version="1.1" xmlns="http://www.w3.org/2000/svg" xmlns:xlink="http://www.w3.org/1999/xlink">
    <path d="M24.1137778,14.9536137 L23.8959316,15.7525197 C23.8959316,15.8978872 23.7505641,15.9705026 23.6053333,15.9705026 L0.290598291,15.9705026 C0.217846154,15.9705026 0.0726153846,15.8978872 0.0726153846,15.7525197 C0,15.4620581 0,15.2440752 0,14.9536137 C0,12.0483145 2.32423932,9.72407521 5.15692308,9.65145983 C5.08417094,9.21576752 5.01155556,8.77993846 5.08417094,8.3441094 C5.30215385,6.60092991 6.68211966,5.14834872 8.42529915,5.00311795 C9.44218803,4.93036581 10.3137094,5.2209641 11.04,5.72940855 C12.1295043,2.46089573 15.2526496,0.13665641 18.8842393,0.13665641 C22.8064274,0.13665641 26.1474188,2.89672479 26.9464615,6.60092991 C27.0190769,6.6735453 26.9464615,6.74616068 26.9464615,6.81891282 L26.2200342,8.70732308 C25.6391111,10.1599043 24.0411624,11.3946393 22.5158291,11.4672547 L9.80526496,11.6124855 C9.66003419,11.6124855 9.5874188,11.6852376 9.51480342,11.8304684 C9.44218803,11.9030838 9.44218803,11.9756991 9.51480342,12.0483145 C9.5874188,12.0483145 9.66003419,12.1209299 9.73264957,12.1209299 L22.3705983,12.2662974 C23.0242735,12.3389128 23.5327179,12.6293744 23.8959316,13.0652034 C24.2590085,13.5010325 24.3316239,14.2273231 24.1137778,14.9536137 Z M28.1085265,6.81884444 C31.885347,6.81884444 35.0084923,9.94198974 35.0084923,13.7188103 C35.0084923,14.3726222 34.8632615,15.0262974 34.7180308,15.6073573 C34.7180308,15.752588 34.6454154,15.8252034 34.5001846,15.8252034 L24.9127658,15.8252034 C24.7673983,15.8252034 24.6947829,15.6799726 24.7673983,15.6073573 L24.9127658,14.9535453 C25.4938256,13.5009641 27.0916376,12.2662291 28.6169709,12.1936137 L31.3769026,12.0483829 C31.5222701,12.0483829 31.5948855,11.9757675 31.6675009,11.8304 C31.7401162,11.7577846 31.7401162,11.6851692 31.6675009,11.6125538 C31.5948855,11.6125538 31.5222701,11.5399385 31.4496547,11.5399385 L28.7622017,11.3947077 C28.1085265,11.3219556 27.6000821,11.031494 27.2370051,10.595665 C26.8737915,10.1599726 26.8011761,9.4335453 27.0190222,8.7072547 L27.5274667,6.96407521 C27.6000821,6.89145983 27.6726974,6.81884444 27.7453128,6.81884444 L28.1085265,6.81884444 Z"></path>
</svg>