<svg viewBox="0 0 62 16" version="1.1" xmlns="http://www.w3.org/2000/svg" xmlns:xlink="http://www.w3.org/1999/xlink">
    <g stroke="none" stroke-width="1" fill="none" fill-rule="evenodd">
        <path d="M11.7164309,15.9999056 C16.0469841,16.0212083 20,12.4337523 20,8.06943112 C20,3.29723129 16.0469841,-0.00136763913 11.7164309,4.25384279e-07 L7.9896279,4.25384279e-07 C3.60721405,-0.00136763913 0,3.29801304 0,8.06943112 C0,12.4347295 3.60721405,16.0212083 7.9896279,15.9999056 L11.7164309,15.9999056" fill="#000000"></path>
        <path d="M9.66268149,12.3394531 L9.66268149,3.66230808 C11.4071663,4.33137642 12.6455665,6.01999608 12.6485021,8.00058706 C12.6455665,9.98156943 11.4071663,11.6692106 9.66268149,12.3394531 M3.35130231,8.00058706 C3.35521635,6.02117022 4.59165955,4.33352902 6.33516582,3.66250377 L6.33516582,12.3376919 C4.59165955,11.6672537 3.35521635,9.98059097 3.35130231,8.00058706 M7.9992172,0.666666667 C3.94936664,0.668036506 0.667645175,3.95016988 0.666666667,8.00058706 C0.667645175,12.0506128 3.94936664,15.3321591 7.9992172,15.3333333 C12.0504376,15.3321591 15.3327462,12.0506128 15.3333333,8.00058706 C15.3327462,3.95016988 12.0504376,0.668036506 7.9992172,0.666666667" fill="#FFFFFF" fill-rule="nonzero"></path>
        <path d="M22.7826188,3.55052636 C22.7826188,2.76285409 22.3877929,2.81452474 22.0095728,2.80618421 L22.0095728,2.57854854 C22.3373896,2.59522962 22.673607,2.59522962 23.0022054,2.59522962 C23.3552238,2.59522962 23.8348367,2.57854854 24.4576496,2.57854854 C26.6357366,2.57854854 27.8215818,4.09327163 27.8215818,5.64440827 C27.8215818,6.51162079 27.3341545,8.69236635 24.3562569,8.69236635 C23.9276335,8.69236635 23.5316354,8.675075 23.1366141,8.675075 C22.758394,8.675075 22.3877929,8.68341553 22.0095728,8.69236635 L22.0095728,8.46452727 C22.5138012,8.41183948 22.758394,8.39434468 22.7826188,7.79870821 L22.7826188,3.55052636 Z M23.607045,7.65874992 C23.607045,8.33311293 24.0702475,8.41183948 24.4820698,8.41183948 C26.2993238,8.41183948 26.8961537,6.98418348 26.8961537,5.67899099 C26.8961537,4.04160098 25.88672,2.85927885 24.2634601,2.85927885 C23.9180608,2.85927885 23.7592317,2.88491074 23.607045,2.89426843 L23.607045,7.65874992 Z M28.116578,8.46473069 L28.2761885,8.46473069 C28.5114038,8.46473069 28.6798056,8.46473069 28.6798056,8.17504957 L28.6798056,5.80186135 C28.6798056,5.41677261 28.5537973,5.3632711 28.2421955,5.18913695 L28.2421955,5.0487718 C28.6376075,4.92549458 29.1090151,4.75990439 29.1422266,4.73366221 C29.2014212,4.69867263 29.2516292,4.68931496 29.2938273,4.68931496 C29.3354394,4.68931496 29.3528265,4.74200273 29.3528265,4.81259217 L29.3528265,8.17504957 C29.3528265,8.46473069 29.537834,8.46473069 29.7736355,8.46473069 L29.9162495,8.46473069 L29.9162495,8.69256978 C29.6300447,8.69256978 29.3354394,8.675075 29.0334102,8.675075 C28.7304043,8.675075 28.4273984,8.68361895 28.116578,8.69256978 L28.116578,8.46473069 Z M29.0166091,3.34079235 C28.7974133,3.34079235 28.604396,3.13065148 28.604396,2.90281238 C28.604396,2.68351727 28.8065953,2.4815135 29.0166091,2.4815135 C29.2346327,2.4815135 29.4286268,2.6662259 29.4286268,2.90281238 C29.4286268,3.13960229 29.2432286,3.34079235 29.0166091,3.34079235 Z M30.715474,5.85414229 C30.715474,5.53028529 30.6224818,5.44301479 30.2280467,5.27661089 L30.2280467,5.11020698 C30.5892704,4.98774347 30.9338883,4.87341707 31.3380916,4.68931496 C31.3630979,4.68931496 31.3877135,4.7072166 31.3877135,4.77678889 L31.3877135,5.3463866 C31.8679124,4.98774347 32.2803208,4.68931496 32.8445253,4.68931496 C33.5589629,4.68931496 33.8111747,5.23246706 33.8111747,5.91578089 L33.8111747,8.17504957 C33.8111747,8.46473069 33.9959869,8.46473069 34.2317884,8.46473069 L34.3831937,8.46473069 L34.3831937,8.69256978 C34.0881975,8.69256978 33.7937875,8.675075 33.4917584,8.675075 C33.1885571,8.675075 32.8855512,8.68361895 32.5829361,8.69256978 L32.5829361,8.46473069 L32.734146,8.46473069 C32.9701429,8.46473069 33.1375678,8.46473069 33.1375678,8.17504957 L33.1375678,5.90723694 C33.1375678,5.40741494 32.8445253,5.16269134 32.3643263,5.16269134 C32.0953134,5.16269134 31.6662991,5.39012357 31.3877135,5.58297308 L31.3877135,8.17504957 C31.3877135,8.46473069 31.5738931,8.46473069 31.8094993,8.46473069 L31.9607092,8.46473069 L31.9607092,8.69256978 C31.6662991,8.69256978 31.3714985,8.675075 31.0686878,8.675075 C30.766268,8.675075 30.4628714,8.68361895 30.1604516,8.69256978 L30.1604516,8.46473069 L30.3122476,8.46473069 C30.5476584,8.46473069 30.715474,8.46473069 30.715474,8.17504957 L30.715474,5.85414229 Z M35.0228077,6.27523774 C35.0054204,6.35416772 35.0054204,6.48517518 35.0228077,6.78319685 C35.0722342,7.61501295 35.5868168,8.29791994 36.2586655,8.29791994 C36.7220633,8.29791994 37.0842638,8.03509128 37.3946935,7.71143771 L37.5123012,7.83410465 C37.1252897,8.36850936 36.6456769,8.82378068 35.9566364,8.82378068 C34.6186045,8.82378068 34.3497868,7.4746478 34.3497868,6.91440775 C34.3497868,5.19747748 35.4596363,4.68931496 36.0480656,4.68931496 C36.7300732,4.68931496 37.4624839,5.13583888 37.4699077,6.06428316 C37.4699077,6.11758124 37.4699077,6.16945531 37.4624839,6.22254995 L37.3860976,6.27523774 L35.0228077,6.27523774 Z M36.5118542,5.99471087 C36.7220633,5.99471087 36.7464835,5.8805879 36.7464835,5.77561917 C36.7464835,5.32909525 36.4860664,4.97004526 36.0146588,4.97004526 C35.5018344,4.97004526 35.1486206,5.3632711 35.047814,5.99471087 L36.5118542,5.99471087 Z M37.6639018,8.46473069 L37.8911075,8.46473069 C38.1257368,8.46473069 38.2941385,8.46473069 38.2941385,8.17504957 L38.2941385,5.71438742 C38.2941385,5.44301479 37.9833181,5.39012357 37.8569192,5.32014442 L37.8569192,5.18913695 C38.4709408,4.91735747 38.807549,4.68931496 38.8843261,4.68931496 C38.9337526,4.68931496 38.9587589,4.71555714 38.9587589,4.80364135 L38.9587589,5.59172048 L38.9767322,5.59172048 C39.1861598,5.25016528 39.5401552,4.68931496 40.0529795,4.68931496 C40.263384,4.68931496 40.5322016,4.83802064 40.5322016,5.15353709 C40.5322016,5.39012357 40.3727865,5.60087472 40.1373758,5.60087472 C39.875591,5.60087472 39.875591,5.39012357 39.5815718,5.39012357 C39.4383717,5.39012357 38.9675502,5.59172048 38.9675502,6.11758124 L38.9675502,8.17504957 C38.9675502,8.46473069 39.1353658,8.46473069 39.3711673,8.46473069 L39.8419889,8.46473069 L39.8419889,8.69256978 C39.3791772,8.68361895 39.0271355,8.675075 38.664935,8.675075 C38.3201216,8.675075 37.9667124,8.68361895 37.6639018,8.69256978 L37.6639018,8.46473069 Z M40.9022166,7.4746478 C41.0118144,8.05258606 41.3480318,8.54345723 41.9624443,8.54345723 C42.4578814,8.54345723 42.6428889,8.22814421 42.6428889,7.92178201 C42.6428889,6.88796215 40.8098105,7.22056654 40.8098105,5.81081218 C40.8098105,5.31994099 41.1888121,4.68931496 42.1136542,4.68931496 C42.3824718,4.68931496 42.7440862,4.76844834 43.071903,4.94380308 L43.131293,5.83644408 L42.9376896,5.83644408 C42.8536841,5.28515486 42.5594694,4.96984183 42.0208574,4.96984183 C41.6840539,4.96984183 41.364833,5.1712353 41.364833,5.54778009 C41.364833,6.57325941 43.3163005,6.2573361 43.3163005,7.63230431 C43.3163005,8.21024257 42.8704852,8.82398411 41.8692567,8.82398411 C41.532844,8.82398411 41.1374319,8.70111375 40.8434127,8.52616588 L40.750616,7.51879162 L40.9022166,7.4746478 Z M50.9117661,4.16365763 L50.7019477,4.16365763 C50.5417511,3.13960229 49.8435285,2.72745767 48.9018854,2.72745767 C47.9340639,2.72745767 46.5290228,3.40161725 46.5290228,5.50363627 C46.5290228,7.2738646 47.7412418,8.54345723 49.0360989,8.54345723 C49.8685348,8.54345723 50.558943,7.94802419 50.7273447,7.02792045 L50.920362,7.08040481 L50.7273447,8.35915169 C50.3739355,8.58760105 49.4233057,8.82378068 48.8676971,8.82378068 C46.9000146,8.82378068 45.6553655,7.50109341 45.6553655,5.53028529 C45.6553655,3.73462849 47.1942292,2.44672736 48.8428862,2.44672736 C49.5239169,2.44672736 50.180332,2.67517673 50.8277606,2.91176321 L50.9117661,4.16365763 Z M51.2151627,8.46473069 L51.3741871,8.46473069 C51.6103794,8.46473069 51.7787812,8.46473069 51.7787812,8.17504957 L51.7787812,3.29725881 C51.7787812,2.72745767 51.6525774,2.70996288 51.3329658,2.61374155 L51.3329658,2.47357982 C51.6691833,2.3598637 52.0225924,2.2022072 52.1991994,2.09662819 C52.2910193,2.04455068 52.3588099,2 52.3836208,2 C52.4348055,2 52.4518021,2.05309465 52.4518021,2.12327722 L52.4518021,8.17504957 C52.4518021,8.46473069 52.6366141,8.46473069 52.8724156,8.46473069 L53.0144435,8.46473069 L53.0144435,8.69256978 C52.7294109,8.69256978 52.4348055,8.675075 52.131995,8.675075 C51.8293798,8.675075 51.5265692,8.68361895 51.2151627,8.69256978 L51.2151627,8.46473069 Z M56.6159356,8.21024257 C56.6159356,8.36850936 56.7081463,8.3768499 56.8509557,8.3768499 C56.952153,8.3768499 57.0777706,8.36850936 57.1875638,8.36850936 L57.1875638,8.55281491 C56.8253632,8.58760105 56.135932,8.77149975 55.9759309,8.82398411 L55.9335373,8.79753851 L55.9335373,8.08838934 C55.4296997,8.51741848 55.0421021,8.82398411 54.4442955,8.82398411 C53.9904704,8.82398411 53.5194534,8.51741848 53.5194534,7.78202714 L53.5194534,5.53923612 C53.5194534,5.31139704 53.4860466,5.09230534 53.0154204,5.0487718 L53.0154204,4.88216447 C53.3186217,4.8736205 53.9904704,4.82113614 54.1002636,4.82113614 C54.1934511,4.82113614 54.1934511,4.88216447 54.1934511,5.07501397 L54.1934511,7.33428265 C54.1934511,7.59751817 54.1934511,8.35060772 54.9246897,8.35060772 C55.2106992,8.35060772 55.5891148,8.12297206 55.9419379,7.81701672 L55.9419379,5.45989929 C55.9419379,5.28515486 55.538516,5.18913695 55.2362916,5.10145958 L55.2362916,4.94380308 C55.9925366,4.89091186 56.464335,4.82113614 56.5479497,4.82113614 C56.6159356,4.82113614 56.6159356,4.88216447 56.6159356,4.97899607 L56.6159356,8.21024257 Z M58.2895989,5.32014442 C58.6256209,5.02232619 59.0800321,4.68931496 59.5430392,4.68931496 C60.5188706,4.68931496 61.1069092,5.57463254 61.1069092,6.52891216 C61.1069092,7.67624471 60.2998703,8.82398411 59.0962471,8.82398411 C58.474411,8.82398411 58.1463987,8.61343638 57.9273984,8.51741848 L57.6753819,8.71840511 L57.499361,8.62238721 C57.5737937,8.10568071 57.6167733,7.59751817 57.6167733,7.06331687 L57.6167733,3.29725881 C57.6167733,2.72745767 57.4899836,2.70996288 57.1705673,2.61374155 L57.1705673,2.47357982 C57.5077615,2.3598637 57.8601939,2.2022072 58.0371916,2.09662819 C58.1295977,2.04455068 58.1964113,2 58.2225897,2 C58.2729932,2 58.2895989,2.05309465 58.2895989,2.12327722 L58.2895989,5.32014442 Z M58.2895989,7.70228345 C58.2895989,8.03509128 58.592214,8.59634845 59.1558324,8.59634845 C60.0560589,8.59634845 60.4342791,7.67624471 60.4342791,6.89630268 C60.4342791,5.95056705 59.7452386,5.16269134 59.0888234,5.16269134 C58.7768308,5.16269134 58.5166091,5.37303564 58.2895989,5.57463254 L58.2895989,7.70228345 Z M22,13.7849768 L22.0644694,13.7849768 C22.2289639,13.7849768 22.4028357,13.7617861 22.4028357,13.5136042 L22.4028357,11.0169353 C22.4028357,10.7683466 22.2289639,10.744749 22.0644694,10.744749 L22,10.744749 L22,10.6017393 C22.1785606,10.6017393 22.453239,10.6204546 22.6781003,10.6204546 C22.9066734,10.6204546 23.1809612,10.6017393 23.3960544,10.6017393 L23.3960544,10.744749 L23.3317804,10.744749 C23.1676766,10.744749 22.9934141,10.7683466 22.9934141,11.0169353 L22.9934141,13.5136042 C22.9934141,13.7617861 23.1676766,13.7849768 23.3317804,13.7849768 L23.3960544,13.7849768 L23.3960544,13.9285968 C23.1764679,13.9285968 22.9012033,13.9098815 22.6732163,13.9098815 C22.4487457,13.9098815 22.1785606,13.9285968 22,13.9285968 L22,13.7849768 Z M26.5405955,12.9891675 L26.5497775,12.9798098 L26.5497775,11.1929003 C26.5497775,10.8019122 26.288579,10.744749 26.1514351,10.744749 L26.0506285,10.744749 L26.0506285,10.6017393 C26.2659171,10.6017393 26.4765169,10.6206581 26.6914147,10.6206581 C26.8789619,10.6206581 27.0672905,10.6017393 27.2544471,10.6017393 L27.2544471,10.744749 L27.1862658,10.744749 C26.9934439,10.744749 26.7783507,10.7829934 26.7783507,11.3499466 L26.7783507,13.5188933 C26.7783507,13.6855006 26.7830394,13.852108 26.8055059,13.9997965 L26.6316341,13.9997965 L24.2747911,11.2638966 L24.2747911,13.2277882 C24.2747911,13.642374 24.351959,13.7849768 24.7047821,13.7849768 L24.7823407,13.7849768 L24.7823407,13.9285968 C24.5858069,13.9285968 24.389273,13.9098815 24.1921531,13.9098815 C23.986828,13.9098815 23.7760328,13.9285968 23.5699262,13.9285968 L23.5699262,13.7849768 L23.6340049,13.7849768 C23.9497093,13.7849768 24.0456319,13.5614097 24.0456319,13.1805929 L24.0456319,11.1731679 C24.0456319,10.9066775 23.8346413,10.744749 23.6295115,10.744749 L23.5699262,10.744749 L23.5699262,10.6017393 C23.7436028,10.6017393 23.9221634,10.6206581 24.0956445,10.6206581 C24.233179,10.6206581 24.3662204,10.6017393 24.5033642,10.6017393 L26.5405955,12.9891675 Z M27.9399711,10.8399532 C27.5961345,10.8399532 27.5832407,10.9257997 27.5144733,11.2732543 L27.3773295,11.2732543 C27.3951073,11.1400091 27.4183554,11.0067639 27.4322261,10.8682296 C27.4507854,10.7345776 27.4595767,10.6017393 27.4595767,10.4636118 L27.56937,10.4636118 C27.6062933,10.606825 27.7205799,10.6017393 27.8448299,10.6017393 L30.2057755,10.6017393 C30.3296347,10.6017393 30.443726,10.5970604 30.4532987,10.4538473 L30.5625059,10.4729695 C30.5447279,10.6017393 30.5261685,10.7301022 30.5122979,10.8590754 C30.5038973,10.9878452 30.5038973,11.1166149 30.5038973,11.2449779 L30.3663628,11.2978691 C30.3569854,11.1217006 30.3339327,10.8399532 30.0276056,10.8399532 L29.2770262,10.8399532 L29.2770262,13.3754767 C29.2770262,13.7430706 29.4374181,13.7849768 29.6566138,13.7849768 L29.7435498,13.7849768 L29.7435498,13.9285968 C29.5651846,13.9285968 29.2445961,13.9098815 28.9978543,13.9098815 C28.7231759,13.9098815 28.4025874,13.9285968 28.2238315,13.9285968 L28.2238315,13.7849768 L28.3107675,13.7849768 C28.5633701,13.7849768 28.6907458,13.7615827 28.6907458,13.3854447 L28.6907458,10.8399532 L27.9399711,10.8399532 Z M30.7088317,13.7849768 L30.7731056,13.7849768 C30.9377955,13.7849768 31.1118628,13.7617861 31.1118628,13.5136042 L31.1118628,11.0169353 C31.1118628,10.7683466 30.9377955,10.744749 30.7731056,10.744749 L30.7088317,10.744749 L30.7088317,10.6017393 C30.9874174,10.6017393 31.4644906,10.6204546 31.8481808,10.6204546 C32.2332387,10.6204546 32.7085535,10.6017393 33.0195693,10.6017393 C33.0117549,10.8063876 33.0162482,11.1214972 33.0295327,11.3310278 L32.8916074,11.3692722 C32.8695316,11.0596552 32.8148303,10.8118801 32.3338499,10.8118801 L31.6983385,10.8118801 L31.6983385,12.0601129 L32.2422253,12.0601129 C32.5167084,12.0601129 32.5766844,11.8985912 32.6038398,11.6406448 L32.7407882,11.6406448 C32.7318016,11.8269847 32.7271129,12.0127142 32.7271129,12.1982403 C32.7271129,12.3799013 32.7318016,12.5607486 32.7407882,12.7417992 L32.6038398,12.7700757 C32.5766844,12.4844631 32.5628137,12.2985302 32.2465233,12.2985302 L31.6983385,12.2985302 L31.6983385,13.4088388 C31.6983385,13.7186594 31.9626628,13.7186594 32.2557052,13.7186594 C32.8052576,13.7186594 33.047506,13.6802115 33.1850406,13.1376698 L33.3130025,13.1704215 C33.2532219,13.4236891 33.1985206,13.6755327 33.1578854,13.9285968 C32.8644522,13.9285968 32.3381479,13.9098815 31.9267162,13.9098815 C31.5143078,13.9098815 30.9696396,13.9285968 30.7088317,13.9285968 L30.7088317,13.7849768 Z M33.9307361,11.106647 C33.9307361,10.7589889 33.7476822,10.744749 33.6054589,10.744749 L33.5230162,10.744749 L33.5230162,10.6015359 C33.6695376,10.6015359 33.9532026,10.6206581 34.2325698,10.6206581 C34.5068575,10.6206581 34.7268348,10.6015359 34.9692786,10.6015359 C35.5455955,10.6015359 36.0588105,10.7634643 36.0588105,11.4408788 C36.0588105,11.8690942 35.7843275,12.1313126 35.4227129,12.2798148 L36.2051364,13.4989574 C36.333489,13.7005544 36.4245275,13.7571072 36.6491935,13.7847734 L36.6491935,13.9285968 C36.4979835,13.9285968 36.3514622,13.9098815 36.200643,13.9098815 C36.0588105,13.9098815 35.9118986,13.9285968 35.7706521,13.9285968 C35.4182197,13.4472867 35.1154091,12.9326146 34.818264,12.3837664 L34.516821,12.3837664 L34.516821,13.40416 C34.516821,13.7715506 34.6811202,13.7847734 34.8913293,13.7847734 L34.9739672,13.7847734 L34.9739672,13.9285968 C34.7125734,13.9285968 34.4480536,13.9098815 34.1868552,13.9098815 C33.966878,13.9098815 33.7517848,13.9285968 33.5230162,13.9285968 L33.5230162,13.7847734 L33.6054589,13.7847734 C33.7754236,13.7847734 33.9307361,13.7048263 33.9307361,13.5282509 L33.9307361,11.106647 Z M34.516821,12.2120734 L34.7403148,12.2120734 C35.1984378,12.2120734 35.4449842,12.0314296 35.4449842,11.4687484 C35.4449842,11.0452118 35.1843718,10.7734323 34.776652,10.7734323 C34.6391174,10.7734323 34.5805089,10.7880791 34.516821,10.7923511 L34.516821,12.2120734 Z M39.7566159,12.9891675 L39.764821,12.9798098 L39.764821,11.1929003 C39.764821,10.8019122 39.504404,10.744749 39.36726,10.744749 L39.2668442,10.744749 L39.2668442,10.6017393 C39.4819374,10.6017393 39.6917558,10.6206581 39.9074351,10.6206581 C40.0953729,10.6206581 40.2821387,10.6017393 40.4712488,10.6017393 L40.4712488,10.744749 L40.4020907,10.744749 C40.2100502,10.744749 39.9947617,10.7829934 39.9947617,11.3499466 L39.9947617,13.5188933 C39.9947617,13.6855006 39.9990597,13.852108 40.0217217,13.9997965 L39.8482405,13.9997965 L37.4912021,11.2638966 L37.4912021,13.2277882 C37.4912021,13.642374 37.5687608,13.7849768 37.9211932,13.7849768 L37.9989471,13.7849768 L37.9989471,13.9285968 C37.8024133,13.9285968 37.6054887,13.9098815 37.4089549,13.9098815 C37.2022623,13.9098815 36.9918578,13.9285968 36.786142,13.9285968 L36.786142,13.7849768 L36.8496344,13.7849768 C37.165925,13.7849768 37.2620429,13.5614097 37.2620429,13.1805929 L37.2620429,11.1731679 C37.2620429,10.9066775 37.0514431,10.744749 36.8457273,10.744749 L36.786142,10.744749 L36.786142,10.6017393 C36.9594277,10.6017393 37.1387697,10.6206581 37.3126415,10.6206581 C37.4488087,10.6206581 37.5820453,10.6017393 37.7197752,10.6017393 L39.7566159,12.9891675 Z M41.2071761,13.2471138 C41.16068,13.4088388 41.105588,13.5335401 41.105588,13.618573 C41.105588,13.7617861 41.2980192,13.7849768 41.4486431,13.7849768 L41.4998279,13.7849768 L41.4998279,13.9285968 C41.3163833,13.918222 41.1294222,13.9100849 40.9450007,13.9100849 C40.7805062,13.9100849 40.6167932,13.918222 40.4513219,13.9285968 L40.4513219,13.7849768 L40.4790632,13.7849768 C40.6574284,13.7849768 40.8088337,13.6755327 40.8764289,13.4749529 L41.6096211,11.288308 C41.6684249,11.1119361 41.7516491,10.8735188 41.779195,10.6965366 C41.9249348,10.644866 42.1083794,10.5496618 42.1953153,10.4922951 C42.2093814,10.4872095 42.2173912,10.4823272 42.2318479,10.4823272 C42.2455233,10.4823272 42.2539239,10.4823272 42.264278,10.496974 C42.2779533,10.535015 42.2908472,10.5779382 42.3056947,10.6159792 L43.1477033,13.1087829 C43.2024046,13.2753903 43.2569105,13.4515587 43.3161051,13.5951787 C43.3715878,13.7286273 43.4677058,13.7849768 43.6189157,13.7849768 L43.6462664,13.7849768 L43.6462664,13.9285968 C43.4403552,13.918222 43.2340533,13.9100849 43.0148575,13.9100849 C42.7907776,13.9100849 42.5612277,13.918222 42.3277705,13.9285968 L42.3277705,13.7849768 L42.3785645,13.7849768 C42.4832784,13.7849768 42.6624251,13.7664649 42.6624251,13.6470528 C42.6624251,13.5854142 42.6212038,13.4568478 42.5700189,13.3038702 L42.3920445,12.751157 L41.3531112,12.751157 L41.2071761,13.2471138 Z M41.8751176,11.1355337 L41.8657402,11.1355337 L41.4400472,12.4844631 L42.2953405,12.4844631 L41.8751176,11.1355337 Z M43.8476842,10.8399532 C43.5042384,10.8399532 43.4905631,10.9257997 43.4217958,11.2732543 L43.2842612,11.2732543 C43.3022344,11.1400091 43.3254825,11.0067639 43.3397439,10.8682296 C43.3579125,10.7345776 43.3665084,10.6017393 43.3665084,10.4636118 L43.4768878,10.4636118 C43.513225,10.606825 43.6280977,10.6017393 43.7511755,10.6017393 L46.1132932,10.6017393 C46.2363711,10.6017393 46.3506577,10.5970604 46.3600351,10.4538473 L46.4696329,10.4729695 C46.4520504,10.6017393 46.4336863,10.7301022 46.420011,10.8590754 C46.4098522,10.9878452 46.4098522,11.1166149 46.4098522,11.2449779 L46.2729037,11.2978691 C46.2645031,11.1217006 46.2414505,10.8399532 45.9347327,10.8399532 L45.1839578,10.8399532 L45.1839578,13.3754767 C45.1839578,13.7430706 45.3445451,13.7849768 45.5637409,13.7849768 L45.6508722,13.7849768 L45.6508722,13.9285968 C45.4723117,13.9285968 45.1521139,13.9098815 44.9047861,13.9098815 C44.6306936,13.9098815 44.3095192,13.9285968 44.1311539,13.9285968 L44.1311539,13.7849768 L44.2180898,13.7849768 C44.4703018,13.7849768 44.5982636,13.7615827 44.5982636,13.3854447 L44.5982636,10.8399532 L43.8476842,10.8399532 Z M46.6384254,13.7849768 L46.702504,13.7849768 C46.86778,13.7849768 47.0408704,13.7617861 47.0408704,13.5136042 L47.0408704,11.0169353 C47.0408704,10.7683466 46.86778,10.744749 46.702504,10.744749 L46.6384254,10.744749 L46.6384254,10.6017393 C46.8173766,10.6017393 47.091469,10.6204546 47.3153534,10.6204546 C47.5449034,10.6204546 47.8193866,10.6017393 48.0348705,10.6017393 L48.0348705,10.744749 L47.9707918,10.744749 C47.8057112,10.744749 47.6314486,10.7683466 47.6314486,11.0169353 L47.6314486,13.5136042 C47.6314486,13.7617861 47.8057112,13.7849768 47.9707918,13.7849768 L48.0348705,13.7849768 L48.0348705,13.9285968 C47.8148932,13.9285968 47.5402147,13.9098815 47.3116416,13.9098815 C47.0869757,13.9098815 46.8173766,13.9285968 46.6384254,13.9285968 L46.6384254,13.7849768 Z M49.8601344,10.5305396 C50.8359658,10.5305396 51.6135052,11.159945 51.6135052,12.1750495 C51.6135052,13.2713217 50.858237,14 49.883773,14 C48.9126303,14 48.1716236,13.3138381 48.1716236,12.2891725 C48.1716236,11.2980725 48.9083323,10.5305396 49.8601344,10.5305396 Z M49.9292924,13.790266 C50.8174064,13.790266 50.9719375,12.9747241 50.9719375,12.2800183 C50.9719375,11.5830748 50.6114952,10.7398667 49.8513431,10.7398667 C49.050165,10.7398667 48.8124098,11.4835986 48.8124098,12.1215481 C48.8124098,12.9747241 49.1876995,13.790266 49.9292924,13.790266 Z M54.6976795,12.9891675 L54.7070569,12.9798098 L54.7070569,11.1929003 C54.7070569,10.8019122 54.4454676,10.744749 54.3081284,10.744749 L54.2088847,10.744749 L54.2088847,10.6017393 C54.4231965,10.6017393 54.6339917,10.6206581 54.8483033,10.6206581 C55.0368274,10.6206581 55.2243745,10.6017393 55.4123124,10.6017393 L55.4123124,10.744749 L55.3431545,10.744749 C55.1513092,10.744749 54.9358254,10.7829934 54.9358254,11.3499466 L54.9358254,13.5188933 C54.9358254,13.6855006 54.9401233,13.852108 54.9633714,13.9997965 L54.7896949,13.9997965 L52.4320704,11.2638966 L52.4320704,13.2277882 C52.4320704,13.642374 52.5100198,13.7849768 52.8620615,13.7849768 L52.9402062,13.7849768 L52.9402062,13.9285968 C52.7432815,13.9285968 52.5469431,13.9098815 52.3500186,13.9098815 C52.1441074,13.9098815 51.9329214,13.9285968 51.7268149,13.9285968 L51.7268149,13.7849768 L51.7914796,13.7849768 C52.1077701,13.7849768 52.2029113,13.5614097 52.2029113,13.1805929 L52.2029113,11.1731679 C52.2029113,10.9066775 51.9934835,10.744749 51.7865956,10.744749 L51.7268149,10.744749 L51.7268149,10.6017393 C51.9010775,10.6017393 52.079638,10.6206581 52.2533146,10.6206581 C52.3904584,10.6206581 52.5229137,10.6017393 52.6606436,10.6017393 L54.6976795,12.9891675 Z M56.1476537,13.2471138 C56.1027206,13.4088388 56.0472378,13.5335401 56.0472378,13.618573 C56.0472378,13.7617861 56.2400598,13.7849768 56.3900975,13.7849768 L56.4412823,13.7849768 L56.4412823,13.9285968 C56.2580331,13.918222 56.0700951,13.9100849 55.8870413,13.9100849 C55.7217653,13.9100849 55.5576615,13.918222 55.3935578,13.9285968 L55.3935578,13.7849768 L55.4195409,13.7849768 C55.5986874,13.7849768 55.7502881,13.6755327 55.8178832,13.4749529 L56.5512709,11.288308 C56.6104655,11.1119361 56.6932988,10.8735188 56.7198679,10.6965366 C56.8665846,10.644866 57.0494431,10.5496618 57.1371605,10.4922951 C57.1502497,10.4872095 57.1594317,10.4823272 57.1733024,10.4823272 C57.1869776,10.4823272 57.1957689,10.4823272 57.204951,10.496974 C57.2188217,10.535015 57.2328877,10.5779382 57.2467583,10.6159792 L58.0883764,13.1087829 C58.143273,13.2753903 58.1979743,13.4515587 58.2581457,13.5951787 C58.3130423,13.7286273 58.4095509,13.7849768 58.5601748,13.7849768 L58.5881114,13.7849768 L58.5881114,13.9285968 C58.3818095,13.918222 58.175703,13.9100849 57.9557257,13.9100849 C57.7320367,13.9100849 57.5026821,13.918222 57.269225,13.9285968 L57.269225,13.7849768 L57.3198236,13.7849768 C57.4243421,13.7849768 57.6040749,13.7664649 57.6040749,13.6470528 C57.6040749,13.5854142 57.5624628,13.4568478 57.5114734,13.3038702 L57.3336943,12.751157 L56.2945657,12.751157 L56.1476537,13.2471138 Z M56.816572,11.1355337 L56.80739,11.1355337 L56.3811109,12.4844631 L57.2377718,12.4844631 L56.816572,11.1355337 Z M59.7413313,13.4613233 C59.7413313,13.6523419 59.8685117,13.7090982 60.0150329,13.7286273 C60.2027754,13.7430706 60.4086866,13.7430706 60.6198726,13.7188628 C60.8117178,13.6948583 60.9764076,13.5807354 61.0586549,13.4613233 C61.1317201,13.3563545 61.172746,13.2231093 61.2006828,13.1181406 L61.3333333,13.1181406 C61.2831254,13.3897167 61.2188515,13.6572242 61.1635641,13.9285968 C60.7619006,13.9285968 60.3576973,13.9100849 59.9560337,13.9100849 C59.5526119,13.9100849 59.1503623,13.9285968 58.7475266,13.9285968 L58.7475266,13.7849768 L58.8106283,13.7849768 C58.9760996,13.7849768 59.155051,13.7617861 59.155051,13.4660021 L59.155051,11.0167319 C59.155051,10.7683466 58.9760996,10.744749 58.8106283,10.744749 L58.7475266,10.744749 L58.7475266,10.6017393 C58.9895796,10.6017393 59.2279209,10.6206581 59.4701693,10.6206581 C59.7044079,10.6206581 59.9327857,10.6017393 60.1664382,10.6017393 L60.1664382,10.744749 L60.0513702,10.744749 C59.8778891,10.744749 59.7413313,10.7500381 59.7413313,11.0020851 L59.7413313,13.4613233 Z" fill="#000000" fill-rule="nonzero"></path>
    </g>
</svg>