<svg viewBox="0 0 55 9" version="1.1" xmlns="http://www.w3.org/2000/svg" xmlns:xlink="http://www.w3.org/1999/xlink">
    <g stroke="none" stroke-width="1" fill="none" fill-rule="evenodd">
        <g fill="#000000">
            <ellipse cx="29.02" cy="4.406" rx="4.464" ry="4.406"></ellipse>
            <path d="M2.636,0.273 C5.342,0.273 7.209,2.014 7.228,4.5 C7.228,5.735 6.646,6.936 5.67,7.73 C4.847,8.406 3.921,8.71 2.62,8.71 L0.186,8.71 L0.186,0.273 L2.636,0.273 Z M4.59,6.613 L4.59,6.612 C5.154,6.105 5.498,5.293 5.498,4.482 C5.498,3.67 5.154,2.892 4.59,2.385 C4.041,1.896 3.39,1.708 2.312,1.708 L1.864,1.708 L1.864,7.273 L2.312,7.273 C3.39,7.273 4.058,7.07 4.59,6.613 Z M7.982,0.273 L9.642,0.273 L9.642,8.709 L7.982,8.709 L7.982,0.273 Z M13.72,3.519 L13.719,3.519 C15.62,4.196 16.168,4.805 16.168,6.14 C16.168,7.763 14.952,8.913 13.24,8.913 C11.972,8.913 11.046,8.405 10.275,7.307 L11.355,6.275 C11.732,7.002 12.366,7.391 13.172,7.391 C13.908,7.391 14.456,6.901 14.456,6.207 C14.456,5.852 14.284,5.565 13.958,5.345 C13.787,5.243 13.462,5.092 12.811,4.855 C11.252,4.314 10.704,3.722 10.704,2.555 C10.704,1.168 11.87,0.138 13.376,0.138 C14.2980512,0.134395544 15.1889884,0.471256669 15.878,1.084 L15.005,2.2 C14.576,1.727 14.164,1.525 13.668,1.525 C12.948,1.525 12.418,1.93 12.418,2.453 C12.418,2.909 12.726,3.148 13.72,3.519 Z M16.7,4.499 L16.699,4.498 C16.699,2.046 18.721,0.086 21.238,0.086 C21.958,0.086 22.558,0.238 23.294,0.61 L23.294,2.539 C22.591,1.879 21.992,1.592 21.205,1.592 C19.647,1.592 18.413,2.876 18.413,4.483 C18.413,6.191 19.595,7.391 21.274,7.391 C22.027,7.391 22.627,7.121 23.295,6.461 L23.295,8.405 C22.524,8.76 21.925,8.895 21.205,8.895 C18.67,8.895 16.7,6.969 16.7,4.499 Z M38.017,5.937 L40.312,0.273 L42.111,0.273 L38.428,8.913 L37.537,8.913 L33.922,0.273 L35.739,0.273 L38.017,5.937 Z M42.881,8.709 L42.881,0.273 L47.593,0.273 L47.593,1.709 L44.543,1.709 L44.543,3.569 L47.472,3.569 L47.472,5.008 L44.543,5.008 L44.543,7.272 L47.593,7.272 L47.593,8.709 L42.881,8.709 Z M54.187,2.776 C54.187,4.061 53.485,4.905 52.235,5.159 L54.923,8.709 L52.886,8.709 L50.573,5.312 L50.35,5.312 L50.35,8.71 L48.688,8.71 L48.688,0.273 L51.154,0.273 C53.074,0.273 54.187,1.186 54.187,2.776 Z M50.847,4.161 L50.848,4.16 C51.908,4.16 52.474,3.705 52.474,2.86 C52.474,2.032 51.908,1.609 50.864,1.609 L50.35,1.609 L50.35,4.161 L50.847,4.161 Z" fill-rule="nonzero"></path>
        </g>
    </g>
</svg>