<svg xmlns="http://www.w3.org/2000/svg" width="57" height="16"><g fill="none" fill-rule="evenodd" transform="translate(1 3)"><ellipse cx="29.02" cy="4.406" fill="#E67730" fill-rule="nonzero" rx="4.464" ry="4.406"/><path fill="#222" d="M2.636.273H.186V8.71H2.62c1.301 0 2.227-.304 3.05-.98.976-.794 1.558-1.995 1.558-3.23C7.209 2.014 5.342.273 2.636.273zm1.954 6.34c-.532.457-1.2.66-2.278.66h-.448V1.708h.448c1.078 0 1.729.188 2.278.677.564.507.908 1.285.908 2.097 0 .811-.344 1.623-.908 2.13z"/><path fill="#222" d="M7.982 0.273H9.642V8.709H7.982z"/><path fill="#222" d="M13.72 3.519c-.994-.371-1.302-.61-1.302-1.066 0-.523.53-.928 1.25-.928.496 0 .908.202 1.337.675l.873-1.116a3.743 3.743 0 0 0-2.502-.946c-1.506 0-2.672 1.03-2.672 2.417 0 1.167.548 1.759 2.107 2.3.651.237.976.388 1.147.49.326.22.498.507.498.862 0 .694-.548 1.184-1.284 1.184-.806 0-1.44-.389-1.817-1.116l-1.08 1.032c.771 1.098 1.697 1.606 2.965 1.606 1.712 0 2.928-1.15 2.928-2.773 0-1.335-.548-1.944-2.449-2.621zm2.98.98c0 2.47 1.97 4.396 4.505 4.396.72 0 1.319-.135 2.09-.49V6.461c-.668.66-1.268.93-2.021.93-1.679 0-2.861-1.2-2.861-2.908 0-1.607 1.234-2.891 2.792-2.891.787 0 1.386.287 2.089.947V.61c-.736-.372-1.336-.524-2.056-.524-2.517 0-4.539 1.96-4.539 4.412z"/><path fill="#222" d="M38.017 5.937L35.739 0.273 33.922 0.273 37.537 8.913 38.428 8.913 42.111 0.273 40.312 0.273z"/><path fill="#222" d="M42.881 8.709L47.593 8.709 47.593 7.272 44.543 7.272 44.543 5.008 47.472 5.008 47.472 3.569 44.543 3.569 44.543 1.709 47.593 1.709 47.593 0.273 42.881 0.273z"/><path fill="#222" d="M54.187 2.776c0-1.59-1.113-2.503-3.033-2.503h-2.466V8.71h1.662V5.312h.223l2.313 3.397h2.037l-2.688-3.55c1.25-.254 1.952-1.098 1.952-2.383zm-3.34 1.385h-.497V1.609h.514c1.044 0 1.61.423 1.61 1.251 0 .845-.566 1.3-1.626 1.3z"/></g></svg>