<svg role="img" aria-label="Drift" viewBox="0 0 16 16" version="1.1" xmlns="http://www.w3.org/2000/svg" xmlns:xlink="http://www.w3.org/1999/xlink">
    <path d="M8,0 C3.58136043,0 0,3.58216127 0,8.00040037 C0,12.4182392 3.58136043,16 8,16 C12.4182392,16 16,12.4186396 16,8.00040037 C15.9995996,3.58256169 12.4182392,0 8,0 Z M13.0966229,5.86378616 C13.0178998,5.81823064 12.9259894,5.80664197 12.840473,5.82902011 C12.8136991,5.83701231 12.7869252,5.84740216 12.7621494,5.86178811 L8.42238756,8.39051869 C8.31729012,8.45165894 8.25255338,8.56514812 8.25255338,8.68702906 L8.25255338,10.0201272 C8.25255338,10.0812675 8.26893738,10.1400102 8.29770925,10.1907606 C8.32688081,10.2415111 8.36883981,10.2846689 8.42118869,10.3154389 C8.52548688,10.3753803 8.65296231,10.3757799 8.7572605,10.3166376 C8.75805975,10.3162381 8.7592585,10.3158385 8.76005775,10.3150392 L10.1866646,9.48345131 L10.1866646,9.48624856 L10.1894618,9.48465019 L10.1894618,12.575232 C10.1894618,12.6359727 10.2054463,12.6947153 10.2346178,12.7458654 C10.2637893,12.7950174 10.3049491,12.837376 10.3564987,12.8685456 C10.4088476,12.8977171 10.4671906,12.9137014 10.5259333,12.9137014 C10.5846759,12.9137014 10.6430189,12.8977171 10.6957674,12.8685456 L11.5485346,12.3714311 C11.653632,12.3098911 11.7179692,12.1968016 11.7179692,12.074521 L11.7179692,8.59072312 L13.0962233,7.78830675 C13.2017202,7.72676687 13.2656578,7.61327762 13.2656578,7.49099706 L13.2656578,6.15989697 C13.2656578,6.03761641 13.2017202,5.92492646 13.0966229,5.86378616 Z M8.25255337,4.75726675 C8.25255337,4.87954733 8.31729012,4.99263689 8.42238756,5.05417679 L9.73470594,5.81863026 C9.7403005,5.82222675 9.74509581,5.82702206 9.75029069,5.83061855 L9.78825362,5.85259708 C9.79544663,5.85699279 9.79944269,5.86458538 9.79944269,5.87297719 L9.79944269,5.91773347 C9.80024194,5.92372762 9.80184037,5.92932216 9.80184037,5.93531631 L9.80184037,6.8608125 C9.80184037,6.95152394 9.88695725,7.01306381 9.96887725,6.99268375 C9.97966669,6.98948687 9.99085581,6.98549075 10.0012456,6.97949656 C10.5327266,6.67019869 11.9613316,5.83901036 12.4876176,5.5337085 C12.5771301,5.48215884 12.5751321,5.35508294 12.4864187,5.30273406 L8.76045737,3.13245347 C8.65575962,3.07091357 8.52628606,3.07091357 8.42118869,3.13245347 C8.34326481,3.17800899 8.28731944,3.25273601 8.26374244,3.3382525 C8.25654944,3.36622519 8.25255337,3.39539669 8.25255337,3.42496782 L8.25255337,4.75726675 Z M7.65313869,3.13285308 C7.54764175,3.07131319 7.41856781,3.07131319 7.31347044,3.13285308 L3.58591064,5.30473211 C3.49799649,5.35588216 3.49639806,5.48056041 3.58311337,5.53211006 C4.11099786,5.83861075 5.54759493,6.6733955 6.07587906,6.98109506 C6.16419279,7.03224506 6.27408544,6.96790794 6.27408544,6.86560781 L6.27408544,5.93451708 C6.27408544,5.93291864 6.27448506,5.93211942 6.27448506,5.93052099 L6.27448506,5.85979006 L6.32923163,5.82822089 C6.33322775,5.82542362 6.336025,5.82182714 6.34002106,5.81982908 L7.58680356,5.09373816 C7.695897,5.0298006 7.7742205,4.92630167 7.80658888,4.80681836 C7.81697869,4.76725699 7.82257325,4.72609719 7.82257325,4.68413816 L7.82257325,3.42896391 C7.82257325,3.30668333 7.7578365,3.19359377 7.65313869,3.13285308 Z M7.58001013,8.39051869 L4.95137718,6.8588145 L3.24344508,5.86418577 C3.13834771,5.80264586 3.00927376,5.80264586 2.90417639,5.86418577 C2.79907903,5.92492646 2.73434225,6.03801601 2.73434225,6.15989697 L2.73434225,7.49099706 C2.73434225,7.61367725 2.79907903,7.72676687 2.90417639,7.78830675 L4.28243044,8.59072312 L4.28243044,12.074521 C4.28243044,12.1972012 4.34716722,12.3102907 4.45186498,12.3714311 L5.30503181,12.8685456 C5.35738069,12.8977171 5.41612332,12.9137014 5.47446635,12.9137014 C5.53320898,12.9137014 5.59155201,12.8977171 5.64430049,12.8685456 C5.72222439,12.8225905 5.77737054,12.7482631 5.80134713,12.6631462 C5.8085401,12.6351734 5.81253621,12.6052027 5.81253621,12.575232 L5.81253621,9.48425056 L5.81373503,9.48504981 L5.81373503,9.48345131 L7.24034181,10.3150392 C7.24154069,10.3158385 7.24233994,10.3162381 7.24353869,10.3166376 C7.34783688,10.3757799 7.47531238,10.3753803 7.5796105,10.3154389 C7.68430831,10.2542986 7.74944469,10.1404098 7.74944469,10.0185287 L7.74944469,8.68662944 C7.74944469,8.56514812 7.68430831,8.45165894 7.58001013,8.39051869 Z" fill-rule="evenodd"></path>
</svg>