<svg role="img" aria-label="Firefox" viewBox="0 0 16 16" version="1.1" xmlns="http://www.w3.org/2000/svg" xmlns:xlink="http://www.w3.org/1999/xlink">
    <path d="M15.6066667,7.32 C15.5866667,7.18 15.56,7.09333333 15.56,7.09333333 C15.56,7.09333333 15.5066667,7.16 15.4133333,7.28 C15.3866667,6.94 15.3266667,6.6 15.2333333,6.27333333 C15.1133333,5.86 14.96,5.46 14.7666667,5.08 C14.6466667,4.82666667 14.5066667,4.58 14.34,4.35333333 C14.2533333,4.22 14.18,4.12 14.1666667,4.1 C13.88,3.63333333 13.56,3.35333333 13.18,2.82 C12.94,2.41333333 12.7733333,1.96 12.6933333,1.49333333 C12.5866667,1.77333333 12.5066667,2.06666667 12.4533333,2.36 C12.0733333,1.97333333 11.7333333,1.69333333 11.5333333,1.50666667 C10.5333333,0.573333333 10.6533333,0.0933333333 10.6533333,0.0933333333 C10.6533333,0.0933333333 8.78666667,2.17333333 9.59333333,4.34 C9.87333333,5.07333333 10.3533333,5.72 10.9866667,6.19333333 C11.7666667,6.83333333 12.6066667,7.34 13.0466667,8.64 C12.6933333,7.95333333 12.1533333,7.38666667 11.4933333,6.99333333 C11.6933333,7.46666667 11.7933333,7.96666667 11.7866667,8.48 C11.7866667,10.4266667 10.2066667,12.0066667 8.25333333,12.0066667 C7.99333333,12.0066667 7.72666667,11.98 7.47333333,11.92 C7.16666667,11.86 6.87333333,11.76 6.6,11.62 C6.18666667,11.3733333 5.82666667,11.0466667 5.54666667,10.6533333 L5.54666667,10.6466667 C5.58,10.66 5.6,10.6666667 5.60666667,10.6666667 C5.75333333,10.72 5.9,10.76 6.05333333,10.7866667 C6.65333333,10.9133333 7.27333333,10.84 7.82666667,10.58 C8.38666667,10.2666667 8.72666667,10.04 9,10.1266667 C9.27333333,10.2133333 9.48,9.95333333 9.29333333,9.68 C8.96,9.24666667 8.41333333,9.04 7.88,9.13333333 C7.32,9.21333333 6.80666667,9.60666667 6.08,9.22666667 C6.02666667,9.2 5.98666667,9.17333333 5.94,9.14666667 C5.89333333,9.11333333 6.1,9.18666667 6.04666667,9.15333333 C5.88666667,9.07333333 5.73333333,8.98666667 5.58666667,8.88 C5.58,8.87333333 5.7,8.91333333 5.68666667,8.90666667 C5.5,8.78 5.33333333,8.61333333 5.20666667,8.42 C5.08,8.18666667 5.06666667,7.9 5.17333333,7.65333333 C5.24666667,7.52666667 5.34666667,7.43333333 5.47333333,7.37333333 C5.56666667,7.42 5.62666667,7.45333333 5.62666667,7.45333333 C5.62666667,7.45333333 5.58,7.37333333 5.56,7.33333333 C5.56666667,7.32666667 5.57333333,7.33333333 5.58666667,7.32666667 C5.66666667,7.36 5.84666667,7.45333333 5.94666667,7.51333333 C6.01333333,7.54666667 6.06666667,7.6 6.11333333,7.66 C6.11333333,7.66 6.14666667,7.64666667 6.12,7.57333333 C6.08666667,7.48666667 6.02666667,7.41333333 5.94666667,7.36666667 L5.96,7.36666667 C6.03333333,7.40666667 6.1,7.44666667 6.16666667,7.5 C6.22666667,7.35333333 6.26,7.20666667 6.25333333,7.05333333 C6.26,6.96666667 6.24666667,6.88 6.22,6.80666667 C6.19333333,6.75333333 6.23333333,6.73333333 6.28,6.78666667 C6.27333333,6.74666667 6.26,6.70666667 6.24,6.66666667 C6.24,6.66666667 6.26666667,6.62666667 6.28,6.62 C6.31333333,6.58666667 6.34666667,6.55333333 6.38666667,6.53333333 C6.62,6.38666667 6.86,6.26 7.11333333,6.16 C7.32,6.07333333 7.48666667,6 7.52,5.98 C7.57333333,5.94666667 7.62,5.91333333 7.66666667,5.87333333 C7.84,5.72666667 7.95333333,5.52666667 7.99333333,5.30666667 C8,5.27333333 8,5.24666667 8,5.22 L8,5.16666667 C7.97333333,5.05333333 7.78,4.97333333 6.77333333,4.87333333 C6.42,4.82 6.13333333,4.55333333 6.05333333,4.2 L6.05333333,4.20666667 C6.04,4.24 6.02666667,4.28 6.01333333,4.32 C6.02666667,4.28 6.04,4.24666667 6.05333333,4.20666667 L6.05333333,4.2 C6.24666667,3.7 6.59333333,3.26666667 7.04,2.97333333 C7.06666667,2.95333333 6.94,2.98 6.96666667,2.96 C7.04666667,2.92 7.13333333,2.88 7.22666667,2.84666667 C7.27333333,2.83333333 7.03333333,2.74 6.82,2.76 C6.69333333,2.76666667 6.56666667,2.8 6.44666667,2.84666667 C6.5,2.80666667 6.64666667,2.75333333 6.61333333,2.75333333 C6.34,2.8 6.08,2.9 5.84666667,3.04 C5.84666667,3.01333333 5.85333333,2.99333333 5.86,2.97333333 C5.67333333,3.05333333 5.50666667,3.18 5.38666667,3.34 L5.38666667,3.25333333 C5.3,3.32 5.22666667,3.39333333 5.15333333,3.47333333 L5.14666667,3.47333333 C4.59333333,3.26 3.99333333,3.20666667 3.40666667,3.32666667 L3.4,3.32 L3.40666667,3.32 C3.28666667,3.22666667 3.18,3.10666667 3.1,2.97333333 L3.09333333,2.98 L3.08,2.96666667 C3.04,2.91333333 3.00666667,2.84666667 2.96666667,2.77333333 C2.93333333,2.72666667 2.90666667,2.66666667 2.87333333,2.60666667 C2.87333333,2.60666667 2.87333333,2.6 2.86666667,2.6 C2.86,2.6 2.84666667,2.66 2.84,2.64 C2.74,2.37333333 2.68666667,2.08666667 2.7,1.80666667 L2.69333333,1.80666667 C2.52666667,1.92 2.4,2.08 2.34,2.27333333 C2.30666667,2.34 2.28666667,2.37333333 2.26666667,2.41333333 L2.26666667,2.39333333 L2.28666667,2.29333333 C2.28,2.3 2.28,2.30666667 2.27333333,2.31333333 C2.22666667,2.36666667 2.18666667,2.42666667 2.15333333,2.49333333 C2.12,2.55333333 2.09333333,2.62 2.07333333,2.68666667 L2.07333333,2.65333333 C2.07333333,2.62666667 2.08,2.58666667 2.07333333,2.6 L2.06666667,2.62 C1.85333333,3.09333333 1.71333333,3.6 1.66666667,4.12 C1.65333333,4.21333333 1.65333333,4.3 1.65333333,4.38666667 L1.65333333,4.4 C1.5,4.56666667 1.36666667,4.74666667 1.24666667,4.94 C0.86,5.59333333 0.573333333,6.3 0.393333333,7.04 C0.52,6.76 0.673333333,6.48666667 0.853333333,6.23333333 C0.506666667,7.10666667 0.333333333,8.02666667 0.333333333,8.96 C0.393333333,8.68666667 0.466666667,8.42 0.553333333,8.15333333 C0.5,9.25333333 0.713333333,10.3533333 1.17333333,11.36 C1.79333333,12.7466667 2.82,13.9133333 4.12666667,14.7 C4.65333333,15.06 5.23333333,15.34 5.84,15.5266667 C5.92,15.5533333 6.00666667,15.5866667 6.08666667,15.6133333 C6.06,15.6 6.04,15.5866667 6.01333333,15.58 C6.73333333,15.7933333 7.48666667,15.9066667 8.24,15.9066667 C10.9133333,15.9066667 11.7933333,14.8866667 11.88,14.7866667 C12.0066667,14.6666667 12.12,14.5266667 12.1933333,14.36 C12.2466667,14.34 12.2933333,14.32 12.3466667,14.2933333 L12.38,14.28 C12.42,14.26 12.44,14.2533333 12.44,14.2533333 C12.8466667,14.06 13.2266667,13.8266667 13.5733333,13.5466667 C14.0933333,13.1733333 14.46,12.6266667 14.62,12.0066667 C14.72,11.78 14.72,11.5333333 14.64,11.3 C14.68,11.2333333 14.7133333,11.1733333 14.72,11.16 C15.2933333,10.24 15.62,9.18666667 15.6666667,8.1 L15.6666667,8.09333333 L15.6666667,8.00666667 C15.6666667,7.78 15.6466667,7.54666667 15.6066667,7.32 Z"></path>
</svg>