<svg role="img" aria-label="Gmail" viewBox="0 0 22 16" version="1.1" xmlns="http://www.w3.org/2000/svg" xmlns:xlink="http://www.w3.org/1999/xlink">
    <path d="M19.6976431,15.9665985 L1.33230676,15.9665985 C0.62018148,15.9665985 0.0204970271,15.3856542 0.0204970271,14.6547888 L0.0204970271,1.38677029 C0.0204970271,0.674645009 0.60144134,0.0749605565 1.33230676,0.0749605565 L19.6976431,0.0749605565 C20.4097684,0.0749605565 21.0094529,0.655904869 21.0094529,1.38677029 L21.0094529,14.6547888 C21.0094529,15.3856542 20.4285085,15.9665985 19.6976431,15.9665985 Z" fill="#575757"></path>
    <path d="M0.0304648453,1.2109033 C0.0542837733,1.00263945 0.130298999,0.798790459 0.264118835,0.618424591 C0.695142035,0.0374802783 1.5384483,-0.0937006953 2.13813275,0.337322505 L10.5149749,6.42786772 L18.9480375,0.262361948 C19.5289819,-0.168661252 20.353548,-0.0374802783 20.7845712,0.562204174 C21.0136585,0.870974037 21.0839296,1.24856426 21.0094529,1.59930989 L21.0094529,14.6735289 C21.0094529,15.3856542 20.4285085,15.9665985 19.6976431,15.9665985 L18.3858334,15.9665985 L18.3858334,3.92270139 L10.4962348,9.65117163 L2.6441165,3.9513353 L2.6441165,15.9665985 L1.33230676,15.9665985 C0.60144134,15.9665985 0.0204970271,15.3856542 0.0204970271,14.6547888 L0.0204970271,1.36803015 C0.0204970271,1.31222824 0.0238835793,1.25992213 0.0304648453,1.2109033 Z" fill="#141414"></path>
</svg>