<svg viewBox="0 0 49 16" version="1.1" xmlns="http://www.w3.org/2000/svg" xmlns:xlink="http://www.w3.org/1999/xlink">
    <g stroke="none" stroke-width="1" fill="none" fill-rule="evenodd">
        <g fill="#000000">
            <path d="M6.02343422,0 L6.4583516,0 C7.96825345,0.0326068232 9.45353734,0.635833052 10.5203158,1.70370651 C10.1264284,2.10314009 9.72433496,2.48627027 9.3386535,2.88570385 C8.73961636,2.34769127 8.01748938,1.93195427 7.2297145,1.78522357 C6.06446416,1.54067239 4.80894795,1.76076845 3.83243534,2.42105662 C2.76565685,3.11395161 2.04352988,4.28779724 1.8876161,5.54315994 C1.71529035,6.78221922 2.06814785,8.08649214 2.88054069,9.04839343 C3.66010958,9.98583959 4.84997789,10.5727624 6.08087614,10.6135209 C7.2297145,10.6787346 8.4277888,10.3282112 9.26479961,9.52934407 C9.92127868,8.96687637 10.2249002,8.11094726 10.3233721,7.27947327 C8.96117804,7.27947327 7.59898398,7.28762498 6.23678992,7.27947327 L6.23678992,5.60022188 L11.9727758,5.60022188 C12.2681913,7.40174886 11.8414799,9.4315236 10.4628739,10.7194931 C9.54380321,11.6324842 8.27187502,12.1704967 6.97532887,12.2764689 C5.71981265,12.3987445 4.4232665,12.162345 3.30725208,11.5591188 C1.96967599,10.8499204 0.902897503,9.65161965 0.37771425,8.24137455 C-0.114645049,6.94525333 -0.122851038,5.47794629 0.336684309,4.17367336 C0.755189713,2.98352432 1.55937657,1.93195427 2.5933311,1.19830075 C3.58625569,0.472798936 4.79253597,0.0733653521 6.02343422,0 Z"></path>
            <path d="M39.1384615,0.492307692 L40.8615385,0.492307692 L40.8615385,12.3056242 C40.2898634,12.3056242 39.7101366,12.3138968 39.1384615,12.2973515 C39.1465133,8.367852 39.1384615,4.43007984 39.1384615,0.492307692 Z"></path>
            <path d="M15.9709232,4.50266645 C17.0382302,4.30004215 18.1944796,4.52698136 19.0758164,5.16727416 C19.8762967,5.7346222 20.4342072,6.62616913 20.6040061,7.59876578 C20.8223189,8.7253569 20.5474065,9.95731265 19.8196971,10.8488596 C19.0353881,11.8457711 17.7497683,12.3806993 16.4964911,12.2996496 C15.3483274,12.2348098 14.2325064,11.6593568 13.553311,10.71918 C12.7851734,9.6817436 12.5992032,8.25526852 13.0196575,7.03952271 C13.4401118,5.7346222 14.6287037,4.73771064 15.9709232,4.50266645 Z M16.213493,6.04261114 C15.7768674,6.15608075 15.3725844,6.40733488 15.0815006,6.76395366 C14.2971917,7.70413042 14.3457056,9.23597014 15.2108712,10.1113071 C15.7040964,10.6138154 16.4479771,10.8488596 17.1352582,10.7110751 C17.7740253,10.5976054 18.3319358,10.1680419 18.6391908,9.60069388 C19.1728444,8.6362022 19.0192168,7.30698678 18.2025652,6.55322438 C17.6769973,6.06692606 16.9088597,5.86430176 16.213493,6.04261114 Z" fill-rule="nonzero"></path>
            <path d="M24.5861252,4.50329374 C25.8079689,4.26814958 27.143096,4.6087032 28.0574558,5.46819565 C29.5463249,6.80608485 29.7081585,9.31158644 28.4377648,10.8521861 C27.6690552,11.8251964 26.4229365,12.3603521 25.1930012,12.3035932 C24.0197077,12.2711595 22.8625975,11.6873533 22.166713,10.7224514 C21.3818201,9.66024847 21.2118948,8.20073298 21.6569372,6.96014482 C22.1019796,5.69523139 23.2671815,4.73032949 24.5861252,4.50329374 Z M24.8288756,6.04389343 C24.3919249,6.1574113 23.987341,6.4087723 23.6960405,6.75743433 C22.9192392,7.68179414 22.951606,9.18996015 23.785049,10.0737779 C24.2786414,10.6008251 25.047351,10.8602945 25.7594188,10.714343 C26.3905698,10.5927167 26.9569874,10.1710789 27.2644712,9.60348953 C27.7904304,8.63047921 27.6366885,7.30069843 26.8113371,6.54661543 C26.285378,6.06011027 25.5166684,5.8655082 24.8288756,6.04389343 Z" fill-rule="nonzero"></path>
            <path d="M31.9510855,4.98131452 C32.8932693,4.38946688 34.1467833,4.22506475 35.1627032,4.73471134 C35.4822264,4.87445314 35.7443993,5.11283622 35.9983793,5.3512193 C36.0065722,5.12927643 35.9983793,4.89911346 36.0065722,4.66895049 C36.5554966,4.67717059 37.1044211,4.66895049 37.6615385,4.67717059 L37.6615385,11.9273042 C37.6533456,13.0205784 37.3747869,14.1796133 36.5882682,14.9769636 C35.7280135,15.856515 34.4089562,16.1277785 33.2209854,15.9469362 C31.9510855,15.7578737 30.8450437,14.8290017 30.3534695,13.6535265 C30.8450437,13.4151435 31.3611965,13.226081 31.8691565,13.0041381 C32.155908,13.6781868 32.7376041,14.2535943 33.4667724,14.385116 C34.1959407,14.5166377 35.0398097,14.3357953 35.514998,13.7275075 C36.022958,13.1027794 36.022958,12.2478884 35.9983793,11.4834185 C35.6215058,11.8533233 35.1872819,12.1821275 34.6629362,12.3054291 C33.5241227,12.6260133 32.2706087,12.2314482 31.3939681,11.4587582 C30.5091347,10.6860682 29.9847889,9.49415281 30.0339463,8.31045752 C30.058525,6.97058021 30.8122721,5.68002354 31.9510855,4.98131452 Z M33.6470163,6.03348811 C33.1472492,6.11568917 32.6802538,6.39517278 32.3607306,6.78151777 C31.5905978,7.70216966 31.5905978,9.17356867 32.3689235,10.0777803 C32.8113402,10.6120872 33.5241227,10.9080111 34.2123265,10.8340301 C34.8595658,10.7682693 35.4576477,10.357264 35.7771709,9.79007663 C36.3179025,8.82832421 36.2277805,7.52132733 35.4986122,6.6828765 C35.0480026,6.16500981 34.3270272,5.91018652 33.6470163,6.03348811 Z" fill-rule="nonzero"></path>
            <path d="M42.8487543,5.39182435 C43.8370809,4.4842486 45.3607511,4.17632111 46.6291036,4.65441905 C47.8315677,5.10010358 48.5975208,6.22646991 48.9846154,7.38524966 C47.1973914,8.11455161 45.4184035,8.8357502 43.6311795,9.56505214 C43.8782612,10.0269434 44.2571197,10.4483178 44.7677551,10.6184883 C45.4842919,10.8696923 46.3408417,10.7805554 46.9420737,10.3105608 C47.1809193,10.132287 47.3703486,9.89728969 47.5515418,9.67039575 C48.0045248,9.97021989 48.4575079,10.2619407 48.9104909,10.5617648 C48.2680786,11.5098573 47.1891554,12.1743324 46.0278716,12.279676 C44.743047,12.4336398 43.3758618,11.9474385 42.5440202,10.9588292 C41.1768351,9.40298504 41.308612,6.79370475 42.8487543,5.39182435 Z M43.7300122,6.89094501 C43.4499863,7.28800941 43.3346815,7.7742107 43.3429176,8.25230864 C44.5371456,7.76610735 45.7313736,7.27990605 46.9256016,6.7856014 C46.7279363,6.33181352 46.2502451,6.05629946 45.7643178,5.98336926 C44.9818926,5.84561223 44.1665231,6.25888333 43.7300122,6.89094501 Z" fill-rule="nonzero"></path>
        </g>
    </g>
</svg>