<svg viewBox="0 0 11 13" version="1.1" xmlns="http://www.w3.org/2000/svg" xmlns:xlink="http://www.w3.org/1999/xlink">
    <path d="M9.02510228,12.6901116 L1.21028545,12.6901116 C0.541828996,12.6901116 0,12.1483285 0,11.4799244 L0,1.21023959 C0,0.541828996 0.541828996,1.98063788e-13 1.21028545,1.98063788e-13 L9.02510228,1.98063788e-13 C9.69346048,1.98063788e-13 10.2354926,0.541828996 10.2354926,1.21023959 L10.2354926,11.4799244 C10.2354926,12.1483285 9.69346048,12.6901116 9.02510228,12.6901116 Z M6.41443296,10.9440311 L6.41443296,5.90439188 C6.41443296,5.90439188 6.74221124,4.6984042 2.37666272,6.39775284 C2.36867644,6.41930072 2.36867644,1.73758976 2.36867644,1.73758976 L3.79506324,1.72883696 L3.79506324,4.72845596 C3.79506324,4.72845596 7.78891876,3.15542684 7.78891876,5.921393 L7.78891876,10.9440442 L6.41443296,10.9440442 L6.41443296,10.9440311 Z M7.22723216,3.54425858 L5.71424104,3.54425858 C6.25883476,2.87840962 6.7518354,1.73757666 6.7518354,1.73757666 L8.31620996,1.73757666 C8.31620996,1.73757666 8.04841724,2.48102162 7.22723216,3.54425858 Z M2.39457454,10.9352783 L2.39457454,8.06535944 L3.82966173,9.50044664 L2.39457454,10.9352783 Z" fill-rule="evenodd"></path>
</svg>