<svg viewBox="0 0 16 16" version="1.1" xmlns="http://www.w3.org/2000/svg" xmlns:xlink="http://www.w3.org/1999/xlink">
    <g stroke="none" stroke-width="1" fill="none" fill-rule="evenodd">
        <g fill="#000000" fill-rule="nonzero">
            <path d="M13.8666875,8.79675 C13.8635232,9.08905548 13.6256664,9.32435136 13.3333437,9.32435136 C13.0410211,9.32435136 12.8031643,9.08905548 12.8,8.79675 L12.8,4 C12.8031643,3.70769452 13.0410211,3.47239864 13.3333437,3.47239864 C13.6256664,3.47239864 13.8635232,3.70769452 13.8666875,4 L13.8666875,8.79675 Z M13.6805625,12.1350625 C13.598125,12.205625 11.6224375,13.8635 8,13.8635 C4.377625,13.8635 2.402,12.2055625 2.3195625,12.135 C2.09596437,11.9432665 2.07008364,11.6065932 2.26175,11.3829375 C2.45298306,11.1596625 2.78886458,11.1333244 3.0125625,11.3240625 C3.043875,11.3503125 4.808125,12.79675 8.0000625,12.79675 C11.2320625,12.79675 12.969,11.339875 12.9861875,11.3251875 C13.209375,11.1335 13.5466875,11.15925 13.73825,11.383 C13.9299825,11.6066108 13.9041558,11.9433096 13.6805625,12.1350625 Z M2.1333125,4 C2.13647682,3.70769452 2.37433364,3.47239864 2.66665625,3.47239864 C2.95897886,3.47239864 3.19683568,3.70769452 3.2,4 L3.2,8.79675 C3.19683568,9.08905548 2.95897886,9.32435136 2.66665625,9.32435136 C2.37433364,9.32435136 2.13647682,9.08905548 2.1333125,8.79675 L2.1333125,4 Z M4.8000625,2.9333125 C4.80452319,2.64195551 5.04198386,2.40810255 5.333375,2.40810255 C5.62476614,2.40810255 5.86222681,2.64195551 5.8666875,2.9333125 L5.8666875,10.058375 C5.86222681,10.349732 5.62476614,10.583585 5.333375,10.583585 C5.04198386,10.583585 4.80452319,10.349732 4.8000625,10.058375 L4.8000625,2.933375 L4.8000625,2.9333125 Z M7.4666875,2.6634375 C7.46667092,2.52198915 7.52285372,2.38632939 7.62287281,2.28631031 C7.72289189,2.18629122 7.85855165,2.13010842 8,2.130125 C8.14145918,2.13009184 8.27713499,2.18626732 8.3771676,2.2862882 C8.47720021,2.38630909 8.53339158,2.52197832 8.533375,2.6634375 L8.533375,10.39675 C8.53021068,10.6890555 8.29235386,10.9243514 8.00003125,10.9243514 C7.70770864,10.9243514 7.46985182,10.6890555 7.4666875,10.39675 L7.4666875,2.6634375 Z M10.133375,2.9333125 C10.1378357,2.64195551 10.3752964,2.40810255 10.6666875,2.40810255 C10.9580786,2.40810255 11.1955393,2.64195551 11.2,2.9333125 L11.2,10.058375 C11.1955393,10.349732 10.9580786,10.583585 10.6666875,10.583585 C10.3752964,10.583585 10.1378357,10.349732 10.133375,10.058375 L10.133375,2.933375 L10.133375,2.9333125 Z M14,0 L2,0 C0.8954375,0 0,0.8954375 0,2 L0,14 C0,15.1045 0.8954375,16 2,16 L14,16 C15.1045625,16 16,15.1045 16,14 L16,2 C16,0.8954375 15.1045625,0 14,0 Z"></path>
        </g>
    </g>
</svg>