<svg viewBox="0 0 17 13" version="1.1" xmlns="http://www.w3.org/2000/svg" xmlns:xlink="http://www.w3.org/1999/xlink">
    <g stroke="none" stroke-width="1" fill="none" fill-rule="evenodd">
        <g fill="#000000">
            <path d="M3.025,4.437 L3.025,6.874 C3.025,7.072 2.993,7.264 2.893,7.438 C2.74033327,7.7075905 2.46705849,7.88704342 2.159,7.92 C1.721,7.982 1.291,7.916 0.874,7.785 C0.616,7.703 0.367,7.591 0.113,7.495 C0.065,7.476 0.066,7.443 0.066,7.404 L0.066,3.024 L0.066,2.214 C0.0736865976,1.24495763 0.743465905,0.407010418 1.687,0.186 C1.861,0.148 2.042,0.129 2.219,0.128 C3.211,0.124 4.203,0.128 5.194,0.128 L5.28,0.128 L5.28,0.214 C5.28,3.724 5.284,7.234 5.277,10.744 C5.27046203,11.7385485 4.56333902,12.5904435 3.587,12.78 C3.436,12.81 3.279,12.822 3.125,12.823 C2.135,12.827 1.146,12.826 0.157,12.827 L0.073,12.827 L0.073,8.376 C0.267,8.415 0.459,8.463 0.654,8.49 C1.013,8.538 1.373,8.588 1.734,8.61 C2.062,8.63 2.394,8.629 2.722,8.612 C3.198,8.588 3.665,8.503 4.09,8.267 C4.556,8.008 4.813,7.609 4.843,7.077 C4.863,6.744 4.857,6.409 4.858,6.075 C4.86,5.559 4.858,5.043 4.86,4.527 C4.86,4.455 4.842,4.433 4.768,4.434 C4.216,4.437 3.664,4.436 3.112,4.437 L3.025,4.437 Z"></path>
            <path d="M5.924,12.824 L5.924,7.956 C5.939,7.962 5.95,7.965 5.958,7.971 C6.343,8.28 6.793,8.437 7.269,8.527 C7.889,8.645 8.513,8.652 9.139,8.602 C9.59052604,8.56112685 10.0386269,8.48861538 10.48,8.385 C10.533,8.374 10.555,8.356 10.555,8.298 C10.551,8.052 10.553,7.805 10.553,7.559 L10.553,7.475 C10.523,7.487 10.503,7.495 10.483,7.505 C10.062,7.71 9.623,7.857 9.156,7.915 C8.746,7.966 8.34,7.967 7.95,7.808 C7.471,7.612 7.209,7.247 7.138,6.741 C7.09526526,6.46826725 7.1178854,6.1892855 7.204,5.927 C7.363,5.46 7.701,5.194 8.166,5.072 C8.496,4.987 8.828,4.995 9.162,5.037 C9.63872278,5.10048957 10.1008697,5.24596774 10.528,5.467 C10.532,5.469 10.537,5.467 10.548,5.467 C10.55,5.448 10.553,5.428 10.553,5.408 C10.553,5.155 10.552,4.901 10.554,4.648 C10.554,4.603 10.543,4.58 10.496,4.568 C9.72,4.388 8.936,4.291 8.138,4.328 C7.634,4.35 7.135,4.415 6.658,4.592 C6.41,4.684 6.178,4.805 5.971,4.972 L5.921,5.004 L5.921,4.912 L5.921,2.238 C5.91990863,1.67545345 6.14392533,1.13585209 6.54311296,0.739482249 C6.9423006,0.34311241 7.48347529,0.122923725 8.046,0.128 C9.052,0.122 10.058,0.125 11.064,0.125 C11.085,0.125 11.106,0.127 11.134,0.129 C11.136,0.159 11.138,0.187 11.138,0.215 C11.138,3.733 11.144,7.25 11.133,10.768 C11.131,11.565 10.734,12.162 10.049,12.562 C9.73634896,12.7410481 9.38124668,12.8325871 9.021,12.827 L5.996,12.827 L5.924,12.824 Z"></path>
            <path d="M11.786,12.826 L11.786,8.514 L11.879,8.514 C12.961,8.514 14.044,8.518 15.126,8.514 C15.455,8.514 15.765,8.431 16.031,8.226 C16.294767,8.03419841 16.4407058,7.71972271 16.4168914,7.39446321 C16.393077,7.06920371 16.2028905,6.77933793 15.914,6.628 C15.6945454,6.51025366 15.4524864,6.44070432 15.204,6.424 C15.323,6.388 15.436,6.363 15.541,6.319 C15.858,6.188 16.075,5.965 16.147,5.619 C16.2336226,5.22832249 16.0518916,4.82737329 15.701,4.635 C15.433,4.483 15.14,4.437 14.839,4.437 C13.854,4.435 12.869,4.437 11.885,4.437 L11.782,4.437 L11.782,4.35 L11.782,2.227 C11.7858601,1.06411655 12.7311134,0.124234007 13.894,0.127 C14.902,0.127 15.91,0.13 16.918,0.129 C16.998,0.129 16.993,0.169 16.993,0.223 L16.993,10.653 C16.989,11.431 16.67,12.046 16.025,12.483 C15.744,12.673 15.429,12.784 15.089,12.809 C14.9008951,12.8204926 14.7124498,12.8254956 14.524,12.824 L11.864,12.826 L11.786,12.826 Z"></path>
            <path d="M12.817,7.84 L12.817,6.74 C12.841,6.739 12.864,6.736 12.887,6.736 C13.271,6.736 13.655,6.735 14.039,6.737 C14.313,6.739 14.522,6.892 14.588,7.132 C14.688,7.497 14.452,7.832 14.068,7.845 C13.658,7.858 13.248,7.847 12.837,7.847 C12.833,7.847 12.829,7.844 12.817,7.839 L12.817,7.84 Z M12.819,6.098 L12.819,5.078 C12.842,5.077 12.862,5.074 12.883,5.074 C13.227,5.074 13.571,5.071 13.914,5.077 C14.0043111,5.07803606 14.0935872,5.09636652 14.177,5.131 C14.395,5.226 14.499,5.448 14.457,5.694 C14.416322,5.92267258 14.2192347,6.0904065 13.987,6.094 C13.601,6.107 13.214,6.098 12.819,6.098 Z" fill-rule="nonzero"></path>
        </g>
    </g>
</svg>