<svg viewBox="0 0 13 16" version="1.1" xmlns="http://www.w3.org/2000/svg" xmlns:xlink="http://www.w3.org/1999/xlink">
    <path d="M6.72192,5.68434189e-16 C6.62272,5.68434189e-16 6.52032,0.00512 6.41536,0.01344 C3.71008,0.22656 4.42752,3.08992 4.38656,4.04416 C4.33728,4.74368 4.19456,5.29472 3.71392,5.9776 C3.14752,6.65024 2.35264,7.7376 1.97568,8.87104 C1.79776,9.40352 1.71328,9.9488 1.792,10.464 C1.76704,10.48576 1.74336,10.50752 1.72096,10.5504 C1.55456,10.72192 1.4336,10.93504 1.29728,11.08736 C1.16992,11.21472 0.98688,11.25824 0.7872,11.34336 C0.58688,11.4304 0.36608,11.51552 0.23424,11.7792 C0.17664,11.89952 0.1472,12.03072 0.14976,12.16384 C0.14976,12.2912 0.16704,12.42048 0.18496,12.50688 C0.22208,12.76224 0.2592,12.97344 0.20992,13.12768 C0.0512,13.56288 0.03136,13.86112 0.14272,14.07808 C0.25408,14.29184 0.48512,14.37824 0.74368,14.46272 C1.26272,14.59072 1.96608,14.54912 2.51968,14.84608 C3.11232,15.14496 3.71392,15.27552 4.19392,15.14688 C4.53056,15.07328 4.81472,14.85056 4.96704,14.54208 C5.34272,14.54016 5.75424,14.36992 6.41344,14.32832 C6.8608,14.2912 7.4208,14.4992 8.06336,14.45568 C8.07936,14.54208 8.10368,14.58304 8.13632,14.66944 L8.13824,14.67136 C8.38848,15.16928 8.85056,15.39584 9.344,15.3568 C9.83744,15.3184 10.36288,15.01376 10.78848,14.52096 C11.19232,14.03136 11.8656,13.8272 12.3104,13.55904 C12.53312,13.43168 12.71296,13.25888 12.72576,13.01312 C12.74048,12.75712 12.5984,12.49344 12.2688,12.13184 L12.2688,12.06976 L12.26688,12.06784 C12.15808,11.93984 12.10688,11.72544 12.05056,11.4752 C11.99616,11.21856 11.93408,10.97216 11.73568,10.80576 L11.73376,10.80576 C11.696,10.7712 11.65504,10.76288 11.61344,10.71936 C11.5776,10.69504 11.536,10.67968 11.49184,10.6784 C11.76768,9.86048 11.6608,9.0464 11.38112,8.31424 C11.04,7.41184 10.44352,6.62592 9.98912,6.08512 C9.47968,5.44192 8.98048,4.83264 8.99008,3.92896 C9.00736,2.55168 9.14176,0.00384 6.72192,5.68434189e-16 Z M7.06048,2.1792 L7.0688,2.1792 C7.20512,2.1792 7.32224,2.21888 7.44256,2.30592 C7.5648,2.39232 7.65376,2.5184 7.72352,2.64704 C7.79072,2.8128 7.82464,2.9408 7.82976,3.1104 C7.82976,3.0976 7.8336,3.0848 7.8336,3.07264 L7.8336,3.1392 C7.83232,3.13472 7.83104,3.1296 7.83104,3.12576 L7.82848,3.1104 C7.8272,3.26592 7.79456,3.41952 7.73248,3.56224 C7.7024,3.64224 7.65632,3.71584 7.59616,3.77664 C7.5776,3.7664 7.55968,3.75744 7.53984,3.74976 C7.47264,3.72096 7.41248,3.7088 7.35744,3.66464 C7.312,3.64672 7.26464,3.632 7.21728,3.6224 C7.24864,3.58464 7.31008,3.53728 7.33376,3.49568 C7.36768,3.41376 7.38624,3.32672 7.39008,3.2384 L7.39008,3.22624 C7.39136,3.13984 7.37856,3.0528 7.35104,2.97024 C7.32224,2.88384 7.2864,2.8416 7.23392,2.75648 C7.18016,2.71424 7.12704,2.672 7.06304,2.672 L7.0528,2.672 C6.99328,2.672 6.94016,2.6912 6.88512,2.75648 C6.82432,2.81664 6.77888,2.88896 6.75392,2.97024 C6.72,3.05152 6.70016,3.1392 6.69632,3.22624 L6.69632,3.2384 C6.6976,3.29536 6.70144,3.35296 6.70912,3.40928 C6.5856,3.3664 6.4288,3.32288 6.32064,3.28 C6.31424,3.2384 6.3104,3.19552 6.30912,3.15264 L6.30912,3.13984 C6.304,2.97088 6.33664,2.8032 6.40512,2.64768 C6.4576,2.50752 6.5536,2.38784 6.68032,2.30656 C6.78976,2.224 6.92288,2.1792 7.06048,2.1792 Z M5.1648,2.21696 L5.18784,2.21696 C5.27872,2.21696 5.36064,2.24768 5.4432,2.30336 C5.53664,2.38592 5.61216,2.48768 5.66336,2.60096 C5.72096,2.72832 5.7536,2.8576 5.76128,3.02784 L5.76128,3.0304 C5.76576,3.11616 5.76512,3.15904 5.76,3.20064 L5.76,3.25184 C5.7408,3.25632 5.72416,3.26336 5.70688,3.2672 C5.6096,3.3024 5.53152,3.3536 5.45536,3.3952 C5.46304,3.33824 5.46368,3.28064 5.45728,3.22432 L5.45728,3.21472 C5.4496,3.1296 5.43232,3.08736 5.4048,3.0016 C5.38496,2.93632 5.34848,2.87808 5.29856,2.83072 C5.2672,2.80192 5.22496,2.7872 5.18144,2.78976 L5.168,2.78976 C5.12256,2.7936 5.0848,2.816 5.04896,2.87424 C5.008,2.92352 4.98176,2.98368 4.97216,3.04704 C4.95488,3.11616 4.94976,3.1872 4.95744,3.25888 L4.95744,3.26784 C4.96512,3.35424 4.98112,3.39648 5.00928,3.4816 C5.03808,3.56736 5.07136,3.6096 5.11488,3.65312 C5.12192,3.65888 5.12832,3.66464 5.13664,3.66848 C5.09184,3.70496 5.06176,3.71328 5.024,3.75552 C5.00032,3.77344 4.9728,3.79392 4.94016,3.79904 C4.8736,3.71904 4.81472,3.63264 4.76416,3.54176 C4.70272,3.40736 4.67072,3.26144 4.66496,3.11488 C4.65408,2.97024 4.672,2.8256 4.71616,2.68736 C4.75136,2.56128 4.81344,2.4448 4.89728,2.34496 C4.9792,2.25984 5.06368,2.21696 5.1648,2.21696 Z M6.04224,3.3088 C6.25408,3.3088 6.51072,3.3504 6.81984,3.56416 C7.00736,3.69216 7.15456,3.73632 7.49376,3.86368 L7.49568,3.86368 C7.65888,3.95072 7.75488,4.03392 7.8016,4.11904 L7.8016,4.0352 C7.84832,4.12928 7.85152,4.23872 7.81184,4.336 C7.73312,4.53504 7.4816,4.74816 7.13088,4.87552 L7.13088,4.8768 C6.95936,4.9632 6.81024,5.08992 6.63488,5.1744 C6.45824,5.2608 6.25856,5.36128 5.9872,5.34528 C5.88992,5.3504 5.792,5.33568 5.70048,5.3024 C5.63008,5.264 5.56096,5.22176 5.4944,5.17568 C5.3696,5.08928 5.26208,4.9632 5.10272,4.87808 L5.10272,4.87488 L5.09952,4.87488 C4.84352,4.71744 4.70528,4.5472 4.66048,4.41984 C4.61632,4.24832 4.65728,4.11968 4.784,4.03584 C4.92736,3.94944 5.0272,3.8624 5.09312,3.8208 C5.15968,3.77344 5.18464,3.75552 5.20576,3.73696 L5.20704,3.73696 L5.20704,3.73504 C5.3152,3.60576 5.48608,3.43488 5.744,3.3504 C5.83296,3.32736 5.93216,3.3088 6.04224,3.3088 Z M7.8336,4.68032 C8.06336,5.5872 8.59968,6.90432 8.94464,7.54304 C9.12768,7.8848 9.49184,8.6048 9.64992,9.4784 C9.74976,9.4752 9.86048,9.48992 9.97824,9.51936 C10.39168,8.44992 9.6288,7.30048 9.28128,6.98112 C9.13984,6.85248 9.1328,6.76672 9.20256,6.76672 C9.57952,7.10848 10.07616,7.7728 10.256,8.5312 C10.33856,8.8736 10.35776,9.23776 10.26944,9.6 C10.31232,9.61792 10.35584,9.63904 10.40064,9.64288 C11.06112,9.98464 11.30496,10.2432 11.18784,10.62656 L11.18784,10.59904 C11.1488,10.59712 11.11104,10.59904 11.072,10.59904 L11.0624,10.59904 C11.15904,10.30016 10.94592,10.07104 10.3808,9.81568 C9.7952,9.55968 9.32736,9.60064 9.24736,10.11328 C9.24288,10.1408 9.23968,10.15552 9.23648,10.19968 C9.19296,10.2144 9.14752,10.2336 9.10272,10.24064 C8.82752,10.41216 8.67904,10.6688 8.5952,11.00032 C8.512,11.34144 8.4864,11.74016 8.464,12.19648 L8.464,12.1984 C8.45056,12.41216 8.35456,12.73472 8.25984,13.06304 C7.29984,13.74912 5.96864,14.04736 4.83648,13.2768 C4.76544,13.15328 4.67904,13.03744 4.5792,12.93568 C4.53184,12.85568 4.47168,12.784 4.4032,12.72192 C4.51968,12.72192 4.61952,12.70336 4.7008,12.67904 C4.7936,12.63616 4.86528,12.55872 4.90176,12.46528 C4.97088,12.2944 4.90176,12.0192 4.68096,11.72096 C4.46016,11.42208 4.08512,11.08416 3.53664,10.74752 C3.13344,10.49216 2.9056,10.19072 2.80064,9.85408 C2.69504,9.51232 2.70912,9.15968 2.79104,8.80128 C2.94784,8.11648 3.34976,7.45088 3.6064,7.03296 C3.67488,6.99136 3.63008,7.11936 3.34528,7.65632 C3.09184,8.13696 2.61504,9.2544 3.2672,10.12288 C3.29152,9.48992 3.43232,8.86528 3.68128,8.28224 C4.04224,7.46432 4.7968,6.03968 4.85632,4.91072 C4.88704,4.93376 4.9952,4.99712 5.04128,5.04 C5.1808,5.12512 5.28448,5.25312 5.41888,5.3376 C5.55392,5.46624 5.72416,5.552 5.97952,5.552 C6.00448,5.55392 6.02752,5.55584 6.05056,5.55584 C6.3136,5.55584 6.51712,5.47008 6.688,5.38432 C6.8736,5.29856 7.02144,5.17056 7.1616,5.12832 L7.1648,5.12832 C7.46368,5.04192 7.69984,4.87104 7.8336,4.68032 Z M9.23264,10.41344 C9.25632,10.79808 9.45216,11.21024 9.79712,11.29472 C10.17344,11.38048 10.71488,11.0816 10.94336,10.80512 L11.0784,10.79936 C11.28,10.79424 11.44768,10.80576 11.62048,10.97024 L11.6224,10.97216 C11.75552,11.09952 11.8176,11.312 11.87264,11.5328 C11.92704,11.78944 11.9712,12.032 12.1344,12.21504 C12.44544,12.55232 12.5472,12.79488 12.54144,12.94464 L12.54336,12.9408 L12.54336,12.95232 L12.54144,12.94464 C12.53184,13.11232 12.42304,13.19808 12.22272,13.32544 C11.81952,13.58208 11.10528,13.78112 10.65024,14.33024 C10.25472,14.80192 9.7728,15.0592 9.3472,15.09248 C8.92224,15.1264 8.55552,14.96448 8.33984,14.51776 L8.33664,14.51584 C8.20224,14.2592 8.25984,13.85984 8.37248,13.43424 C8.48512,13.00672 8.6464,12.57344 8.6688,12.21952 C8.69248,11.76256 8.71744,11.36512 8.7936,11.05856 C8.8704,10.76096 8.99072,10.54848 9.20384,10.4288 L9.23264,10.41472 L9.23264,10.41344 Z M2.31104,10.4448 L2.31744,10.4448 C2.35136,10.4448 2.38464,10.448 2.41792,10.45376 C2.65856,10.48896 2.86976,10.66688 3.07264,10.93504 L3.65504,12 L3.65696,12.00192 C3.81248,12.34304 4.13952,12.68288 4.41792,13.05024 C4.69568,13.43296 4.91072,13.77408 4.88448,14.05504 L4.88448,14.05888 C4.848,14.53504 4.57792,14.7936 4.16448,14.88704 C3.75168,14.97344 3.19168,14.88832 2.63168,14.59008 C2.01216,14.24704 1.27616,14.28992 0.8032,14.2048 C0.56704,14.16256 0.41216,14.07616 0.34048,13.94816 C0.26944,13.8208 0.26816,13.56352 0.4192,13.16096 L0.4192,13.15904 L0.42048,13.15712 C0.49536,12.94336 0.43968,12.6752 0.4032,12.44096 C0.368,12.18432 0.35008,11.9872 0.43072,11.83936 C0.53312,11.6256 0.68416,11.584 0.87168,11.49824 C1.06048,11.41184 1.28192,11.36896 1.45792,11.19808 L1.4592,11.19808 L1.4592,11.19616 C1.62304,11.02464 1.744,10.81152 1.88672,10.65984 C2.00832,10.5312 2.12992,10.4448 2.31104,10.4448 Z M6.8928,4.63744 C6.6144,4.76608 6.288,4.97984 5.94048,4.97984 C5.5936,4.97984 5.31968,4.80896 5.12192,4.6816 C5.02272,4.59584 4.94272,4.51008 4.88256,4.4672 C4.7776,4.38144 4.7904,4.25344 4.8352,4.25344 C4.90496,4.26368 4.91776,4.33984 4.96256,4.38208 C5.024,4.42432 5.10016,4.50944 5.1936,4.5952 C5.37984,4.7232 5.6288,4.89408 5.93984,4.89408 C6.25024,4.89408 6.61376,4.7232 6.83456,4.59584 C6.95936,4.50944 7.11936,4.38208 7.24928,4.29696 C7.34912,4.20928 7.34464,4.12544 7.42784,4.12544 C7.5104,4.13568 7.4496,4.2112 7.33376,4.33856 C7.21792,4.42496 7.03872,4.55296 6.89216,4.63808 L6.89216,4.63744 L6.8928,4.63744 Z M6.20032,3.62368 L6.20032,3.6096 C6.19648,3.59744 6.20864,3.58272 6.21888,3.5776 C6.26624,3.55008 6.33408,3.56032 6.38528,3.58016 C6.4256,3.58016 6.48768,3.62304 6.48128,3.66656 C6.47744,3.69792 6.42688,3.7088 6.39488,3.7088 C6.35968,3.7088 6.336,3.68128 6.30464,3.66528 C6.27136,3.65376 6.2112,3.66016 6.20032,3.62368 Z M5.84768,3.62368 C5.83488,3.6608 5.77536,3.65504 5.74144,3.66592 C5.71136,3.68192 5.6864,3.70944 5.65248,3.70944 C5.61984,3.70944 5.56864,3.69728 5.5648,3.66592 C5.55904,3.62368 5.62112,3.5808 5.6608,3.5808 C5.71264,3.56096 5.77856,3.55072 5.82656,3.5776 C5.83872,3.58336 5.8496,3.5968 5.84576,3.6096 L5.84576,3.62304 L5.84768,3.62304 L5.84768,3.62368 Z"></path>
</svg>