
<svg viewBox="0 0 31 24" version="1.1" xmlns="http://www.w3.org/2000/svg" xmlns:xlink="http://www.w3.org/1999/xlink">
    <path d="M5.63076923,23.8048352 L5.63076923,22.2224176 C5.64942596,21.9531943 5.551335,21.6889607 5.36152118,21.4971276 C5.17170736,21.3052945 4.90852648,21.2044129 4.63912088,21.2202198 C4.28408812,21.1969445 3.94452647,21.3687465 3.75296703,21.6685714 C3.5783198,21.377686 3.25853494,21.2056498 2.91956044,21.2202198 C2.62441777,21.2052994 2.34344481,21.3477929 2.1810989,21.5947253 L2.1810989,21.2835165 L1.63252747,21.2835165 L1.63252747,23.8048352 L2.18637363,23.8048352 L2.18637363,22.4175824 C2.16252089,22.2430128 2.21783147,22.0669074 2.33721158,21.9373238 C2.45659169,21.8077403 2.62758045,21.7382046 2.80351648,21.7476923 C3.16747253,21.7476923 3.35208791,21.9850549 3.35208791,22.4123077 L3.35208791,23.8153846 L3.90593407,23.8153846 L3.90593407,22.4175824 C3.88306011,22.2432113 3.93870889,22.0676765 4.05786767,21.9383332 C4.17702644,21.8089899 4.34741884,21.7391638 4.52307692,21.7476923 C4.89758242,21.7476923 5.07692308,21.9850549 5.07692308,22.4123077 L5.07692308,23.8153846 L5.63076923,23.8048352 Z M13.8250549,21.2835165 L12.9230769,21.2835165 L12.9230769,20.5186813 L12.3692308,20.5186813 L12.3692308,21.2835165 L11.8681319,21.2835165 L11.8681319,21.7846154 L12.3797802,21.7846154 L12.3797802,22.9450549 C12.3797802,23.5305495 12.6065934,23.8786813 13.2553846,23.8786813 C13.4977737,23.8794955 13.7354658,23.8118447 13.9410989,23.6835165 L13.7828571,23.2140659 C13.6357459,23.3018135 13.4687818,23.3508139 13.2975824,23.3564835 C13.0338462,23.3564835 12.9336264,23.1876923 12.9336264,22.9345055 L12.9336264,21.7846154 L13.8303297,21.7846154 L13.8250549,21.2835165 Z M18.5037363,21.2202198 C18.2312749,21.2122068 17.9762592,21.3538822 17.8391209,21.5894505 L17.8391209,21.2835165 L17.2958242,21.2835165 L17.2958242,23.8048352 L17.8443956,23.8048352 L17.8443956,22.3912088 C17.8443956,21.9745055 18.0237363,21.7424176 18.3718681,21.7424176 C18.4892002,21.7408126 18.6057007,21.7623204 18.7147253,21.8057143 L18.8835165,21.2782418 C18.7582344,21.2334235 18.6262431,21.2102358 18.4931868,21.2096703 L18.5037363,21.2202198 Z M11.4303297,21.483956 C11.1198132,21.2993346 10.7628,21.2077927 10.4017582,21.2202198 C9.76351648,21.2202198 9.34681319,21.5261538 9.34681319,22.0272527 C9.34681319,22.4386813 9.65274725,22.6918681 10.2171429,22.770989 L10.4808791,22.8079121 C10.7815385,22.8501099 10.923956,22.9292308 10.923956,23.0716484 C10.923956,23.2668132 10.7235165,23.3775824 10.349011,23.3775824 C10.0477721,23.3863021 9.75236129,23.2934056 9.51032967,23.1138462 L9.24659341,23.5410989 C9.56613992,23.7642173 9.94887606,23.8788533 10.3384615,23.8681319 C11.0663736,23.8681319 11.4883516,23.5252747 11.4883516,23.0452747 C11.4883516,22.5652747 11.156044,22.3701099 10.6074725,22.290989 L10.3437363,22.2540659 C10.1063736,22.2224176 9.91648352,22.1749451 9.91648352,22.0061538 C9.91648352,21.8373626 10.0958242,21.7107692 10.3964835,21.7107692 C10.674376,21.7139974 10.9467945,21.7884584 11.1876923,21.927033 L11.4303297,21.483956 Z M26.1230769,21.2202198 C25.8506156,21.2122068 25.5955999,21.3538822 25.4584615,21.5894505 L25.4584615,21.2835165 L24.9151648,21.2835165 L24.9151648,23.8048352 L25.4637363,23.8048352 L25.4637363,22.3912088 C25.4637363,21.9745055 25.6430769,21.7424176 25.9912088,21.7424176 C26.1085409,21.7408126 26.2250413,21.7623204 26.3340659,21.8057143 L26.5028571,21.2782418 C26.377575,21.2334235 26.2455837,21.2102358 26.1125275,21.2096703 L26.1230769,21.2202198 Z M19.0549451,22.5389011 C19.0417524,22.8971696 19.1801419,23.2444121 19.4361452,23.4953957 C19.6921484,23.7463792 20.0420629,23.8778662 20.4,23.8575824 C20.7293746,23.8743402 21.0530727,23.7670681 21.3072527,23.5569231 L21.0435165,23.1138462 C20.8538825,23.2584557 20.6226416,23.3380025 20.3841758,23.3406593 C19.9637013,23.3066382 19.6398035,22.955475 19.6398035,22.5336264 C19.6398035,22.1117777 19.9637013,21.7606145 20.3841758,21.7265934 C20.6226416,21.7292502 20.8538825,21.8087971 21.0435165,21.9534066 L21.3072527,21.5103297 C21.0530727,21.3001846 20.7293746,21.1929126 20.4,21.2096703 C20.0420629,21.1893865 19.6921484,21.3208735 19.4361452,21.5718571 C19.1801419,21.8228406 19.0417524,22.1700831 19.0549451,22.5283516 L19.0549451,22.5389011 Z M24.1925275,22.5389011 L24.1925275,21.2835165 L23.643956,21.2835165 L23.643956,21.5894505 C23.4549635,21.3462725 23.1605212,21.2088661 22.8527473,21.2202198 C22.1244597,21.2202198 21.5340659,21.8106135 21.5340659,22.5389011 C21.5340659,23.2671887 22.1244597,23.8575824 22.8527473,23.8575824 C23.1605212,23.8689361 23.4549635,23.7315297 23.643956,23.4883516 L23.643956,23.7942857 L24.1925275,23.7942857 L24.1925275,22.5389011 Z M22.1512088,22.5389011 C22.1756031,22.1250115 22.5263583,21.8065341 22.9406744,21.8220851 C23.3549905,21.837636 23.680885,22.1815109 23.6741844,22.5960646 C23.6674839,23.0106183 23.3306462,23.3437812 22.916044,23.3459341 C22.7049334,23.3486053 22.5023009,23.2629832 22.3570714,23.109741 C22.2118418,22.9564987 22.1372148,22.7495643 22.1512088,22.5389011 Z M15.5314286,21.2202198 C14.803141,21.2304158 14.2210128,21.8290751 14.2312088,22.5573626 C14.2414048,23.2856502 14.8400641,23.8677784 15.5683516,23.8575824 C15.9477994,23.877059 16.3209509,23.7548684 16.6153846,23.5147253 L16.3516484,23.1085714 C16.1433922,23.27559 15.8853895,23.3683967 15.6184615,23.3723077 C15.2414153,23.4047341 14.9070541,23.1311659 14.8641758,22.7551648 L16.7367033,22.7551648 C16.7367033,22.6865934 16.7367033,22.618022 16.7367033,22.5441758 C16.7367033,21.752967 16.2461538,21.2254945 15.5393407,21.2254945 L15.5314286,21.2202198 Z M15.5314286,21.7107692 C15.697214,21.7072347 15.8576097,21.7697221 15.9773114,21.8844775 C16.0970131,21.9992329 16.1662096,22.1568504 16.1696703,22.3226374 L14.850989,22.3226374 C14.8708558,21.9705029 15.1683899,21.6987395 15.5208791,21.7107692 L15.5314286,21.7107692 Z M29.2747253,22.5441758 L29.2747253,20.2707692 L28.7472527,20.2707692 L28.7472527,21.5894505 C28.5582602,21.3462725 28.2638179,21.2088661 27.956044,21.2202198 C27.2277564,21.2202198 26.6373626,21.8106135 26.6373626,22.5389011 C26.6373626,23.2671887 27.2277564,23.8575824 27.956044,23.8575824 C28.2638179,23.8689361 28.5582602,23.7315297 28.7472527,23.4883516 L28.7472527,23.7942857 L29.2747253,23.7942857 L29.2747253,22.5441758 Z M30.1898901,23.4382418 C30.2241792,23.4378217 30.2582212,23.4440925 30.2901099,23.4567033 C30.3203981,23.469063 30.3481225,23.4869498 30.3718681,23.5094505 C30.3950424,23.5321903 30.4138187,23.5590135 30.4272527,23.5885714 C30.4542491,23.6508257 30.4542491,23.721482 30.4272527,23.7837363 C30.4138187,23.8132942 30.3950424,23.8401174 30.3718681,23.8628571 C30.3481225,23.8853579 30.3203981,23.9032446 30.2901099,23.9156044 C30.258536,23.9295363 30.2244011,23.9367226 30.1898901,23.9367033 C30.0878373,23.9359341 29.995388,23.8763556 29.9525275,23.7837363 C29.9258437,23.7214176 29.9258437,23.6508901 29.9525275,23.5885714 C29.9659615,23.5590135 29.9847378,23.5321903 30.0079121,23.5094505 C30.0316577,23.4869498 30.0593821,23.469063 30.0896703,23.4567033 C30.124022,23.4430387 30.1608627,23.4367488 30.1978022,23.4382418 L30.1898901,23.4382418 Z M30.1898901,23.883956 C30.2162135,23.884116 30.2422748,23.878724 30.2663736,23.8681319 C30.2890645,23.8580011 30.3096433,23.8436854 30.327033,23.8259341 C30.395419,23.7513212 30.395419,23.6368107 30.327033,23.5621978 C30.3096848,23.5443975 30.289096,23.5300749 30.2663736,23.52 C30.242251,23.5094826 30.2162057,23.5040939 30.1898901,23.5041758 C30.1635973,23.5043148 30.137596,23.5096943 30.1134066,23.52 C30.0897111,23.5297161 30.0681922,23.544062 30.0501099,23.5621978 C29.9817239,23.6368107 29.9817239,23.7513212 30.0501099,23.8259341 C30.0682366,23.8440157 30.089744,23.858354 30.1134066,23.8681319 C30.1400149,23.8796065 30.1688444,23.885012 30.1978022,23.883956 L30.1898901,23.883956 Z M30.2057143,23.5701099 C30.2303344,23.5689159 30.2545954,23.5763809 30.2742857,23.5912088 C30.2906644,23.6047638 30.2995019,23.6253847 30.298022,23.6465934 C30.2987876,23.6643047 30.2920907,23.6815253 30.2795604,23.6940659 C30.2642738,23.7079506 30.2447727,23.7163082 30.2241758,23.7178022 L30.3006593,23.8048352 L30.24,23.8048352 L30.1687912,23.7178022 L30.1450549,23.7178022 L30.1450549,23.8048352 L30.0949451,23.8048352 L30.0949451,23.5727473 L30.2057143,23.5701099 Z M30.1476923,23.6149451 L30.1476923,23.6782418 L30.2057143,23.6782418 C30.2160392,23.68132 30.2270377,23.68132 30.2373626,23.6782418 C30.2411243,23.6707768 30.2411243,23.6619705 30.2373626,23.6545055 C30.2411243,23.6470405 30.2411243,23.6382342 30.2373626,23.6307692 C30.2270377,23.6276909 30.2160392,23.6276909 30.2057143,23.6307692 L30.1476923,23.6149451 Z M27.2465934,22.5441758 C27.2709877,22.1302862 27.6217429,21.8118088 28.036059,21.8273598 C28.4503752,21.8429108 28.7762696,22.1867856 28.769569,22.6013393 C28.7628685,23.015893 28.4260308,23.3490559 28.0114286,23.3512088 C27.800318,23.35388 27.5976855,23.2682579 27.452456,23.1150157 C27.3072264,22.9617735 27.2325994,22.754839 27.2465934,22.5441758 Z M8.7243956,22.5441758 L8.7243956,21.2835165 L8.17582418,21.2835165 L8.17582418,21.5894505 C7.98683165,21.3462725 7.69238935,21.2088661 7.38461538,21.2202198 C6.6563278,21.2202198 6.06593407,21.8106135 6.06593407,22.5389011 C6.06593407,23.2671887 6.6563278,23.8575824 7.38461538,23.8575824 C7.69238935,23.8689361 7.98683165,23.7315297 8.17582418,23.4883516 L8.17582418,23.7942857 L8.7243956,23.7942857 L8.7243956,22.5441758 Z M6.68307692,22.5441758 C6.70747121,22.1302862 7.05822644,21.8118088 7.47254256,21.8273598 C7.88685867,21.8429108 8.21275312,22.1867856 8.20605255,22.6013393 C8.19935199,23.015893 7.86251436,23.3490559 7.44791209,23.3512088 C7.23589174,23.3553712 7.03184859,23.2704018 6.88544932,23.1169834 C6.73905006,22.963565 6.66372245,22.7557691 6.6778022,22.5441758 L6.68307692,22.5441758 Z"></path>
    <path d="M29.8575824,15.5452451 L29.8575824,15.1338976 L29.9815385,15.1338976 L29.9815385,15.0487912 L29.6676923,15.0487912 L29.6676923,15.1338976 L29.8021978,15.1338976 L29.8021978,15.5452451 L29.8575824,15.5452451 Z M30.4668132,15.5452451 L30.4668132,15.0487912 L30.3718681,15.0487912 L30.2610989,15.4034011 L30.1503297,15.0487912 L30.0659341,15.0487912 L30.0659341,15.5452451 L30.1345055,15.5452451 L30.1345055,15.1729047 L30.2373626,15.4955997 L30.3085714,15.4955997 L30.4114286,15.1729047 L30.4114286,15.5487912 L30.4668132,15.5452451 Z"></path>
    <path d="M14.651375,17.2269568 C14.7262917,17.2897307 14.806375,17.3525046 14.8851667,17.4139974 C13.364875,18.417099 11.53975,18.9999997 9.58029167,18.9999997 C4.28833333,19.0012808 0,14.7480276 0,9.50064041 C0,4.25453436 4.28833333,0 9.579,0 C11.53975,0 13.364875,0.584181773 14.8812917,1.58600227 C14.8037917,1.65133839 14.7262917,1.71155011 14.6681667,1.77816733 C12.4,3.7215966 11.101875,6.53873633 11.101875,9.50064041 C11.101875,12.4612634 12.3948333,15.2784031 14.651375,17.2269568 Z M21.421,0 C19.4576667,0 17.635125,0.584181773 16.1187083,1.58600227 C16.1962083,1.65133839 16.2737083,1.71155011 16.3318333,1.77816733 C18.6,3.7215966 19.898125,6.53873633 19.898125,9.50064041 C19.898125,12.4599823 18.6051667,15.2745598 16.348625,17.2269568 C16.2737083,17.2897307 16.193625,17.3525046 16.1148333,17.4139974 C17.635125,18.417099 19.4576667,18.9999997 21.4197083,18.9999997 C26.7116667,19.0012808 31,14.7480276 31,9.50064041 C31,4.25581546 26.7116667,0 21.421,0 Z M15.5,2.0369496 C15.376,2.13303213 15.255875,2.22911466 15.1383333,2.33288379 C13.1181667,4.0738992 11.8432917,6.63738106 11.8432917,9.50064041 C11.8432917,12.3651809 13.1181667,14.9273816 15.1383333,16.668397 C15.2545833,16.7708851 15.3772917,16.8708109 15.5,16.9656123 C15.624,16.8708109 15.744125,16.7708851 15.8616667,16.668397 C17.8805417,14.9273816 19.1567083,12.3651809 19.1567083,9.50064041 C19.1567083,6.63738106 17.8818333,4.0738992 15.8616667,2.33288379 C15.7454167,2.23039576 15.624,2.13303213 15.5,2.0369496 Z"></path>
</svg>