
<svg viewBox="0 0 16 31" version="1.1" xmlns="http://www.w3.org/2000/svg" xmlns:xlink="http://www.w3.org/1999/xlink">
    <defs>
        <radialGradient cx="48.3397178%" cy="49.4186213%" fx="48.3397178%" fy="49.4186213%" r="22.8145736%" gradientTransform="translate(0.483397,0.494186),scale(1.000000,0.519770),rotate(-20.151456),translate(-0.483397,-0.494186)" id="radialGradient-1">
            <stop stop-color="#000000" offset="0%"></stop>
            <stop stop-color="#000000" stop-opacity="0" offset="100%"></stop>
        </radialGradient>
        <radialGradient cx="48.3397178%" cy="49.4186213%" fx="48.3397178%" fy="49.4186213%" r="22.8134712%" gradientTransform="translate(0.483397,0.494186),scale(1.000000,0.519982),rotate(-20.143910),translate(-0.483397,-0.494186)" id="radialGradient-2">
            <stop stop-color="#000000" offset="0%"></stop>
            <stop stop-color="#000000" stop-opacity="0" offset="100%"></stop>
        </radialGradient>
    </defs>
    <path d="M10.2340841,2.66453526e-14 L10.2228017,6.80255911 L10.2114596,13.605118 L9.68339344,12.0259525 C9.68321006,12.0254083 9.68255904,12.0233967 9.68237871,12.0228525 L9,27.1671508 C9.67090832,29.1751664 10.0303654,30.2471166 10.0344029,30.2513951 C10.0396856,30.2569958 10.4220241,30.2814407 10.8840484,30.305742 C12.2838781,30.3793619 14.0185446,30.5371162 15.334464,30.7104032 C15.6391496,30.7505222 15.9013652,30.7710675 15.9171512,30.7560828 C15.9329376,30.7410977 15.9415337,23.8148374 15.9362538,15.3644071 L15.9266429,3.0328026e-14 L13.0803635,3.0328026e-14 L10.2340841,3.0328026e-14 Z" fill="#4B4A4A"></path>
    <path d="M4.4408921e-16,8.8817842e-15 L4.4408921e-16,15.379971 C4.4408921e-16,23.8389661 0.00780973222,30.7682804 0.0173713972,30.7784162 C0.0269324508,30.7885488 0.52121099,30.7390916 1.11576781,30.6685199 C1.71032402,30.597945 2.53204252,30.5101877 2.94179213,30.4735284 C3.57021915,30.4173004 5.44651648,30.2894428 5.66378579,30.2880272 C5.72698801,30.2876061 5.73104173,29.9420176 5.74019597,23.7737163 L5.74986644,17.2598485 L6.20385053,18.6211828 C6.27401067,18.8315901 6.29601802,18.8972947 6.36437152,19.1022717 L7.04657113,3.96170624 C6.90202537,3.5285717 6.97779829,3.75594431 6.81214713,3.25955964 C6.25475225,1.58928833 5.78176342,0.172593879 5.76102967,0.111351412 L5.72330198,8.8817842e-15 L2.86168095,8.8817842e-15 L4.4408921e-16,8.8817842e-15 Z" fill="#4B4A4A"></path>
    <path d="M2.66453526e-15,1.24344979e-14 L1.52820371e-06,8.63321429 L5.73828724,24.7657561 C5.7388863,24.3960642 5.73957094,24.1963061 5.7401975,23.7737163 L5.74986797,17.2598485 L6.20385206,18.6211828 C8.73092302,26.1997615 10.0886079,30.2631797 10.0965928,30.2716408 C10.1018755,30.2772416 10.484214,30.3016864 10.9462383,30.3259877 C12.346068,30.3996076 14.0807345,30.5573619 15.3966539,30.730649 C15.7013395,30.7707679 15.9635551,30.7913132 15.9793411,30.7763285 C15.9901914,30.7660287 15.9972743,27.369927 15.9991601,22.5789663 L10.2877378,5.17594277 L10.28499,6.82280482 L10.273648,13.6253637 L9.74558182,12.0461982 C9.2296037,10.5031802 8.88508821,9.47126766 6.81214713,3.25955964 C6.25475225,1.58928833 5.78176342,0.172593879 5.76102967,0.111351412 L5.72330198,1.24344979e-14 L2.86168095,1.24344979e-14 L2.66453526e-15,1.24344979e-14 Z" fill="url(#radialGradient-1)"></path>
    <path d="M5.74974694,17.2676954 L5.74974694,17.2598501 L6.20373103,18.6211844 C8.73080199,26.1997631 10.0884869,30.2631813 10.0964718,30.2716424 C10.1017545,30.2772432 10.484093,30.301688 10.9461173,30.3259893 C12.345947,30.3996092 14.0806134,30.5573635 15.3965328,30.7306506 C15.6996569,30.7705638 15.8657869,30.7451967 15.884,30.7306506 L10.2735285,13.6222021 L10.2735285,13.6253637 L9.74546231,12.0461982 C9.2294842,10.5031802 8.88496871,9.47126766 6.81202762,3.25955964 C6.25463274,1.58928833 5.78164391,0.172593879 5.76091016,0.111351412 L5.72318248,-3.19744231e-14 L2.86156144,-3.19744231e-14 L8.8817842e-16,-3.19744231e-14 L5.74974694,17.2676954 Z" fill="#606060"></path>
    <path d="M10.2228017,6.80255911 L10.2114596,13.605118 L9.68339344,12.0259525 C9.68321006,12.0254083 9.68255904,12.0233967 9.68237871,12.0228525 L9,27 C9.67090832,29.0080156 10.2114596,30.2513951 10.0344029,30.2513951 C9.85734612,30.2513951 10.4220241,30.2814407 10.8840484,30.305742 C12.2838781,30.3793619 14.0185446,30.5371162 15.334464,30.7104032 C15.6391496,30.7505222 15.9013652,30.7710675 15.9171512,30.7560828 C15.9329376,30.7410977 15.9415337,23.8148374 15.9362538,15.3644071 L15.9266429,3.01980663e-14 L13.0803635,3.01980663e-14 L10.2340841,3.01980663e-14 L10.2228017,6.80255911 Z" fill="#4B4A4A"></path>
    <path d="M4.4408921e-16,8.8817842e-15 L4.4408921e-16,15.379971 C4.4408921e-16,23.8389661 0.00780973222,30.7682804 0.0173713972,30.7784162 C0.0269324508,30.7885488 0.52121099,30.7390916 1.11576781,30.6685199 C1.71032402,30.597945 2.53204252,30.5101877 2.94179213,30.4735284 C3.57021915,30.4173004 5.44651648,30.2894428 5.66378579,30.2880272 C5.72698801,30.2876061 5.73104173,29.9420176 5.74019597,23.7737163 L5.74986644,17.2598485 L6.20385053,18.6211828 C6.27401067,18.8315901 6.29601802,18.8972947 6.36437152,19.1022717 L7.04657113,3.96170624 C6.90202537,3.5285717 6.97779829,3.75594431 6.81214713,3.25955964 C6.25475225,1.58928833 5.78176342,0.172593879 5.76102967,0.111351412 L5.72330198,8.8817842e-15 L2.86168095,8.8817842e-15 L4.4408921e-16,8.8817842e-15 Z" fill="#4B4A4A"></path>
    <path d="M1.52820371e-06,8.63321429 L5.73828724,24.7657561 C5.7388863,24.3960642 5.73957094,24.1963061 5.7401975,23.7737163 L5.74986797,17.2598485 L6.20385206,18.6211828 C8.73092302,26.1997615 10.0886079,30.2631797 10.0965928,30.2716408 C10.1018755,30.2772416 10.484214,30.3016864 10.9462383,30.3259877 C12.346068,30.3996076 14.0807345,30.5573619 15.3966539,30.730649 C15.7013395,30.7707679 15.868214,30.7759687 15.884,30.760984 C15.8948502,30.7506843 15.9972743,27.369927 15.9991601,22.5789663 L10.2877378,5.17594277 L10.28499,6.82280482 L10.273648,13.6253637 L9.74558182,12.0461982 C9.2296037,10.5031802 8.88508821,9.47126766 6.81214713,3.25955964 C6.25475225,1.58928833 5.78176342,0.172593879 5.76102967,0.111351412 L5.72330198,1.24344979e-14 L2.86168095,1.24344979e-14 L3.55271368e-15,1.24344979e-14 L1.52820371e-06,8.63321429 Z" fill="url(#radialGradient-2)"></path>
    <path d="M5.74974694,17.2676954 L5.74974694,17.2598501 L6.20373103,18.6211844 C8.73080199,26.1997631 9.99201514,30.2915389 10,30.3 C10.0052827,30.3056008 10.484093,30.301688 10.9461173,30.3259893 C12.345947,30.3996092 14.0806134,30.5573635 15.3965328,30.7306506 C15.6996569,30.7705638 15.8657869,30.7451967 15.884,30.7306506 L10.2735285,13.6222021 L10.2735285,13.6253637 L9.74546231,12.0461982 C9.2294842,10.5031802 8.88496871,9.47126766 6.81202762,3.25955964 C6.25463274,1.58928833 5.78164391,0.172593879 5.76091016,0.111351412 L5.72318248,-3.19744231e-14 L2.86156144,-3.19744231e-14 L1.77635684e-15,-3.19744231e-14 L5.74974694,17.2676954 Z" fill="#606060"></path>
</svg>