<svg viewBox="0 0 16 16" version="1.1" xmlns="http://www.w3.org/2000/svg" xmlns:xlink="http://www.w3.org/1999/xlink">
    <path d="M0.666658827,0.666658827 L15.3333681,0.666658827 L15.3333681,14.9333674 L0.666658827,14.9333674 L0.666658827,0.666658827 Z M1.77635684e-15,15.6000531 L16.0000269,15.6000531 L16.0000269,3.37507799e-14 L1.77635684e-15,3.37507799e-14 L1.77635684e-15,15.6000531 Z M10.7866866,6.40001075 C10.2600092,6.40001075 10.0800331,6.66666891 10.0800331,6.88666659 C10.0800331,7.12666162 10.2000171,7.29333304 10.9066975,7.6600048 C11.9533597,8.16668487 12.2800368,8.6533407 12.2800368,9.36668688 C12.2800368,10.4333464 11.4667038,11.0066843 10.3666886,11.0066843 C9.7866849,11.0066843 9.28667062,10.8866733 9.00001512,10.7200288 C8.95335465,10.7000314 8.94668886,10.6667025 8.94668886,10.6133494 L8.94668886,9.63334504 C8.94668886,9.56668722 8.98001777,9.54666299 9.02670512,9.58001878 C9.44670314,9.8533696 9.9266932,9.97335367 10.3666886,9.97335367 C10.893366,9.97335367 11.1133636,9.75335599 11.1133636,9.45334205 C11.1133636,9.21334702 10.9600238,9.00001512 10.2866723,8.6533407 C9.33999688,8.20001378 8.94668886,7.74002107 8.94668886,6.97334863 C8.94668886,6.11332837 9.62004035,5.40000907 10.7866866,5.40000907 C11.3600245,5.40000907 11.7600251,5.48669111 11.9800228,5.58667784 C12.0333491,5.62000675 12.0466806,5.67333301 12.0466806,5.71999348 L12.0466806,6.63331312 C12.0466806,6.68663937 12.0133517,6.71999516 11.946667,6.69997094 C11.6533457,6.51335592 11.2200162,6.40001075 10.7866866,6.40001075 Z M5.05333465,7.19334631 C5.20667452,7.20667788 5.32668547,7.20667788 5.59334363,7.20667788 C6.3733745,7.20667788 7.10669115,6.93335394 7.10669115,5.87336022 C7.10669115,5.02669841 6.58001374,4.60000773 5.69335723,4.60000773 C5.42669908,4.60000773 5.17334561,4.61333929 5.05333465,4.62000507 L5.05333465,7.19334631 Z M3.86669108,3.6533323 C3.86669108,3.60667183 3.96003891,3.57331604 4.01333828,3.57331604 C4.44002896,3.5533187 5.07335888,3.53998713 5.73335192,3.53998713 C7.58001542,3.53998713 8.3000005,4.55332038 8.3000005,5.84667022 C8.3000005,7.53999385 7.07333536,8.26667159 5.5666805,8.26667159 C5.31335391,8.26667159 5.22669874,8.25334003 5.04666887,8.25334003 L5.04666887,10.8133497 C5.04666887,10.866676 5.02667153,10.8933391 4.96667949,10.8933391 L3.94668046,10.8933391 C3.89335421,10.8933391 3.8666642,10.8733417 3.8666642,10.8133497 L3.8666642,3.6533323 L3.86669108,3.6533323 Z"></path>
</svg>