<svg viewBox="0 0 16 16" version="1.1" xmlns="http://www.w3.org/2000/svg" xmlns:xlink="http://www.w3.org/1999/xlink">
    <path d="M0,7.96899611 C0,11.2321245 1.96221012,14.0354241 4.77005447,15.2679222 C4.74764202,14.7114708 4.76607004,14.0434553 4.90876265,13.4380078 C5.06197665,12.7910973 5.9341323,9.09571984 5.9341323,9.09571984 C5.9341323,9.09571984 5.6795642,8.58689494 5.6795642,7.83489494 C5.6795642,6.65394553 6.36401556,5.77195331 7.2164358,5.77195331 C7.94129183,5.77195331 8.29148638,6.31638911 8.29148638,6.96834241 C8.29148638,7.69699611 7.8267393,8.78692607 7.58773541,9.79642023 C7.38807782,10.6417432 8.01157977,11.3312374 8.84550973,11.3312374 C10.3553619,11.3312374 11.3722646,9.392 11.3722646,7.09435019 C11.3722646,5.34779767 10.1959222,4.04052918 8.05634241,4.04052918 C5.63903502,4.04052918 4.13310506,5.84323735 4.13310506,7.8568716 C4.13310506,8.55115953 4.33780545,9.04074708 4.65842802,9.41989105 C4.80585214,9.59402335 4.82633463,9.66406226 4.77298054,9.86403113 C4.73475486,10.0106459 4.64697276,10.363642 4.61061479,10.5035331 C4.55757198,10.7053696 4.39402335,10.7775253 4.21161089,10.7030039 C3.09821012,10.2484669 2.57967315,9.02916732 2.57967315,7.6585214 C2.57967315,5.39480156 4.48884047,2.68040467 8.27505058,2.68040467 C11.3175409,2.68040467 13.3200311,4.88205447 13.3200311,7.24538521 C13.3200311,10.3714864 11.58207,12.7069261 9.02020233,12.7069261 C8.15987549,12.7069261 7.35059922,12.2418677 7.07336965,11.7136187 C7.07336965,11.7136187 6.6107393,13.5496965 6.51274708,13.904249 C6.3437821,14.5186615 6.01307393,15.1327626 5.71069261,15.611393 C6.427393,15.8229416 7.18449805,15.938179 7.96918288,15.938179 C12.3697432,15.938179 15.9378054,12.3703035 15.9378054,7.96899611 C15.9378054,3.56787549 12.3697432,0 7.96918288,0 C3.56818677,0 0,3.56787549 0,7.96899611 Z"></path>
</svg>