<svg viewBox="0 0 18 16" version="1.1" xmlns="http://www.w3.org/2000/svg" xmlns:xlink="http://www.w3.org/1999/xlink">
    <path d="M1.56095522,0.0281791045 C0.59478607,0.0911442786 0.00983084577,0.642706468 0.00983084577,1.62372139 L0.00983084577,7.49878607 C0.00983084577,12.2706468 4.75578109,16.0207363 8.86129353,15.9911244 C13.4776517,15.9578109 17.7423682,12.0596219 17.7423682,7.49878607 L17.7423682,1.62372139 C17.7423682,0.639004975 17.1204378,0.0837014925 16.1468259,0.0281791045 L1.56095522,0.0281791045 Z M5.2999801,4.80744279 L8.86129353,8.19104478 L12.4263085,4.80744279 C14.0218507,4.13739303 14.7178109,5.95876617 14.0625672,6.4918607 L9.42029851,10.9231045 C9.26853731,11.0675025 8.45779104,11.0675025 8.30602985,10.9231045 L3.66372139,6.4918209 C3.03804975,5.90320398 3.85249751,4.05221891 5.2999801,4.80744279 Z"></path>
</svg>