<svg viewBox="0 0 16 16" version="1.1" xmlns="http://www.w3.org/2000/svg" xmlns:xlink="http://www.w3.org/1999/xlink">
    <path d="M0.666658827,0.686709929 L15.3333681,0.686709929 L15.3333681,14.9534185 L0.666658827,14.9534185 L0.666658827,0.686709929 Z M0,15.6201042 L16.0000269,15.6201042 L16.0000269,0.0200511021 L0,0.0200511021 L0,15.6201042 Z M9.60001613,6.60673063 C9.60001613,6.52671436 9.60001613,6.33340669 9.56668722,5.96004227 C9.56668722,5.90671601 9.573353,5.89338445 9.62001347,5.8733871 C10.0266799,5.70671567 10.9800211,5.41339439 12.0600122,5.41339439 C12.1133385,5.41339439 12.1400016,5.42672596 12.1400016,5.48005221 L12.1400016,6.44672498 C12.1400016,6.50005124 12.1200042,6.5133828 12.066678,6.5133828 C11.6466531,6.49338545 11.0400132,6.54671171 10.806657,6.64669844 L10.806657,10.8467324 C10.806657,10.9000317 10.7866597,10.9267218 10.7266408,10.9267218 L9.68000551,10.9267218 C9.62667925,10.9267218 9.59998925,10.9067244 9.59998925,10.8467324 L9.59998925,6.60673063 L9.60001613,6.60673063 Z M5.33335125,7.21339742 C5.48666424,7.22672898 5.60667519,7.22672898 5.87336022,7.22672898 C6.65336422,7.22672898 7.38670775,6.95340504 7.38670775,5.89341132 C7.38670775,5.04674951 6.86669612,4.62005883 5.97334695,4.62005883 C5.7066888,4.62005883 5.4533622,4.63339039 5.33335125,4.64005618 L5.33335125,7.21339742 Z M4.15334658,3.67338341 C4.15334658,3.62672293 4.16667815,3.59336714 4.2200044,3.59336714 C4.6466682,3.5733698 5.27333234,3.56003823 5.93335226,3.56003823 C7.78001576,3.56003823 8.58668288,4.57337148 8.58668288,5.8733871 C8.58668288,7.56671074 7.36001774,8.29338848 5.85336288,8.29338848 C5.60000941,8.29338848 5.51335424,8.28005691 5.33335125,8.28005691 L5.33335125,10.8400666 C5.33335125,10.8933928 5.31335391,10.920056 5.25333499,10.920056 L4.22667018,10.920056 C4.17334393,10.920056 4.14665392,10.9000586 4.14665392,10.8400666 L4.14665392,3.67338341 L4.15334658,3.67338341 Z"></path>
</svg>