<svg viewBox="0 0 16 16" version="1.1" xmlns="http://www.w3.org/2000/svg" xmlns:xlink="http://www.w3.org/1999/xlink">
    <path d="M8.21392225,12.4506862 C7.6606738,11.3617848 7.01165972,10.2619223 5.74564958,10.2619223 C5.50363944,10.2619223 5.26191775,10.3020169 5.04009915,10.4032631 L4.61001915,9.5425262 C5.13413408,9.09283155 5.98102535,8.73630648 7.06963831,8.73630648 C8.76313239,8.73630648 9.63223437,9.55204507 10.3222085,10.5933521 C10.7318085,9.70434704 10.9265127,8.50381521 10.9265127,7.01569803 C10.9265127,3.29958761 9.76434479,1.3914862 7.04973521,1.3914862 C4.37464338,1.3914862 3.21882141,3.29958761 3.21882141,7.01569803 C3.21882141,10.7121938 4.37464338,12.6006806 7.04973521,12.6006806 C7.47491155,12.6006806 7.85999324,12.5539515 8.21392225,12.4506862 Z M8.87707042,13.7475606 C8.29065014,13.9047662 7.66759662,13.9915899 7.04973521,13.9915899 C3.48765746,13.9915899 0,11.1491966 0,7.01569803 C0,2.84297014 3.48765746,0 7.04973521,0 C10.6715223,0 14.1257194,2.82249014 14.1257194,7.01569803 C14.1257194,9.34811042 13.0373949,11.24352 11.4555313,12.4685701 C11.9666659,13.2344068 12.4928,13.7429454 13.2254648,13.7429454 C14.0250501,13.7429454 14.347538,13.1250839 14.4014783,12.6404868 L15.4427854,12.6404868 C15.5036485,13.285751 15.1808721,15.9674772 12.270693,15.9674772 C10.5079707,15.9674772 9.57598648,14.9457848 8.87707042,13.7475606 Z"></path>
</svg>