<svg viewBox="0 0 16 16" version="1.1" xmlns="http://www.w3.org/2000/svg" xmlns:xlink="http://www.w3.org/1999/xlink">
    <g stroke="none" stroke-width="1" fill="none" fill-rule="evenodd">
        <path d="M8,16 C12.418278,16 16,12.418278 16,8 C16,3.581722 12.418278,0 8,0 C3.581722,0 0,3.581722 0,8 C0,12.418278 3.581722,16 8,16 Z M13.3109244,8.08456296 C13.3109244,7.43624694 12.7882323,6.91007742 12.1442011,6.91007742 C11.8268524,6.91007742 11.5468388,7.03222391 11.3414955,7.23893337 C10.5481236,6.66578442 9.44673687,6.28994905 8.23334466,6.24296963 L8.76537047,3.73426851 L10.4921209,4.100708 C10.5107885,4.54231456 10.8748062,4.89935817 11.3228279,4.89935817 C11.7801834,4.89935817 12.1535349,4.52352279 12.1535349,4.06312446 C12.1535349,3.60272613 11.7801834,3.22689076 11.3228279,3.22689076 C10.9961454,3.22689076 10.7161318,3.41480844 10.5854588,3.69668497 L8.65336504,3.28326606 C8.59736232,3.27387018 8.5413596,3.28326606 8.49469067,3.31145372 C8.44802174,3.33964137 8.42002038,3.38662079 8.40135281,3.4429961 L7.81332428,6.24296963 C6.57193071,6.28055317 5.46121014,6.64699266 4.65850453,7.23893337 C4.45316123,7.0416198 4.16381386,6.91007742 3.85579891,6.91007742 C3.21176766,6.91007742 2.68907563,7.43624694 2.68907563,8.08456296 C2.68907563,8.56375306 2.96908922,8.96777609 3.37977581,9.15569377 C3.36110824,9.26844439 3.35177445,9.39059088 3.35177445,9.51273738 C3.35177445,11.3167472 5.43320878,12.7731092 8.00933379,12.7731092 C10.5854588,12.7731092 12.6668931,11.3167472 12.6668931,9.51273738 C12.6668931,9.39059088 12.6575593,9.27784027 12.6388918,9.16508966 C13.021577,8.97717197 13.3109244,8.56375306 13.3109244,8.08456296 Z M5.33053714,8.92079667 C5.33053714,8.46039833 5.70388859,8.08456296 6.16124411,8.08456296 C6.61859964,8.08456296 6.99195109,8.46039833 6.99195109,8.92079667 C6.99195109,9.381195 6.61859964,9.75703037 6.16124411,9.75703037 C5.70388859,9.75703037 5.33053714,9.381195 5.33053714,8.92079667 Z M9.9694289,11.1288295 C9.40006794,11.7019784 8.31734873,11.739562 8,11.739562 C7.68265127,11.739562 6.59059828,11.6925825 6.0305711,11.1288295 C5.94656703,11.0442665 5.94656703,10.9033283 6.0305711,10.8187653 C6.11457518,10.7342023 6.25458197,10.7342023 6.33858605,10.8187653 C6.69326993,11.1758089 7.4586404,11.3073513 8.00933379,11.3073513 C8.56002717,11.3073513 9.31606386,11.1758089 9.68008152,10.8187653 C9.7640856,10.7342023 9.90409239,10.7342023 9.98809647,10.8187653 C10.053433,10.9127241 10.053433,11.0442665 9.9694289,11.1288295 Z M9.82008832,9.75703037 C9.36273279,9.75703037 8.98938134,9.381195 8.98938134,8.92079667 C8.98938134,8.46039833 9.36273279,8.08456296 9.82008832,8.08456296 C10.2774438,8.08456296 10.6507953,8.46039833 10.6507953,8.92079667 C10.6507953,9.381195 10.2774438,9.75703037 9.82008832,9.75703037 Z" fill="#000000"></path>
    </g>
</svg>