<svg viewBox="0 0 16 16" version="1.1" xmlns="http://www.w3.org/2000/svg" xmlns:xlink="http://www.w3.org/1999/xlink">
    <path d="M15.4336844,9.31316813 C15.4286167,9.34129387 15.4250693,9.369673 15.4197482,9.39779869 L15.3923826,9.23664581 C15.4073323,9.26173094 15.4197482,9.28782963 15.4336844,9.31316813 C15.5162879,8.863663 15.5596167,8.40351569 15.5596167,7.94362181 C15.5596167,6.92374694 15.3599493,5.93427825 14.9654287,5.00283474 C14.5848444,4.10306437 14.0403199,3.2950194 13.3460448,2.60125109 C12.6527833,1.90748278 11.8442315,1.36295827 10.9449679,0.9823739 C10.0137778,0.588360124 9.02430913,0.388692691 8.00443425,0.388692691 C7.52376275,0.388692691 7.04233112,0.433795233 6.57382213,0.523746932 C6.57280863,0.524000317 6.57154169,0.524000317 6.57027475,0.524253702 C6.59662681,0.538189881 6.62323225,0.550605749 6.6490775,0.565048697 L6.49020506,0.540216961 C6.5168105,0.535149259 6.54366931,0.529574788 6.57027475,0.524253702 C5.92743685,0.182437248 5.20452926,0 4.47275319,0 C3.2780426,0 2.1547866,0.465214981 1.31000079,1.31025418 C0.465468366,2.15503999 0,3.27829599 0,4.47300658 C0,5.23341516 0.195613271,5.9809011 0.562768232,6.64147594 C0.567582548,6.61411038 0.570876554,6.58649144 0.576197641,6.55912581 L0.603563228,6.7174915 C0.589373664,6.69265975 0.576957796,6.6668145 0.562768232,6.64147594 C0.488273022,7.06944337 0.448998337,7.506786 0.448998337,7.94362181 C0.448998337,8.96375013 0.648665769,9.95296537 1.04318632,10.8846623 C1.42326392,11.7846861 1.96804181,12.5922242 2.66155674,13.2859926 C3.35583182,13.9797609 4.16337002,14.5250455 5.06364716,14.9046164 C5.99483728,15.2993903 6.98455937,15.4993111 8.00443425,15.4993111 C8.44836487,15.4993111 8.89330906,15.4587695 9.32761106,15.3817404 C9.30227256,15.3675509 9.27642725,15.3546282 9.250582,15.3396785 L9.41198825,15.3680576 C9.38411594,15.3733788 9.35599019,15.3766727 9.32761106,15.3817404 C9.996801,15.7602977 10.7544224,15.9614855 11.5280069,15.9614855 C12.7224642,15.9614855 13.8452134,15.4970306 14.6899992,14.6517381 C15.5350384,13.807459 16,12.6839496 16,11.4892391 C16,10.7262966 15.8033732,9.97627681 15.4336844,9.31316813 Z M8.03458706,12.5706865 C5.35047906,12.5706865 4.14968723,11.2510571 4.14968723,10.2620952 C4.14968723,9.75481825 4.52419036,9.399319 5.04033574,9.399319 C6.18893024,9.399319 5.89145618,11.0486024 8.03458706,11.0486024 C9.13174438,11.0486024 9.73758806,10.4528941 9.73758806,9.84324969 C9.73758806,9.4766015 9.55667113,9.07017181 8.83427031,8.89204212 L6.44687625,8.29608044 C4.52419036,7.81388869 4.17527912,6.77450313 4.17527912,5.79745031 C4.17527912,3.76884948 6.08529575,3.00717396 7.87900863,3.00717396 C9.53133263,3.00717396 11.4791036,3.92037374 11.4791036,5.13738221 C11.4791036,5.65884868 11.0275714,5.96215061 10.5116794,5.96215061 C9.53133263,5.96215061 9.71174281,4.60527358 7.737113,4.60527358 C6.75727294,4.60527358 6.21452213,5.04895083 6.21452213,5.68393381 C6.21452213,6.31764988 6.98836013,6.5201045 7.66033731,6.67314913 L9.42744475,7.06538919 C11.3630533,7.49665056 11.8538602,8.62674794 11.8538602,9.69121863 C11.8538602,11.3397419 10.5884551,12.5706865 8.03458706,12.5706865 Z M9.250582,15.3458099 C9.27642725,15.3697295 9.30227256,15.3904057 9.32761106,15.413109 C9.35599019,15.4050007 9.38411594,15.3997303 9.41198825,15.3912165 L9.250582,15.3458099 Z M15.442527,9.39779869 C15.4510408,9.369673 15.4567166,9.34129387 15.4648249,9.31316813 C15.442527,9.28782963 15.4226616,9.26173094 15.3987421,9.23664581 L15.442527,9.39779869 Z M0.590766787,6.55912581 C0.582253048,6.58649144 0.576982639,6.61411038 0.569279733,6.64147594 C0.591983035,6.6668145 0.611848424,6.69265975 0.634551726,6.7174915 L0.590766787,6.55912581 Z M6.6490775,0.596037196 C6.62323225,0.572928478 6.59662681,0.553063089 6.57027475,0.530765203 C6.54366931,0.539278941 6.5168105,0.548198095 6.49020506,0.556306418 L6.6490775,0.596037196 Z"></path>
</svg>