<svg viewBox="0 0 16 16" version="1.1" xmlns="http://www.w3.org/2000/svg" xmlns:xlink="http://www.w3.org/1999/xlink">
    <g stroke="none" stroke-width="1" fill="none" fill-rule="evenodd">
        <g fill="#000000" fill-rule="nonzero">
            <path d="M8,0 C3.6,0 0,3.6 0,8 C0,12.4 3.6,16 8,16 C12.4,16 16,12.4 16,8 C16,3.6 12.44,0 8,0 Z M11.6806667,11.56 C11.5206667,11.7993333 11.2406667,11.88 11,11.72 C9.12,10.56 6.76,10.3193333 3.95933333,10.9593333 C3.68066667,11.0406667 3.44,10.84 3.36,10.6 C3.28,10.3193333 3.48,10.08 3.72,10 C6.76,9.31933333 9.4,9.6 11.48,10.88 C11.76,11 11.7993333,11.3193333 11.6806667,11.56 Z M12.6406667,9.36 C12.44,9.64 12.08,9.76 11.7993333,9.56 C9.64,8.24 6.36,7.84 3.84,8.64 C3.52066667,8.72 3.16,8.56 3.08,8.24 C3,7.92 3.16,7.55933333 3.48,7.47933333 C6.4,6.6 10,7.04066667 12.48,8.56 C12.7206667,8.68066667 12.84,9.08 12.6406667,9.36 Z M12.7206667,7.12 C10.16,5.6 5.88,5.44 3.44,6.20066667 C3.04,6.32 2.64,6.08 2.52,5.72 C2.4,5.31933333 2.64,4.92 3,4.79933333 C5.84,3.95933333 10.52,4.11933333 13.4806667,5.88 C13.84,6.08 13.96,6.56 13.76,6.92 C13.5606667,7.20066667 13.08,7.31933333 12.7206667,7.12 Z"></path>
        </g>
    </g>
</svg>
