<svg role="img" aria-label="Telegram" viewBox="0 0 16 16" version="1.1" xmlns="http://www.w3.org/2000/svg" xmlns:xlink="http://www.w3.org/1999/xlink">
    <path d="M8,16 C12.418278,16 16,12.418278 16,8 C16,3.581722 12.418278,0 8,0 C3.581722,0 0,3.581722 0,8 C0,12.418278 3.581722,16 8,16 Z M6.66951959,9.62716525 L10.3789733,6.27966667 C10.54178,6.135174 10.34342,6.06471333 10.1272933,6.19577333 L5.54909333,9.08410667 L3.57156,8.46688667 C3.1445,8.33612667 3.14143333,8.04266667 3.66744,7.83168667 L11.37344,4.86028667 C11.7253933,4.7005 12.0650933,4.94482 11.9307333,5.4835 L10.6184,11.6677 C10.52676,12.10716 10.2612333,12.21226 9.89333333,12.0092667 L7.89423688,10.5323081 L6.93333333,11.4666667 C6.8217,11.5752 6.73333333,11.6666667 6.53333333,11.6666667 L6.66946667,9.62713333 Z"></path>
</svg>