<svg viewBox="0 0 16 17" version="1.1" xmlns="http://www.w3.org/2000/svg" xmlns:xlink="http://www.w3.org/1999/xlink">
    <path d="M1.5625,0.008203125 L14.4375,0.008203125 C15.3004449,0.008203125 16,0.707758203 16,1.57070312 L16,14.4457031 C16,15.308648 15.3004449,16.0082031 14.4375,16.0082031 L1.5625,16.0082031 C0.699555078,16.0082031 1.05680274e-16,15.308648 0,14.4457031 L0,1.57070312 C-1.05680274e-16,0.707758203 0.699555078,0.008203125 1.5625,0.008203125 Z M9.79,2.08820312 L13.17,2.08820312 C13.5842136,2.08820312 13.92,2.42398956 13.92,2.83820312 L13.92,8.33820312 C13.92,8.75241669 13.5842136,9.08820312 13.17,9.08820312 L9.79,9.08820312 C9.37578644,9.08820312 9.04,8.75241669 9.04,8.33820312 L9.04,2.83820312 C9.04,2.42398956 9.37578644,2.08820312 9.79,2.08820312 Z M2.83,2.08820312 L6.21,2.08820312 C6.62421356,2.08820312 6.96,2.42398956 6.96,2.83820312 L6.96,12.3382031 C6.96,12.7524167 6.62421356,13.0882031 6.21,13.0882031 L2.83,13.0882031 C2.41578644,13.0882031 2.08,12.7524167 2.08,12.3382031 L2.08,2.83820312 C2.08,2.42398956 2.41578644,2.08820312 2.83,2.08820312 Z"></path>
</svg>