
<svg viewBox="0 0 25 16" version="1.1" xmlns="http://www.w3.org/2000/svg" xmlns:xlink="http://www.w3.org/1999/xlink">
    <g stroke="none" stroke-width="1" fill="none" fill-rule="evenodd">
        <path d="M13.7999873,9.78687968 C13.6802499,9.82459621 13.5670714,9.89177146 13.4714238,10.0234119 L13.4726212,10.0234119 C13.4726239,10.0228597 13.4726269,10.022308 13.4726299,10.0217566 C13.4722276,10.0223072 13.4718255,10.022859 13.4714238,10.0234119 L13.4714238,10.0246093 C13.4725784,9.86988452 13.4867232,9.74596485 13.5177552,9.65078247 C13.5827261,9.44905095 13.7235518,9.37609744 13.9767321,9.41273125 C14.185971,9.43972981 14.4026078,9.42022682 14.6286283,9.46741147 C14.6435784,9.47044306 14.6585772,9.47375896 14.6736265,9.47739155 C14.4661615,9.78945353 14.1107953,9.68901473 13.7998994,9.78697872 Z M9.32597967,0.00106436719 C8.43989398,0.614139869 8.27225615,1.57326775 8.07228817,2.51922409 C7.90465033,3.31670121 7.71905131,4.1117835 7.53824193,4.91883992 C7.83639779,5.05175278 7.9285986,4.89489166 7.98487701,4.63505302 C8.18963465,3.69388633 8.40516901,2.75511447 8.61232147,1.8151452 C8.87455494,0.64168037 9.64089931,0.00106436719 10.7952055,0.00106436719 L16.1859593,0.00106436719 L15.8746319,0.262100421 C15.4699062,0.600968325 15.1801323,1.02126032 15.0591935,1.54931949 C14.8017497,2.67129556 14.5526878,3.79327162 14.2928492,4.94638042 C14.4078008,4.97032869 14.515568,4.99427695 14.6520731,5.0266071 C14.8915557,3.96330428 15.1298409,2.92155489 15.3621391,1.8798055 C15.6483208,0.600968325 16.3751505,0.00106436719 17.6491981,0.00106436719 L23.2363275,0.00106436719 C24.2744847,0.00106436719 24.7857801,0.65724674 24.5510871,1.70618061 C23.6123152,5.90910055 22.6711485,10.1120205 21.7239948,14.3125456 C21.4988811,15.3087933 20.6570997,15.994911 19.6668391,15.9973058 C17.739004,16.0008981 15.811169,16.0008981 13.8845313,15.9973058 C12.8810991,15.994911 12.3686063,15.3291493 12.573364,14.3065585 C12.6368269,13.9940337 12.7098691,13.6827063 12.8092543,13.2312816 C12.6104838,13.3342591 12.4200951,13.3737737 12.4021339,13.4516056 C12.2967615,13.9185967 12.1518746,14.4011542 12.1770202,14.8681453 C12.1985737,15.2453304 12.4416485,15.6105414 12.59372,15.9973058 L12.318315,15.9973058 C10.5976324,15.9973058 8.87814718,15.9997006 7.15746457,15.9973058 C6.10613587,15.9961084 5.58885342,15.3315441 5.82354639,14.2634517 C6.21270564,12.4864906 6.61743126,10.7131219 7.013775,8.93855566 C7.03173619,8.86431605 7.04251291,8.78768161 7.05568445,8.70984976 C6.80422771,8.60208258 6.69167088,8.6763222 6.63299763,8.93735825 C6.23904873,10.7274908 5.83552052,12.5140311 5.43199231,14.3017689 C5.28710532,14.9423849 5.45713798,15.484813 5.98519715,15.9973058 L1.45777826,15.9973058 C0.319038417,15.9973058 -0.189862146,15.3519002 0.0639894287,14.2131603 C1.00036646,10.0353861 1.93794091,5.86000661 2.87671277,1.68342976 C3.10661609,0.665628631 3.9220544,0.00226178028 4.92668398,0.00106436719 C6.28335301,-0.00133045899 7.64121945,0.00106436719 8.9990859,0.00106436719 L9.32717708,0.00106436719 L9.32597967,0.00106436719 Z M18.4179373,9.31095113 C18.4586493,9.32292526 18.4981639,9.33729422 18.538876,9.35046576 C18.628682,9.86295857 19.0058671,9.75758621 19.3088126,9.72525606 C19.4297513,9.71208452 19.5315314,9.51451136 19.5985866,9.44625881 L19.2082299,8.87389536 C18.6262871,8.90622551 17.9964478,8.93735825 17.3666086,8.98285995 C17.2396828,8.99124184 17.1618509,9.12056245 17.0121743,8.92298929 C16.8469313,8.70745494 16.3763479,8.91939705 16.2937264,9.20198654 C16.0554412,10.0222145 15.8303276,10.8472321 15.5716863,11.661473 C15.4854726,11.9332858 15.3202296,12.1763607 15.1897116,12.4338045 L15.2423977,12.5463613 C15.9812016,12.2446132 16.7008469,12.8732551 17.4659938,12.5487561 C18.1748624,12.9606662 18.5759958,12.4637398 18.9483913,11.8650333 C19.1363851,12.5870733 19.1986506,12.6397595 19.5925995,12.6577207 C19.9374545,12.6744845 19.8823735,12.3990795 19.9123088,12.3176554 C19.7961597,12.0721857 19.7219201,11.9129298 19.6416934,11.7572661 C19.565059,11.6111817 19.4800427,11.4698869 19.3638936,11.2663267 C19.5243469,11.2579448 19.730302,11.2280095 19.9338622,11.2447733 C20.2475845,11.2675241 20.3469697,11.1202423 20.3182318,10.8101123 C20.0883285,10.7981382 19.8715967,10.7861641 19.6512727,10.7765848 C19.6069685,10.359885 19.8668071,10.3610824 20.1170664,10.3910177 C20.4679085,10.4317298 20.611598,10.2796583 20.5852549,9.89648613 C19.9458364,9.89648613 19.3136022,9.91564474 18.6825655,9.88810424 C18.3305261,9.87253787 18.2275486,10.0282016 18.2407201,10.3850307 L18.9723395,10.3850307 C19.0118541,10.8448373 18.724475,10.8065201 18.4658338,10.7909537 C18.1844417,10.7741899 17.9377746,10.7873615 17.9844737,11.2136405 L18.6406561,11.2711164 C18.4538596,11.5465214 18.3209468,11.7955833 18.1365452,11.9955513 C18.0371599,12.1081081 17.8539557,12.1392408 17.7090687,12.2039012 C17.663567,12.0254866 17.5474179,11.826716 17.5857352,11.6698549 C17.7497808,11.0100803 17.9485513,10.3574902 18.1557038,9.70849228 C18.2012055,9.56121047 18.3281313,9.44146916 18.4191347,9.31095113 L18.4179373,9.31095113 Z M5.54215431,4.10938867 C5.37092424,4.91165544 5.21885278,5.68638171 5.03564857,6.45272609 C4.98176498,6.67664234 4.891959,6.95324476 4.72911082,7.0753809 C4.5220558,7.21207866 4.27101383,7.26553734 4.02622934,7.22505753 C3.74363985,7.17237136 3.76160105,6.86942584 3.79632603,6.62395616 C3.82985359,6.38567096 3.8765527,6.14978058 3.93163371,5.91628503 C4.07053362,5.31997331 4.21781543,4.72725383 4.36629466,4.11417833 L3.35567801,4.11417833 C3.18564535,4.8984839 3.00842821,5.66602569 2.85515934,6.43715972 C2.62884826,7.57949181 3.00842821,8.00816569 4.14357582,7.9171623 C4.28606798,7.90518817 4.42856014,7.89321404 4.56746006,7.8620813 C5.01529255,7.76030118 5.44276902,7.55793837 5.59005083,7.09334209 C5.90137824,6.12343749 6.14325568,5.12958463 6.42345034,4.10938867 L5.54215431,4.10938867 Z M15.6243725,4.10100678 L14.7646299,7.88004249 L15.6590975,7.88004249 C15.7141785,7.61900644 15.7656673,7.38431347 15.817156,7.14962051 C15.9464766,6.54732172 15.9464766,6.54732172 16.5511702,6.51499157 C17.4683887,6.46350281 18.0323702,5.98453757 18.2012055,5.11401826 C18.3149597,4.5320755 18.0718849,4.14531107 17.498324,4.11058609 C16.8828537,4.07226887 16.2613963,4.10100678 15.6243725,4.10100678 Z M12.8128466,12.1356486 C12.9086396,11.7955833 12.999643,11.4938352 13.0714878,11.1884949 C13.1217792,10.9717631 13.2211644,10.8795623 13.4462781,10.8891416 C13.7947253,10.9035105 14.1491596,10.9190769 14.4916197,10.8651933 C14.6856007,10.8340606 14.9574134,10.7131219 15.025666,10.5550633 C15.2483848,10.0377809 15.3932718,9.48457603 15.6040165,8.83318331 L13.6977349,9.04392801 C13.5971522,9.00201856 13.4822005,8.92658153 13.3600644,8.90383068 C13.1756628,8.87269794 13.0211965,8.89305396 12.9517465,9.14810295 C12.7158561,10.0114378 12.4560175,10.8663907 12.2057581,11.7261333 C11.9291557,12.6756819 11.9303531,12.6792742 12.8810991,12.6708923 C13.3109704,12.6661026 13.3361161,12.6373647 13.3157601,12.136846 L12.8128466,12.136846 L12.8128466,12.1356486 Z M19.5842176,9.68693884 C20.370918,9.79949567 20.4846722,9.74920432 20.8007893,9.17684087 C21.2809519,8.30512414 21.7539301,7.42861776 22.2305005,6.55570362 L22.6855175,5.73667306 C21.8820533,5.50317751 21.7287844,6.1701366 21.41147,6.75686901 C21.376745,6.32340548 21.3515993,6.00728842 21.321664,5.6576438 L20.5193972,5.81091267 C20.5936368,6.45033126 20.6942195,7.04544557 20.7229574,7.64534953 C20.7552876,8.30871638 20.3062577,8.7589437 19.9566131,9.24509341 C19.8560304,9.38399333 19.7374865,9.50852429 19.585415,9.68693884 L19.5842176,9.68693884 Z M20.1517914,5.69835584 C19.6776158,5.75343685 19.2609161,5.92107468 18.8370318,5.70913256 C18.7568052,5.66842052 18.6131156,5.73787048 18.5077432,5.78337217 C17.9569332,6.01806514 17.5581947,6.78201469 17.6575799,7.39269536 C17.7174506,7.75191929 17.9449591,7.93751832 18.2658658,7.95667693 C18.7364491,7.98421743 19.2094273,7.96505882 19.675221,7.96505882 L20.1517914,5.69835584 Z M8.11060539,7.8812399 C8.16089674,7.61301937 8.20400361,7.37832641 8.25070272,7.14363344 C8.30219148,6.89457152 8.36086472,6.64670701 8.40995866,6.39764509 C8.52730514,5.78456959 8.26267685,5.53191542 7.67714185,5.7031455 C7.56578243,5.73547565 7.37778858,5.83007128 7.36222221,5.80612302 C7.14668785,5.45288616 6.88924403,5.79414889 6.65934072,5.7582265 C6.59827265,5.74984461 6.46775463,5.88515229 6.44979343,5.97376085 C6.31807799,6.59881049 6.20552116,7.22984718 6.08577985,7.86567353 L6.87367766,7.86567353 C6.96587847,7.4142488 7.03532843,6.99036457 7.14788526,6.57845446 C7.18021542,6.46110798 7.33947136,6.38207872 7.44005406,6.28508826 C7.4807661,6.40482957 7.56937467,6.53295277 7.5538083,6.6455096 C7.49633247,7.05263005 7.40413166,7.45376343 7.32031275,7.8812399 L8.11060539,7.8812399 Z M13.014012,7.87764767 C13.1050154,7.43101258 13.1768602,6.99635163 13.289417,6.57486222 C13.3217471,6.45751574 13.4833979,6.37968389 13.585178,6.28389084 C13.6282849,6.40602698 13.7168935,6.53415018 13.7025245,6.64670701 C13.6438513,7.05382746 13.5480582,7.45376343 13.4642393,7.8716606 L14.2497423,7.8716606 C14.350325,7.39030054 14.4676715,6.93528356 14.5251473,6.47427953 C14.55628,6.2431788 14.5586749,5.88395487 14.4305517,5.78816183 C14.2641112,5.66363086 13.9551787,5.73188341 13.7085116,5.74146271 C13.6067315,5.74625237 13.4810031,5.92107468 13.4474755,5.67201276 C13.1600964,5.7582265 12.6823286,5.77379287 12.6248527,5.94262811 C12.4165029,6.55330879 12.3506451,7.21428081 12.2273116,7.87764767 L13.014012,7.87764767 Z M10.7748495,7.95308469 C11.6489611,7.96266399 12.318315,7.14243603 12.1566642,6.2527581 C12.1003858,5.93903587 11.9076023,5.76660839 11.6130387,5.69955326 C10.7664676,5.50437492 10.0947189,5.99531429 9.94025259,6.92450685 C9.82649834,7.60224265 10.106693,7.94590021 10.7748495,7.9542821 L10.7748495,7.95308469 Z M11.1520346,12.1464253 C11.2454329,11.4483335 11.2454329,11.4279775 11.8621006,11.4303723 C12.2213245,11.4303723 12.173428,11.1813104 12.2404831,10.9274588 L11.5100611,10.9274588 C11.4789284,10.5239306 11.7052395,10.484416 11.9710652,10.5191409 C12.303946,10.559853 12.483558,10.4401117 12.4596097,10.0665188 C12.4153054,10.0569395 12.3757908,10.0437679 12.338671,10.0437679 C11.8609032,10.0437679 11.3819379,10.0629266 10.9053675,10.0377809 C10.582066,10.0210171 10.4551402,10.1455481 10.4814833,10.4808237 L10.9293158,10.5790116 C10.7880211,10.7286882 10.6874384,10.9178795 10.5976324,10.9118924 C10.2264343,10.8927338 10.2348162,11.1477828 10.1833274,11.406424 L10.5581177,11.4543206 C10.5497358,11.5369421 10.5509333,11.6027998 10.5341695,11.6650653 C10.2803179,12.6864586 10.2803179,12.6684974 11.2945268,12.6792742 C11.6848835,12.6828664 11.718411,12.4649372 11.7435567,12.1464253 L11.1520346,12.1464253 Z M13.4390936,10.9969088 C13.4390936,11.3477508 13.4450807,11.6159713 13.4390936,11.881797 C13.4151454,12.6625104 13.413948,12.6445492 14.1623311,12.6625104 C14.5167654,12.6708923 14.6101636,12.516426 14.5862154,12.1871374 L14.1192243,12.1440305 L14.1192243,11.7057773 C14.9059247,11.6016024 14.9586108,11.5572981 14.9538212,11.0160674 C14.7442739,11.0100803 14.5191602,10.9190769 14.4066034,11.2280095 C14.3934319,11.2639319 14.1575415,11.2651293 14.1515544,11.2471681 C14.0378002,10.8125071 13.7276702,11.1094656 13.4390936,10.9957113 L13.4390936,10.9969088 Z M9.68999325,6.13301679 C9.46847183,6.16534695 9.27089867,6.17732108 9.08649705,6.22880984 C8.99429625,6.25515293 8.86856787,6.34136667 8.84940926,6.42279076 C8.73565502,6.89816376 8.64824386,7.38072123 8.55005599,7.8716606 L9.35830982,7.8716606 C9.47924855,7.32444282 9.59300279,6.80356812 9.70555962,6.2802986 C9.71154669,6.24437621 9.69837514,6.20486158 9.68999325,6.13301679 Z M12.6320372,9.16965639 L11.9459195,9.16965639 L11.9291557,8.90383068 C11.5316146,8.85234192 11.153232,8.79247127 10.9951735,9.298977 C10.9772123,9.35884766 10.8742348,9.38638816 10.8203512,9.43907433 C10.7006099,9.56001306 10.5880531,9.68933367 10.4731014,9.81506204 L10.5629074,9.92881629 C10.7497038,9.90486802 10.9760149,9.94079042 11.1185071,9.84260254 C11.4525853,9.62227854 11.8058222,9.63545008 12.1602565,9.66299058 C12.4955321,9.68813626 12.6368269,9.55282858 12.6320372,9.16965639 Z M9.43973391,5.30919659 C9.23377886,5.50437492 9.07093068,5.66003862 8.90568768,5.81450491 C9.03141605,5.89832383 9.18348751,6.07314614 9.27089867,6.0420134 C9.47805113,5.97495827 9.65407086,5.80732043 9.84206471,5.68039465 C9.73310012,5.57861453 9.62413553,5.47683442 9.44093133,5.30919659 L9.43973391,5.30919659 Z M16.5260246,11.0304363 C16.8493261,10.9011157 17.2684207,10.9406303 17.202563,10.4185582 C16.6206202,10.3407264 16.6074487,10.3515031 16.5260246,11.0304363 Z M17.4959292,9.43667951 C16.892433,9.35286059 16.8361546,9.40315194 16.8421416,10.0198197 C17.133113,9.91324992 17.5510102,9.95994903 17.4959292,9.43667951 Z M16.9175787,11.4483335 C16.3452152,11.3621198 16.3452152,11.3621198 16.2398428,11.9452599 C16.802627,12.0458426 16.8086141,12.0422504 16.9175787,11.4483335 Z M14.5047913,10.290435 C13.8462141,10.1060334 13.3780256,10.1766808 13.38521,10.4688496 C13.7312624,10.3610824 14.1168294,10.5766168 14.5047913,10.290435 Z M16.0889688,5.95340483 L16.3703609,4.66858059 C16.4493901,4.66139611 16.512853,4.64702715 16.5751185,4.6518168 C16.8601028,4.67815989 17.2037604,4.60152545 17.2612362,5.04696312 C17.3091327,5.42175342 17.0361225,5.8133075 16.6505555,5.90311348 C16.4912996,5.94023329 16.3236618,5.93544364 16.0889688,5.95340483 Z M19.1914661,6.51858381 C19.1004627,6.81673967 19.0525662,7.07178866 18.9412068,7.28971784 C18.8921128,7.3867083 18.7125009,7.4142488 18.5915622,7.47292204 C18.5472579,7.36036521 18.4562545,7.24182132 18.4682286,7.13644896 C18.4945717,6.90055858 18.5472579,6.65987855 18.6430509,6.44554161 C18.68975,6.34016926 18.8585853,6.22042795 18.9567731,6.23479691 C19.0501714,6.24677104 19.1208187,6.426383 19.1914661,6.51978122 L19.1914661,6.51858381 Z M11.3975043,6.52097864 C11.3041061,6.79638365 11.2358535,7.05382746 11.1244941,7.29091525 C11.0873743,7.36635228 10.9341054,7.41784104 10.8383124,7.41185397 C10.7916133,7.40945915 10.7101892,7.2406239 10.7221633,7.15919981 C10.7640728,6.89696635 10.816759,6.63114064 10.9161443,6.3892632 C10.9568563,6.29107532 11.1292838,6.25036328 11.2418406,6.18450556 L11.3975043,6.52097864 Z" fill="#000000"></path>
    </g>
</svg>