<svg viewBox="0 0 21 16" version="1.1" xmlns="http://www.w3.org/2000/svg" xmlns:xlink="http://www.w3.org/1999/xlink">
    <path d="M10.2498791,9.15395175 C10.2385717,8.26245091 11.0443742,7.76492441 11.6514041,7.46914609 C12.2750977,7.16563112 12.4845825,6.97102446 12.4822019,6.69964637 C12.4774409,6.28424745 11.9846754,6.10094821 11.5234517,6.09380669 C10.7188395,6.08130901 10.2510693,6.31102819 9.87911477,6.48480538 L9.58928773,5.12851005 C9.96243255,4.95651824 10.6533755,4.80654613 11.3699089,4.79999973 C13.0517388,4.79999973 14.1521294,5.63020244 14.1580807,6.917463 C14.1646271,8.55108769 11.898382,8.64154706 11.9138553,9.37176836 C11.9192114,9.59315575 12.1304817,9.82942134 12.5934907,9.88952919 C12.8226148,9.91988068 13.4552353,9.94309066 14.1723638,9.61279495 L14.453859,10.9250509 C14.0682164,11.0655009 13.5724753,11.1999997 12.9553283,11.1999997 C11.3722894,11.1999997 10.258806,10.3584896 10.2498791,9.15395175 M17.158713,11.0869255 C16.8516272,11.0869255 16.5927469,10.9077922 16.4772921,10.6328433 L14.0747628,4.89641037 L15.7554026,4.89641037 L16.0898642,5.82064321 L18.1436488,5.82064321 L18.3376603,4.89641037 L19.8189324,4.89641037 L18.5263157,11.0869255 L17.158713,11.0869255 M17.3937883,9.41461755 L17.8788171,7.09004994 L16.5504928,7.09004994 L17.3937883,9.41461755 M8.21216286,11.0869255 L6.88740933,4.89641037 L8.48889709,4.89641037 L9.81305556,11.0869255 L8.21216286,11.0869255 M5.84296076,11.0869255 L4.17600893,6.87342357 L3.50172958,10.4560905 C3.42257764,10.8560161 3.11013576,11.0869255 2.76317649,11.0869255 L0.0380881532,11.0869255 L0,10.907197 C0.559419751,10.7857911 1.19501581,10.5899941 1.58006323,10.3805093 C1.81573368,10.2525569 1.88298307,10.140673 1.96034963,9.83656286 L3.23749302,4.89641037 L4.93003532,4.89641037 L7.52479076,11.0869255 L5.84296076,11.0869255" fill-rule="nonzero" transform="translate(9.909466, 8.000000) scale(-1, 1) rotate(-180.000000) translate(-9.909466, -8.000000) "></path>
    <polygon fill-rule="nonzero" points="0 0 20.3925333 0 20.3925333 2.13333333 0 2.13333333"></polygon>
    <polygon fill-rule="nonzero" points="0 13.8666667 20.3925333 13.8666667 20.3925333 16 0 16"></polygon>
</svg>