<svg viewBox="0 0 27 16" version="1.1" xmlns="http://www.w3.org/2000/svg" xmlns:xlink="http://www.w3.org/1999/xlink">
    <path d="M2.48456621,-2.57571742e-14 L24.2758105,-2.57571742e-14 C25.6548646,-2.57571742e-14 26.7712418,1.11637716 26.7712418,2.49543129 L26.7712418,10.8135356 C26.7712418,12.1925897 25.6548646,13.3089669 24.2758105,13.3089669 L16.4611704,13.3089669 L17.5337681,15.9357367 L12.8165274,13.3089669 L2.49551109,13.3089669 C1.11645695,13.3089669 7.97948688e-05,12.1925897 7.97948688e-05,10.8135356 L7.97948688e-05,2.49543129 C-0.0108650792,1.12732203 1.10551207,-2.57571742e-14 2.48456621,-2.57571742e-14 Z M1.52451758,2.27446729 C1.67687424,2.06769754 1.90540923,1.95887135 2.21012255,1.93710611 C2.7651361,1.89357564 3.08073205,2.15475848 3.15691038,2.72065466 C3.49427155,4.99512196 3.86428059,6.92134545 4.25605486,8.49932515 L6.63934834,3.96127318 C6.85700071,3.54773368 7.12906618,3.3300813 7.45554473,3.30831607 C7.93437995,3.2756682 8.22821066,3.58038153 8.34791946,4.22245603 C8.61998493,5.66984431 8.96822873,6.89958021 9.38176823,7.9443116 C9.66471632,5.18012646 10.1435515,3.18860726 10.8182739,1.95887135 C10.9815132,1.65415803 11.2209308,1.50180137 11.5365267,1.48003613 C11.786827,1.45827089 12.015362,1.53444922 12.2221317,1.6976885 C12.4289014,1.86092779 12.5377276,2.06769754 12.5594929,2.31799777 C12.5703755,2.5138849 12.5377276,2.67712418 12.4506667,2.84036346 C12.0262446,3.623912 11.6780007,4.94070886 11.3950527,6.76898879 C11.1229872,8.54285562 11.0250437,9.92494819 11.0903393,10.9152665 C11.1121046,11.187332 11.0685741,11.4267496 10.959748,11.6335193 C10.8291565,11.8729369 10.6332693,12.0035284 10.3829691,12.0252936 C10.1000211,12.0470588 9.80619036,11.9164675 9.52324227,11.6226367 C8.51115875,10.588788 7.70584496,9.04345608 7.11818356,6.98664116 C6.41081334,8.37961635 5.88844765,9.42434773 5.55108647,10.1208353 C4.90901197,11.3505712 4.36488105,11.9817631 3.90781106,12.014411 C3.61398036,12.0361762 3.36368013,11.785876 3.14602775,11.2635103 C2.5910142,9.83788724 1.99247018,7.08458473 1.35039568,3.00360274 C1.3068652,2.72065466 1.37216092,2.47035443 1.52451758,2.27446729 Z M24.911265,3.98303842 C24.5194907,3.29743344 23.9427119,2.88389394 23.170046,2.72065466 C22.9632762,2.67712418 22.7673892,2.65535894 22.5823846,2.65535894 C21.5376532,2.65535894 20.688809,3.19948988 20.0249692,4.28775174 C19.459073,5.21277433 19.176125,6.23574048 19.176125,7.3566502 C19.176125,8.19461183 19.3502469,8.91286466 19.6984907,9.51140868 C20.090265,10.1970137 20.6670438,10.6105532 21.4397097,10.7737924 C21.6464795,10.8173229 21.8423665,10.8390881 22.0273711,10.8390881 C23.0829851,10.8390881 23.9318293,10.2949572 24.5847864,9.20669536 C25.1506827,8.27079016 25.4336307,7.24782401 25.4336307,6.12691429 C25.4445134,5.27807003 25.2595088,4.57069983 24.911265,3.98303842 Z M23.5400551,6.99752378 C23.3876984,7.71577661 23.1156329,8.24902492 22.7129761,8.60815134 C22.3973801,8.89109942 22.1035494,9.01080823 21.8314839,8.95639514 C21.5703011,8.90198204 21.3526487,8.67344705 21.1894095,8.24902492 C21.058818,7.91166375 20.9935223,7.57430257 20.9935223,7.25870662 C20.9935223,6.98664116 21.0152875,6.7145757 21.0697006,6.46427546 C21.1676442,6.0180881 21.3526487,5.58278336 21.6464795,5.16924385 C22.0056059,4.63599553 22.3864975,4.41834316 22.7782718,4.4945215 C23.0394546,4.54893459 23.257107,4.77746957 23.4203462,5.2018917 C23.5509377,5.53925288 23.6162334,5.87661407 23.6162334,6.19221 C23.6162334,6.47515809 23.5944682,6.74722355 23.5400551,6.99752378 Z M18.0987457,3.98303842 C17.7069715,3.29743344 17.1193101,2.88389394 16.3575268,2.72065466 C16.150757,2.67712418 15.9548699,2.65535894 15.7698654,2.65535894 C14.725134,2.65535894 13.8762897,3.19948988 13.21245,4.28775174 C12.6465538,5.21277433 12.3636058,6.23574048 12.3636058,7.3566502 C12.3636058,8.19461183 12.5377276,8.91286466 12.8859715,9.51140868 C13.2777457,10.1970137 13.8545244,10.6105532 14.6271904,10.7737924 C14.8339602,10.8173229 15.0298473,10.8390881 15.2148518,10.8390881 C16.2704658,10.8390881 17.1193101,10.2949572 17.7722672,9.20669536 C18.3381633,8.27079016 18.6211114,7.24782401 18.6211114,6.12691429 C18.6211114,5.27807003 18.4469896,4.57069983 18.0987457,3.98303842 Z M16.7166532,6.99752378 C16.5642966,7.71577661 16.2922311,8.24902492 15.8895742,8.60815134 C15.5739782,8.89109942 15.2801476,9.01080823 15.0080821,8.95639514 C14.7468992,8.90198204 14.5292468,8.67344705 14.3660075,8.24902492 C14.2354162,7.91166375 14.1701205,7.57430257 14.1701205,7.25870662 C14.1701205,6.98664116 14.1918857,6.7145757 14.2462988,6.46427546 C14.3442423,6.0180881 14.5292468,5.58278336 14.8230775,5.16924385 C15.1822039,4.63599553 15.5630956,4.41834316 15.9548699,4.4945215 C16.2160527,4.54893459 16.4337051,4.77746957 16.5969444,5.2018917 C16.7275358,5.53925288 16.7928315,5.87661407 16.7928315,6.19221 C16.8037141,6.47515809 16.7710662,6.74722355 16.7166532,6.99752378 Z" fill-rule="evenodd"></path>
</svg>