<svg viewBox="0 0 19 16" version="1.1" xmlns="http://www.w3.org/2000/svg" xmlns:xlink="http://www.w3.org/1999/xlink">
    <g stroke="none" stroke-width="1" fill="none" fill-rule="evenodd">
        <path d="M13.9891812,5.83080127 C13.9891812,6.48934148 14.0123891,7.14392292 13.9814453,7.80246313 C13.9505015,8.55169199 14.1749086,9.19443014 14.6391625,9.76224869 C14.6933141,9.82928375 14.7436463,9.8963188 14.7900296,9.96731261 C14.9564333,10.2236425 14.9254572,10.4010611 14.6971983,10.5982404 C14.2096719,11.0162528 13.726062,11.438158 13.2386003,11.8561703 C12.9484214,12.1045827 12.7665782,12.1006569 12.4725475,11.8561703 C12.0779172,11.5288796 11.7683822,11.1266693 11.4937076,10.6968136 C11.4279359,10.5943147 11.393108,10.5982404 11.3118644,10.6770858 C10.8243379,11.1621002 10.3097843,11.6116508 9.65595124,11.8364425 C8.64613522,12.1873868 7.62084732,12.2426116 6.60717952,11.8758652 C5.63219144,11.5209621 5.0479819,10.7875023 4.83131069,9.76620746 C4.59143165,8.62657859 4.71523914,7.54217447 5.40390013,6.57607137 C5.92622211,5.84657034 6.64971103,5.41674766 7.48153556,5.15256622 C8.34045209,4.88442601 9.22642824,4.78189406 10.1162885,4.6912054 C10.3677877,4.66359302 10.6154027,4.63993942 10.8668695,4.61628581 C10.928757,4.61232704 10.982941,4.60444251 10.9790569,4.52163838 C10.9713533,4.103659 11.0138848,3.6777621 10.9171693,3.26766725 C10.7933618,2.74323014 10.4567349,2.43563426 9.94218122,2.321259 C9.57464289,2.23845488 9.21095635,2.26210849 8.85500575,2.38436828 C8.3133601,2.57363014 7.97673318,2.9561456 7.84133795,3.52396416 C7.76783028,3.83548581 7.62466674,3.9459023 7.32675192,3.91433117 C6.69224255,3.84729612 6.05773318,3.78026107 5.42710797,3.71322601 C5.16787287,3.68561364 5.03247764,3.48450849 5.08662926,3.22817859 C5.41548786,1.59172498 6.46786776,0.672929107 7.98450149,0.250990962 C9.14906878,-0.0723409965 10.329108,-0.0920688315 11.497527,0.243106426 C12.4376872,0.511246632 13.2269802,0.984450756 13.6680262,1.92294148 C13.9195253,2.45529612 13.9775611,3.03099921 13.9852971,3.60673529 C13.993033,4.34418684 13.9852971,5.08945694 13.9891812,5.83080127 C13.9852971,5.83080127 13.9891812,5.83080127 13.9891812,5.83080127 Z M10.9790892,7.0611188 C10.9790892,6.86393942 10.9713856,6.66679302 10.9829734,6.46961364 C10.9907093,6.34735385 10.9481454,6.30397241 10.8282221,6.3158157 C10.5341591,6.34339509 10.2362766,6.34735385 9.94221359,6.38677653 C9.42765993,6.45381158 8.92466163,6.58395591 8.50682347,6.91517241 C7.89937372,7.40021983 7.77171444,8.06268581 7.87228173,8.80795591 C7.99223744,9.68333735 8.75829025,10.1683848 9.57852705,9.87659096 C10.1356446,9.67941158 10.4760909,9.26146519 10.7121182,8.7369621 C10.9597332,8.20467344 10.9790892,7.63289612 10.9790892,7.0611188 Z" fill="#FFFFFF" fill-rule="nonzero"></path>
        <path d="M13.9891812,5.83080127 C13.9891812,6.48934148 14.0123891,7.14392292 13.9814453,7.80246313 C13.9505015,8.55169199 14.1749086,9.19443014 14.6391625,9.76224869 C14.6933141,9.82928375 14.7436463,9.8963188 14.7900296,9.96731261 C14.9564333,10.2236425 14.9254572,10.4010611 14.6971983,10.5982404 C14.2096719,11.0162528 13.726062,11.438158 13.2386003,11.8561703 C12.9484214,12.1045827 12.7665782,12.1006569 12.4725475,11.8561703 C12.0779172,11.5288796 11.7683822,11.1266693 11.4937076,10.6968136 C11.4279359,10.5943147 11.393108,10.5982404 11.3118644,10.6770858 C10.8243379,11.1621002 10.3097843,11.6116508 9.65595124,11.8364425 C8.64613522,12.1873868 7.62084732,12.2426116 6.60717952,11.8758652 C5.63219144,11.5209621 5.0479819,10.7875023 4.83131069,9.76620746 C4.59143165,8.62657859 4.71523914,7.54217447 5.40390013,6.57607137 C5.92622211,5.84657034 6.64971103,5.41674766 7.48153556,5.15256622 C8.34045209,4.88442601 9.22642824,4.78189406 10.1162885,4.6912054 C10.3677877,4.66359302 10.6154027,4.63993942 10.8668695,4.61628581 C10.928757,4.61232704 10.982941,4.60444251 10.9790569,4.52163838 C10.9713533,4.103659 11.0138848,3.6777621 10.9171693,3.26766725 C10.7933618,2.74323014 10.4567349,2.43563426 9.94218122,2.321259 C9.57464289,2.23845488 9.21095635,2.26210849 8.85500575,2.38436828 C8.3133601,2.57363014 7.97673318,2.9561456 7.84133795,3.52396416 C7.76783028,3.83548581 7.62466674,3.9459023 7.32675192,3.91433117 C6.69224255,3.84729612 6.05773318,3.78026107 5.42710797,3.71322601 C5.16787287,3.68561364 5.03247764,3.48450849 5.08662926,3.22817859 C5.41548786,1.59172498 6.46786776,0.672929107 7.98450149,0.250990962 C9.14906878,-0.0723409965 10.329108,-0.0920688315 11.497527,0.243106426 C12.4376872,0.511246632 13.2269802,0.984450756 13.6680262,1.92294148 C13.9195253,2.45529612 13.9775611,3.03099921 13.9852971,3.60673529 C13.993033,4.34418684 13.9852971,5.08945694 13.9891812,5.83080127 C13.9852971,5.83080127 13.9891812,5.83080127 13.9891812,5.83080127 Z"></path>
        <path d="M10.9790892,7.0611188 C10.9790892,6.86393942 10.9713856,6.66679302 10.9829734,6.46961364 C10.9907093,6.34735385 10.9481454,6.30397241 10.8282221,6.3158157 C10.5341591,6.34339509 10.2362766,6.34735385 9.94221359,6.38677653 C9.42765993,6.45381158 8.92466163,6.58395591 8.50682347,6.91517241 C7.89937372,7.40021983 7.77171444,8.06268581 7.87228173,8.80795591 C7.99223744,9.68333735 8.75829025,10.1683848 9.57852705,9.87659096 C10.1356446,9.67941158 10.4760909,9.26146519 10.7121182,8.7369621 C10.9597332,8.20467344 10.9790892,7.63289612 10.9790892,7.0611188 Z"></path>
        <path d="M9.5475509,15.9611435 C6.59552705,15.9414157 3.94526981,15.1685662 1.5503635,13.5399642 C1.06286947,13.2087147 0.598583265,12.845927 0.157537268,12.4476755 C0.118857541,12.4121786 0.0801454453,12.3767147 0.0492016634,12.3333002 C0.00663777921,12.2741497 -0.0243060027,12.2031889 0.0259938269,12.1321951 C0.0762936565,12.0533167 0.161421425,12.0454322 0.234929091,12.0809291 C0.40515226,12.1637332 0.567671851,12.2544219 0.734010863,12.3411848 C2.25841291,13.1613745 3.86402619,13.7528796 5.54703131,14.1274776 C7.07140098,14.4666116 8.61124255,14.6243683 10.1743243,14.5809538 C12.4067434,14.5178776 14.5578865,14.0604425 16.627786,13.2126075 C16.7283856,13.169259 16.8328695,13.1258776 16.9373209,13.102191 C17.0843686,13.0745786 17.2313839,13.0943064 17.2971557,13.2559889 C17.3590432,13.4058281 17.2777996,13.5241291 17.169464,13.6187765 C17.0920722,13.6857786 17.0030926,13.7410033 16.9141131,13.8001538 C15.5793226,14.6834528 14.1168405,15.2512714 12.569263,15.6022487 C11.5478269,15.8389167 10.5109512,15.953226 9.5475509,15.9611435 Z" fill="#FFFFFF"></path>
        <path d="M16.9953567,12.4476755 C16.5504265,12.4437167 16.1093805,12.5028673 15.6683022,12.5501745 C15.5831744,12.558059 15.4864589,12.5817126 15.4477792,12.4870982 C15.4013635,12.3806075 15.4903431,12.3175312 15.5638507,12.2662652 C16.1132647,11.895626 16.728418,11.7497126 17.3745475,11.7142157 C17.8194776,11.6866363 18.2605236,11.7063642 18.6938661,11.8404013 C18.8911812,11.8995518 18.9878967,12.0178528 18.9840449,12.2229167 C18.9608371,13.3191312 18.6010023,14.273424 17.8233618,15.0502652 C17.7962698,15.0778776 17.765326,15.1015312 17.7343822,15.1251848 C17.6647587,15.1764837 17.579631,15.223758 17.5060909,15.1606817 C17.4364674,15.1015312 17.4751471,15.0147683 17.5060909,14.9438075 C17.7343822,14.3641456 17.9665253,13.7884425 18.0786804,13.169325 C18.0941846,13.0904466 18.0980364,13.0116013 18.1019206,12.9366487 C18.1057724,12.6803188 18.0167928,12.5699353 17.7691778,12.506859 C17.5099427,12.4358322 17.2507076,12.4476755 16.9953567,12.4476755 Z" fill="#FFFFFF"></path>
    </g>
</svg>