<svg viewBox="0 0 43 12" version="1.1" xmlns="http://www.w3.org/2000/svg" xmlns:xlink="http://www.w3.org/1999/xlink">
    <g stroke="none" stroke-width="1" fill="none" fill-rule="evenodd">
        <g fill="#FFFFFF">
            <path d="M22.192,5.232 L22.192,4.234 C22.192,4.234 22.138,3.453 21.31,3.453 L20.022,3.453 L20.022,5.232 L18.7,5.232 L18.7,0.102 L21.91,0.102 C21.91,0.102 23.584,-0.098 23.584,1.603 C23.584,2.489 22.844,2.801 22.844,2.801 C22.844,2.801 23.487,3.097 23.487,3.965 L23.487,5.232 L22.192,5.232 M20.022,2.246 L21.389,2.246 C21.786,2.246 22.112,2.029 22.112,1.76 C22.112,1.49 21.786,1.273 21.389,1.273 L20.022,1.273 L20.022,2.246" fill-rule="nonzero"></path>
            <path d="M37.796,5.232 L35.698,1.803 L35.698,5.232 L33.106,5.232 L32.639,4.156 L30.223,4.156 L29.764,5.232 L27.692,5.232 C27.692,5.232 25.912,4.981 25.912,2.81 C25.912,-0.038 27.932,0.075 28.001,0.058 L29.632,0.102 L29.632,1.256 L28.292,1.273 C28.292,1.273 27.419,1.273 27.313,2.393 C27.301115,2.51162237 27.2954405,2.63078504 27.296,2.75 C27.301,4.485 28.825,3.946 28.874,3.93 L30.514,0.102 L32.364,0.102 L34.348,4.755 L34.348,0.102 L36.218,0.102 L38.289,3.479 L38.289,0.102 L39.621,0.102 L39.621,5.232 L37.796,5.232 M30.788,2.845 L32.074,2.845 L31.44,1.317 L30.788,2.845" fill-rule="nonzero"></path>
            <path d="M11.815,5.232 L11.815,1.691 L10.158,5.232 L9.074,5.232 L7.408,1.708 L7.408,5.232 L4.798,5.232 L4.34,4.156 L1.925,4.156 L1.457,5.232 L0.011,5.232 L2.206,0.102 L4.066,0.102 L6.076,4.816 L6.076,0.102 L8.166,0.102 L9.62,3.288 L11.067,0.102 L13.157,0.102 L13.157,5.232 L11.815,5.232 M2.488,2.845 L3.775,2.845 L3.132,1.317 L2.488,2.845" fill-rule="nonzero"></path>
            <polyline points="13.887 5.232 13.887 0.102 18.014 0.102 18.014 1.3 15.219 1.3 15.219 2.09 17.943 2.09 17.943 3.253 15.219 3.253 15.219 4.122 18.014 4.122 18.014 5.232 13.887 5.232"></polyline>
            <polyline points="24.132 5.25 24.132 0.102 25.463 0.102 25.463 5.25 24.132 5.25"></polyline>
            <path d="M27.297,11.767 L27.297,10.769 C27.297,10.769 27.244,9.988 26.415,9.988 L25.129,9.988 L25.129,11.768 L23.807,11.768 L23.807,6.636 L27.016,6.636 C27.016,6.636 28.691,6.436 28.691,8.138 C28.691,9.023 27.951,9.336 27.951,9.336 C27.951,9.336 28.586,9.631 28.586,10.499 L28.586,11.767 L27.298,11.767 M25.129,8.781 L26.497,8.781 C26.893,8.781 27.219,8.565 27.219,8.295 C27.219,8.026 26.893,7.809 26.497,7.809 L25.129,7.809 L25.129,8.781" fill-rule="nonzero"></path>
            <path d="M18.481,11.759 L17.325,11.759 L15.925,10.239 L14.513,11.759 L9.594,11.759 L9.594,6.619 L14.409,6.619 L15.926,8.252 L17.45,6.628 L18.464,6.628 L18.464,6.619 L21.672,6.619 C21.672,6.619 23.347,6.437 23.347,8.129 C23.347,9.64 22.791,10.109 21.081,10.109 L19.786,10.109 L19.786,11.759 L18.481,11.759 M16.824,9.233 L18.464,11.021 L18.464,7.453 L16.824,9.233 M10.926,10.649 L13.711,10.649 L15.016,9.234 L13.711,7.827 L10.926,7.827 L10.926,8.617 L13.641,8.617 L13.641,9.779 L10.926,9.779 L10.926,10.647 M19.786,8.771 L21.152,8.771 C21.549,8.771 21.875,8.554 21.875,8.285 C21.875,8.016 21.549,7.798 21.152,7.798 L19.786,7.798 L19.786,8.771" fill-rule="nonzero"></path>
            <path d="M36.315,11.751 L33.961,11.751 L33.961,10.569 L36.024,10.569 C36.024,10.569 36.764,10.656 36.764,10.162 C36.764,9.701 35.646,9.737 35.646,9.737 C35.646,9.737 33.821,9.893 33.821,8.209 C33.821,6.533 35.469,6.629 35.469,6.629 L38.009,6.629 L38.009,7.826 L35.963,7.826 C35.963,7.826 35.257,7.686 35.257,8.192 C35.257,8.616 36.217,8.555 36.217,8.555 C36.217,8.555 38.237,8.408 38.237,9.953 C38.237,11.61 36.936,11.757 36.475,11.757 C36.375,11.757 36.315,11.751 36.315,11.751"></path>
            <polyline points="29.237 11.759 29.237 6.637 33.361 6.637 33.361 7.826 30.567 7.826 30.567 8.616 33.291 8.616 33.291 9.78 30.567 9.78 30.567 10.649 33.361 10.649 33.361 11.759 29.237 11.759"></polyline>
            <path d="M40.979,11.751 L38.624,11.751 L38.624,10.569 L40.679,10.569 C40.679,10.569 41.428,10.656 41.428,10.162 C41.428,9.701 40.309,9.737 40.309,9.737 C40.309,9.737 38.484,9.893 38.484,8.209 C38.484,6.533 40.132,6.629 40.132,6.629 L42.662,6.629 L42.662,7.826 L40.625,7.826 C40.625,7.826 39.92,7.686 39.92,8.192 C39.92,8.616 40.882,8.555 40.882,8.555 C40.882,8.555 42.9,8.408 42.9,9.953 C42.9,11.61 41.6,11.757 41.138,11.757 C41.038,11.757 40.978,11.751 40.978,11.751"></path>
        </g>
    </g>
</svg>