<svg viewBox="0 0 12 16" version="1.1" xmlns="http://www.w3.org/2000/svg" xmlns:xlink="http://www.w3.org/1999/xlink" preserveAspectRatio="xMidYMid">
    <path d="M9.31811742,6.82310235 C9.98006018,6.92493971 10.4383282,7.23045177 10.6929216,7.63780115 C10.947515,8.04515053 11.100271,8.75801197 11.100271,9.67454812 C11.100271,11.5076204 10.5401656,13.0351806 9.41995473,14.2063102 C8.29974391,15.3774397 6.87402103,15.9884637 5.14278612,15.9884637 C4.48084336,15.9884637 3.81890057,15.8866264 3.15695781,15.632033 C2.49501504,15.3774397 1.9858283,15.0210089 1.52756023,14.6136595 C1.01837349,14.1553915 0.611024091,13.595286 0.35643072,13.0860993 C0.152756023,12.5259939 0,11.9658885 0,11.4057831 C0,10.7947589 0.152756023,10.2855722 0.407349394,9.92914151 C0.661942764,9.57271076 1.12021084,9.36903605 1.68031625,9.21628007 C1.5784789,8.96168668 1.47664156,8.75801197 1.42572288,8.5543373 C1.37480421,8.40158127 1.32388553,8.24882524 1.32388553,8.14698788 C1.32388553,7.84147586 1.47664156,7.48504512 1.83307228,7.12861442 C2.18950299,6.77218367 2.49501504,6.61942764 2.80052709,6.61942764 C2.95328311,6.61942764 3.05512046,6.61942764 3.20787648,6.67034632 C3.36063251,6.721265 3.51338853,6.77218367 3.71706322,6.92493971 C3.25879516,5.39737947 2.80052709,4.12441262 2.54593371,3.25879516 C2.29134034,2.3931777 2.18950299,1.83307228 2.18950299,1.47664156 C2.18950299,1.01837349 2.29134034,0.661942764 2.54593371,0.407349394 C2.74960841,0.152756023 3.10603913,0 3.51338853,0 C4.1753313,0 5.04094877,1.52756023 6.11024091,4.63359935 C6.31391562,5.14278612 6.41575298,5.5501355 6.51759033,5.85564757 C6.61942764,5.65197286 6.721265,5.29554211 6.87402103,4.88819274 C7.94331321,1.83307228 8.85984932,0.305512046 9.57271076,0.305512046 C9.92914151,0.305512046 10.2346535,0.407349394 10.4892469,0.661942764 C10.6929216,0.916536139 10.8456776,1.27296686 10.8456776,1.68031625 C10.8456776,1.9858283 10.7438403,2.59685239 10.4892469,3.46246985 C10.1837349,4.32808732 9.82730415,5.44829815 9.31811742,6.82310235 Z M1.47664156,11.3039457 C1.5784789,11.4057831 1.73123493,11.6094577 1.88399095,11.8640511 C2.34225902,12.5259939 2.80052709,12.8824246 3.20787648,12.8824246 C3.36063251,12.8824246 3.46246985,12.831506 3.5643072,12.7296686 C3.66614455,12.6278312 3.71706322,12.5259939 3.71706322,12.4750752 C3.71706322,12.3732379 3.66614455,12.1695631 3.51338853,11.9149698 C3.36063251,11.6603764 3.15695781,11.3548644 2.90236444,11.0493523 C2.59685239,10.6929216 2.34225902,10.3874096 2.18950299,10.2346535 C1.9858283,10.0818975 1.83307228,9.98006018 1.73123493,9.98006018 C1.47664156,9.98006018 1.22204818,10.1328162 1.01837349,10.3874096 C0.814698788,10.6420029 0.712861442,10.9984336 0.712861442,11.3548644 C0.712861442,11.6603764 0.763780115,11.9658885 0.916536139,12.3732379 C1.06929216,12.7296686 1.27296686,13.137018 1.5784789,13.4934487 C2.03674697,14.0026354 2.54593371,14.4609035 3.20787648,14.7664156 C3.86981925,15.0719276 4.53176199,15.2246836 5.34646079,15.2246836 C6.77218367,15.2246836 7.94331321,14.7154969 8.910768,13.6462047 C9.87822283,12.5769126 10.3364909,11.253027 10.3364909,9.62362944 C10.3364909,9.11444271 10.2855722,8.75801197 10.2346535,8.45249995 C10.1837349,8.14698788 10.0309789,7.94331321 9.87822283,7.84147586 C9.57271076,7.58688247 9.01260536,7.38320776 8.14698788,7.17953309 C7.28137045,6.97585838 6.3648343,6.87402103 5.44829815,6.87402103 C5.1937048,6.87402103 4.99003009,6.92493971 4.88819274,7.02677706 C4.78635538,7.12861442 4.7354367,7.28137045 4.7354367,7.48504512 C4.7354367,7.99423185 4.99003009,8.35066259 5.5501355,8.5543373 C6.11024091,8.75801197 7.02677706,8.910768 8.24882524,8.910768 L8.70709329,8.910768 C8.80893064,8.910768 8.910768,8.96168668 8.96168668,9.01260536 C9.01260536,9.11444271 9.06352403,9.21628007 9.06352403,9.36903605 C8.96168668,9.47087341 8.70709329,9.62362944 8.29974391,9.77638547 C7.89239454,9.92914151 7.63780115,10.0818975 7.43412644,10.2346535 C6.97585838,10.5401656 6.61942764,10.947515 6.3648343,11.4057831 C6.11024091,11.8640511 5.95748488,12.2714005 5.95748488,12.6787499 C5.95748488,12.9333433 6.00840356,13.1879367 6.11024091,13.5443673 C6.21207827,13.9007981 6.26299694,14.1044728 6.26299694,14.1553915 L6.26299694,14.2572288 L6.26299694,14.3590661 C5.95748488,14.3590661 5.70289153,14.1553915 5.49921682,13.7989607 C5.29554211,13.44253 5.24462344,12.9842619 5.24462344,12.3732379 L5.24462344,12.2714005 C5.1937048,12.3223192 5.14278612,12.3732379 5.09186745,12.3732379 C5.04094877,12.3732379 4.99003009,12.4241565 4.88819274,12.4241565 L4.68451803,12.4241565 C4.63359935,12.4241565 4.58268067,12.3732379 4.48084336,12.3732379 C4.48084336,12.4750752 4.53176199,12.5259939 4.53176199,12.6278312 L4.53176199,12.831506 C4.53176199,13.0860993 4.42992468,13.3406927 4.22624997,13.5443673 C4.02257527,13.7480421 3.7679819,13.8498794 3.46246985,13.8498794 C3.00420179,13.8498794 2.54593371,13.6462047 2.03674697,13.1879367 C1.5784789,12.7296686 1.32388553,12.3223192 1.32388553,11.8640511 C1.32388553,11.7622138 1.32388553,11.7112951 1.37480421,11.6603764 C1.37480421,11.4057831 1.42572288,11.3548644 1.47664156,11.3039457 Z M4.78635538,11.5585391 C4.88819274,11.5585391 5.04094877,11.5076204 5.14278612,11.4057831 C5.24462344,11.3039457 5.29554211,11.1511897 5.29554211,11.0493523 C5.29554211,10.8965963 5.1937048,10.5910843 4.99003009,10.0818975 C4.78635538,9.57271076 4.53176199,9.06352403 4.22624997,8.60525598 C4.02257527,8.24882524 3.7679819,7.94331321 3.5643072,7.79055718 C3.36063251,7.58688247 3.15695781,7.53596379 2.95328311,7.53596379 C2.80052709,7.53596379 2.64777107,7.63780115 2.44409637,7.84147586 C2.24042167,8.04515053 2.18950299,8.19790656 2.18950299,8.40158127 C2.18950299,8.5543373 2.29134034,8.85984932 2.44409637,9.21628007 C2.64777107,9.57271076 2.85144576,9.92914151 3.15695781,10.3364909 C3.46246985,10.7438403 3.7679819,11.100271 4.07349394,11.3548644 C4.37900601,11.4567017 4.58268067,11.5585391 4.78635538,11.5585391 Z M5.85564757,6.26299694 L4.63359935,2.85144576 C4.32808732,1.9858283 4.12441262,1.37480421 3.92073792,1.12021084 C3.7679819,0.865617466 3.61522588,0.712861442 3.41155118,0.712861442 C3.25879516,0.712861442 3.15695781,0.763780115 3.05512046,0.865617466 C2.90236444,1.01837349 2.85144576,1.17112951 2.85144576,1.37480421 C2.85144576,1.73123493 3.00420179,2.29134034 3.25879516,3.10603913 C3.51338853,3.92073792 3.92073792,5.04094877 4.42992468,6.3648343 C4.48084336,6.26299694 4.53176199,6.21207827 4.63359935,6.21207827 C4.7354367,6.16115959 4.83727406,6.16115959 4.93911141,6.16115959 L5.1937048,6.16115959 C5.34646079,6.21207827 5.5501355,6.21207827 5.85564757,6.26299694 Z M7.07769574,9.57271076 C6.77218367,9.57271076 6.46667165,9.52179209 6.16115959,9.47087341 C5.85564757,9.41995473 5.60105418,9.36903605 5.34646079,9.26719874 C5.44829815,9.52179209 5.5501355,9.7254668 5.65197286,9.98006018 C5.75381021,10.2346535 5.80472889,10.4383282 5.85564757,10.6929216 C6.00840356,10.4892469 6.21207827,10.2855722 6.41575298,10.0818975 C6.67034632,9.87822283 6.87402103,9.7254668 7.07769574,9.57271076 Z M8.5543373,6.61942764 C9.06352403,5.29554211 9.41995473,4.1753313 9.7254668,3.30971383 C9.98006018,2.44409637 10.1328162,1.93490962 10.1328162,1.73123493 C10.1328162,1.52756023 10.0818975,1.37480421 9.98006018,1.22204818 C9.87822283,1.12021084 9.77638547,1.06929216 9.62362944,1.06929216 C9.41995473,1.06929216 9.21628007,1.22204818 9.01260536,1.5784789 C8.80893064,1.93490962 8.5543373,2.44409637 8.29974391,3.20787648 L7.17953309,6.3648343 L8.5543373,6.61942764 Z" fill="FFFFFF"></path>
</svg>