<svg viewBox="0 0 26 16" version="1.1" xmlns="http://www.w3.org/2000/svg" xmlns:xlink="http://www.w3.org/1999/xlink">
    <path d="M12.987234,13.7361702 L25.8723404,5.70212766 L25.8723404,7.88085106 L12.987234,15.9489362 L0.085106383,7.88085106 L0.085106383,5.70212766 L12.987234,13.7361702 Z M12.987234,3.65957447 C15.8808511,3.65957447 18.4510638,5.17446809 19.9489362,7.37021277 L18.0595745,8.5787234 C15.2170213,4.78297872 9.99148936,4.10212766 6.36595745,7.11489362 C6.24680851,7.2 6.1787234,7.26808511 6.05957447,7.38723404 C7.52340426,5.12340426 10.0765957,3.65957447 12.987234,3.65957447 Z M12.987234,7.38723404 C11.4042553,7.38723404 10.0085106,8.18723404 9.17446809,9.34468085 C9.85531915,8.85106383 10.6382979,8.59574468 11.4723404,8.59574468 C12.8680851,8.59574468 14.1106383,9.3106383 14.9446809,10.5191489 L16.7489362,9.39574468 C15.9659574,8.15319149 14.5702128,7.38723404 12.987234,7.38723404 M4.27234043,4.11914894 C9.58297872,-0.0680851064 17.0893617,1.07234043 21.0893617,6.63829787 L21.1234043,6.67234043 L23.0808511,5.46382979 C20.9361702,2.1787234 17.2085106,8.8817842e-14 12.987234,8.8817842e-14 C8.8,8.8817842e-14 5.07234043,2.14468085 2.89361702,5.46382979 C3.28510638,5.0212766 3.7787234,4.49361702 4.27234043,4.11914894" fill="#FFFFFF"></path>
</svg>