<svg viewBox="0 0 16 16" version="1.1" xmlns="http://www.w3.org/2000/svg" xmlns:xlink="http://www.w3.org/1999/xlink">
    <g stroke="none" stroke-width="1" fill="none" fill-rule="evenodd">
        <g fill="#EDEDED" fill-rule="nonzero">
            <path d="M15.7586667,9.936 C14.6906667,14.2226667 10.35,16.8293333 6.064,15.76 C1.78,14.7 -0.829333333,10.35 0.241333333,6.07 C1.308,1.78 5.65,-0.828666667 9.93333333,0.238666667 C14.22,1.30866667 16.828,5.64866667 15.7586667,9.93733333 L15.7586667,9.936 Z M11.5253333,6.86066667 C11.6853333,5.80066667 10.876,5.22733333 9.76533333,4.84066667 L10.1253333,3.40533333 L9.24866667,3.18533333 L8.89866667,4.59 C8.66866667,4.532 8.42866667,4.47866667 8.18933333,4.42333333 L8.54,3.00533333 L7.66,2.78533333 L7.3,4.22866667 C7.11,4.184 6.92333333,4.14066667 6.74,4.09533333 L5.53,3.79533333 L5.29666667,4.73333333 C5.29666667,4.73333333 5.94666667,4.88333333 5.93333333,4.89066667 C6.29,4.98133333 6.35333333,5.21466667 6.34333333,5.40133333 L5.35866667,9.348 C5.30866667,9.45866667 5.19866667,9.61866667 4.94933333,9.55733333 C4.95933333,9.57066667 4.30933333,9.39733333 4.30933333,9.39733333 L3.86933333,10.404 L5.00933333,10.688 L5.62933333,10.8493333 L5.26933333,12.3093333 L6.14933333,12.5273333 L6.50933333,11.0806667 C6.74933333,11.1473333 6.97933333,11.2073333 7.20933333,11.2626667 L6.86933333,12.6986667 L7.74933333,12.9186667 L8.11266667,11.4586667 C9.606,11.7433333 10.7326667,11.63 11.206,10.276 C11.586,9.18466667 11.186,8.556 10.3946667,8.14533333 C10.964,8.01666667 11.3946667,7.63866667 11.5146667,6.85866667 L11.5213333,6.85866667 L11.5253333,6.86066667 Z M9.51866667,9.674 C9.24933333,10.7673333 7.414,10.174 6.81866667,10.0273333 L7.29866667,8.094 C7.896,8.24733333 9.80333333,8.54066667 9.51866667,9.674 Z M9.792,6.84733333 C9.54533333,7.84066667 8.01733333,7.33733333 7.522,7.214 L7.958,5.454 C8.454,5.574 10.0493333,5.80333333 9.79133333,6.84333333 L9.79133333,6.84733333 L9.792,6.84733333 Z"></path>
        </g>
    </g>
</svg>