<svg role="img" aria-label="Buffer" viewBox="0 0 16 16" version="1.1" xmlns="http://www.w3.org/2000/svg" xmlns:xlink="http://www.w3.org/1999/xlink">
    <path d="M8.33234583,0.0924931983 C10.6553382,1.17005045 13.0164985,2.28284434 15.3363153,3.36711915 C15.4601016,3.42501228 15.6224222,3.46440159 15.6226054,3.63966877 C15.6228496,3.81524129 15.4607122,3.85432526 15.3366817,3.91227946 C13.0075825,5.0015619 10.6781779,6.09017259 8.34730766,7.1756077 C7.9923153,7.34092067 7.62773515,7.33878327 7.27225423,7.17310388 C4.93704815,6.08455427 2.60275807,4.99405045 0.268895474,3.90269167 C0.148773336,3.84656953 -0.00237170177,3.80400465 0.0023305883,3.63319549 C0.0067275349,3.47337869 0.151277153,3.43185198 0.266880206,3.37780617 C2.6105138,2.28278327 4.97790311,1.17041686 7.32459011,0.0820504502 C7.57265118,-0.032819779 8.07384202,-0.0250029851 8.33234583,0.0924931983 Z M7.8094756,15.973226 C7.6404985,15.973226 7.51384202,15.9091039 7.27243744,15.8187833 C4.94052906,14.7370733 2.61149089,13.6491955 0.282635932,12.5609512 C0.158849672,12.5031191 -0.00145567124,12.4622642 9.97761872e-06,12.2858978 C0.00153669518,12.1104474 0.161964176,12.0717298 0.285750435,12.0128596 C0.672071047,11.8291649 1.06034586,11.649623 1.44843746,11.4697756 C1.83616265,11.2900504 2.22138402,11.2925543 2.61026952,11.4748443 C4.15402525,12.1985085 5.69949089,12.9185695 7.24391835,13.6406459 C7.62736873,13.8199436 8.00764354,13.8162184 8.39066644,13.6367985 C9.93936873,12.9115466 11.4888649,12.1878214 13.0384832,11.4644016 C13.4044069,11.2935924 13.775155,11.2888291 14.1427886,11.4554245 C14.5561626,11.6427222 14.9665443,11.8367375 15.3772313,12.0297756 C15.4381168,12.0584169 15.4998573,12.0907222 15.5508496,12.1336535 C15.6605901,12.2261115 15.6620558,12.3513634 15.5500558,12.4410733 C15.4819642,12.4956077 15.4004985,12.5357909 15.3206206,12.5730428 C13.0105748,13.65231 10.7008344,14.7322489 8.38767408,15.8048596 C8.20788782,15.8881573 7.9784527,15.973226 7.8094756,15.973226 Z M7.8012924,11.6481573 C7.72404049,11.6481573 7.42382675,11.5662031 7.25301759,11.4868749 C4.930697,10.4084016 2.61149089,9.32327182 0.29210158,8.23856953 C0.167521428,8.18030999 0.00507867991,8.14269166 0.00184203869,7.96913441 C-0.00157780864,7.78501228 0.168437458,7.74818785 0.296681733,7.68718021 C0.687277154,7.50122602 1.07897181,7.31734815 1.47207105,7.13670693 C1.84483441,6.96547029 2.21820845,6.96950083 2.59066647,7.14348556 C4.15005578,7.87185197 5.70938402,8.60040159 7.26993362,9.32638632 C7.63115499,9.49444739 7.99799469,9.49316495 8.3595214,9.3248596 C9.92452904,8.59612678 11.4884374,7.86513441 13.0532008,7.13591304 C13.4150329,6.96730235 13.780529,6.96742449 14.1426054,7.13261533 C14.5551855,7.32082907 14.9652008,7.5147222 15.3756435,7.70751609 C15.43201,7.73401991 15.4897809,7.76198937 15.5380863,7.80034052 C15.6626054,7.89927182 15.6616283,8.02989777 15.5356435,8.12895121 C15.487155,8.16705808 15.4295672,8.19521075 15.3731397,8.22159243 C13.0299947,9.31698174 10.6872771,10.4133482 8.34126186,11.5025085 C8.17997942,11.5774398 7.87848324,11.6481573 7.8012924,11.6481573 Z" fill="#FFFFFF"></path>
</svg>