<svg viewBox="0 0 16 16" version="1.1" xmlns="http://www.w3.org/2000/svg" xmlns:xlink="http://www.w3.org/1999/xlink">
    <g stroke="none" stroke-width="1" fill="none" fill-rule="evenodd">
        <g fill="#FFFFFF" fill-rule="nonzero">
            <path d="M15.9879375,5.4429375 C15.98425,5.4235625 15.9810625,5.4041875 15.975875,5.3851875 C15.972625,5.37375 15.96875,5.363 15.965125,5.35175 C15.9598741,5.33486218 15.9539738,5.31818312 15.9474375,5.30175 C15.9426875,5.290375 15.9373125,5.279375 15.932125,5.268375 C15.9249365,5.25284308 15.9170962,5.23762123 15.908625,5.22275 C15.902625,5.21175 15.8956875,5.201375 15.8890625,5.190875 C15.8730697,5.16597937 15.8554917,5.14213846 15.8364375,5.1195 C15.8255567,5.10667774 15.8142159,5.09425296 15.8024375,5.08225 C15.793375,5.0731875 15.7843125,5.064125 15.7748125,5.0553125 C15.7623044,5.0439022 15.7492913,5.033058 15.7358125,5.0228125 C15.7255,5.0148125 15.715375,5.0065625 15.7045625,4.99925 C15.70075,4.9965 15.69725,4.99325 15.6931875,4.990625 L8.3811875,0.115625 C8.15034721,-0.0384472979 7.84946529,-0.0384472979 7.618625,0.115625 L0.306125,4.9905 C0.3020625,4.9930625 0.298875,4.9963125 0.29475,4.999125 C0.284,5.006625 0.273875,5.014625 0.2635,5.022625 C0.250220978,5.03305455 0.237216546,5.04382906 0.2245,5.0549375 C0.215058266,5.0635674 0.205927458,5.07253143 0.197125,5.0818125 C0.1850625,5.0939375 0.173875,5.1061875 0.162875,5.119125 C0.15475,5.1288125 0.1469375,5.1385 0.139375,5.1493125 C0.1290625,5.162875 0.1195625,5.1766875 0.1103125,5.191125 C0.103625,5.2016875 0.0969375,5.212 0.0906875,5.223 C0.0823007826,5.23774759 0.0745438016,5.25284451 0.0674375,5.26825 C0.06225,5.27925 0.0566875,5.2904375 0.052125,5.301625 C0.0454375,5.318 0.039625,5.3348125 0.03425,5.351625 C0.030625,5.362875 0.02675,5.3738125 0.0236875,5.3839375 C0.0186875,5.402875 0.0150625,5.4220625 0.011625,5.4416875 C0.00975,5.451625 0.0073125,5.4613125 0.006,5.4714375 C0.002125,5.501125 -1.48769885e-14,5.530875 -1.48769885e-14,5.56125 L-1.48769885e-14,10.43725 C-1.48769885e-14,10.467375 0.002125,10.4975625 0.0064375,10.5270625 C0.008,10.537875 0.0108125,10.5464375 0.0129375,10.5568125 C0.016375,10.5761875 0.019375,10.5955625 0.025875,10.615 C0.028875,10.62575 0.0323125,10.6365625 0.036625,10.648375 C0.042,10.665625 0.047375,10.682875 0.053875,10.698625 C0.058375,10.709375 0.064625,10.720125 0.0689375,10.7309375 C0.0760625,10.746 0.0840625,10.7610625 0.0926875,10.7768125 C0.0986875,10.7875625 0.1055625,10.798375 0.1120625,10.80825 C0.1213125,10.823375 0.1314375,10.8363125 0.1421875,10.8491875 C0.14975,10.86 0.1573125,10.8685625 0.1659375,10.8789375 C0.176875,10.891875 0.1874375,10.9048125 0.200375,10.91625 C0.2091875,10.9248125 0.217625,10.935625 0.228375,10.9420625 C0.240875,10.952875 0.25425,10.963625 0.267125,10.9748125 C0.2775,10.9834375 0.28875,10.9899375 0.2973125,10.9983125 C0.3014375,11.0004375 0.3038125,11.00475 0.308125,11.0066875 L7.618625,15.8841875 C7.73123433,15.960202 7.86413736,16.0005173 8,15.999875 C8.1357193,15.9996085 8.26835743,15.9593954 8.381375,15.88425 L15.693875,11.00925 C15.6979375,11.00675 15.701375,11.0036875 15.70525,11.000875 C15.716,10.993375 15.726125,10.985375 15.7365,10.9774375 C15.749875,10.9668125 15.763,10.955875 15.7755,10.9446875 C15.7849375,10.93625 15.794,10.927 15.8030625,10.9179375 C15.8238039,10.8970053 15.8430197,10.8746147 15.8605625,10.8509375 C15.8709375,10.837375 15.8804375,10.823375 15.8896875,10.809125 C15.896375,10.7988125 15.9030625,10.78825 15.9093125,10.7776875 C15.9179375,10.7625625 15.9254375,10.7473125 15.93275,10.7318125 C15.9379375,10.7208125 15.943375,10.7098125 15.9480625,10.698625 C15.95475,10.682 15.960375,10.6651875 15.96575,10.648375 C15.969375,10.6371875 15.97325,10.6261875 15.9765,10.615 C15.9815,10.5960625 15.9849375,10.576625 15.9885625,10.55725 C15.9903125,10.5473125 15.9929375,10.537625 15.9939375,10.5275 C15.997875,10.4978125 16,10.4680625 16,10.4376875 L16,5.5625 C16,5.532125 15.997625,5.502375 15.9939375,5.472625 C15.99225,5.4620625 15.989,5.4535 15.986875,5.4429375 L15.9879375,5.4429375 Z M7.9998125,9.626375 L5.56825,8.0000625 L7.9998125,6.3735 L10.4315,8.0000625 L7.9998125,9.626375 Z M7.3124375,5.1791875 L4.3316875,7.1729375 L1.925625,5.5633125 L7.3125,1.9721875 L7.3125,5.1791875 L7.3124375,5.1791875 Z M3.095125,7.9998125 L1.3753125,9.1501875 L1.3753125,6.8495 L3.095125,7.9998125 Z M4.3316875,8.827625 L7.3125,10.821125 L7.3125,14.028125 L1.925625,10.4365625 L4.33175,8.8271875 L4.33175,8.827625 L4.3316875,8.827625 Z M8.6873125,10.82075 L11.6680625,8.82725 L14.074375,10.4365625 L8.6873125,14.0276875 L8.6873125,10.8206875 L8.6873125,10.82075 Z M12.904625,8.00025 L14.6246875,6.8496875 L14.6246875,9.150625 L12.9046875,7.9998125 L12.9046875,8.00025 L12.904625,8.00025 Z M11.6680625,7.172875 L8.6873125,5.179375 L8.6873125,1.9721875 L14.074375,5.563375 L11.668125,7.172875 L11.6680625,7.172875 Z"></path>
        </g>
    </g>
</svg>