<svg viewBox="0 0 16 16" version="1.1" xmlns="http://www.w3.org/2000/svg" xmlns:xlink="http://www.w3.org/1999/xlink">
    <g stroke="none" stroke-width="1" fill="none" fill-rule="evenodd">
        <g fill="#FFFFFF" fill-rule="nonzero">
            <path d="M16,7.64326206 L16,8.35745213 C15.9949959,8.39619694 15.9886749,8.43422756 15.9853827,8.47279382 C15.9581235,8.7834665 15.9404774,9.0961032 15.9028148,9.40445476 C15.7798189,10.406642 15.5139424,11.3381244 15.1188807,12.1994376 C14.5189136,13.5071196 13.7078519,14.5043075 12.6885926,15.1852877 C12.1003197,15.5801901 11.4660463,15.8339666 10.813893,15.9353658 C10.669037,15.9580413 10.5243128,15.9783958 10.3794568,16 L4.75851852,16 C4.73020576,15.9928581 4.70202469,15.9814311 4.67344856,15.9791099 C4.10666667,15.9307236 3.56134979,15.7555685 3.04158025,15.4472169 C1.90999177,14.7758782 1.0662716,13.6878097 0.513975309,12.1901531 C0.269925036,11.5295554 0.11198663,10.8167017 0.0471440329,10.0831139 C0.0312098765,9.9047449 0.0156707819,9.72655448 0,9.54836406 L0,8.85542115 C0.00539917695,8.81703343 0.0136954733,8.77864572 0.0154074074,8.74007945 C0.0447736626,8.07427577 0.145514403,7.42775521 0.322897119,6.80640986 C0.800263374,5.13449092 1.63239506,3.89447842 2.8149465,3.09190733 C3.42847737,2.67535598 4.08243621,2.45645672 4.76641975,2.4078918 C5.10130041,2.38432353 5.4359177,2.40967728 5.76882305,2.47020488 C5.79897942,2.47573986 5.84243621,2.45752801 5.86337449,2.42842476 C6.34205761,1.76547784 6.88711111,1.22697853 7.50169547,0.818818908 C8.09784362,0.422979065 8.72520165,0.167834665 9.38561317,0.0657054859 C9.54100412,0.0416015712 9.69679012,0.0217827969 9.85244444,0 L10.3316543,0 C10.3629959,0.00660625809 10.3944691,0.0141052538 10.4258107,0.0191045842 C10.6632428,0.0565995626 10.9019918,0.0801678347 11.1371852,0.133553542 C11.8709465,0.300495469 12.5540082,0.657590501 13.186107,1.18805517 C14.1553251,2.00151765 14.8939588,3.10262018 15.3985844,4.4888631 C15.6904252,5.28684346 15.877793,6.14750412 15.9523292,7.03245101 C15.9694486,7.23617373 15.9840658,7.43989644 16,7.64326206 M7.05382716,3.02191671 C7.06344033,3.03905727 7.0658107,3.04709191 7.069893,3.04977012 C7.39897626,3.26969953 7.71350595,3.52757879 8.01000823,3.82055975 C8.02870782,3.83895014 8.07506173,3.8312726 8.09771193,3.81198947 C8.91259259,3.11190466 9.79595062,2.87032987 10.7448889,3.09851359 C11.6747325,3.32205508 12.4314074,3.95197072 13.0095144,4.95808597 C13.6641317,6.09668348 13.913679,7.38418962 13.7330041,8.81667634 C13.6118519,9.77672633 13.3281975,10.6380395 12.8460905,11.3595501 C11.9664198,12.6749096 10.864856,13.2189439 9.56813169,12.9886176 C8.76984362,12.8468509 8.08072428,12.3799491 7.51038683,11.5984466 C6.77833745,10.5959023 6.04154733,9.59996429 5.30739095,8.6000982 C5.20954733,8.46690175 5.10064198,8.35977324 4.95973663,8.33638352 C4.71361317,8.29549614 4.4902716,8.46208097 4.384,8.76186225 C4.28918519,9.02950498 4.3014321,9.33125028 4.50712757,9.60549926 C5.32556379,10.6948177 6.1367572,11.7941347 6.9542716,12.8845244 C7.09419154,13.0720941 7.2442496,13.2452312 7.40319342,13.4024907 C8.00039506,13.9904477 8.67371193,14.3155827 9.4028642,14.4464581 C9.97517695,14.5489443 10.5430123,14.526983 11.1065021,14.3552203 C12.1813333,14.0279427 13.0716708,13.2841137 13.7729053,12.1364103 C14.3519342,11.1879659 14.7020905,10.0981119 14.8241646,8.87452573 C14.894906,8.17678196 14.8801336,7.46798502 14.7804444,6.77677097 C14.6178107,5.64656519 14.2651523,4.63527206 13.7000823,3.77449449 C12.6219588,2.13310717 11.2655802,1.40034817 9.65148971,1.56389769 C9.03058436,1.62674642 8.44325926,1.87403473 7.8905679,2.26630362 C7.59231957,2.47640283 7.31176429,2.72975639 7.05382716,3.02191671 M6.65889712,14.4803821 C6.63668394,14.4524806 6.61456027,14.4244484 6.59252675,14.3962862 C6.25790947,13.9679507 5.92144856,13.5422934 5.59078189,13.108423 C5.52678189,13.0245056 5.4679177,12.9836183 5.37731687,12.986475 C5.04243621,12.997545 4.70729218,12.999509 4.37728395,12.8984511 C2.73646091,12.3953042 1.7837037,9.976521 2.38841152,7.84823461 C2.86538272,6.17006651 4.1858107,5.14806053 5.48793416,5.46319689 C6.07157202,5.60442798 6.58383539,5.93938312 7.00431276,6.52734009 C7.51710288,7.2451011 8.04516872,7.94232915 8.56348971,8.65276972 C8.68148148,8.81453377 8.81698765,8.88827389 8.98041152,8.85667098 C9.19163786,8.8157836 9.35980247,8.6793733 9.43618107,8.39851806 C9.51097942,8.1221265 9.47476543,7.86037584 9.32042798,7.64843994 C8.77642798,6.90121859 8.24533333,6.13524974 7.67934156,5.41980985 C6.58159671,4.03160291 5.28711111,3.61880105 3.85540741,4.20907914 C1.92974486,5.00236575 0.802765432,7.69843325 1.24273251,10.3587912 C1.64372016,12.7827523 3.2072428,14.483953 5.03677366,14.4860956 C5.54758848,14.4868098 6.05853498,14.4864527 6.56934979,14.4860956 C6.59463374,14.4860956 6.6199177,14.4830603 6.65889712,14.4803821"></path>
        </g>
    </g>
</svg>