<svg role="img" aria-label="CSS3" viewBox="0 0 12 13" version="1.1" xmlns="http://www.w3.org/2000/svg" xmlns:xlink="http://www.w3.org/1999/xlink">
    <path d="M5.66621022,12.959575 L1.04871864,11.6777282 L0.0197312715,0.136430551 L11.3265291,0.136430551 L10.2964507,11.6759203 L5.66621022,12.959575 Z M5.67313019,5.36060419 L7.53401042,5.36060419 L7.66280917,3.91111942 L5.67313019,3.91111942 L2.25241971,3.91111942 L2.12374564,2.49561108 L5.67313019,2.49561108 L9.21406741,2.49561108 L8.95852716,5.36060419 L8.92398963,5.74070391 L8.59136341,9.46723351 L8.57007362,9.70637775 L5.67313019,10.5092656 L5.66661545,10.5113077 L2.76708484,9.70637775 L2.56877465,7.48385108 L3.98970673,7.48385108 L4.09048273,8.61277283 L5.66692716,9.03844463 L5.66823632,9.03809596 L7.24695628,8.61186885 L7.41125881,6.77608133 L5.67313019,6.77608133 L2.5055286,6.77608133 L2.37866244,5.36060419 L5.67313019,5.36060419 Z" fill-rule="evenodd" fill="#FFFFFF"></path>
</svg>