<svg role="img" aria-label="Digital Ocean" viewBox="0 0 16 16" version="1.1" xmlns="http://www.w3.org/2000/svg" xmlns:xlink="http://www.w3.org/1999/xlink">
    <path d="M8.03799913,12.8287723 L8.03799913,15.8929693 C13.2316448,15.8929693 17.2754745,10.8755335 15.5765209,5.43317935 C14.8340832,3.05484226 12.9442582,1.16501728 10.5659211,0.422579617 C5.12356701,-1.27637394 0.10604124,2.76754569 0.10604124,7.96119129 L3.17725419,7.96119129 C3.17770394,7.96119129 3.17806373,7.96038176 3.17806373,7.96038176 C3.17851348,4.70099584 6.40416856,2.18107929 9.83094921,3.42453197 C11.1004871,3.88524989 12.113131,4.89771395 12.5741188,6.16716182 C13.8177579,9.59193322 11.3016299,12.8163167 8.04501519,12.8209419 L8.04501519,9.76664427 C8.04501519,9.76664427 8.0447453,9.76646437 8.04447553,9.76646437 L4.9827071,9.76646437 C4.98243733,9.76646437 4.98216744,9.76691411 4.98216744,9.76691411 L4.98216744,12.8287723 L8.03799913,12.8287723 Z M4.98162778,15.1821037 L2.629106,15.1821037 L2.62856631,15.181564 L2.62856631,12.8287723 L4.98216744,12.8287723 L4.98216744,15.181564 C4.98216744,15.181564 4.98189767,15.1821037 4.98162778,15.1821037 Z M2.63018539,12.8287723 L0.658057228,12.8287723 C0.65724769,12.8287723 0.656618047,12.8282327 0.656618047,12.8282327 L0.656618047,10.857004 C0.656618047,10.857004 0.65724769,10.8555648 0.658057228,10.8555648 L2.62874621,10.8555648 C2.62955575,10.8555648 2.63018539,10.8561945 2.63018539,10.8561945 L2.63018539,12.8287723 Z" fill="#FFFFFF"></path>
</svg>