<svg viewBox="0 0 16 16" version="1.1" xmlns="http://www.w3.org/2000/svg" xmlns:xlink="http://www.w3.org/1999/xlink">
    <g stroke="none" stroke-width="1" fill="none" fill-rule="evenodd">
        <g fill="#FFFFFF">
            <path d="M15.1109513,15.9937079 C15.598382,15.9937079 15.993588,15.5984419 15.993588,15.1110112 L15.993588,0.882696629 C15.993588,0.395086142 15.5983221,-1.15463195e-14 15.1109513,-1.15463195e-14 L0.882696629,-1.15463195e-14 C0.395086142,-1.15463195e-14 0,0.395146067 0,0.882696629 L0,15.1109513 C0,15.5984419 0.395086142,15.9936479 0.882696629,15.9936479 L15.1109513,15.9936479 L15.1109513,15.9937079 Z M11.0353258,15.9937079 L11.0353258,9.80008989 L13.1142472,9.80008989 L13.4254981,7.38630712 L11.0352659,7.38630712 L11.0352659,5.84521348 C11.0352659,5.14636704 11.2293034,4.67014232 12.2314906,4.67014232 L13.509633,4.66954307 L13.509633,2.51068165 C13.2885693,2.48131835 12.5297978,2.41558052 11.647161,2.41558052 C9.80428464,2.41558052 8.54262172,3.54043446 8.54262172,5.60623221 L8.54262172,7.38630712 L6.45836704,7.38630712 L6.45836704,9.80008989 L8.54262172,9.80008989 L8.54262172,15.9936479 L11.0353258,15.9936479 L11.0353258,15.9937079 Z"></path>
        </g>
    </g>
</svg>