<svg viewBox="0 0 16 16" version="1.1" xmlns="http://www.w3.org/2000/svg" xmlns:xlink="http://www.w3.org/1999/xlink">
    <path d="M0.850381679,4.39370992 C2.16140458,1.78937405 4.85435115,-5.5067062e-14 7.97251908,-5.5067062e-14 C10.1250687,-5.5067062e-14 11.9233588,0.788396947 13.3052214,2.07285496 L11.0552061,4.26974046 C10.4793893,3.72934351 9.46955725,3.08268702 7.97251908,3.08268702 C5.86424427,3.08268702 4.07487023,4.47346565 3.42815267,6.39572519 C3.26870229,6.89178626 3.17129771,7.42326718 3.17129771,7.97251908 C3.17129771,8.52170992 3.26870229,9.05325191 3.43700763,9.54931298 C4.07487023,11.4715725 5.86424427,12.8622901 7.97251908,12.8622901 C9.15951145,12.8622901 10.063084,12.5345344 10.7363053,12.0650382 C11.7993282,11.3209771 12.2776794,10.2136794 12.366229,9.47841221 L7.97251908,9.47841221 L7.97251908,6.51975573 L15.4578321,6.51975573 C15.5729466,7.01581679 15.6261374,7.49416794 15.6261374,8.14967939 C15.6261374,10.576855 14.7579847,12.623145 13.2520916,14.0139237 C11.9321527,15.2363359 10.1250687,15.9450382 7.97251908,15.9450382 C4.85435115,15.9450382 2.16140458,14.1556031 0.850381679,11.5512672 C0.310045802,10.4705344 -1.55431223e-15,9.2569771 -1.55431223e-15,7.97251908 C-1.55431223e-15,6.68806107 0.310045802,5.47444275 0.850381679,4.39370992 Z" fill="FFFFFF"></path>
</svg>