<svg viewBox="0 0 16 16" version="1.1" xmlns="http://www.w3.org/2000/svg" xmlns:xlink="http://www.w3.org/1999/xlink">
    <path d="M0.666658827,0.686709929 L15.3333681,0.686709929 L15.3333681,14.9534185 L0.666658827,14.9534185 L0.666658827,0.686709929 Z M0,15.6201042 L16.0000269,15.6201042 L16.0000269,0.0200511021 L0,0.0200511021 L0,15.6201042 Z M10.1200278,6.50005124 C10.0200141,6.45339076 9.88667163,6.43339342 9.72666598,6.43339342 C8.8666726,6.43339342 8.26667159,7.09341334 8.26667159,8.19340175 C8.26667159,9.44673002 8.88000417,9.9533832 9.64670348,9.9533832 C9.81334803,9.9533832 9.98668523,9.93338586 10.1200278,9.87339382 L10.1200278,6.50005124 Z M9.76666068,5.41339439 C9.90666897,5.41339439 9.98668523,5.41339439 10.1200009,5.42672596 L10.1200009,3.65338606 C10.1200009,3.60672559 10.1533298,3.58672824 10.1866318,3.58672824 L11.2666498,3.58672824 C11.319976,3.58672824 11.3333076,3.60672559 11.3333076,3.6400545 L11.3333076,9.8734207 C11.3333076,10.0600626 11.3333076,10.2934187 11.3666365,10.5467453 C11.3666365,10.5934058 11.3533049,10.6000716 11.3066444,10.6267616 C10.7333066,10.9000855 10.1266667,11.0200965 9.55999456,11.0200965 C8.0866686,11.0200965 7.03331379,10.1067768 7.03331379,8.24675488 C7.02667489,6.6533911 8.08000282,5.41339439 9.76666068,5.41339439 Z M5.85336288,10.8334277 C5.85336288,10.9000586 5.84003131,10.9200829 5.76668083,10.9200829 L4.74001603,10.9200829 C4.67335821,10.9200829 4.65333398,10.8867539 4.65333398,10.8334277 L4.65333398,3.67338341 C4.65333398,3.60672559 4.68666289,3.58670136 4.74001603,3.58670136 L5.77334662,3.58670136 C5.82667287,3.58670136 5.85336288,3.60669871 5.85336288,3.66671762 L5.85336288,10.8334277 Z" fill="#FFFFFF"></path>
</svg>