<svg xmlns="http://www.w3.org/2000/svg" width="19" height="16"><g fill="none" fill-rule="evenodd"><path fill="#FFFFFF" d="M4.025 5.437V7.874c0 .198-.032.39-.132.564a.961.961 0 0 1-.734.482c-.438.062-.868-.004-1.285-.135-.258-.082-.507-.194-.761-.29-.048-.019-.047-.052-.047-.091v-4.38-.81a2.1 2.1 0 0 1 1.621-2.028c.174-.038.355-.057.532-.058.992-.004 1.984 0 2.975 0h.086v.086c0 3.51.004 7.02-.003 10.53a2.088 2.088 0 0 1-1.69 2.036c-.151.03-.308.042-.462.043-.99.004-1.979.003-2.968.004h-.084V9.376c.194.039.386.087.581.114.359.048.719.098 1.08.12.328.02.66.019.988.002.476-.024.943-.109 1.368-.345.466-.259.723-.658.753-1.19.02-.333.014-.668.015-1.002.002-.516 0-1.032.002-1.548 0-.072-.018-.094-.092-.093-.552.003-1.104.002-1.656.003h-.087z"/><path fill="#FFFFFF" d="M6.924 13.824V8.956c.015.006.026.009.034.015.385.309.835.466 1.311.556.62.118 1.244.125 1.87.075a9.69 9.69 0 0 0 1.341-.217c.053-.011.075-.029.075-.087-.004-.246-.002-.493-.002-.739v-.084c-.03.012-.05.02-.07.03-.421.205-.86.352-1.327.41-.41.051-.816.052-1.206-.107-.479-.196-.741-.561-.812-1.067a1.744 1.744 0 0 1 .066-.814c.159-.467.497-.733.962-.855.33-.085.662-.077.996-.035a4.17 4.17 0 0 1 1.366.43c.004.002.009 0 .02 0 .002-.019.005-.039.005-.059 0-.253-.001-.507.001-.76 0-.045-.011-.068-.058-.08-.776-.18-1.56-.277-2.358-.24-.504.022-1.003.087-1.48.264-.248.092-.48.213-.687.38l-.05.032v-.092-2.674a2.106 2.106 0 0 1 2.125-2.11c1.006-.006 2.012-.003 3.018-.003.021 0 .042.002.07.004.002.03.004.058.004.086 0 3.518.006 7.035-.005 10.553-.002.797-.399 1.394-1.084 1.794a2.006 2.006 0 0 1-1.028.265H6.996l-.072-.003z"/><path fill="#FFFFFF" d="M12.786 13.826V9.514h.093c1.082 0 2.165.004 3.247 0 .329 0 .639-.083.905-.288a.943.943 0 0 0-.117-1.598 1.75 1.75 0 0 0-.71-.204c.119-.036.232-.061.337-.105.317-.131.534-.354.606-.7a.9.9 0 0 0-.446-.984c-.268-.152-.561-.198-.862-.198-.985-.002-1.97 0-2.954 0h-.103V5.35 3.227a2.107 2.107 0 0 1 2.112-2.1c1.008 0 2.016.003 3.024.002.08 0 .075.04.075.094v10.43c-.004.778-.323 1.393-.968 1.83-.281.19-.596.301-.936.326a8.198 8.198 0 0 1-.565.015l-2.66.002h-.078z"/><path fill="#FFFFFF" d="M13.817 8.84v-1.1c.024-.001.047-.004.07-.004.384 0 .768-.001 1.152.001.274.002.483.155.549.395.1.365-.136.7-.52.713-.41.013-.82.002-1.231.002-.004 0-.008-.003-.02-.008zm.002-1.742v-1.02c.023-.001.043-.004.064-.004.344 0 .688-.003 1.031.003a.707.707 0 0 1 .263.054c.218.095.322.317.28.563a.485.485 0 0 1-.47.4c-.386.013-.773.004-1.168.004z"/></g></svg>