<svg viewBox="0 0 16 16" version="1.1" xmlns="http://www.w3.org/2000/svg" xmlns:xlink="http://www.w3.org/1999/xlink">
    <path d="M7.96874054,6.58973777 C8.73065799,6.58973777 9.34815514,7.20716009 9.34815514,7.96883418 C9.34815514,8.73065799 8.73065799,9.34815514 7.96874054,9.34815514 C7.2070852,9.34815514 6.58958805,8.73048953 6.58958805,7.96883418 C6.58958805,7.20716009 7.2070852,6.58973777 7.96874054,6.58973777 Z M3.26928882,7.96883418 C3.26928882,5.37329435 5.37329435,3.26936369 7.96874054,3.26936369 C10.5645237,3.26936369 12.6683795,5.37329435 12.6683795,7.96883418 C12.6683795,8.14064087 12.659207,8.31012644 12.6412738,8.47684153 C12.6055759,8.93496162 12.9417765,9.28464019 13.3969764,9.28464019 C14.1695264,9.28464019 14.2518544,8.28854294 14.2518544,7.96883418 C14.2518544,4.49864864 11.4388512,1.68572032 7.96874054,1.68572032 C4.49862991,1.68572032 1.68572032,4.49864864 1.68572032,7.96883418 C1.68572032,11.4387763 4.49862991,14.2517795 7.96874054,14.2517795 C9.81162907,14.2517795 11.4692141,13.4587879 12.6185672,12.1950967 L13.9102439,13.2797367 C12.4512156,14.9107215 10.3298384,15.9379866 7.96874054,15.9379866 C3.56771365,15.9379866 0,12.3699359 0,7.96883418 C0,3.56771365 3.56771365,0 7.96874054,0 C12.3700295,0 15.9377432,3.56771365 15.9377432,7.96883418 C15.9377432,9.73791203 15.095351,11.1744583 13.4034907,11.1744583 C12.6588888,11.1744583 12.2063283,10.833297 11.9591385,10.4525442 C11.1292696,11.7828765 9.65264511,12.6686229 7.96874054,12.6686229 C5.37329435,12.6686229 3.26928882,10.5642803 3.26928882,7.96883418 Z M7.96874054,4.95500913 C6.30437908,4.95500913 4.95493426,6.30422935 4.95493426,7.96883418 C4.95493426,9.63336411 6.30437908,10.982809 7.96874054,10.982809 C9.63327047,10.982809 10.982809,9.63336411 10.982809,7.96883418 C10.982809,6.30422935 9.63327047,4.95500913 7.96874054,4.95500913 Z" fill="#FFFFFF"></path>
</svg>