<svg role="img" aria-label="Meetup" viewBox="0 0 17 16" version="1.1" xmlns="http://www.w3.org/2000/svg" xmlns:xlink="http://www.w3.org/1999/xlink">
    <path d="M14.4303745,10.2773865 C14.4316813,11.7278406 13.3871554,12.9773386 11.9667888,13.223012 C11.7879522,13.2537052 11.6073625,13.2718725 11.4258805,13.2701514 C11.3646853,13.2694821 11.3406534,13.2939602 11.321243,13.3500239 C11.0376733,14.1641753 10.4717769,14.649498 9.6169243,14.7718884 C9.05141036,14.8527809 8.53823108,14.7011315 8.08838247,14.3475697 C8.02572112,14.2982948 7.98741036,14.2974661 7.92207171,14.3441594 C7.39592032,14.7204781 6.80599203,14.8871394 6.16178486,14.8482231 C4.9047012,14.7723347 3.84698008,13.8115378 3.64911554,12.5725896 C3.63550598,12.4869482 3.62103586,12.4006693 3.61972908,12.3143586 C3.61842231,12.2425817 3.59117131,12.2148845 3.52261355,12.2014661 C3.1420239,12.1272669 2.79665339,11.9705179 2.49195219,11.7320159 C1.93118725,11.2929721 1.59474104,10.7197131 1.51643028,10.0106135 C1.42712351,9.19901195 1.6778008,8.4972749 2.2487012,7.91250996 C2.2947251,7.86559363 2.29759363,7.8329243 2.2661992,7.77775299 C2.0467251,7.39458167 1.94269323,6.97956972 1.95958566,6.5394741 C2.00172112,5.44111554 2.7660239,4.53367331 3.82913147,4.30900398 C3.95212749,4.28286853 4.01660558,4.23464542 4.07066135,4.11808765 C4.59502789,2.98836653 5.4754741,2.30129084 6.69724303,2.07467729 C7.5549004,1.91550598 8.36398406,2.08592829 9.11477291,2.52752191 C9.17788048,2.564749 9.2307251,2.56774502 9.29902789,2.54785657 C10.4914741,2.20188048 11.5480797,2.45357769 12.4450996,3.30651793 C12.9755857,3.81080478 13.2662311,4.44901992 13.3522869,5.17711554 C13.3711235,5.33628685 13.3796972,5.49695618 13.3675857,5.65698805 C13.3630279,5.71751394 13.3816414,5.74282072 13.4389482,5.76401594 C13.97651,5.96299602 14.3471873,6.33405578 14.5093546,6.8829004 C14.7113307,7.56560956 14.5416733,8.16427092 14.0315219,8.66205578 C13.9873147,8.7052749 13.9966534,8.73172908 14.0217052,8.77491633 C14.2913147,9.23939442 14.4309801,9.73934661 14.4303745,10.2773865 Z M9.10960956,10.044494 C9.11005578,10.6616414 9.50623108,11.2071076 10.0680478,11.3924462 C10.3496096,11.4854183 10.6400319,11.5295299 10.9348207,11.542502 C11.1452749,11.5515857 11.3553785,11.5368924 11.5498327,11.4399681 C11.7027251,11.3636335 11.774757,11.2375458 11.7678406,11.0695458 C11.7609243,10.9004303 11.6851952,10.7739602 11.5234422,10.7066454 C11.4672191,10.6832829 11.4101355,10.664255 11.3504382,10.6538964 C11.1720159,10.6220558 10.9927331,10.595251 10.8152032,10.5600637 C10.5221992,10.5017052 10.3993307,10.3466135 10.3954422,10.0503267 C10.3920319,9.78823904 10.4631394,9.54103586 10.5437769,9.29647809 C10.6912829,8.84882869 10.8901673,8.42218327 11.0807649,7.99203187 C11.2647649,7.57663745 11.4576574,7.16465339 11.5876335,6.72713944 C11.6592191,6.48688446 11.6933865,6.24599203 11.6283028,5.99751394 C11.529243,5.62036653 11.3032351,5.36758566 10.9135299,5.29488446 C10.556749,5.22849402 10.2016255,5.22094024 9.87898008,5.43372112 C9.77169721,5.50422311 9.6685259,5.48736255 9.57539442,5.40516335 C9.50425498,5.34266135 9.43655777,5.27649402 9.36691633,5.21227092 C9.0378008,4.90843028 8.60267729,4.89351394 8.24933865,5.17099602 C8.10677291,5.28299602 7.98680478,5.42186454 7.83193625,5.51917131 C7.69354582,5.60608765 7.55400797,5.6307251 7.40076494,5.54900398 C7.25478884,5.47113944 7.1036494,5.40261355 6.95289243,5.33427888 C6.80019124,5.26530677 6.65227092,5.18011155 6.48038247,5.16560956 C5.9367012,5.11933068 5.36774502,5.44242231 5.12790438,5.93354582 C5.02148207,6.15088446 4.93459761,6.37666932 4.85220717,6.60392032 C4.47177689,7.65450199 4.16191235,8.72755378 3.84121116,9.79690837 C3.69759363,10.275506 3.86709163,10.7464542 4.2723506,11.0049402 C4.5885259,11.2064382 4.9347251,11.256255 5.29313147,11.1485578 C5.58349004,11.0611633 5.74250199,10.8274422 5.85364143,10.5648765 C6.22298008,9.69383267 6.55560159,8.808 6.90766534,7.93003984 C7.00455777,7.68844622 7.09835857,7.44583267 7.20114741,7.20685259 C7.3049243,6.96554582 7.60312351,6.88334661 7.78001594,7.04337849 C7.888,7.14106773 7.91646215,7.27110757 7.90588048,7.41013546 C7.89424701,7.5587251 7.83668526,7.69577689 7.78262948,7.83225498 C7.55356175,8.41137849 7.32025498,8.98881275 7.09016733,9.56749004 C7.04366534,9.6845259 6.9932749,9.80060558 6.97271713,9.92621514 C6.93749801,10.1418964 7.02288446,10.3330677 7.1992988,10.4091474 C7.37928287,10.4868207 7.56611952,10.4997928 7.7527012,10.4320637 C7.96981673,10.3533705 8.09956972,10.1833944 8.19952191,9.98699602 C8.54294821,9.31257371 8.88372908,8.63649402 9.22693227,7.96203984 C9.38546614,7.65045418 9.54677291,7.34033466 9.70871713,7.03059761 C9.76889243,6.91579283 9.83939442,6.80701195 9.95180876,6.7356494 C10.0532908,6.67142629 10.1626454,6.66664542 10.2666773,6.72506773 C10.3681912,6.78192829 10.3749801,6.88576892 10.3707092,6.98827092 C10.3683825,7.04337849 10.3529562,7.09724303 10.331761,7.14849402 C10.2872669,7.2550757 10.2457052,7.363251 10.1963665,7.46772908 C9.91091633,8.06823904 9.62113147,8.66642231 9.33823108,9.26823904 C9.21899602,9.52223108 9.09488446,9.77743426 9.10960956,10.044494 Z M13.1135618,14.4701514 C13.1142311,14.0718088 12.7803347,13.738741 12.3787092,13.7376574 C11.9671713,13.7361594 11.6333068,14.065498 11.6315219,14.4740398 C11.6298008,14.8734024 11.9693705,15.2122709 12.3709323,15.2127809 C12.7781673,15.2131952 13.1129243,14.8784701 13.1135618,14.4701514 Z M0.698996016,8.36589641 C1.08631076,8.36675697 1.41220717,8.04302789 1.41067729,7.65918725 C1.4089243,7.27470916 1.0899761,6.95592032 0.705912351,6.95483665 C0.312286853,6.95378486 -0.00022310757,7.26607171 9.05871244e-16,7.66030279 C0.0003187251,8.05039044 0.311904382,8.36503586 0.698996016,8.36589641 Z M9.37172908,0.470629482 C8.98247012,0.468462151 8.66521116,0.779665339 8.66301195,1.1654502 C8.66065339,1.55082072 8.97679681,1.86744223 9.36411155,1.86785657 C9.74989641,1.86807968 10.059761,1.55904382 10.0604622,1.17300398 C10.0613865,0.785083665 9.75493227,0.472573705 9.37172908,0.470629482 Z M15.1029163,4.83792829 C15.1011952,4.51805578 14.828494,4.2460239 14.5073466,4.24385657 C14.179506,4.24149801 13.9018008,4.51853386 13.904,4.84570518 C13.9063267,5.17204781 14.1710598,5.43368924 14.4993466,5.43413546 C14.8375458,5.43480478 15.1048287,5.1705498 15.1029163,4.83792829 Z M2.82393625,3.12991235 C2.82393625,3.43031076 3.05772112,3.66600797 3.35614343,3.66645418 C3.65842231,3.66686853 3.89290837,3.42989641 3.8918247,3.12516335 C3.89074104,2.82957769 3.65654183,2.5983745 3.35917131,2.59926693 C3.05335458,2.59987251 2.82409562,2.82715538 2.82393625,3.12991235 Z M8.41456574,15.5194263 C8.41714741,15.2692271 8.21128287,15.0631713 7.95824701,15.0622789 C7.69851793,15.0614821 7.49453386,15.262757 7.49520319,15.519012 C7.49587251,15.7717928 7.69880478,15.9720478 7.9539761,15.9720478 C8.2089243,15.9722709 8.41236653,15.7724303 8.41456574,15.5194263 Z M15.5531793,8.41048606 C15.3100876,8.40873307 15.0992191,8.61960159 15.1011633,8.86247012 C15.1032669,9.10247012 15.3036175,9.29950598 15.5462311,9.29998406 C15.8005737,9.30046215 15.9913307,9.11317928 15.9919363,8.86183267 C15.9926375,8.6130996 15.7973227,8.41220717 15.5531793,8.41048606 Z M4.87639841,0.0279521912 C4.66208765,0.0270916335 4.49666932,0.190788845 4.49666932,0.404047809 C4.49666932,0.615968127 4.66380876,0.780749004 4.87792829,0.779665339 C5.08573705,0.778581673 5.24857371,0.612908367 5.24857371,0.402486056 C5.24860558,0.190119522 5.08831873,0.0290358566 4.87639841,0.0279521912 Z M16.4013068,6.39062948 C16.2266135,6.38865339 16.0683028,6.54501992 16.0661036,6.72213546 C16.063745,6.90530677 16.2161912,7.05775299 16.4021673,7.0581992 C16.5868685,7.05886853 16.7317291,6.915251 16.7330359,6.72972112 C16.7347888,6.54310757 16.5876972,6.39298805 16.4013068,6.39062948 Z M3.1725259,12.9881753 C3.17335458,12.8108367 3.02046215,12.6581673 2.8403506,12.6564781 C2.65778486,12.6549163 2.50769721,12.80851 2.50900398,12.9953466 C2.51050199,13.1778805 2.65864542,13.3220717 2.84315538,13.3207968 C3.02419124,13.3196813 3.17192032,13.1706773 3.1725259,12.9881753 Z" fill="#FFFFFF" fill-rule="nonzero"></path>
</svg>