<svg viewBox="0 0 16 16" version="1.1" xmlns="http://www.w3.org/2000/svg" xmlns:xlink="http://www.w3.org/1999/xlink">
    <path d="M8.92606954,0.0141310222 C12.4823703,-0.2023903 15.3028846,2.10652297 15.5117302,5.68200122 C15.7474094,9.74989907 12.5072692,13.9193551 8.27072913,14.998116 C6.80490537,15.3679281 5.43297188,15.3257744 4.24113141,14.9502409 C4.1549051,13.3445392 4.46723168,11.671773 5.1551154,10.5029519 C6.27604179,8.59834044 7.97371084,8.76121022 8.94518035,10.8650962 C9.31115851,11.6564491 9.521927,12.6106718 9.58324252,13.5936392 C9.92239489,13.4135226 10.2519683,13.2104142 10.5662099,12.9919817 C9.51618196,10.4435553 9.04673065,7.42566966 12.8099737,2.12573191 C11.715877,1.25007159 10.033528,0.824692891 7.93345643,1.09486579 C8.24387194,0.732721557 8.57343751,0.370577326 8.9260028,0.0141820367 L8.92606954,0.0141310222 Z M8.05999994,4.32917462 C7.75533335,4.96915963 7.87796441,5.49608861 8.33208389,5.50566757 C8.78428837,5.51331974 9.39935477,4.99981543 9.70402135,4.35791934 C10.00868,3.71793826 9.88796794,3.19100535 9.43384846,3.18142639 C8.97973287,3.17377421 8.36465862,3.68727853 8.05999994,4.32917462 Z M7.75150333,2.51270451 C4.57075584,6.41199154 3.21992273,11.4762697 3.40961827,15.9925459 C1.5318287,15.2414317 0.156057343,13.4307066 0.0123533624,11.135218 L0.0123533624,11.1083765 C-0.225244805,7.03663294 3.02255932,2.86529333 7.26481308,1.7903389 C8.9126723,1.37454309 10.4685485,1.48568018 11.7676686,2.0164431 C11.4974996,2.7867192 11.0452951,3.66813239 10.5969246,4.33301641 C9.6580337,5.72794568 8.30909208,6.60743994 7.58480359,6.29895124 C6.86242622,5.9885357 7.03679386,4.60510823 7.97760365,3.20826395 C8.194121,2.88635841 8.43363419,2.59127472 8.68273417,2.33259971 C8.37615653,2.3747377 8.06574102,2.43415392 7.75150333,2.51271628 L7.75150333,2.51270451 Z" fill="#FFFFFF"></path>
</svg>