<svg viewBox="0 0 18 16" version="1.1" xmlns="http://www.w3.org/2000/svg" xmlns:xlink="http://www.w3.org/1999/xlink">
    <path d="M14.7707636,5.18060613 C14.5843999,5.11645967 14.3912889,5.05576674 14.192454,4.99836749 C14.2251349,4.86499016 14.2551295,4.73333961 14.2817987,4.60392747 C14.7195679,2.4789398 14.4333391,0.767034933 13.4559528,0.203403006 C12.518762,-0.337045376 10.986058,0.226458644 9.43810077,1.57359843 C9.28924639,1.70313848 9.13997628,1.84028913 8.99077032,1.98402709 C8.89135277,1.8889266 8.7920953,1.79702384 8.69309361,1.70911823 C7.07078912,0.268668676 5.44467931,-0.338356447 4.46825239,0.226906326 C3.53195698,0.7689216 3.2546818,2.37827526 3.64873809,4.3921418 C3.68679108,4.58665973 3.7312715,4.78530273 3.7815718,4.98727137 C3.55143116,5.05260099 3.32925287,5.12224756 3.11666776,5.19633897 C1.2146898,5.85945228 0,6.89871458 0,7.9767014 C0,9.09005523 1.30397043,10.2067665 3.28502825,10.8838858 C3.44136528,10.9373199 3.60358614,10.9878441 3.77076348,11.03581 C3.716498,11.254247 3.6692995,11.468303 3.62967961,11.6770829 C3.25394632,13.6559982 3.54737004,15.2273308 4.48117122,15.7659246 C5.44570259,16.3221378 7.06445754,15.7504156 8.64071474,14.3725776 C8.76529832,14.2636629 8.89032954,14.1481609 9.01558463,14.0270949 C9.17793347,14.1834319 9.34002632,14.3313908 9.50125593,14.4701723 C11.0280442,15.7840237 12.5359978,16.3145592 13.4689356,15.7744626 C14.4325076,15.2166504 14.7456614,13.5286646 14.3391019,11.4749544 C14.3080519,11.3181057 14.2719176,11.1578674 14.2313385,10.9947832 C14.3450178,10.9611749 14.4566185,10.9264796 14.5654373,10.8904093 C16.6249355,10.2080456 17.9649123,9.10492456 17.9649123,7.9767014 C17.9649123,6.89481338 16.7110502,5.84854802 14.7707636,5.18060613 Z M14.3240726,10.1619344 C14.2258384,10.1944552 14.1250459,10.225889 14.0223348,10.2563633 C13.7949762,9.53658625 13.488122,8.77120947 13.1126126,7.98044281 C13.4709502,7.20851067 13.7659408,6.45291904 13.9869359,5.73781062 C14.1707095,5.79098888 14.3490789,5.84707707 14.5209569,5.90626706 C16.1833928,6.47856483 17.1974571,7.32471621 17.1974571,7.9767014 C17.1974571,8.67118449 16.1022985,9.57272056 14.3240726,10.1619344 Z M13.5862284,11.6240005 C13.7660047,12.5321239 13.7916825,13.3531731 13.672599,13.9950215 C13.565603,14.5717642 13.3504277,14.9562912 13.0843766,15.110294 C12.5182184,15.4379973 11.3074939,15.0120277 10.0017646,13.8884093 C9.85207888,13.7596046 9.70130589,13.6220703 9.55005326,13.4765095 C10.056254,12.9228865 10.5621669,12.2792794 11.0559284,11.5644907 C11.9243999,11.4874255 12.7449056,11.3614349 13.4889854,11.189429 C13.5256314,11.3372601 13.5581843,11.4822451 13.5862284,11.6240005 Z M6.12464467,15.0536622 C5.57150129,15.2490115 5.13095,15.2546075 4.86464302,15.1010525 C4.29797326,14.7742125 4.06239648,13.51258 4.38373638,11.8202133 C4.42054226,11.6263988 4.46435116,11.4273082 4.51484332,11.2238046 C5.25076895,11.3865371 6.06526281,11.503638 6.93581287,11.5742119 C7.43290007,12.2736515 7.9534266,12.9165551 8.47798225,13.4794835 C8.36337558,13.5901249 8.24921656,13.6954582 8.13569719,13.7947157 C7.43868793,14.4039793 6.74020775,14.8362484 6.12464467,15.0536622 Z M3.53323608,10.1576813 C2.65724986,9.85827789 1.93382735,9.46914611 1.43795533,9.04451951 C0.992383607,8.66293439 0.767423277,8.2840993 0.767423277,7.9767014 C0.767423277,7.32254175 1.74269902,6.48815801 3.36928845,5.92104057 C3.56665236,5.85222541 3.77325771,5.78737545 3.98766552,5.72645869 C4.21246595,6.45771563 4.50736063,7.22226091 4.86323604,7.99537614 C4.5027559,8.77997123 4.2036722,9.5567 3.97666533,10.2965267 C3.82381382,10.25259 3.67572694,10.2063508 3.53323608,10.1576813 Z M4.40189949,4.24475841 C4.06428313,2.51932714 4.28850798,1.21772303 4.85274747,0.89110687 C5.45376087,0.543161841 6.78276949,1.0392577 8.1835033,2.28301487 C8.27303972,2.36251045 8.36292793,2.44571538 8.45307193,2.53179829 C7.93110646,3.09226446 7.41534456,3.73033955 6.92267027,4.425654 C6.07776594,4.50396642 5.26899601,4.62976513 4.52539584,4.79822155 C4.47864501,4.61016304 4.43723441,4.42539819 4.40189949,4.24475841 Z M12.1511509,6.15824819 C11.9733892,5.85120213 11.7908947,5.55141493 11.6048508,5.25981392 C12.1780439,5.33227448 12.727222,5.4284622 13.242952,5.54617066 C13.0881178,6.04239443 12.8951349,6.56122616 12.6679681,7.09310463 C12.5050119,6.78372422 12.3326542,6.47178564 12.1511509,6.15824819 Z M8.99102604,3.08027298 C9.34501481,3.46377676 9.69951516,3.89195284 10.0481957,4.35651907 C9.69682905,4.33992286 9.34111354,4.33128898 8.98245621,4.33128898 C8.62718835,4.33128898 8.27409502,4.339731 7.92490281,4.35603942 C8.27393509,3.89579011 8.63150526,3.46818962 8.99102604,3.08027298 Z M5.81065954,6.16355642 C5.63308958,6.47146587 5.46392965,6.78170966 5.3035315,7.09252905 C5.08004213,6.56250525 4.88884985,6.0413072 4.7326727,5.53804841 C5.24523688,5.42334583 5.79182491,5.32955641 6.36137264,5.25847087 C6.17270655,5.55275797 5.98870915,5.85475162 5.81065954,6.16349247 L5.81065954,6.16355642 Z M6.37777699,10.7496771 C5.78933067,10.6840277 5.23452448,10.5950669 4.72208821,10.48353 C4.88075959,9.97128561 5.07617288,9.43895951 5.30439488,8.89751979 C5.46520874,9.20811537 5.6350402,9.51848709 5.81369738,9.82706807 L5.81372935,9.82706807 C5.99571219,10.1414369 6.18425036,10.4493782 6.37777699,10.7496771 Z M9.01225902,12.9272354 C8.64851719,12.534778 8.28570274,12.1006542 7.93136225,11.6336897 C8.27534204,11.6471841 8.62603712,11.6540912 8.98245621,11.6540912 C9.34862828,11.6540912 9.7106113,11.6458411 10.0669025,11.6299803 C9.71707067,12.1053549 9.36384947,12.5401502 9.01225902,12.9272354 Z M12.6752909,8.86992344 C12.9154085,9.41721495 13.1178248,9.94675909 13.2785427,10.4502737 C12.7576645,10.5691013 12.1952797,10.6648094 11.6027403,10.7359269 C11.7892319,10.4403926 11.9733252,10.1354571 12.1542208,9.82179172 C12.3372269,9.50444905 12.5109916,9.18662667 12.6752909,8.86992344 Z M11.4894446,9.43838393 C11.20862,9.92530225 10.9203126,10.3901243 10.6276244,10.828885 C10.0945307,10.8670018 9.54378568,10.8866359 8.98245621,10.8866359 C8.42339705,10.8866359 7.87959095,10.8692722 7.35593074,10.8352804 C7.05144281,10.3907639 6.75686793,9.92456688 6.47783397,9.44257291 L6.47789793,9.44257291 C6.19959946,8.96189018 5.94346128,8.47714618 5.71137002,7.99512042 C5.94339732,7.5119753 6.19886398,7.02668779 6.47556358,6.54686835 L6.47549963,6.54696428 C6.75293469,6.06586577 7.04491944,5.60193907 7.34659326,5.16020461 C7.88087004,5.11981729 8.42873719,5.09874425 8.98242421,5.09874425 L8.98245621,5.09874425 C9.5386374,5.09874425 10.087208,5.11997716 10.6213248,5.16071626 C10.918394,5.599221 11.2083961,6.06164476 11.4869185,6.54280724 C11.7686066,7.02937389 12.0273669,7.51143165 12.2613767,7.98421614 C12.0280704,8.46512274 11.7698857,8.95204119 11.4894446,9.43838393 Z M13.0726089,0.868275074 C13.674198,1.21519683 13.9081438,2.61433171 13.5301721,4.44902942 C13.5060612,4.56609832 13.4789126,4.68534168 13.4494294,4.8061839 C12.7041025,4.63420997 11.8947569,4.50623681 11.0473905,4.42674124 C10.5537568,3.7237842 10.0422159,3.08471782 9.52875635,2.53144653 C9.66680239,2.39864481 9.80465656,2.27201468 9.94193509,2.15251551 C11.2682257,0.998294786 12.5078258,0.54258625 13.0726089,0.868275074 Z M8.98245621,6.37249611 C9.8684193,6.37249611 10.5866615,7.09070632 10.5866615,7.9767014 C10.5866615,8.86266449 9.8684193,9.58090681 8.98245621,9.58090681 C8.09649305,9.58090681 7.37825088,8.86266449 7.37825088,7.9767014 C7.37825088,7.09070632 8.09649305,6.37249611 8.98245621,6.37249611 Z" fill="#FFFFFF"></path>

</svg>