<svg viewBox="0 0 14 16" version="1.1" xmlns="http://www.w3.org/2000/svg" xmlns:xlink="http://www.w3.org/1999/xlink">
    <path d="M12.2615685,3.14192919 C12.2724376,3.22197672 13.9992136,14.8962557 13.9992136,14.8962557 L9.08025496,15.9604019 L0.00202196717,14.2594559 C0.00202196717,14.2594559 1.16705867,5.24963417 1.21117432,4.93200151 C1.26961157,4.51245531 1.28367743,4.49838945 1.72892579,4.35875384 C1.80130102,4.33599272 2.36802725,4.16029736 3.16568931,3.91312186 C3.47322013,2.60896102 4.45399408,0.0427090615 6.50684219,0.0427090615 C6.7749886,0.0427090615 7.08546049,0.186692305 7.33608849,0.518135082 C7.36115129,0.516728496 7.38621414,0.515705524 7.4105097,0.515705524 C8.29179967,0.515705524 8.79267211,1.26631089 9.07654668,2.08302579 C9.36643129,1.99338791 9.54161512,1.93929828 9.5521006,1.93622937 C9.62281348,1.91538632 9.8050303,1.88699887 9.89837644,1.98034502 C9.99159474,2.07369117 10.8413005,2.91725907 10.8413005,2.91725907 C10.8413005,2.91725907 12.0647744,3.00791992 12.1225723,3.01277904 C12.1804981,3.01763815 12.2505716,3.06188167 12.2615685,3.14192919 Z M8.57477918,2.23826172 C8.38015885,1.64365951 8.07774285,1.12705889 7.6236714,1.07002822 C7.73670975,1.39405446 7.8071669,1.80273158 7.8071669,2.31038121 C7.8071669,2.36856272 7.80691118,2.42188511 7.8066554,2.47597473 C8.08758899,2.38902215 8.34678438,2.30884675 8.57477918,2.23826172 Z M7.0603977,1.17066305 C6.55978099,1.38548707 5.98717266,1.9548986 5.68168778,3.13387329 C6.22578077,2.96533873 6.76859507,2.79731566 7.26818877,2.64259122 C7.26844449,2.6135644 7.26870027,2.58492119 7.26870027,2.55359269 C7.26870027,1.94096061 7.18660679,1.487017 7.0603977,1.17066305 Z M6.4504509,0.59332349 C4.97596531,0.59332349 4.14761411,2.52929712 3.79878082,3.71696707 C4.19211337,3.59510558 4.61754165,3.463398 5.05281604,3.3286215 C5.35062863,1.77153095 6.05583962,0.991770904 6.71373819,0.682194142 C6.62832005,0.623373277 6.53906581,0.59332349 6.4504509,0.59332349 Z M7.4105097,5.73068652 C7.4105097,5.73068652 7.00055386,5.49297353 6.17066816,5.49297353 C4.0169295,5.49297353 2.94997019,6.93152723 2.94997019,8.41803277 C2.94997019,10.1841931 4.71216653,10.2321449 4.71216653,11.3070322 C4.71216653,11.566867 4.52841526,11.9224775 4.07677333,11.9224775 C3.38550032,11.9224775 2.56635586,11.2191845 2.56635586,11.2191845 L2.14911135,12.5977666 C2.14911135,12.5977666 2.94600617,13.5676715 4.50437543,13.5676715 C5.80303781,13.5676715 6.76616548,12.5898385 6.76616548,11.0713652 C6.76616548,9.14127364 4.61818101,8.82555901 4.61818101,8.00155545 C4.61818101,7.85053929 4.66626067,7.25120586 5.6212046,7.25120586 C6.27258175,7.25120586 6.80401545,7.53482471 6.80401545,7.53482471 L7.4105097,5.73068652 Z" fill="#FFFFFF"></path>
</svg>