<svg viewBox="0 0 20 20" version="1.1" xmlns="http://www.w3.org/2000/svg" xmlns:xlink="http://www.w3.org/1999/xlink">
    <path d="M15.0592,11.244 L13.8152,11.6608 L14.2472,12.9488 C14.4216,13.4688 14.1392,14.0328 13.6184,14.208 C13.4984,14.244 13.3904,14.2616 13.2704,14.2584 C12.8616,14.2464 12.4896,13.988 12.3464,13.5792 L11.9144,12.2936 L9.3464,13.152 L9.7776,14.4384 C9.9464,14.96 9.6696,15.5248 9.1424,15.6984 C9.0224,15.7368 8.9144,15.752 8.7944,15.7496 C8.3864,15.7376 8.0136,15.4776 7.8696,15.0696 L7.4384,13.7744 L6.1896,14.1936 C6.0696,14.2296 5.9616,14.2424 5.8416,14.2424 C5.4328,14.2296 5.0608,13.9664 4.9176,13.5584 C4.7376,13.0304 5.0256,12.4672 5.5416,12.2984 L6.7896,11.8784 L6,9.408 L4.7592,9.828 C4.6464,9.8664 4.5312,9.8808 4.4168,9.8792 C4.0208,9.8664 3.6368,9.6088 3.504,9.2008 C3.3368,8.6808 3.612,8.1176 4.1408,7.9416 L5.3888,7.5256 L4.9568,6.2416 C4.7888,5.7184 5.0656,5.1544 5.5936,4.9816 C6.1208,4.8056 6.684,5.0904 6.8528,5.608 L7.284,6.8944 L9.84,6.0352 L9.408,4.7512 C9.2408,4.2352 9.516,3.6712 10.0392,3.492 C10.5608,3.3232 11.1264,3.6 11.2992,4.1248 L11.7312,5.4216 L12.9752,5.0136 C13.496,4.8384 14.06,5.1216 14.2352,5.6368 C14.4096,6.16 14.1272,6.724 13.608,6.8968 L12.3624,7.316 L13.1904,9.7848 L14.4312,9.372 C14.9528,9.2032 15.5176,9.48 15.6912,10.008 C15.8672,10.536 15.5832,11.1 15.068,11.2672 L15.0592,11.244 Z M18.396,6.9592 C16.416,0.3648 13.5568,-1.1768 6.9592,0.804 C0.3648,2.7832 -1.1768,5.6408 0.804,12.2408 C2.784,18.8368 5.6408,20.3768 12.2408,18.396 C18.8368,16.416 20.3768,13.5592 18.396,6.9592 Z M7.9032,8.796 L8.7312,11.264 L11.2952,10.4048 L10.4672,7.9456 L7.9032,8.8096 L7.9032,8.796 Z" fill="#EDEDED" fill-rule="nonzero"></path>
</svg>