<svg viewBox="0 0 21 16" version="1.1" xmlns="http://www.w3.org/2000/svg" xmlns:xlink="http://www.w3.org/1999/xlink">
    <path d="M12.7789039,3.18974405 C12.4006282,2.8114683 11.7872352,2.8114683 11.4091602,3.18974405 L5.24471103,9.35439404 C4.48775795,10.1107447 3.2613735,10.1107447 2.50502277,9.35439404 C1.74786891,8.59784251 1.74786891,7.37125726 2.50502277,6.61430418 L8.55080902,0.568517942 C7.7942575,-0.188234353 6.56747147,-0.188234353 5.81091997,0.568517942 L1.13467668,5.24456045 C-0.37822556,6.75786425 -0.37822556,9.21083396 1.13467668,10.7243385 C2.64798049,12.2376424 5.10095018,12.2376424 6.61425398,10.7243385 L12.7789039,4.55968857 C13.1569789,4.18141282 13.1569789,3.5680198 12.7789039,3.18974405 Z M14.8337203,1.13512844 C13.3204165,-0.378376147 10.8674468,-0.378376147 9.35414306,1.13512844 L3.18969386,7.29937684 C2.81161889,7.67745181 2.81161889,8.29124635 3.18969386,8.66932133 C3.56796961,9.0475971 4.18116184,9.0475971 4.55943759,8.66932133 L10.7242883,2.50507296 C11.4808398,1.74832067 12.7072243,1.74832067 13.4635751,2.50507296 C13.8422524,2.88314794 14.4554445,2.88314794 14.8337203,2.50507296 C15.2119961,2.12639564 15.2119961,1.5134042 14.8337203,1.13512844 Z M16.8887375,7.29937684 C16.5104617,6.92150265 15.896868,6.92150265 15.5185922,7.29937684 L9.35414306,13.463826 C8.59759153,14.2203775 7.3708055,14.2203775 6.61425398,13.463826 C6.23617901,13.0857511 5.62298678,13.0857511 5.24471103,13.463826 C4.86583293,13.8423026 4.86583293,14.4556955 5.24471103,14.8335697 C6.75741249,16.3468736 9.21098455,16.3468736 10.7242883,14.8335697 L16.8887375,8.66932133 C17.2668125,8.29124635 17.2668125,7.67745181 16.8887375,7.29937684 Z M18.9437547,5.24476122 C17.4304509,3.7316582 14.9770796,3.7316582 13.4641774,5.24476122 L7.29932664,11.4094112 C6.92105089,11.7872854 6.92105089,12.4010799 7.29932664,12.7791549 C7.67780318,13.1576315 8.29119616,13.1576315 8.66927114,12.7791549 L14.8337203,6.61470575 C15.5900711,5.85795346 16.8170579,5.85795346 17.5734086,6.61470575 C18.3299601,7.37125726 18.3299601,8.59784251 17.5734086,9.35439404 L11.5276224,15.400381 C12.2841739,16.1567318 13.5103576,16.1567318 14.2675114,15.400381 L18.9437547,10.7243385 C20.4566569,9.21083396 20.4566569,6.75786425 18.9437547,5.24476122 Z" fill="#FFFFFF"></path>
</svg>