<svg viewBox="0 0 13 16" version="1.1" xmlns="http://www.w3.org/2000/svg" xmlns:xlink="http://www.w3.org/1999/xlink">
	<path d="M0.00865235001,9.34847089 L1.20832571,9.36019805 L1.1665656,14.7027739 L9.15132603,14.7027739 L9.15132603,9.37964796 L10.4158563,9.37964796 L10.4158563,16.0003404 L0.00207370372,16.0003404 L0.00865235001,9.34847089 Z M1.96494154,12.5067932 L8.21980401,12.5067932 L8.21980401,13.8377534 L1.96494154,13.8377534 L1.96494154,12.5067932 Z M2.11124491,10.1120229 L8.37075534,10.7163288 L8.23968297,12.0741042 L1.98017253,11.4698698 L2.11124491,10.1120229 Z M2.68280056,7.40476694 L8.73444007,9.11256922 L8.36403368,10.4252952 L2.31239417,8.71749291 L2.68280056,7.40476694 Z M4.15041074,4.34276463 L9.53303052,7.5936885 L8.82782825,8.76125521 L3.44520846,5.51033133 L4.15041074,4.34276463 Z M7.2119125,1.44329779 L10.8748598,6.55512048 L9.76578589,7.34984955 L6.10283854,2.23795536 L7.2119125,1.44329779 Z M11.4661514,0.0537017757 L12.5024312,6.25536303 L11.1570981,6.48018111 L10.1208898,0.278519862 L11.4661514,0.0537017757 Z" fill="#FFFFFF"></path>
</svg>