<svg viewBox="0 0 39 16" version="1.1" xmlns="http://www.w3.org/2000/svg" xmlns:xlink="http://www.w3.org/1999/xlink">
    <path d="M2.69163889,6.24502777 C2.69163889,5.83011111 3.03208333,5.67052777 3.59594444,5.67052777 C4.4045,5.67052777 5.42583333,5.91522223 6.23438889,6.35141667 L6.23438889,3.85127777 C5.35136111,3.50019444 4.47897223,3.36188889 3.59594444,3.36188889 C1.43625,3.36188889 0,4.48961111 0,6.37269444 C0,9.30902774 4.04277777,8.84091669 4.04277777,10.1069444 C4.04277777,10.5963333 3.61722223,10.7559167 3.02144444,10.7559167 C2.13841667,10.7559167 1.01069444,10.3941944 0.117027777,9.90480556 L0.117027777,12.4368611 C1.10644444,12.8624167 2.1065,13.0432777 3.02144444,13.0432777 C5.23433333,13.0432777 6.75569444,11.9474723 6.75569444,10.0431111 C6.74505556,6.87272223 2.69163889,7.43658333 2.69163889,6.24502777 Z M9.88352774,1.23411111 L7.28763889,1.78733333 L7.277,10.3090833 C7.277,11.8836389 8.45791669,13.0432777 10.0324723,13.0432777 C10.9048611,13.0432777 11.5431944,12.8836944 11.8942777,12.6921944 L11.8942777,10.5325 C11.5538333,10.6708056 9.87288887,11.1601944 9.87288887,9.58563887 L9.87288887,5.80883333 L11.8942777,5.80883333 L11.8942777,3.54275 L9.87288887,3.54275 L9.88352774,1.23411111 Z M15.2029723,4.33002777 L15.03275,3.54275 L12.73475,3.54275 L12.73475,12.8517777 L15.3944723,12.8517777 L15.3944723,6.54291667 C16.0221667,5.72372223 17.0860556,5.87266667 17.4158611,5.98969444 L17.4158611,3.54275 C17.0754167,3.41508333 15.8306667,3.18102777 15.2029723,4.33002777 Z M18.0648333,3.54275 L20.7351944,3.54275 L20.7351944,12.8517777 L18.0648333,12.8517777 L18.0648333,3.54275 Z M18.0648333,2.73419444 L20.7351944,2.15969444 L20.7351944,0 L18.0648333,0.563861111 L18.0648333,2.73419444 Z M26.2886944,3.36188889 C25.2460833,3.36188889 24.5758333,3.85127777 24.2034723,4.19172223 L24.0651667,3.53211111 L21.7246111,3.53211111 L21.7246111,15.9370556 L24.3843333,15.3731944 L24.3949723,12.3623889 C24.7779723,12.639 25.3418333,13.0326389 26.2780556,13.0326389 C28.1824167,13.0326389 29.9165556,11.5006389 29.9165556,8.12811113 C29.9059167,5.04283333 28.1505,3.36188889 26.2886944,3.36188889 Z M25.6503611,10.6920833 C25.0226667,10.6920833 24.6503056,10.4686667 24.3949723,10.1920556 L24.3843333,6.24502777 C24.6609444,5.9365 25.0439444,5.72372223 25.6503611,5.72372223 C26.6185,5.72372223 27.28875,6.80888889 27.28875,8.20258331 C27.28875,9.62819444 26.6291389,10.6920833 25.6503611,10.6920833 Z M38.3,8.2345 C38.3,5.51094444 36.9807777,3.36188889 34.4593611,3.36188889 C31.9273056,3.36188889 30.3953056,5.51094444 30.3953056,8.21322226 C30.3953056,11.4155277 32.2039167,13.0326389 34.7998056,13.0326389 C36.0658333,13.0326389 37.0233333,12.7453889 37.7467777,12.3411111 L37.7467777,10.2133333 C37.0233333,10.5750556 36.1935,10.7984723 35.14025,10.7984723 C34.1082777,10.7984723 33.1933333,10.43675 33.0763056,9.18136113 L38.2787223,9.18136113 C38.2787223,9.04305556 38.3,8.48983331 38.3,8.2345 Z M33.0443889,7.22380556 C33.0443889,6.02161111 33.7784723,5.52158333 34.4487223,5.52158333 C35.0976944,5.52158333 35.7892223,6.02161111 35.7892223,7.22380556 L33.0443889,7.22380556 Z" fill="#FFFFFF"></path>
</svg>