<svg viewBox="0 0 16 17" version="1.1" xmlns="http://www.w3.org/2000/svg" xmlns:xlink="http://www.w3.org/1999/xlink">
    <g stroke="none" stroke-width="1" fill="none" fill-rule="evenodd">
        <path d="M1.5625,0.110900176 L14.4375,0.110900176 C15.3004449,0.110900176 16,0.810455255 16,1.67340018 L16,14.5484002 C16,15.4113451 15.3004449,16.1109002 14.4375,16.1109002 L1.5625,16.1109002 C0.699555078,16.1109002 1.05680274e-16,15.4113451 0,14.5484002 L0,1.67340018 C-1.05680274e-16,0.810455255 0.699555078,0.110900176 1.5625,0.110900176 Z M9.79,2.19090018 L13.17,2.19090018 C13.5842136,2.19090018 13.92,2.52668661 13.92,2.94090018 L13.92,8.44090018 C13.92,8.85511374 13.5842136,9.19090018 13.17,9.19090018 L9.79,9.19090018 C9.37578644,9.19090018 9.04,8.85511374 9.04,8.44090018 L9.04,2.94090018 C9.04,2.52668661 9.37578644,2.19090018 9.79,2.19090018 Z M2.83,2.19090018 L6.21,2.19090018 C6.62421356,2.19090018 6.96,2.52668661 6.96,2.94090018 L6.96,12.4409002 C6.96,12.8551137 6.62421356,13.1909002 6.21,13.1909002 L2.83,13.1909002 C2.41578644,13.1909002 2.08,12.8551137 2.08,12.4409002 L2.08,2.94090018 C2.08,2.52668661 2.41578644,2.19090018 2.83,2.19090018 Z" fill="#FFFFFF"></path>
    </g>
</svg>