<svg viewBox="0 0 16 16" version="1.1" xmlns="http://www.w3.org/2000/svg" xmlns:xlink="http://www.w3.org/1999/xlink">
    <path d="M1.5625,0 L14.4375,0 C15.3004449,-1.5852041e-16 16,0.699555078 16,1.5625 L16,14.4375 C16,15.3004449 15.3004449,16 14.4375,16 L1.5625,16 C0.699555078,16 1.05680274e-16,15.3004449 0,14.4375 L0,1.5625 C-1.05680274e-16,0.699555078 0.699555078,1.5852041e-16 1.5625,0 Z M9.79,2.08 L13.17,2.08 C13.5842136,2.08 13.92,2.41578644 13.92,2.83 L13.92,8.33 C13.92,8.74421356 13.5842136,9.08 13.17,9.08 L9.79,9.08 C9.37578644,9.08 9.04,8.74421356 9.04,8.33 L9.04,2.83 C9.04,2.41578644 9.37578644,2.08 9.79,2.08 Z M2.83,2.08 L6.21,2.08 C6.62421356,2.08 6.96,2.41578644 6.96,2.83 L6.96,12.33 C6.96,12.7442136 6.62421356,13.08 6.21,13.08 L2.83,13.08 C2.41578644,13.08 2.08,12.7442136 2.08,12.33 L2.08,2.83 C2.08,2.41578644 2.41578644,2.08 2.83,2.08 Z" fill="#FFFFFF"></path>
</svg>