<svg viewBox="0 0 11 16" version="1.1" xmlns="http://www.w3.org/2000/svg" xmlns:xlink="http://www.w3.org/1999/xlink">
    <path d="M8.48931137,0.0512053653 L10.0512304,0.0512053653 L10.0512304,15.9736104 L8.48931137,15.9736104 L8.48931137,0.0512053653 Z M0.0160400523,3.67765197 L1.97335093,3.67765197 L1.97335093,0.0337402045 L4.56741248,0.0337402045 L4.56741248,3.67765197 L6.9113826,3.67765197 L6.9113826,5.67595746 L4.56741248,5.67595746 L4.56741248,12.1647499 C4.56741248,12.4466182 4.57881333,12.6899176 4.6016151,12.8934352 C4.62417423,13.097438 4.67729745,13.2696639 4.76074209,13.4108406 C4.84418677,13.5517748 4.96911119,13.657536 5.13648562,13.7281244 C5.30313238,13.7987127 5.53066461,13.8338856 5.81908234,13.8338856 C6.00101111,13.8338856 6.18318243,13.830247 6.36511119,13.8219996 C6.54728252,13.8144799 6.72921128,13.7868267 6.9113826,13.7400104 L6.9113826,15.8089043 C6.62296487,15.8399534 6.34230946,15.8712452 6.06941633,15.903022 C5.79628061,15.9338286 5.5153826,15.9498384 5.22745002,15.9498384 C4.54461075,15.9498384 3.99470074,15.8828886 3.57747745,15.7502019 C3.16001159,15.6170301 2.83423783,15.4207895 2.59918587,15.1622082 C2.36364877,14.9036267 2.20452175,14.5783381 2.12107709,14.1863423 C2.03738986,13.7950742 1.98814781,13.3482571 1.97335093,12.8466189 L1.97335093,5.67595746 L0.0160400523,5.67595746 L0.0160400523,3.67765197 Z" fill="#FFFFFF"></path>
</svg>