<svg viewBox="0 0 16 16" version="1.1" xmlns="http://www.w3.org/2000/svg" xmlns:xlink="http://www.w3.org/1999/xlink">
    <path d="M15.9773372,7.98019944 C15.9773372,12.3872844 12.4045044,15.9602111 7.99713781,15.9602111 C3.58967742,15.9602111 0.0168914956,12.3872844 0.0168914956,7.98019944 C0.0168914956,3.57283284 3.58972434,-1.70530257e-13 7.99713781,-1.70530257e-13 C12.4045513,-1.70530257e-13 15.9773372,3.57283284 15.9773372,7.98019944 Z M2.57083871,6.91453375 C1.98212317,6.91453375 1.50517302,7.39153081 1.50517302,7.98019944 C1.50517302,8.5685865 1.98212317,9.04553669 2.57083871,9.04553669 C3.15922581,9.04553669 3.63617595,8.5685865 3.63617595,7.98019944 C3.63617595,7.39153081 3.15922581,6.91453375 2.57083871,6.91453375 Z M10.1780176,11.7569501 C9.66841056,12.0512844 9.49367744,12.7025454 9.78805862,13.2118709 C10.0820645,13.721478 10.7333255,13.8961642 11.2429326,13.6018299 C11.7524927,13.3078241 11.9272258,12.6565631 11.6328915,12.1469091 C11.3388856,11.6376305 10.6872493,11.4629443 10.1780176,11.7569501 Z M4.88511437,7.98019944 C4.88511437,6.92729619 5.40809384,5.99709091 6.20832844,5.43380645 L5.42939589,4.12917302 C4.49721994,4.75228152 3.80363636,5.70444575 3.51540176,6.81961287 C3.85173021,7.09405281 4.06700293,7.51183575 4.06700293,7.9801525 C4.06700293,8.44818769 3.85173021,8.86597069 3.51540176,9.14041056 C3.803261,10.2559062 4.49684457,11.2081173 5.42939589,11.8312258 L6.20832844,10.5262639 C5.40809384,9.96330794 4.88511437,9.03314956 4.88511437,7.98019944 Z M7.99713781,4.86784751 C9.62294431,4.86784751 10.9568094,6.11439296 11.0968211,7.70411731 L12.6149912,7.68173606 C12.5402932,6.50810556 12.0275894,5.45449853 11.2397889,4.67974194 C10.8346745,4.83279766 10.3667331,4.80938416 9.96227569,4.57623461 C9.55711437,4.34242815 9.30308506,3.94801173 9.23364225,3.51985924 C8.83988269,3.41119062 8.425478,3.35169501 7.997044,3.35169501 C7.26052788,3.35169501 6.56417594,3.52469208 5.94590029,3.83070967 L6.686217,5.15734897 C7.08448094,4.97201173 7.52877419,4.86784751 7.99713781,4.86784751 Z M7.99713781,11.0922229 C7.52877419,11.0922229 7.08448094,10.9880117 6.68626394,10.8027214 L5.94594721,12.1293138 C6.56422287,12.4357067 7.26057475,12.6087507 7.99713781,12.6087507 C8.42557187,12.6087507 8.83997656,12.5492082 9.23368912,12.4402111 C9.30313194,12.0120586 9.55725512,11.6180176 9.96232256,11.3837889 C10.3670616,11.1502639 10.8347214,11.1272727 11.2398357,11.2803284 C12.0276364,10.5055719 12.5403402,9.45196481 12.6150381,8.27833431 L11.0964927,8.25595306 C10.9568094,9.84609969 9.62299119,11.0922229 7.99713781,11.0922229 Z M10.1776422,4.20279179 C10.6872493,4.49707918 11.3385572,4.32276833 11.6325631,3.81316129 C11.9268974,3.30355425 11.7525865,2.65224633 11.2429326,2.3578651 C10.7333255,2.06385924 10.0820645,2.23854546 9.78763637,2.74815249 C9.49367744,3.25747801 9.66836362,3.90878592 10.1776422,4.20279179 Z" fill="#FFFFFF"></path>
</svg>