<svg viewBox="0 0 19 16" version="1.1" xmlns="http://www.w3.org/2000/svg" xmlns:xlink="http://www.w3.org/1999/xlink">
    <path d="M18.3588314,3.70672538 C18.2770946,5.49814 17.0282657,7.95116391 14.6128959,11.0645114 C12.1156055,14.3167196 10.0027538,15.9426401 8.27434081,15.9426401 C7.20404728,15.9426401 6.29759476,14.952614 5.5577385,12.971827 C5.06327648,11.1561669 4.56936548,9.34069037 4.07508713,7.52503024 C3.52533793,5.54534533 2.93591421,4.55421713 2.30571391,4.55421713 C2.16832253,4.55421713 1.68745269,4.84387784 0.864206479,5.42099511 L0,4.30551669 C0.906452491,3.5074344 1.80078221,2.7095358 2.68060135,1.91053512 C3.88957203,0.863752395 4.79712659,0.31326848 5.40197929,0.25761395 C6.83154763,0.120038891 7.71136674,1.09904432 8.04162038,3.19481391 C8.39850734,5.45589399 8.64537098,6.86231886 8.78423182,7.4128028 C9.19622228,9.28870945 9.64954038,10.2254688 10.1449208,10.2254688 C10.5293595,10.2254688 11.1068441,9.61712624 11.8768236,8.40044111 C12.6460684,7.18338856 13.0580589,6.25746616 13.1137134,5.62138815 C13.2231857,4.57111554 12.8110115,4.04469348 11.8768236,4.04469348 C11.4370978,4.04469348 10.9837797,4.14608391 10.5174204,4.34647696 C11.4200156,1.38392938 13.144755,-0.0548228666 15.6905365,0.0272813409 C17.5778312,0.0827521923 18.467569,1.30917231 18.3588314,3.70672538" fill="#FFFFFF"></path>
</svg>