<svg height="16" width="56" xmlns="http://www.w3.org/2000/svg"><g fill="#fff" fill-rule="evenodd"><path d="m12.27 1.382c-.009.074.053.049.087.053 1.981.269 3.628 1.121 4.882 2.643a6.128 6.128 0 0 1 1.349 3.006c.364 2.36-.444 4.31-2.235 5.901-.948.844-2.064 1.392-3.316 1.68-.236.055-.474.1-.716.127-.028.003-.092-.022-.08.05h-4.937c.007-.068-.053-.045-.083-.05-.176-.03-.354-.049-.529-.086-1.745-.364-3.157-1.237-4.226-2.618a6.304 6.304 0 0 1 -1.29-3.072c-.003-.028.02-.088-.053-.076v-1.602c.06.011.05-.037.052-.064.015-.182.05-.36.086-.539.243-1.193.768-2.256 1.615-3.157 1.158-1.232 2.61-1.925 4.31-2.143.035-.005.093.018.09-.053zm2.241 6.723c.006-3.377-2.832-6.143-6.289-6.168-3.51-.027-6.42 2.694-6.435 6.136-.016 3.39 2.831 6.168 6.297 6.188 3.54.021 6.428-2.74 6.427-6.156zm-4.918 3.632v-.118c0-2.34 0-4.68-.002-7.021 0-.1.002-.147.13-.096 1.485.594 2.477 2.056 2.463 3.64-.014 1.568-1.038 3.014-2.534 3.58zm-2.89-3.629v3.483c0 .154 0 .154-.148.094-1.469-.605-2.463-2.033-2.431-3.587.034-1.67.869-2.86 2.423-3.578.153-.07.156-.066.156.105zm48.085 2.354c-.053.007-.071.053-.102.084a.427.427 0 0 1 -.613.014.395.395 0 0 1 -.004-.582c.164-.156.449-.144.617.025.03.032.05.078.101.085v.374zm-.636-.4.152-.002c.218.001.226.017.159.218-.029.087.053.123.107.165.037.03.067.003.089-.03.078-.125.023-.317-.119-.413a.29.29 0 0 0 -.388.062c-.11.087-.143.246-.073.35.018.027.04.048.076.043.024-.004.047-.019.046-.042-.003-.118.053-.245-.049-.351zm.423.44c-.13.002-.16-.115-.265-.195.05.146-.002.206-.14.194.134.126.263.125.405.002zm-.215-.244a.089.089 0 0 0 .062-.075c.005-.038-.006-.073-.049-.08-.05-.008-.054.034-.054.068 0 .033-.011.072.041.087zm-32.773-1.825h-1.227c-.062 0-.134.012-.142-.083-.007-.087.049-.103.118-.114.09-.014.181-.027.27-.05.16-.04.242-.15.271-.303.022-.114.03-.228.03-.345-.002-1.062-.002-2.126-.001-3.189 0-.094-.007-.185-.026-.278-.053-.27-.174-.375-.456-.39-.04-.003-.082-.002-.124-.003-.058-.002-.08-.035-.08-.087-.001-.057.018-.096.084-.098h.082c.727 0 1.454-.02 2.179.004.905.03 1.693.34 2.243 1.068.547.724.634 1.521.274 2.349-.384.883-1.122 1.31-2.064 1.469-.504.085-1.01.028-1.43.05zm.035-2.67c0 .614-.002 1.228 0 1.841.002.357.203.57.558.586.224.01.45.018.673-.026.533-.101.97-.346 1.258-.806.374-.598.43-1.25.3-1.918-.138-.72-.55-1.249-1.258-1.542-.454-.187-.931-.18-1.41-.159-.112.005-.122.08-.122.17.002.618.001 1.236.001 1.854zm29.551-.014v-1.775c0-.267-.045-.328-.302-.427-.041-.017-.076-.031-.078-.08 0-.049.032-.07.073-.085.264-.093.521-.2.771-.324.08-.04.135-.01.141.08.003.04.002.08.002.12v2.27c.001.04-.024.099.027.12.037.014.073-.03.104-.054.154-.123.323-.219.504-.3a1.256 1.256 0 0 1 1.297.212c.403.37.548.825.498 1.352-.055.581-.312 1.058-.805 1.396-.565.387-1.172.36-1.784.113-.105-.043-.193-.073-.286.02-.043.042-.097.083-.17.039-.072-.043-.08-.105-.072-.174l.053-.45c.057-.518.017-1.04.028-1.559.004-.165 0-.33 0-.494zm.607 1.088c0 .258-.002.516 0 .774.002.412.35.75.776.74.444-.013.742-.25.91-.63.27-.61.232-1.201-.215-1.73-.375-.443-.915-.557-1.383-.15a.23.23 0 0 0 -.09.195c.003.267.002.535.002.801zm-8.196 1.707c-.687-.008-1.284-.154-1.802-.535-.546-.4-.84-.943-.953-1.586-.087-.495-.067-.982.142-1.451.246-.554.655-.96 1.195-1.247.782-.415 1.598-.423 2.432-.185.198.057.398.11.59.187.052.021.102.038.106.106.019.266.04.53.055.797.004.057.022.13-.078.143-.097.011-.114-.051-.13-.12-.158-.699-.7-.997-1.389-1.028-.556-.025-1.052.122-1.48.474-.383.314-.576.73-.668 1.196a2.67 2.67 0 0 0 .19 1.682c.329.704.866 1.185 1.673 1.309.747.113 1.37-.234 1.641-.925.027-.066.048-.135.07-.202.02-.053.058-.066.11-.055.051.01.08.035.07.094l-.15.921c-.012.075-.084.091-.142.114-.49.189-.998.302-1.482.31zm-15.202-1.54v.894c.001.295.049.34.35.348.052.002.116-.017.142.053.03.082-.014.133-.126.134h-1.338c-.067 0-.102-.026-.102-.095 0-.071.042-.087.106-.092.388-.03.389-.032.389-.415 0-.543-.005-1.086.002-1.628.003-.234-.091-.392-.318-.478-.057-.021-.127-.04-.12-.124.007-.074.07-.087.125-.106.252-.083.508-.158.752-.262.105-.044.145-.012.14.095-.004.08-.002.16 0 .24 0 .038-.018.089.021.113.045.028.073-.024.104-.045.275-.18.549-.367.886-.416.466-.068.784.005.98.378.101.193.128.408.13.623.003.587 0 1.175.001 1.762 0 .204.059.26.271.263h.083c.07 0 .144-.005.141.097-.003.105-.081.089-.148.09h-1.283c-.072 0-.144.002-.14-.1.004-.094.074-.085.138-.087.29-.008.332-.049.332-.33 0-.557-.015-1.113.004-1.67.02-.573-.441-.732-.876-.623-.197.05-.371.151-.55.245-.073.04-.104.096-.096.175zm21.935-.276v1.228c.001.186.024.209.213.21.07 0 .138 0 .207.002.043 0 .07.021.073.064.004.044-.007.08-.058.091-.314.069-.627.137-.941.204-.077.017-.097-.033-.098-.093-.003-.112 0-.223-.003-.335 0-.032.017-.078-.03-.092-.032-.01-.057.02-.082.04-.186.147-.376.29-.598.38-.338.135-.684.19-1.019-.008-.275-.164-.36-.431-.365-.722-.007-.592-.001-1.183-.002-1.776 0-.276-.05-.337-.323-.412-.05-.014-.119-.013-.113-.09.006-.082.071-.08.131-.083.235-.01.469-.022.702-.027.195-.004.208.011.209.206 0 .658-.005 1.317.003 1.975.003.273.091.516.386.62.194.068.39.038.577-.04a.859.859 0 0 0 .098-.049c.452-.253.452-.253.452-.757v-1.269c0-.223-.03-.27-.244-.349-.098-.036-.2-.062-.302-.092-.048-.014-.085-.038-.08-.093.008-.058.051-.067.1-.072.297-.026.593-.055.89-.078.197-.017.217.003.217.19zm-17.73-.245h-.896c-.139.001-.17.039-.153.17.028.198.012.4.075.594.099.302.26.56.544.73.37.222.73.15 1.077-.052.113-.066.212-.155.316-.234.038-.03.073-.036.112-.005.04.032.037.067.008.105-.392.515-.98.926-1.77.683-.509-.156-.758-.544-.88-1.015-.147-.558-.081-1.102.238-1.59.457-.7 1.317-.874 1.96-.439.32.216.45.528.461.895.004.114-.054.159-.169.158-.307-.002-.616 0-.923 0zm-.314-.24h.565c.15-.003.217-.078.203-.22-.03-.294-.181-.494-.426-.564-.286-.08-.628.019-.799.231a1.235 1.235 0 0 0 -.214.429c-.026.089-.001.125.094.124.192-.002.385 0 .577 0zm-1.71 5.074v-.947c-.002-.196-.034-.231-.233-.255-.058-.006-.1-.018-.097-.085.002-.059.041-.077.092-.074.508.034 1.019-.052 1.523.03.55.088.787.572.516 1.019a.75.75 0 0 1 -.324.282c-.095.046-.094.096-.036.176.199.277.395.557.586.84.074.11.164.19.3.213.056.01.097.032.093.094-.003.07-.06.068-.11.068-.202 0-.405-.002-.607.002-.074 0-.116-.034-.157-.088a11.611 11.611 0 0 1 -.635-.952c-.03-.049-.058-.102-.094-.147-.05-.063-.125-.048-.192-.038-.07.012-.072.073-.07.127.005.243-.017.488.021.732.025.156.064.198.229.205l.055.001c.054.001.101.01.102.079 0 .068-.046.08-.1.08h-1.062c-.06 0-.128.008-.13-.08 0-.079.061-.074.116-.08.175-.018.213-.059.214-.228zm.554-.628v.454c0 .044-.004.09.05.113.175.075.573-.06.651-.238.098-.221.116-.448-.025-.664-.132-.203-.34-.218-.558-.213-.09.001-.121.038-.12.121.004.143.002.285.002.427zm15.586-5.089v2.323c0 .266.055.32.328.323.024 0 .047.002.07 0 .07 0 .098.034.096.1-.001.063-.036.087-.096.087h-1.338c-.065 0-.133.006-.136-.089-.003-.102.07-.097.14-.097h.083c.191-.007.247-.06.247-.244.002-.542 0-1.086 0-1.628 0-.797-.002-1.594.002-2.39.001-.221-.065-.385-.307-.44-.046-.01-.075-.032-.075-.081.002-.049.037-.069.077-.083.257-.087.504-.194.746-.314.119-.058.163-.022.163.13zm-24.474 5.016v1.112c0 .165-.002.33.001.494.005.207.09.288.302.299.056.003.13-.013.134.074.004.099-.075.085-.137.085h-.827c-.058 0-.129.011-.13-.077-.003-.089.068-.08.126-.083.133-.006.211-.077.245-.197a.93.93 0 0 0 .039-.262c-.002-.513 0-1.024-.001-1.535 0-.26-.07-.347-.333-.409-.055-.012-.08-.035-.077-.089.003-.05.035-.07.082-.07l.701.001c.044 0 .08.022.108.052.316.346.634.69.95 1.037l.693.76c.007.008.022.01.035.014.034-.037.02-.079.02-.117l.001-1.201c.001-.212-.076-.383-.346-.388-.052 0-.091-.015-.093-.074-.002-.066.04-.084.098-.084h.907c.052 0 .09.017.091.075.002.056-.03.075-.083.084-.248.04-.325.124-.326.374-.001.681.001 1.362-.002 2.042 0 .068.048.164-.06.196-.099.031-.16-.033-.221-.1a148.29 148.29 0 0 0 -1.712-1.86c-.049-.053-.09-.114-.185-.153zm13.41 1.175v-.302c0-.346.002-.694 0-1.04 0-.212-.092-.31-.31-.332-.064-.006-.128-.008-.124-.09.005-.089.08-.07.136-.07.275-.002.55 0 .825 0 .058 0 .129-.01.13.077.004.089-.066.08-.125.083-.132.006-.211.075-.246.196a.964.964 0 0 0 -.04.263c.002.627.001 1.254.002 1.882 0 .044.004.088.007.133.002.048.047.113-.032.136-.067.02-.133.013-.188-.047-.234-.25-.472-.497-.705-.749-.266-.287-.529-.578-.794-.867-.143-.155-.29-.308-.435-.462-.05.024-.031.065-.031.095v1.429c0 .057.012.115.023.171.033.17.089.216.268.224l.07.002c.047.003.076.025.077.075 0 .056-.03.081-.085.081h-.924c-.046 0-.084-.013-.086-.065-.003-.053.027-.078.08-.09.27-.062.327-.13.328-.4v-1.63c0-.244-.069-.327-.315-.375-.055-.01-.097-.021-.094-.088.003-.068.053-.073.107-.073h.661c.067-.001.11.035.151.08l.788.855.841.913c.013-.006.027-.01.04-.015zm12.994.056c0-.506.005-.977-.003-1.448-.002-.17-.12-.265-.306-.282-.06-.006-.128.005-.127-.083.002-.088.073-.078.13-.078.28 0 .56.019.84 0 .058-.003.126-.007.125.082 0 .078-.06.076-.116.078-.15.005-.237.084-.268.223-.011.056-.024.113-.024.17 0 .712.001 1.424.003 2.135 0 .03.017.068-.024.08-.058.018-.122.022-.172-.014-.043-.032-.073-.079-.11-.118-.32-.348-.642-.695-.964-1.042l-.698-.754a30.597 30.597 0 0 0 -.173-.187c-.06.054-.041.101-.042.143v1.388c0 .29.052.347.344.381.05.006.091.016.094.074.002.067-.038.085-.096.085h-.91c-.052-.001-.09-.017-.091-.076-.001-.057.032-.074.085-.083.236-.037.32-.116.322-.35.008-.583.005-1.166.002-1.749-.001-.153-.12-.27-.297-.301-.055-.01-.115-.008-.112-.087.004-.087.073-.076.13-.077.203-.002.404.02.606 0 .082-.008.14.03.19.086.47.516.941 1.032 1.413 1.547.071.078.149.154.249.257z"/><path d="m44.532 12.737c-.625.002-1.077-.202-1.376-.67-.525-.824-.017-1.946.964-2.133.545-.104 1.048.001 1.462.37.434.387.525 1.052.26 1.617-.22.468-.76.842-1.31.816zm.848-1.383a1.434 1.434 0 0 0 -.196-.791.872.872 0 0 0 -.87-.446c-.336.034-.6.265-.694.619-.115.432-.09.857.106 1.263.22.458.62.621 1.115.475a.59.59 0 0 0 .33-.249c.172-.257.213-.544.209-.871zm-7.692-6.154c.272-.01.524.053.765.16.057.025.105.055.108.124.01.174.022.346.03.52.002.054.013.122-.078.127-.078.005-.1-.045-.115-.107-.057-.235-.17-.431-.414-.531a.908.908 0 0 0 -.568-.03c-.168.04-.304.14-.335.318-.037.211.018.397.203.533.166.123.36.194.55.276.237.104.482.198.672.382a.853.853 0 0 1 .025 1.186c-.241.258-.552.356-.896.38a1.916 1.916 0 0 1 -.897-.169c-.098-.042-.145-.099-.155-.195-.019-.19-.04-.38-.057-.57-.005-.057-.014-.123.068-.139.095-.019.084.06.1.11.108.34.29.616.675.707.132.03.267.03.398.006.196-.036.338-.151.375-.345.043-.216.005-.42-.19-.564a2.61 2.61 0 0 0 -.531-.283c-.219-.093-.432-.197-.603-.366a.868.868 0 0 1 .123-1.316c.224-.153.475-.227.747-.214zm-2.712.66c.15-.155.274-.31.425-.446.166-.15.353-.237.586-.212.191.02.33.152.342.326.014.217-.081.356-.275.406-.092.024-.171-.004-.248-.049-.38-.22-.812 0-.824.437-.016.569-.007 1.138-.003 1.707.001.138.082.209.229.214.142.005.285.003.427.002.07 0 .114.02.112.098-.001.074-.046.088-.109.088h-1.681c-.071 0-.113-.022-.111-.1.002-.072.049-.086.11-.086.078 0 .157.002.235-.006.116-.011.18-.074.18-.194v-2.025c.001-.15-.11-.203-.227-.253-.053-.023-.122-.03-.127-.104-.006-.083.07-.096.126-.122.215-.102.43-.202.646-.302.139-.064.185-.037.187.11.002.171 0 .342 0 .513zm-6.108 6.818-.951-.001c-.057 0-.131.017-.137-.071-.008-.097.07-.09.133-.087.133.004.192-.068.21-.183a.866.866 0 0 0 .009-.133v-1.75c0-.039 0-.08-.006-.12-.024-.164-.065-.203-.236-.22-.06-.005-.114-.006-.111-.084s.063-.077.119-.075c.275.008.55.009.826.014.302.007.605-.014.909-.015.184 0 .183 0 .185.177.002.124.003.249.01.373.006.066-.03.088-.085.1-.066.013-.075-.033-.086-.077-.075-.293-.157-.357-.464-.359h-.4c-.075 0-.11.03-.109.104.001.25.002.499 0 .748 0 .08.036.112.117.11.115-.003.23.002.345-.002.142-.005.228-.078.254-.217.01-.058.01-.126.093-.122.102.005.074.086.075.143.003.218.002.436 0 .654 0 .06.017.14-.074.148-.097.01-.085-.07-.092-.13-.023-.166-.091-.228-.261-.234-.11-.003-.221.003-.331-.002-.098-.004-.128.04-.127.13a27.6 27.6 0 0 1 0 .747c-.001.126.07.197.186.208.215.022.431.025.646-.003.202-.026.315-.15.378-.328.019-.053.031-.126.116-.1.077.026.054.092.042.15-.028.125-.063.25-.081.377-.016.099-.062.132-.165.13-.311-.003-.624 0-.937 0zm9.593 0-.455-.001c-.058 0-.127.01-.129-.079 0-.078.059-.075.114-.08.15-.016.184-.054.144-.188-.051-.17-.117-.337-.173-.506-.02-.061-.064-.082-.126-.082h-.689c-.067 0-.1.032-.117.09-.05.166-.107.33-.155.497-.036.123.003.172.134.186.023.002.046.002.069.002.063.002.127.007.126.088-.001.08-.068.07-.122.07-.238.002-.477.002-.716 0-.056 0-.115.002-.117-.077-.001-.068.046-.075.1-.084.162-.026.234-.143.283-.278.165-.457.33-.915.493-1.374.088-.247.175-.496.256-.746.028-.087.097-.109.168-.14.298-.131.297-.132.403.16.265.726.53 1.45.793 2.176.04.113.098.201.237.206.058.002.08.037.075.09-.005.05-.04.067-.086.067h-.51v.002zm-.948-2.159h-.033l-.3.88c-.018.054.01.076.061.076h.482c.06 0 .106-.021.084-.088-.096-.29-.195-.578-.294-.868zm13.954 2.158h-.482c-.06 0-.114-.006-.113-.083.002-.069.052-.07.106-.077.17-.019.195-.055.142-.218-.048-.148-.104-.295-.151-.443-.025-.08-.069-.118-.158-.115-.216.003-.432.003-.648 0-.085-.003-.124.035-.146.108-.048.158-.103.315-.15.473-.039.126.003.18.142.194.032.003.065.002.097.005.05.004.071.032.07.08 0 .05-.03.074-.077.074h-.773c-.046 0-.08-.018-.082-.07-.005-.054.022-.08.078-.087.158-.017.239-.117.287-.253.254-.715.528-1.423.76-2.145.028-.082.089-.105.155-.136.357-.17.299-.168.429.183.259.695.508 1.392.759 2.09.048.135.101.26.281.266.053.002.063.046.058.089-.005.052-.043.064-.089.064h-.496v.001zm-.998-2.142c-.002.004-.008.014-.013.027l-.283.82c-.027.077.017.094.083.094.142 0 .285-.003.426.002.107.003.14-.029.102-.133-.088-.248-.168-.497-.251-.746-.01-.025-.014-.053-.064-.064zm-10.35 2.142h-.552c-.056 0-.116.002-.117-.077s.056-.079.113-.082c.242-.015.27-.044.271-.283.001-.628-.002-1.254.003-1.881 0-.12-.034-.17-.164-.162-.165.008-.331.001-.496.003-.19.001-.232.033-.281.207-.009.03-.017.06-.029.089-.022.052-.069.054-.116.043s-.044-.05-.038-.087l.07-.515c.015-.1.075-.11.14-.047.059.057.123.068.199.068h2.053c.082 0 .155-.007.208-.078.025-.031.064-.034.1-.015.034.017.034.052.03.083a3.02 3.02 0 0 0 -.054.502c0 .066-.052.096-.11.1-.075.003-.048-.061-.053-.1-.03-.178-.11-.25-.293-.251-.155-.003-.312.001-.468-.002-.088-.002-.125.032-.124.118.002.658 0 1.316.003 1.974 0 .163.073.223.25.233.056.004.13-.011.132.077.002.098-.078.081-.139.082-.18.003-.36.002-.538.001zm-13.556-1.367c.017.284-.029.636.021.986.027.187.06.214.255.223l.042.002c.052.001.09.017.09.076.002.056-.03.08-.085.08h-1.172c-.053 0-.089-.02-.089-.077 0-.058.035-.078.088-.079.019 0 .037 0 .055-.002.192-.008.24-.054.241-.245.002-.276.001-.552.001-.828 0-.365-.005-.73.003-1.094.002-.126-.044-.165-.169-.159-.165.008-.33.001-.496.003-.184.002-.234.04-.282.21-.009.03-.016.06-.028.089-.019.047-.06.049-.103.042-.047-.008-.058-.042-.052-.08.03-.175.05-.352.056-.53.004-.102.095-.101.147-.05.076.076.159.079.252.078h1.972c.092 0 .185.01.25-.078.023-.032.064-.034.1-.015.034.02.026.053.02.084a2.168 2.168 0 0 0 -.044.477c.004.07-.034.111-.1.123-.09.015-.06-.061-.068-.1-.046-.195-.113-.25-.324-.25-.147-.001-.294.004-.441-.002-.11-.005-.144.04-.142.142.005.302.002.604.002.974zm.053-4.64v1.281c0 .224.066.285.291.297.074.004.199-.054.201.088.003.154-.13.093-.207.094-.404.006-.809.003-1.213.002-.068 0-.146.013-.147-.091 0-.104.074-.094.143-.095.046-.001.092 0 .138-.004.113-.011.19-.065.2-.183.005-.053.012-.106.012-.16l.001-1.682c0-.107-.014-.213-.041-.316-.032-.122-.13-.19-.244-.239-.056-.024-.107-.054-.097-.126s.07-.076.12-.09c.22-.066.441-.13.653-.217.138-.057.188-.025.189.12.002.44.001.88.001 1.321zm26.607 6.009-.938-.001c-.055 0-.133.021-.14-.067-.007-.09.07-.088.134-.093.167-.012.217-.063.218-.227v-1.95c0-.163-.05-.21-.222-.225-.064-.006-.14.005-.13-.091.007-.087.081-.069.138-.07h1.016c.06 0 .13-.009.13.079.002.088-.068.079-.128.081-.212.01-.252.049-.252.26v1.83c0 .2.042.253.249.28.197.024.396.017.588-.031a.488.488 0 0 0 .348-.316c.014-.038.027-.076.046-.111.02-.037.057-.043.096-.035.047.009.056.045.048.082-.037.178-.075.357-.118.534-.017.074-.083.072-.144.072-.313-.002-.626-.001-.939-.001zm-10.98 0-.496-.001c-.056 0-.115.002-.117-.077-.001-.078.056-.078.113-.083.18-.013.215-.05.215-.22l.001-1.948c-.001-.18-.035-.217-.22-.235-.06-.006-.113-.01-.11-.086.005-.079.066-.074.12-.074h.99c.06 0 .127-.005.126.082-.001.079-.062.073-.117.078-.172.016-.211.058-.211.23v1.933c0 .194.027.222.224.24.053.006.104.01.105.078.001.077-.055.082-.113.082h-.51zm-21.427 0-.511-.001c-.05 0-.108.002-.11-.068-.003-.072.048-.085.109-.09.22-.024.243-.047.243-.254v-1.88c0-.217-.024-.244-.245-.27-.063-.008-.11-.023-.107-.093.004-.07.062-.067.112-.067h1.032c.057 0 .114 0 .115.08 0 .078-.058.075-.114.08-.17.016-.236.071-.237.235-.004.635-.005 1.272 0 1.907.002.198.055.243.248.262.054.005.103.01.103.079 0 .077-.056.08-.114.08zm5.509-8.573c-.18 0-.366-.176-.368-.345-.002-.17.184-.346.365-.348a.34.34 0 0 1 .351.346.336.336 0 0 1 -.348.347z"/></g></svg>