<svg height="16" width="61" xmlns="http://www.w3.org/2000/svg"><g fill="#fff" fill-rule="evenodd"><path d="m9.053 1.257c-.74.512-.88 1.313-1.047 2.103-.14.666-.295 1.33-.446 2.004.249.111.326-.02.373-.237.171-.786.351-1.57.524-2.355.219-.98.859-1.515 1.823-1.515h4.502l-.26.218c-.338.283-.58.634-.681 1.075-.215.937-.423 1.874-.64 2.837.096.02.186.04.3.067.2-.888.399-1.758.593-2.628.239-1.068.846-1.569 1.91-1.569h4.666c.867 0 1.294.548 1.098 1.424-.784 3.51-1.57 7.02-2.361 10.528-.188.832-.891 1.405-1.718 1.407-1.61.003-3.22.003-4.829 0-.838-.002-1.266-.558-1.095-1.412.053-.261.114-.521.197-.898-.166.086-.325.119-.34.184-.088.39-.209.793-.188 1.183.018.315.221.62.348.943h-.23c-1.437 0-2.873.002-4.31 0-.878-.001-1.31-.556-1.114-1.448.325-1.484.663-2.965.994-4.447.015-.062.024-.126.035-.191-.21-.09-.304-.028-.353.19-.329 1.495-.666 2.987-1.003 4.48-.121.535.021.988.462 1.416h-3.781c-.951 0-1.376-.539-1.164-1.49.782-3.489 1.565-6.976 2.349-10.464.192-.85.873-1.404 1.712-1.405 1.133-.002 2.267 0 3.401 0h.274zm7.593 7.775c.034.01.067.022.101.033.075.428.39.34.643.313.101-.011.186-.176.242-.233l-.326-.478c-.486.027-1.012.053-1.538.091-.106.007-.171.115-.296-.05-.138-.18-.531-.003-.6.233-.199.685-.387 1.374-.603 2.054-.072.227-.21.43-.319.645l.044.094c.617-.252 1.218.273 1.857.002.592.344.927-.071 1.238-.571.157.603.209.647.538.662.288.014.242-.216.267-.284-.097-.205-.159-.338-.226-.468-.064-.122-.135-.24-.232-.41.134-.007.306-.032.476-.018.262.019.345-.104.321-.363-.192-.01-.373-.02-.557-.028-.037-.348.18-.347.389-.322.293.034.413-.093.391-.413-.534 0-1.062.016-1.589-.007-.294-.013-.38.117-.369.415h.611c.033.384-.207.352-.423.339-.235-.014-.441-.003-.402.353l.548.048c-.156.23-.267.438-.421.605-.083.094-.236.12-.357.174-.038-.149-.135-.315-.103-.446.137-.551.303-1.096.476-1.638.038-.123.144-.223.22-.332zm-10.753-4.344c-.143.67-.27 1.317-.423 1.957-.045.187-.12.418-.256.52a.822.822 0 0 1 -.587.125c-.236-.044-.221-.297-.192-.502.028-.199.067-.396.113-.591.116-.498.239-.993.363-1.505h-.844c-.142.655-.29 1.296-.418 1.94-.189.954.128 1.312 1.076 1.236.119-.01.238-.02.354-.046.374-.085.731-.254.854-.642.26-.81.462-1.64.696-2.492zm8.42-.007-.718 3.156h.747c.046-.218.089-.414.132-.61.108-.503.108-.503.613-.53.766-.043 1.237-.443 1.378-1.17.095-.486-.108-.809-.587-.838-.514-.032-1.033-.008-1.565-.008zm-2.348 6.71c.08-.284.156-.536.216-.791.042-.181.125-.258.313-.25.291.012.587.025.873-.02.162-.026.389-.127.446-.259.186-.432.307-.894.483-1.438l-1.592.176c-.084-.035-.18-.098-.282-.117-.154-.026-.283-.009-.341.204-.197.721-.414 1.435-.623 2.153-.231.793-.23.796.564.789.359-.004.38-.028.363-.446h-.42zm5.655-2.045c.657.094.752.052 1.016-.426.401-.728.796-1.46 1.194-2.189l.38-.684c-.671-.195-.799.362-1.064.852-.029-.362-.05-.626-.075-.918l-.67.128c.062.534.146 1.031.17 1.532.027.554-.348.93-.64 1.336-.084.116-.183.22-.31.369zm.474-3.331c-.396.046-.744.186-1.098.009-.067-.034-.187.024-.275.062-.46.196-.793.834-.71 1.344.05.3.24.455.508.471.393.023.788.007 1.177.007zm-10.056 1.823c.042-.224.078-.42.117-.616.043-.208.092-.415.133-.623.098-.512-.123-.723-.612-.58-.093.027-.25.106-.263.086-.18-.295-.395-.01-.587-.04-.051-.007-.16.106-.175.18-.11.522-.204 1.049-.304 1.58h.658c.077-.377.135-.731.229-1.075.027-.098.16-.164.244-.245.034.1.108.207.095.301-.048.34-.125.675-.195 1.032zm4.095-.003c.076-.373.136-.736.23-1.088.027-.098.162-.163.247-.243.036.102.11.209.098.303-.049.34-.129.674-.199 1.023h.656c.084-.402.182-.782.23-1.167.026-.193.028-.493-.079-.573-.139-.104-.397-.047-.603-.039-.085.004-.19.15-.218-.058-.24.072-.639.085-.687.226-.174.51-.229 1.062-.332 1.616zm-1.87.063c.73.008 1.289-.677 1.154-1.42-.047-.262-.208-.406-.454-.462-.707-.163-1.268.247-1.397 1.023-.095.566.139.853.697.86zm.315 3.502c.078-.583.078-.6.593-.598.3 0 .26-.208.316-.42h-.61c-.026-.337.163-.37.385-.341.278.034.428-.066.408-.378-.037-.008-.07-.019-.101-.019-.399 0-.799.016-1.197-.005-.27-.014-.376.09-.354.37l.374.082c-.118.125-.202.283-.277.278-.31-.016-.303.197-.346.413l.313.04c-.007.069-.006.124-.02.176-.212.853-.212.838.635.847.326.003.354-.179.375-.445zm1.91-.96c0 .293.005.517 0 .739-.02.652-.021.637.604.652.296.007.374-.122.354-.397l-.39-.036v-.366c.657-.087.701-.124.697-.576-.175-.005-.363-.081-.457.177-.011.03-.208.031-.213.016-.095-.363-.354-.115-.595-.21zm-3.131-4.062c-.185.027-.35.037-.504.08-.077.022-.182.094-.198.162-.095.397-.168.8-.25 1.21h.675c.101-.457.196-.892.29-1.329.005-.03-.006-.063-.013-.123zm2.457 2.536h-.573l-.014-.222c-.332-.043-.648-.093-.78.33-.015.05-.101.073-.146.117-.1.101-.194.209-.29.314l.075.095c.156-.02.345.01.464-.072.279-.184.574-.173.87-.15.28.021.398-.092.394-.412zm-2.666-3.224c-.172.163-.308.293-.446.422.105.07.232.216.305.19.173-.056.32-.196.477-.302-.091-.085-.182-.17-.335-.31zm16.297-2.269h1.369l-.552 2.5c-.109.49-.22.981-.328 1.47-.144.657-.063.951.31 1.146.46.241 1.122.151 1.425-.264.194-.268.341-.6.419-.927.311-1.291.585-2.592.88-3.914h1.372l-.277 1.258c-.203.916-.4 1.832-.607 2.746-.442 1.947-2.338 2.89-4.096 2.042-.69-.333-1.011-.932-.848-1.766.247-1.272.547-2.532.825-3.797zm27.794 10.93h-.732c.056-.262.107-.507.162-.75.188-.827.393-1.652.56-2.483.063-.312.205-.401.489-.388.377.017.755-.004 1.134.006.663.018 1.218-.48 1.128-1.294-.155-1.4-.256-2.805-.381-4.242h1.366l.12 2.984.056.014c.049-.092.1-.182.145-.276.401-.83.81-1.657 1.195-2.495.096-.207.212-.273.424-.262.343.017.687.005 1.072.005-.05.123-.071.195-.106.26-.902 1.643-1.817 3.28-2.702 4.932-.548 1.022-1.343 1.544-2.48 1.477-.118-.007-.238-.001-.356 0-.591.003-.505-.047-.633.508l-.46 2.004zm-5.819-6.861c-.16.725-.311 1.423-.469 2.137h-1.362c.033-.193.058-.376.099-.555.401-1.775.81-3.548 1.204-5.326.052-.232.138-.305.365-.3.67.017 1.34 0 2.01.008 1.218.013 1.864.868 1.593 2.096-.248 1.122-1.219 1.9-2.428 1.939-.323.01-.646 0-1.012 0zm.21-.97c.355-.044.659-.047.943-.125.535-.148.865-.518.951-1.1.056-.382-.065-.656-.42-.755-.285-.079-.595-.066-.892-.08-.045-.003-.124.06-.136.106-.148.626-.288 1.253-.446 1.954z"/><path d="m55.184 5.32c-.171.74-.346 1.454-.5 2.175-.152.707-.281 1.42-.42 2.137-.845.098-.942.045-1.169-.717-.084.11-.14.202-.212.28-.434.459-.966.617-1.57.522-.534-.083-.916-.512-.98-1.097a2.97 2.97 0 0 1 .306-1.69c.78-1.55 2.714-2.295 4.544-1.61zm-1.465.713c-.168 0-.308-.017-.44.003-.938.142-1.783 1.415-1.582 2.372.071.34.383.51.703.315.242-.147.463-.37.627-.608.415-.608.517-1.338.692-2.082zm-15.5 3.706c-.94 0-1.64-.431-1.772-1.195-.186-1.088.117-2.057.932-2.785.788-.704 1.717-.872 2.7-.513.632.229.944.755.945 1.454.002 1.741-1.195 3.04-2.805 3.04zm-.47-1.771c-.004.315.025.625.35.764.32.138.628.057.867-.187.514-.523.755-1.17.691-1.913-.038-.467-.411-.723-.835-.568-.22.08-.44.25-.589.439-.327.418-.462.927-.484 1.465zm4.546 1.674h-1.295l.962-4.468h.902l.129.602c.087-.08.15-.135.208-.193.436-.443.97-.569 1.554-.485.589.083.932.491.902 1.107-.016.354-.1.706-.174 1.054-.166.787-.344 1.57-.522 2.372h-1.32l.567-2.498c.025-.11.06-.217.075-.326.035-.253.124-.537-.145-.7a.603.603 0 0 0 -.802.133 2.333 2.333 0 0 0 -.456.861c-.223.83-.389 1.674-.585 2.54zm-12.722-.013.96-4.457h.9l.137.63c.421-.513.918-.75 1.53-.727.806.03 1.26.54 1.113 1.361-.191 1.066-.441 2.12-.67 3.196h-1.34l.598-2.591c.027-.12.059-.24.079-.36.08-.512-.213-.772-.695-.61-.432.143-.614.51-.715.924-.185.758-.347 1.524-.52 2.286-.024.108-.052.216-.083.348h-1.293zm6.837-4.462-.991 4.476h-1.339l1.02-4.476zm8.44 9.272c-.914 0-1.373-.715-1.022-1.595.331-.83 1.326-1.319 2.114-1.04.497.177.75.617.661 1.156a1.77 1.77 0 0 1 -1.753 1.48zm-.35-1.101c.007.51.372.733.763.496a1.07 1.07 0 0 0 .534-1.006c-.008-.177-.11-.431-.24-.498-.15-.075-.414-.041-.57.051-.356.211-.456.6-.486.957zm7.893-1.526-.547 2.561c-.273.07-.534.073-.59-.257-.284.111-.556.274-.845.317-.343.05-.606-.2-.651-.56-.093-.74.166-1.344.733-1.792.576-.456 1.215-.51 1.9-.27zm-.799.404c-.199.056-.363.069-.49.145-.383.23-.569.608-.613 1.048-.014.143.084.297.131.445.15-.059.343-.077.441-.186.343-.381.424-.882.531-1.452zm-3.755-.396.044.196c.334-.097.65-.246.974-.268.436-.027.699.299.616.741-.12.645-.29 1.28-.439 1.921h-.794c.133-.53.267-1.035.384-1.544.042-.183.162-.422-.089-.532-.264-.116-.49.035-.583.277-.146.382-.243.786-.343 1.185-.175.695-.17.696-.922.601.098-.423.195-.843.294-1.262.072-.304.153-.606.219-.912.107-.484.102-.486.639-.403zm-21.86 2.62c.143-.57.286-1.085.393-1.608.03-.148-.046-.32-.075-.482-.183.059-.417.066-.534.191-.138.147-.19.392-.251.603-.093.32-.184.645-.236.973-.043.27-.162.359-.411.326-.135-.019-.275-.003-.442-.003l.611-2.607h.528l.069.197c.329-.098.636-.248.95-.268.455-.027.71.291.625.758-.106.593-.259 1.175-.407 1.758-.017.067-.124.145-.197.154-.191.022-.385.007-.623.007zm13.48-.059c-.272.04-.544.079-.597-.362-.128.11-.223.208-.334.284-.263.174-.548.21-.83.062-.274-.144-.341-.413-.346-.708-.018-1.175.992-2.107 2.138-1.965.168.02.334.066.52.104zm-.251-2.158c-.188.05-.342.056-.462.125-.4.227-.596.61-.641 1.063-.015.143.082.297.129.447.15-.06.343-.078.441-.186.344-.382.422-.883.533-1.449zm-4.867 2.218.615-2.613h.518l.079.214c.305-.1.6-.255.905-.28.487-.043.756.283.665.784-.105.583-.258 1.156-.403 1.73-.018.067-.124.147-.195.157-.191.022-.386.007-.622.007.132-.537.258-1.04.378-1.544.046-.196.178-.443-.1-.548-.261-.098-.49.046-.58.299-.15.428-.248.877-.373 1.317-.151.541-.005.468-.583.477h-.305zm-2.39-1.185c-.451 0-.893-.01-1.334.005-.119.005-.237.08-.355.124.081.168.125.428.252.484.213.093.479.062.724.068.091.001.185-.038.275-.06.143.38.127.459-.226.515-.357.057-.731.093-1.089.049-.454-.055-.692-.385-.723-.853-.05-.792.586-1.639 1.343-1.785.906-.175 1.378.398 1.133 1.453zm-1.529-.473h.845c.03-.236.012-.445-.239-.48-.314-.045-.486.158-.606.48zm10.27-.504-.377-.026.102-.456c.365.105.486-.138.593-.41.049-.123.134-.233.173-.36.096-.305.293-.346.575-.256l-.19 1.008.617.034c.028.36-.114.513-.453.451-.201-.037-.315.037-.35.269-.044.298-.129.589-.194.883-.099.443-.049.514.38.556.064.007.127.014.192.023.079.314-.031.426-.33.447-1.024.066-1.194-.131-.959-1.168.074-.321.144-.646.22-.995zm-11.195-.423c.012.342-.113.49-.419.433-.256-.048-.363.072-.399.333-.041.286-.127.565-.189.848-.09.413-.015.514.4.546l.188.014c.075.344-.084.437-.373.457-.97.064-1.157-.158-.937-1.137.075-.333.148-.668.226-1.019l-.354-.062c.023-.236.006-.468.341-.44.067.006.167-.084.209-.157.112-.19.218-.388.293-.597.102-.29.282-.362.583-.261l-.191 1.001.622.04zm-6.583 2.583c.31-1.28.604-2.504.91-3.726.02-.078.128-.177.205-.187.2-.027.404-.01.633-.01-.29 1.269-.568 2.5-.86 3.725-.02.08-.147.177-.235.19-.2.028-.406.008-.653.008zm10.549-2.623v.319c.353-.254.68-.544 1.131-.238-.187.244-.25.59-.693.492-.288-.062-.546.208-.616.511-.089.392-.194.78-.262 1.175-.047.27-.149.4-.425.35-.114-.02-.234-.004-.398-.004.092-.417.175-.802.262-1.188.079-.349.184-.692.235-1.044.046-.309.176-.427.469-.376.093.017.19.003.297.003zm3.458-8.073c-.002.536-.46.994-.986.99-.396-.004-.651-.272-.644-.674.01-.527.452-.97.966-.974.395-.002.666.266.664.658zm5.904 8.067h.725c-.037.196-.069.377-.109.554-.125.556-.27 1.106-.375 1.666-.056.303-.184.422-.476.372-.103-.019-.21-.003-.36-.003l.595-2.59zm.4-.267c-.199-.013-.343-.13-.337-.394.006-.291.266-.551.55-.544.24.006.383.13.377.394-.006.297-.258.544-.59.544zm-28.159-1.075c.27-.108.62-.075.565-.511-.486-.065-.497-.056-.565.511zm.81-1.331c-.504-.07-.551-.028-.546.487.243-.089.592-.05.546-.487zm-.483 1.68c-.478-.072-.478-.072-.566.415.47.084.475.081.566-.415zm-2.878-1.19c.287-.395.763-.095 1.003-.456-.202-.05-.395-.03-.581-.054-.311-.045-.419.108-.421.51zm.863.223c-.55-.154-.941-.095-.935.149.289-.09.611.09.935-.149z"/><path d="m15.066 10.468c.068-.567.079-.575.565-.511.055.436-.295.403-.565.511zm.81-1.331c.046.437-.303.398-.546.487-.005-.514.042-.556.546-.487zm-.483 1.68c-.091.496-.096.5-.566.415.088-.487.088-.487.566-.415zm-.692-4.589.235-1.073c.066-.006.119-.018.171-.014.238.022.525-.042.573.33.04.313-.188.64-.51.715-.133.031-.273.027-.469.042zm-2.186 3.4c.003-.402.111-.555.422-.511.187.025.379.005.582.054-.24.361-.717.061-1.004.456zm.863.222c-.323.239-.646.059-.935.149-.006-.244.385-.303.935-.149zm3.914-3.15c-.076.249-.116.462-.209.644-.041.081-.191.104-.292.153-.037-.094-.113-.193-.103-.281.022-.197.066-.398.146-.577.039-.088.18-.188.262-.176.078.01.137.16.196.238zm-6.509.002c-.078.23-.135.445-.228.643-.031.063-.159.106-.239.101-.039-.002-.107-.143-.097-.211.035-.219.079-.441.162-.643.034-.082.178-.116.272-.171z"/></g></svg>